<?xml version="1.0" encoding="utf-8" standalone="no"?>
<!DOCTYPE svg PUBLIC "-//W3C//DTD SVG 1.1//EN"
  "http://www.w3.org/Graphics/SVG/1.1/DTD/svg11.dtd">
<!-- Created with matplotlib (https://matplotlib.org/) -->
<svg height="1080pt" version="1.1" viewBox="0 0 1584 1080" width="1584pt" xmlns="http://www.w3.org/2000/svg" xmlns:xlink="http://www.w3.org/1999/xlink">
 <defs>
  <style type="text/css">
*{stroke-linecap:butt;stroke-linejoin:round;white-space:pre;}
  </style>
 </defs>
 <g id="figure_1">
  <g id="patch_1">
   <path d="M 0 1080 
L 1584 1080 
L 1584 0 
L 0 0 
z
" style="fill:#ffffff;"/>
  </g>
  <g id="axes_1">
   <g id="patch_2">
    <path d="M 44.783053 1046.64351 
L 787.918822 1046.64351 
L 787.918822 18.118365 
L 44.783053 18.118365 
z
" style="fill:#ffffff;"/>
   </g>
   <g id="matplotlib.axis_1">
    <g id="xtick_1">
     <g id="line2d_1">
      <path clip-path="url(#pa84cac1a07)" d="M 78.561951 1046.64351 
L 78.561951 18.118365 
" style="fill:none;stroke:#b0b0b0;stroke-linecap:square;stroke-width:0.8;"/>
     </g>
     <g id="line2d_2">
      <defs>
       <path d="M 0 0 
L 0 3.5 
" id="m0bfa0d9aec" style="stroke:#000000;stroke-width:0.8;"/>
      </defs>
      <g>
       <use style="stroke:#000000;stroke-width:0.8;" x="78.561951" xlink:href="#m0bfa0d9aec" y="1046.64351"/>
      </g>
     </g>
     <g id="text_1">
      <!-- 0 -->
      <defs>
       <path d="M 31.78125 66.40625 
Q 24.171875 66.40625 20.328125 58.90625 
Q 16.5 51.421875 16.5 36.375 
Q 16.5 21.390625 20.328125 13.890625 
Q 24.171875 6.390625 31.78125 6.390625 
Q 39.453125 6.390625 43.28125 13.890625 
Q 47.125 21.390625 47.125 36.375 
Q 47.125 51.421875 43.28125 58.90625 
Q 39.453125 66.40625 31.78125 66.40625 
z
M 31.78125 74.21875 
Q 44.046875 74.21875 50.515625 64.515625 
Q 56.984375 54.828125 56.984375 36.375 
Q 56.984375 17.96875 50.515625 8.265625 
Q 44.046875 -1.421875 31.78125 -1.421875 
Q 19.53125 -1.421875 13.0625 8.265625 
Q 6.59375 17.96875 6.59375 36.375 
Q 6.59375 54.828125 13.0625 64.515625 
Q 19.53125 74.21875 31.78125 74.21875 
z
" id="DejaVuSans-48"/>
      </defs>
      <g transform="translate(75.380701 1061.241947)scale(0.1 -0.1)">
       <use xlink:href="#DejaVuSans-48"/>
      </g>
     </g>
    </g>
    <g id="xtick_2">
     <g id="line2d_3">
      <path clip-path="url(#pa84cac1a07)" d="M 184.121009 1046.64351 
L 184.121009 18.118365 
" style="fill:none;stroke:#b0b0b0;stroke-linecap:square;stroke-width:0.8;"/>
     </g>
     <g id="line2d_4">
      <g>
       <use style="stroke:#000000;stroke-width:0.8;" x="184.121009" xlink:href="#m0bfa0d9aec" y="1046.64351"/>
      </g>
     </g>
     <g id="text_2">
      <!-- 1000 -->
      <defs>
       <path d="M 12.40625 8.296875 
L 28.515625 8.296875 
L 28.515625 63.921875 
L 10.984375 60.40625 
L 10.984375 69.390625 
L 28.421875 72.90625 
L 38.28125 72.90625 
L 38.28125 8.296875 
L 54.390625 8.296875 
L 54.390625 0 
L 12.40625 0 
z
" id="DejaVuSans-49"/>
      </defs>
      <g transform="translate(171.396009 1061.241947)scale(0.1 -0.1)">
       <use xlink:href="#DejaVuSans-49"/>
       <use x="63.623047" xlink:href="#DejaVuSans-48"/>
       <use x="127.246094" xlink:href="#DejaVuSans-48"/>
       <use x="190.869141" xlink:href="#DejaVuSans-48"/>
      </g>
     </g>
    </g>
    <g id="xtick_3">
     <g id="line2d_5">
      <path clip-path="url(#pa84cac1a07)" d="M 289.680068 1046.64351 
L 289.680068 18.118365 
" style="fill:none;stroke:#b0b0b0;stroke-linecap:square;stroke-width:0.8;"/>
     </g>
     <g id="line2d_6">
      <g>
       <use style="stroke:#000000;stroke-width:0.8;" x="289.680068" xlink:href="#m0bfa0d9aec" y="1046.64351"/>
      </g>
     </g>
     <g id="text_3">
      <!-- 2000 -->
      <defs>
       <path d="M 19.1875 8.296875 
L 53.609375 8.296875 
L 53.609375 0 
L 7.328125 0 
L 7.328125 8.296875 
Q 12.9375 14.109375 22.625 23.890625 
Q 32.328125 33.6875 34.8125 36.53125 
Q 39.546875 41.84375 41.421875 45.53125 
Q 43.3125 49.21875 43.3125 52.78125 
Q 43.3125 58.59375 39.234375 62.25 
Q 35.15625 65.921875 28.609375 65.921875 
Q 23.96875 65.921875 18.8125 64.3125 
Q 13.671875 62.703125 7.8125 59.421875 
L 7.8125 69.390625 
Q 13.765625 71.78125 18.9375 73 
Q 24.125 74.21875 28.421875 74.21875 
Q 39.75 74.21875 46.484375 68.546875 
Q 53.21875 62.890625 53.21875 53.421875 
Q 53.21875 48.921875 51.53125 44.890625 
Q 49.859375 40.875 45.40625 35.40625 
Q 44.1875 33.984375 37.640625 27.21875 
Q 31.109375 20.453125 19.1875 8.296875 
z
" id="DejaVuSans-50"/>
      </defs>
      <g transform="translate(276.955068 1061.241947)scale(0.1 -0.1)">
       <use xlink:href="#DejaVuSans-50"/>
       <use x="63.623047" xlink:href="#DejaVuSans-48"/>
       <use x="127.246094" xlink:href="#DejaVuSans-48"/>
       <use x="190.869141" xlink:href="#DejaVuSans-48"/>
      </g>
     </g>
    </g>
    <g id="xtick_4">
     <g id="line2d_7">
      <path clip-path="url(#pa84cac1a07)" d="M 395.239126 1046.64351 
L 395.239126 18.118365 
" style="fill:none;stroke:#b0b0b0;stroke-linecap:square;stroke-width:0.8;"/>
     </g>
     <g id="line2d_8">
      <g>
       <use style="stroke:#000000;stroke-width:0.8;" x="395.239126" xlink:href="#m0bfa0d9aec" y="1046.64351"/>
      </g>
     </g>
     <g id="text_4">
      <!-- 3000 -->
      <defs>
       <path d="M 40.578125 39.3125 
Q 47.65625 37.796875 51.625 33 
Q 55.609375 28.21875 55.609375 21.1875 
Q 55.609375 10.40625 48.1875 4.484375 
Q 40.765625 -1.421875 27.09375 -1.421875 
Q 22.515625 -1.421875 17.65625 -0.515625 
Q 12.796875 0.390625 7.625 2.203125 
L 7.625 11.71875 
Q 11.71875 9.328125 16.59375 8.109375 
Q 21.484375 6.890625 26.8125 6.890625 
Q 36.078125 6.890625 40.9375 10.546875 
Q 45.796875 14.203125 45.796875 21.1875 
Q 45.796875 27.640625 41.28125 31.265625 
Q 36.765625 34.90625 28.71875 34.90625 
L 20.21875 34.90625 
L 20.21875 43.015625 
L 29.109375 43.015625 
Q 36.375 43.015625 40.234375 45.921875 
Q 44.09375 48.828125 44.09375 54.296875 
Q 44.09375 59.90625 40.109375 62.90625 
Q 36.140625 65.921875 28.71875 65.921875 
Q 24.65625 65.921875 20.015625 65.03125 
Q 15.375 64.15625 9.8125 62.3125 
L 9.8125 71.09375 
Q 15.4375 72.65625 20.34375 73.4375 
Q 25.25 74.21875 29.59375 74.21875 
Q 40.828125 74.21875 47.359375 69.109375 
Q 53.90625 64.015625 53.90625 55.328125 
Q 53.90625 49.265625 50.4375 45.09375 
Q 46.96875 40.921875 40.578125 39.3125 
z
" id="DejaVuSans-51"/>
      </defs>
      <g transform="translate(382.514126 1061.241947)scale(0.1 -0.1)">
       <use xlink:href="#DejaVuSans-51"/>
       <use x="63.623047" xlink:href="#DejaVuSans-48"/>
       <use x="127.246094" xlink:href="#DejaVuSans-48"/>
       <use x="190.869141" xlink:href="#DejaVuSans-48"/>
      </g>
     </g>
    </g>
    <g id="xtick_5">
     <g id="line2d_9">
      <path clip-path="url(#pa84cac1a07)" d="M 500.798184 1046.64351 
L 500.798184 18.118365 
" style="fill:none;stroke:#b0b0b0;stroke-linecap:square;stroke-width:0.8;"/>
     </g>
     <g id="line2d_10">
      <g>
       <use style="stroke:#000000;stroke-width:0.8;" x="500.798184" xlink:href="#m0bfa0d9aec" y="1046.64351"/>
      </g>
     </g>
     <g id="text_5">
      <!-- 4000 -->
      <defs>
       <path d="M 37.796875 64.3125 
L 12.890625 25.390625 
L 37.796875 25.390625 
z
M 35.203125 72.90625 
L 47.609375 72.90625 
L 47.609375 25.390625 
L 58.015625 25.390625 
L 58.015625 17.1875 
L 47.609375 17.1875 
L 47.609375 0 
L 37.796875 0 
L 37.796875 17.1875 
L 4.890625 17.1875 
L 4.890625 26.703125 
z
" id="DejaVuSans-52"/>
      </defs>
      <g transform="translate(488.073184 1061.241947)scale(0.1 -0.1)">
       <use xlink:href="#DejaVuSans-52"/>
       <use x="63.623047" xlink:href="#DejaVuSans-48"/>
       <use x="127.246094" xlink:href="#DejaVuSans-48"/>
       <use x="190.869141" xlink:href="#DejaVuSans-48"/>
      </g>
     </g>
    </g>
    <g id="xtick_6">
     <g id="line2d_11">
      <path clip-path="url(#pa84cac1a07)" d="M 606.357242 1046.64351 
L 606.357242 18.118365 
" style="fill:none;stroke:#b0b0b0;stroke-linecap:square;stroke-width:0.8;"/>
     </g>
     <g id="line2d_12">
      <g>
       <use style="stroke:#000000;stroke-width:0.8;" x="606.357242" xlink:href="#m0bfa0d9aec" y="1046.64351"/>
      </g>
     </g>
     <g id="text_6">
      <!-- 5000 -->
      <defs>
       <path d="M 10.796875 72.90625 
L 49.515625 72.90625 
L 49.515625 64.59375 
L 19.828125 64.59375 
L 19.828125 46.734375 
Q 21.96875 47.46875 24.109375 47.828125 
Q 26.265625 48.1875 28.421875 48.1875 
Q 40.625 48.1875 47.75 41.5 
Q 54.890625 34.8125 54.890625 23.390625 
Q 54.890625 11.625 47.5625 5.09375 
Q 40.234375 -1.421875 26.90625 -1.421875 
Q 22.3125 -1.421875 17.546875 -0.640625 
Q 12.796875 0.140625 7.71875 1.703125 
L 7.71875 11.625 
Q 12.109375 9.234375 16.796875 8.0625 
Q 21.484375 6.890625 26.703125 6.890625 
Q 35.15625 6.890625 40.078125 11.328125 
Q 45.015625 15.765625 45.015625 23.390625 
Q 45.015625 31 40.078125 35.4375 
Q 35.15625 39.890625 26.703125 39.890625 
Q 22.75 39.890625 18.8125 39.015625 
Q 14.890625 38.140625 10.796875 36.28125 
z
" id="DejaVuSans-53"/>
      </defs>
      <g transform="translate(593.632242 1061.241947)scale(0.1 -0.1)">
       <use xlink:href="#DejaVuSans-53"/>
       <use x="63.623047" xlink:href="#DejaVuSans-48"/>
       <use x="127.246094" xlink:href="#DejaVuSans-48"/>
       <use x="190.869141" xlink:href="#DejaVuSans-48"/>
      </g>
     </g>
    </g>
    <g id="xtick_7">
     <g id="line2d_13">
      <path clip-path="url(#pa84cac1a07)" d="M 711.916301 1046.64351 
L 711.916301 18.118365 
" style="fill:none;stroke:#b0b0b0;stroke-linecap:square;stroke-width:0.8;"/>
     </g>
     <g id="line2d_14">
      <g>
       <use style="stroke:#000000;stroke-width:0.8;" x="711.916301" xlink:href="#m0bfa0d9aec" y="1046.64351"/>
      </g>
     </g>
     <g id="text_7">
      <!-- 6000 -->
      <defs>
       <path d="M 33.015625 40.375 
Q 26.375 40.375 22.484375 35.828125 
Q 18.609375 31.296875 18.609375 23.390625 
Q 18.609375 15.53125 22.484375 10.953125 
Q 26.375 6.390625 33.015625 6.390625 
Q 39.65625 6.390625 43.53125 10.953125 
Q 47.40625 15.53125 47.40625 23.390625 
Q 47.40625 31.296875 43.53125 35.828125 
Q 39.65625 40.375 33.015625 40.375 
z
M 52.59375 71.296875 
L 52.59375 62.3125 
Q 48.875 64.0625 45.09375 64.984375 
Q 41.3125 65.921875 37.59375 65.921875 
Q 27.828125 65.921875 22.671875 59.328125 
Q 17.53125 52.734375 16.796875 39.40625 
Q 19.671875 43.65625 24.015625 45.921875 
Q 28.375 48.1875 33.59375 48.1875 
Q 44.578125 48.1875 50.953125 41.515625 
Q 57.328125 34.859375 57.328125 23.390625 
Q 57.328125 12.15625 50.6875 5.359375 
Q 44.046875 -1.421875 33.015625 -1.421875 
Q 20.359375 -1.421875 13.671875 8.265625 
Q 6.984375 17.96875 6.984375 36.375 
Q 6.984375 53.65625 15.1875 63.9375 
Q 23.390625 74.21875 37.203125 74.21875 
Q 40.921875 74.21875 44.703125 73.484375 
Q 48.484375 72.75 52.59375 71.296875 
z
" id="DejaVuSans-54"/>
      </defs>
      <g transform="translate(699.191301 1061.241947)scale(0.1 -0.1)">
       <use xlink:href="#DejaVuSans-54"/>
       <use x="63.623047" xlink:href="#DejaVuSans-48"/>
       <use x="127.246094" xlink:href="#DejaVuSans-48"/>
       <use x="190.869141" xlink:href="#DejaVuSans-48"/>
      </g>
     </g>
    </g>
    <g id="text_8">
     <!-- Frequency -->
     <defs>
      <path d="M 9.8125 72.90625 
L 51.703125 72.90625 
L 51.703125 64.59375 
L 19.671875 64.59375 
L 19.671875 43.109375 
L 48.578125 43.109375 
L 48.578125 34.8125 
L 19.671875 34.8125 
L 19.671875 0 
L 9.8125 0 
z
" id="DejaVuSans-70"/>
      <path d="M 41.109375 46.296875 
Q 39.59375 47.171875 37.8125 47.578125 
Q 36.03125 48 33.890625 48 
Q 26.265625 48 22.1875 43.046875 
Q 18.109375 38.09375 18.109375 28.8125 
L 18.109375 0 
L 9.078125 0 
L 9.078125 54.6875 
L 18.109375 54.6875 
L 18.109375 46.1875 
Q 20.953125 51.171875 25.484375 53.578125 
Q 30.03125 56 36.53125 56 
Q 37.453125 56 38.578125 55.875 
Q 39.703125 55.765625 41.0625 55.515625 
z
" id="DejaVuSans-114"/>
      <path d="M 56.203125 29.59375 
L 56.203125 25.203125 
L 14.890625 25.203125 
Q 15.484375 15.921875 20.484375 11.0625 
Q 25.484375 6.203125 34.421875 6.203125 
Q 39.59375 6.203125 44.453125 7.46875 
Q 49.3125 8.734375 54.109375 11.28125 
L 54.109375 2.78125 
Q 49.265625 0.734375 44.1875 -0.34375 
Q 39.109375 -1.421875 33.890625 -1.421875 
Q 20.796875 -1.421875 13.15625 6.1875 
Q 5.515625 13.8125 5.515625 26.8125 
Q 5.515625 40.234375 12.765625 48.109375 
Q 20.015625 56 32.328125 56 
Q 43.359375 56 49.78125 48.890625 
Q 56.203125 41.796875 56.203125 29.59375 
z
M 47.21875 32.234375 
Q 47.125 39.59375 43.09375 43.984375 
Q 39.0625 48.390625 32.421875 48.390625 
Q 24.90625 48.390625 20.390625 44.140625 
Q 15.875 39.890625 15.1875 32.171875 
z
" id="DejaVuSans-101"/>
      <path d="M 14.796875 27.296875 
Q 14.796875 17.390625 18.875 11.75 
Q 22.953125 6.109375 30.078125 6.109375 
Q 37.203125 6.109375 41.296875 11.75 
Q 45.40625 17.390625 45.40625 27.296875 
Q 45.40625 37.203125 41.296875 42.84375 
Q 37.203125 48.484375 30.078125 48.484375 
Q 22.953125 48.484375 18.875 42.84375 
Q 14.796875 37.203125 14.796875 27.296875 
z
M 45.40625 8.203125 
Q 42.578125 3.328125 38.25 0.953125 
Q 33.9375 -1.421875 27.875 -1.421875 
Q 17.96875 -1.421875 11.734375 6.484375 
Q 5.515625 14.40625 5.515625 27.296875 
Q 5.515625 40.1875 11.734375 48.09375 
Q 17.96875 56 27.875 56 
Q 33.9375 56 38.25 53.625 
Q 42.578125 51.265625 45.40625 46.390625 
L 45.40625 54.6875 
L 54.390625 54.6875 
L 54.390625 -20.796875 
L 45.40625 -20.796875 
z
" id="DejaVuSans-113"/>
      <path d="M 8.5 21.578125 
L 8.5 54.6875 
L 17.484375 54.6875 
L 17.484375 21.921875 
Q 17.484375 14.15625 20.5 10.265625 
Q 23.53125 6.390625 29.59375 6.390625 
Q 36.859375 6.390625 41.078125 11.03125 
Q 45.3125 15.671875 45.3125 23.6875 
L 45.3125 54.6875 
L 54.296875 54.6875 
L 54.296875 0 
L 45.3125 0 
L 45.3125 8.40625 
Q 42.046875 3.421875 37.71875 1 
Q 33.40625 -1.421875 27.6875 -1.421875 
Q 18.265625 -1.421875 13.375 4.4375 
Q 8.5 10.296875 8.5 21.578125 
z
M 31.109375 56 
z
" id="DejaVuSans-117"/>
      <path d="M 54.890625 33.015625 
L 54.890625 0 
L 45.90625 0 
L 45.90625 32.71875 
Q 45.90625 40.484375 42.875 44.328125 
Q 39.84375 48.1875 33.796875 48.1875 
Q 26.515625 48.1875 22.3125 43.546875 
Q 18.109375 38.921875 18.109375 30.90625 
L 18.109375 0 
L 9.078125 0 
L 9.078125 54.6875 
L 18.109375 54.6875 
L 18.109375 46.1875 
Q 21.34375 51.125 25.703125 53.5625 
Q 30.078125 56 35.796875 56 
Q 45.21875 56 50.046875 50.171875 
Q 54.890625 44.34375 54.890625 33.015625 
z
" id="DejaVuSans-110"/>
      <path d="M 48.78125 52.59375 
L 48.78125 44.1875 
Q 44.96875 46.296875 41.140625 47.34375 
Q 37.3125 48.390625 33.40625 48.390625 
Q 24.65625 48.390625 19.8125 42.84375 
Q 14.984375 37.3125 14.984375 27.296875 
Q 14.984375 17.28125 19.8125 11.734375 
Q 24.65625 6.203125 33.40625 6.203125 
Q 37.3125 6.203125 41.140625 7.25 
Q 44.96875 8.296875 48.78125 10.40625 
L 48.78125 2.09375 
Q 45.015625 0.34375 40.984375 -0.53125 
Q 36.96875 -1.421875 32.421875 -1.421875 
Q 20.0625 -1.421875 12.78125 6.34375 
Q 5.515625 14.109375 5.515625 27.296875 
Q 5.515625 40.671875 12.859375 48.328125 
Q 20.21875 56 33.015625 56 
Q 37.15625 56 41.109375 55.140625 
Q 45.0625 54.296875 48.78125 52.59375 
z
" id="DejaVuSans-99"/>
      <path d="M 32.171875 -5.078125 
Q 28.375 -14.84375 24.75 -17.8125 
Q 21.140625 -20.796875 15.09375 -20.796875 
L 7.90625 -20.796875 
L 7.90625 -13.28125 
L 13.1875 -13.28125 
Q 16.890625 -13.28125 18.9375 -11.515625 
Q 21 -9.765625 23.484375 -3.21875 
L 25.09375 0.875 
L 2.984375 54.6875 
L 12.5 54.6875 
L 29.59375 11.921875 
L 46.6875 54.6875 
L 56.203125 54.6875 
z
" id="DejaVuSans-121"/>
     </defs>
     <g transform="translate(390.053281 1074.920072)scale(0.1 -0.1)">
      <use xlink:href="#DejaVuSans-70"/>
      <use x="57.410156" xlink:href="#DejaVuSans-114"/>
      <use x="98.492188" xlink:href="#DejaVuSans-101"/>
      <use x="160.015625" xlink:href="#DejaVuSans-113"/>
      <use x="223.492188" xlink:href="#DejaVuSans-117"/>
      <use x="286.871094" xlink:href="#DejaVuSans-101"/>
      <use x="348.394531" xlink:href="#DejaVuSans-110"/>
      <use x="411.773438" xlink:href="#DejaVuSans-99"/>
      <use x="466.753906" xlink:href="#DejaVuSans-121"/>
     </g>
    </g>
   </g>
   <g id="matplotlib.axis_2">
    <g id="ytick_1">
     <g id="line2d_15">
      <path clip-path="url(#pa84cac1a07)" d="M 44.783053 1046.64351 
L 787.918822 1046.64351 
" style="fill:none;stroke:#b0b0b0;stroke-linecap:square;stroke-width:0.8;"/>
     </g>
     <g id="line2d_16">
      <defs>
       <path d="M 0 0 
L -3.5 0 
" id="mb3447f2c8e" style="stroke:#000000;stroke-width:0.8;"/>
      </defs>
      <g>
       <use style="stroke:#000000;stroke-width:0.8;" x="44.783053" xlink:href="#mb3447f2c8e" y="1046.64351"/>
      </g>
     </g>
     <g id="text_9">
      <!-- −60 -->
      <defs>
       <path d="M 10.59375 35.5 
L 73.1875 35.5 
L 73.1875 27.203125 
L 10.59375 27.203125 
z
" id="DejaVuSans-8722"/>
      </defs>
      <g transform="translate(16.678365 1050.442729)scale(0.1 -0.1)">
       <use xlink:href="#DejaVuSans-8722"/>
       <use x="83.789062" xlink:href="#DejaVuSans-54"/>
       <use x="147.412109" xlink:href="#DejaVuSans-48"/>
      </g>
     </g>
    </g>
    <g id="ytick_2">
     <g id="line2d_17">
      <path clip-path="url(#pa84cac1a07)" d="M 44.783053 918.077867 
L 787.918822 918.077867 
" style="fill:none;stroke:#b0b0b0;stroke-linecap:square;stroke-width:0.8;"/>
     </g>
     <g id="line2d_18">
      <g>
       <use style="stroke:#000000;stroke-width:0.8;" x="44.783053" xlink:href="#mb3447f2c8e" y="918.077867"/>
      </g>
     </g>
     <g id="text_10">
      <!-- −50 -->
      <g transform="translate(16.678365 921.877086)scale(0.1 -0.1)">
       <use xlink:href="#DejaVuSans-8722"/>
       <use x="83.789062" xlink:href="#DejaVuSans-53"/>
       <use x="147.412109" xlink:href="#DejaVuSans-48"/>
      </g>
     </g>
    </g>
    <g id="ytick_3">
     <g id="line2d_19">
      <path clip-path="url(#pa84cac1a07)" d="M 44.783053 789.512224 
L 787.918822 789.512224 
" style="fill:none;stroke:#b0b0b0;stroke-linecap:square;stroke-width:0.8;"/>
     </g>
     <g id="line2d_20">
      <g>
       <use style="stroke:#000000;stroke-width:0.8;" x="44.783053" xlink:href="#mb3447f2c8e" y="789.512224"/>
      </g>
     </g>
     <g id="text_11">
      <!-- −40 -->
      <g transform="translate(16.678365 793.311442)scale(0.1 -0.1)">
       <use xlink:href="#DejaVuSans-8722"/>
       <use x="83.789062" xlink:href="#DejaVuSans-52"/>
       <use x="147.412109" xlink:href="#DejaVuSans-48"/>
      </g>
     </g>
    </g>
    <g id="ytick_4">
     <g id="line2d_21">
      <path clip-path="url(#pa84cac1a07)" d="M 44.783053 660.946581 
L 787.918822 660.946581 
" style="fill:none;stroke:#b0b0b0;stroke-linecap:square;stroke-width:0.8;"/>
     </g>
     <g id="line2d_22">
      <g>
       <use style="stroke:#000000;stroke-width:0.8;" x="44.783053" xlink:href="#mb3447f2c8e" y="660.946581"/>
      </g>
     </g>
     <g id="text_12">
      <!-- −30 -->
      <g transform="translate(16.678365 664.745799)scale(0.1 -0.1)">
       <use xlink:href="#DejaVuSans-8722"/>
       <use x="83.789062" xlink:href="#DejaVuSans-51"/>
       <use x="147.412109" xlink:href="#DejaVuSans-48"/>
      </g>
     </g>
    </g>
    <g id="ytick_5">
     <g id="line2d_23">
      <path clip-path="url(#pa84cac1a07)" d="M 44.783053 532.380937 
L 787.918822 532.380937 
" style="fill:none;stroke:#b0b0b0;stroke-linecap:square;stroke-width:0.8;"/>
     </g>
     <g id="line2d_24">
      <g>
       <use style="stroke:#000000;stroke-width:0.8;" x="44.783053" xlink:href="#mb3447f2c8e" y="532.380937"/>
      </g>
     </g>
     <g id="text_13">
      <!-- −20 -->
      <g transform="translate(16.678365 536.180156)scale(0.1 -0.1)">
       <use xlink:href="#DejaVuSans-8722"/>
       <use x="83.789062" xlink:href="#DejaVuSans-50"/>
       <use x="147.412109" xlink:href="#DejaVuSans-48"/>
      </g>
     </g>
    </g>
    <g id="ytick_6">
     <g id="line2d_25">
      <path clip-path="url(#pa84cac1a07)" d="M 44.783053 403.815294 
L 787.918822 403.815294 
" style="fill:none;stroke:#b0b0b0;stroke-linecap:square;stroke-width:0.8;"/>
     </g>
     <g id="line2d_26">
      <g>
       <use style="stroke:#000000;stroke-width:0.8;" x="44.783053" xlink:href="#mb3447f2c8e" y="403.815294"/>
      </g>
     </g>
     <g id="text_14">
      <!-- −10 -->
      <g transform="translate(16.678365 407.614513)scale(0.1 -0.1)">
       <use xlink:href="#DejaVuSans-8722"/>
       <use x="83.789062" xlink:href="#DejaVuSans-49"/>
       <use x="147.412109" xlink:href="#DejaVuSans-48"/>
      </g>
     </g>
    </g>
    <g id="ytick_7">
     <g id="line2d_27">
      <path clip-path="url(#pa84cac1a07)" d="M 44.783053 275.249651 
L 787.918822 275.249651 
" style="fill:none;stroke:#b0b0b0;stroke-linecap:square;stroke-width:0.8;"/>
     </g>
     <g id="line2d_28">
      <g>
       <use style="stroke:#000000;stroke-width:0.8;" x="44.783053" xlink:href="#mb3447f2c8e" y="275.249651"/>
      </g>
     </g>
     <g id="text_15">
      <!-- 0 -->
      <g transform="translate(31.420553 279.04887)scale(0.1 -0.1)">
       <use xlink:href="#DejaVuSans-48"/>
      </g>
     </g>
    </g>
    <g id="ytick_8">
     <g id="line2d_29">
      <path clip-path="url(#pa84cac1a07)" d="M 44.783053 146.684008 
L 787.918822 146.684008 
" style="fill:none;stroke:#b0b0b0;stroke-linecap:square;stroke-width:0.8;"/>
     </g>
     <g id="line2d_30">
      <g>
       <use style="stroke:#000000;stroke-width:0.8;" x="44.783053" xlink:href="#mb3447f2c8e" y="146.684008"/>
      </g>
     </g>
     <g id="text_16">
      <!-- 10 -->
      <g transform="translate(25.058053 150.483227)scale(0.1 -0.1)">
       <use xlink:href="#DejaVuSans-49"/>
       <use x="63.623047" xlink:href="#DejaVuSans-48"/>
      </g>
     </g>
    </g>
    <g id="ytick_9">
     <g id="line2d_31">
      <path clip-path="url(#pa84cac1a07)" d="M 44.783053 18.118365 
L 787.918822 18.118365 
" style="fill:none;stroke:#b0b0b0;stroke-linecap:square;stroke-width:0.8;"/>
     </g>
     <g id="line2d_32">
      <g>
       <use style="stroke:#000000;stroke-width:0.8;" x="44.783053" xlink:href="#mb3447f2c8e" y="18.118365"/>
      </g>
     </g>
     <g id="text_17">
      <!-- 20 -->
      <g transform="translate(25.058053 21.917584)scale(0.1 -0.1)">
       <use xlink:href="#DejaVuSans-50"/>
       <use x="63.623047" xlink:href="#DejaVuSans-48"/>
      </g>
     </g>
    </g>
    <g id="text_18">
     <!-- Power Spectral Density (dB/Hz) -->
     <defs>
      <path d="M 19.671875 64.796875 
L 19.671875 37.40625 
L 32.078125 37.40625 
Q 38.96875 37.40625 42.71875 40.96875 
Q 46.484375 44.53125 46.484375 51.125 
Q 46.484375 57.671875 42.71875 61.234375 
Q 38.96875 64.796875 32.078125 64.796875 
z
M 9.8125 72.90625 
L 32.078125 72.90625 
Q 44.34375 72.90625 50.609375 67.359375 
Q 56.890625 61.8125 56.890625 51.125 
Q 56.890625 40.328125 50.609375 34.8125 
Q 44.34375 29.296875 32.078125 29.296875 
L 19.671875 29.296875 
L 19.671875 0 
L 9.8125 0 
z
" id="DejaVuSans-80"/>
      <path d="M 30.609375 48.390625 
Q 23.390625 48.390625 19.1875 42.75 
Q 14.984375 37.109375 14.984375 27.296875 
Q 14.984375 17.484375 19.15625 11.84375 
Q 23.34375 6.203125 30.609375 6.203125 
Q 37.796875 6.203125 41.984375 11.859375 
Q 46.1875 17.53125 46.1875 27.296875 
Q 46.1875 37.015625 41.984375 42.703125 
Q 37.796875 48.390625 30.609375 48.390625 
z
M 30.609375 56 
Q 42.328125 56 49.015625 48.375 
Q 55.71875 40.765625 55.71875 27.296875 
Q 55.71875 13.875 49.015625 6.21875 
Q 42.328125 -1.421875 30.609375 -1.421875 
Q 18.84375 -1.421875 12.171875 6.21875 
Q 5.515625 13.875 5.515625 27.296875 
Q 5.515625 40.765625 12.171875 48.375 
Q 18.84375 56 30.609375 56 
z
" id="DejaVuSans-111"/>
      <path d="M 4.203125 54.6875 
L 13.1875 54.6875 
L 24.421875 12.015625 
L 35.59375 54.6875 
L 46.1875 54.6875 
L 57.421875 12.015625 
L 68.609375 54.6875 
L 77.59375 54.6875 
L 63.28125 0 
L 52.6875 0 
L 40.921875 44.828125 
L 29.109375 0 
L 18.5 0 
z
" id="DejaVuSans-119"/>
      <path id="DejaVuSans-32"/>
      <path d="M 53.515625 70.515625 
L 53.515625 60.890625 
Q 47.90625 63.578125 42.921875 64.890625 
Q 37.9375 66.21875 33.296875 66.21875 
Q 25.25 66.21875 20.875 63.09375 
Q 16.5 59.96875 16.5 54.203125 
Q 16.5 49.359375 19.40625 46.890625 
Q 22.3125 44.4375 30.421875 42.921875 
L 36.375 41.703125 
Q 47.40625 39.59375 52.65625 34.296875 
Q 57.90625 29 57.90625 20.125 
Q 57.90625 9.515625 50.796875 4.046875 
Q 43.703125 -1.421875 29.984375 -1.421875 
Q 24.8125 -1.421875 18.96875 -0.25 
Q 13.140625 0.921875 6.890625 3.21875 
L 6.890625 13.375 
Q 12.890625 10.015625 18.65625 8.296875 
Q 24.421875 6.59375 29.984375 6.59375 
Q 38.421875 6.59375 43.015625 9.90625 
Q 47.609375 13.234375 47.609375 19.390625 
Q 47.609375 24.75 44.3125 27.78125 
Q 41.015625 30.8125 33.5 32.328125 
L 27.484375 33.5 
Q 16.453125 35.6875 11.515625 40.375 
Q 6.59375 45.0625 6.59375 53.421875 
Q 6.59375 63.09375 13.40625 68.65625 
Q 20.21875 74.21875 32.171875 74.21875 
Q 37.3125 74.21875 42.625 73.28125 
Q 47.953125 72.359375 53.515625 70.515625 
z
" id="DejaVuSans-83"/>
      <path d="M 18.109375 8.203125 
L 18.109375 -20.796875 
L 9.078125 -20.796875 
L 9.078125 54.6875 
L 18.109375 54.6875 
L 18.109375 46.390625 
Q 20.953125 51.265625 25.265625 53.625 
Q 29.59375 56 35.59375 56 
Q 45.5625 56 51.78125 48.09375 
Q 58.015625 40.1875 58.015625 27.296875 
Q 58.015625 14.40625 51.78125 6.484375 
Q 45.5625 -1.421875 35.59375 -1.421875 
Q 29.59375 -1.421875 25.265625 0.953125 
Q 20.953125 3.328125 18.109375 8.203125 
z
M 48.6875 27.296875 
Q 48.6875 37.203125 44.609375 42.84375 
Q 40.53125 48.484375 33.40625 48.484375 
Q 26.265625 48.484375 22.1875 42.84375 
Q 18.109375 37.203125 18.109375 27.296875 
Q 18.109375 17.390625 22.1875 11.75 
Q 26.265625 6.109375 33.40625 6.109375 
Q 40.53125 6.109375 44.609375 11.75 
Q 48.6875 17.390625 48.6875 27.296875 
z
" id="DejaVuSans-112"/>
      <path d="M 18.3125 70.21875 
L 18.3125 54.6875 
L 36.8125 54.6875 
L 36.8125 47.703125 
L 18.3125 47.703125 
L 18.3125 18.015625 
Q 18.3125 11.328125 20.140625 9.421875 
Q 21.96875 7.515625 27.59375 7.515625 
L 36.8125 7.515625 
L 36.8125 0 
L 27.59375 0 
Q 17.1875 0 13.234375 3.875 
Q 9.28125 7.765625 9.28125 18.015625 
L 9.28125 47.703125 
L 2.6875 47.703125 
L 2.6875 54.6875 
L 9.28125 54.6875 
L 9.28125 70.21875 
z
" id="DejaVuSans-116"/>
      <path d="M 34.28125 27.484375 
Q 23.390625 27.484375 19.1875 25 
Q 14.984375 22.515625 14.984375 16.5 
Q 14.984375 11.71875 18.140625 8.90625 
Q 21.296875 6.109375 26.703125 6.109375 
Q 34.1875 6.109375 38.703125 11.40625 
Q 43.21875 16.703125 43.21875 25.484375 
L 43.21875 27.484375 
z
M 52.203125 31.203125 
L 52.203125 0 
L 43.21875 0 
L 43.21875 8.296875 
Q 40.140625 3.328125 35.546875 0.953125 
Q 30.953125 -1.421875 24.3125 -1.421875 
Q 15.921875 -1.421875 10.953125 3.296875 
Q 6 8.015625 6 15.921875 
Q 6 25.140625 12.171875 29.828125 
Q 18.359375 34.515625 30.609375 34.515625 
L 43.21875 34.515625 
L 43.21875 35.40625 
Q 43.21875 41.609375 39.140625 45 
Q 35.0625 48.390625 27.6875 48.390625 
Q 23 48.390625 18.546875 47.265625 
Q 14.109375 46.140625 10.015625 43.890625 
L 10.015625 52.203125 
Q 14.9375 54.109375 19.578125 55.046875 
Q 24.21875 56 28.609375 56 
Q 40.484375 56 46.34375 49.84375 
Q 52.203125 43.703125 52.203125 31.203125 
z
" id="DejaVuSans-97"/>
      <path d="M 9.421875 75.984375 
L 18.40625 75.984375 
L 18.40625 0 
L 9.421875 0 
z
" id="DejaVuSans-108"/>
      <path d="M 19.671875 64.796875 
L 19.671875 8.109375 
L 31.59375 8.109375 
Q 46.6875 8.109375 53.6875 14.9375 
Q 60.6875 21.78125 60.6875 36.53125 
Q 60.6875 51.171875 53.6875 57.984375 
Q 46.6875 64.796875 31.59375 64.796875 
z
M 9.8125 72.90625 
L 30.078125 72.90625 
Q 51.265625 72.90625 61.171875 64.09375 
Q 71.09375 55.28125 71.09375 36.53125 
Q 71.09375 17.671875 61.125 8.828125 
Q 51.171875 0 30.078125 0 
L 9.8125 0 
z
" id="DejaVuSans-68"/>
      <path d="M 44.28125 53.078125 
L 44.28125 44.578125 
Q 40.484375 46.53125 36.375 47.5 
Q 32.28125 48.484375 27.875 48.484375 
Q 21.1875 48.484375 17.84375 46.4375 
Q 14.5 44.390625 14.5 40.28125 
Q 14.5 37.15625 16.890625 35.375 
Q 19.28125 33.59375 26.515625 31.984375 
L 29.59375 31.296875 
Q 39.15625 29.25 43.1875 25.515625 
Q 47.21875 21.78125 47.21875 15.09375 
Q 47.21875 7.46875 41.1875 3.015625 
Q 35.15625 -1.421875 24.609375 -1.421875 
Q 20.21875 -1.421875 15.453125 -0.5625 
Q 10.6875 0.296875 5.421875 2 
L 5.421875 11.28125 
Q 10.40625 8.6875 15.234375 7.390625 
Q 20.0625 6.109375 24.8125 6.109375 
Q 31.15625 6.109375 34.5625 8.28125 
Q 37.984375 10.453125 37.984375 14.40625 
Q 37.984375 18.0625 35.515625 20.015625 
Q 33.0625 21.96875 24.703125 23.78125 
L 21.578125 24.515625 
Q 13.234375 26.265625 9.515625 29.90625 
Q 5.8125 33.546875 5.8125 39.890625 
Q 5.8125 47.609375 11.28125 51.796875 
Q 16.75 56 26.8125 56 
Q 31.78125 56 36.171875 55.265625 
Q 40.578125 54.546875 44.28125 53.078125 
z
" id="DejaVuSans-115"/>
      <path d="M 9.421875 54.6875 
L 18.40625 54.6875 
L 18.40625 0 
L 9.421875 0 
z
M 9.421875 75.984375 
L 18.40625 75.984375 
L 18.40625 64.59375 
L 9.421875 64.59375 
z
" id="DejaVuSans-105"/>
      <path d="M 31 75.875 
Q 24.46875 64.65625 21.28125 53.65625 
Q 18.109375 42.671875 18.109375 31.390625 
Q 18.109375 20.125 21.3125 9.0625 
Q 24.515625 -2 31 -13.1875 
L 23.1875 -13.1875 
Q 15.875 -1.703125 12.234375 9.375 
Q 8.59375 20.453125 8.59375 31.390625 
Q 8.59375 42.28125 12.203125 53.3125 
Q 15.828125 64.359375 23.1875 75.875 
z
" id="DejaVuSans-40"/>
      <path d="M 45.40625 46.390625 
L 45.40625 75.984375 
L 54.390625 75.984375 
L 54.390625 0 
L 45.40625 0 
L 45.40625 8.203125 
Q 42.578125 3.328125 38.25 0.953125 
Q 33.9375 -1.421875 27.875 -1.421875 
Q 17.96875 -1.421875 11.734375 6.484375 
Q 5.515625 14.40625 5.515625 27.296875 
Q 5.515625 40.1875 11.734375 48.09375 
Q 17.96875 56 27.875 56 
Q 33.9375 56 38.25 53.625 
Q 42.578125 51.265625 45.40625 46.390625 
z
M 14.796875 27.296875 
Q 14.796875 17.390625 18.875 11.75 
Q 22.953125 6.109375 30.078125 6.109375 
Q 37.203125 6.109375 41.296875 11.75 
Q 45.40625 17.390625 45.40625 27.296875 
Q 45.40625 37.203125 41.296875 42.84375 
Q 37.203125 48.484375 30.078125 48.484375 
Q 22.953125 48.484375 18.875 42.84375 
Q 14.796875 37.203125 14.796875 27.296875 
z
" id="DejaVuSans-100"/>
      <path d="M 19.671875 34.8125 
L 19.671875 8.109375 
L 35.5 8.109375 
Q 43.453125 8.109375 47.28125 11.40625 
Q 51.125 14.703125 51.125 21.484375 
Q 51.125 28.328125 47.28125 31.5625 
Q 43.453125 34.8125 35.5 34.8125 
z
M 19.671875 64.796875 
L 19.671875 42.828125 
L 34.28125 42.828125 
Q 41.5 42.828125 45.03125 45.53125 
Q 48.578125 48.25 48.578125 53.8125 
Q 48.578125 59.328125 45.03125 62.0625 
Q 41.5 64.796875 34.28125 64.796875 
z
M 9.8125 72.90625 
L 35.015625 72.90625 
Q 46.296875 72.90625 52.390625 68.21875 
Q 58.5 63.53125 58.5 54.890625 
Q 58.5 48.1875 55.375 44.234375 
Q 52.25 40.28125 46.1875 39.3125 
Q 53.46875 37.75 57.5 32.78125 
Q 61.53125 27.828125 61.53125 20.40625 
Q 61.53125 10.640625 54.890625 5.3125 
Q 48.25 0 35.984375 0 
L 9.8125 0 
z
" id="DejaVuSans-66"/>
      <path d="M 25.390625 72.90625 
L 33.6875 72.90625 
L 8.296875 -9.28125 
L 0 -9.28125 
z
" id="DejaVuSans-47"/>
      <path d="M 9.8125 72.90625 
L 19.671875 72.90625 
L 19.671875 43.015625 
L 55.515625 43.015625 
L 55.515625 72.90625 
L 65.375 72.90625 
L 65.375 0 
L 55.515625 0 
L 55.515625 34.71875 
L 19.671875 34.71875 
L 19.671875 0 
L 9.8125 0 
z
" id="DejaVuSans-72"/>
      <path d="M 5.515625 54.6875 
L 48.1875 54.6875 
L 48.1875 46.484375 
L 14.40625 7.171875 
L 48.1875 7.171875 
L 48.1875 0 
L 4.296875 0 
L 4.296875 8.203125 
L 38.09375 47.515625 
L 5.515625 47.515625 
z
" id="DejaVuSans-122"/>
      <path d="M 8.015625 75.875 
L 15.828125 75.875 
Q 23.140625 64.359375 26.78125 53.3125 
Q 30.421875 42.28125 30.421875 31.390625 
Q 30.421875 20.453125 26.78125 9.375 
Q 23.140625 -1.703125 15.828125 -13.1875 
L 8.015625 -13.1875 
Q 14.5 -2 17.703125 9.0625 
Q 20.90625 20.125 20.90625 31.390625 
Q 20.90625 42.671875 17.703125 53.65625 
Q 14.5 64.65625 8.015625 75.875 
z
" id="DejaVuSans-41"/>
     </defs>
     <g transform="translate(10.598678 610.667656)rotate(-90)scale(0.1 -0.1)">
      <use xlink:href="#DejaVuSans-80"/>
      <use x="60.255859" xlink:href="#DejaVuSans-111"/>
      <use x="121.4375" xlink:href="#DejaVuSans-119"/>
      <use x="203.224609" xlink:href="#DejaVuSans-101"/>
      <use x="264.748047" xlink:href="#DejaVuSans-114"/>
      <use x="305.861328" xlink:href="#DejaVuSans-32"/>
      <use x="337.648438" xlink:href="#DejaVuSans-83"/>
      <use x="401.125" xlink:href="#DejaVuSans-112"/>
      <use x="464.601562" xlink:href="#DejaVuSans-101"/>
      <use x="526.125" xlink:href="#DejaVuSans-99"/>
      <use x="581.105469" xlink:href="#DejaVuSans-116"/>
      <use x="620.314453" xlink:href="#DejaVuSans-114"/>
      <use x="661.427734" xlink:href="#DejaVuSans-97"/>
      <use x="722.707031" xlink:href="#DejaVuSans-108"/>
      <use x="750.490234" xlink:href="#DejaVuSans-32"/>
      <use x="782.277344" xlink:href="#DejaVuSans-68"/>
      <use x="859.279297" xlink:href="#DejaVuSans-101"/>
      <use x="920.802734" xlink:href="#DejaVuSans-110"/>
      <use x="984.181641" xlink:href="#DejaVuSans-115"/>
      <use x="1036.28125" xlink:href="#DejaVuSans-105"/>
      <use x="1064.064453" xlink:href="#DejaVuSans-116"/>
      <use x="1103.273438" xlink:href="#DejaVuSans-121"/>
      <use x="1162.453125" xlink:href="#DejaVuSans-32"/>
      <use x="1194.240234" xlink:href="#DejaVuSans-40"/>
      <use x="1233.253906" xlink:href="#DejaVuSans-100"/>
      <use x="1296.730469" xlink:href="#DejaVuSans-66"/>
      <use x="1365.333984" xlink:href="#DejaVuSans-47"/>
      <use x="1399.025391" xlink:href="#DejaVuSans-72"/>
      <use x="1474.220703" xlink:href="#DejaVuSans-122"/>
      <use x="1526.710938" xlink:href="#DejaVuSans-41"/>
     </g>
    </g>
   </g>
   <g id="line2d_33">
    <path clip-path="url(#pa84cac1a07)" d="M 78.561951 801.196295 
L 79.881439 763.019826 
L 81.200928 764.52873 
L 82.520416 766.818625 
L 85.159392 772.352453 
L 86.478881 774.757293 
L 87.798369 776.448369 
L 89.117857 777.294881 
L 90.437345 777.405509 
L 93.076322 776.683944 
L 94.39581 776.566238 
L 95.715298 776.957146 
L 97.034786 777.952114 
L 98.354275 779.509522 
L 100.993251 783.610025 
L 102.312739 785.674354 
L 103.632227 787.471179 
L 104.951716 788.918526 
L 107.590692 791.098434 
L 108.91018 792.217442 
L 110.229669 793.61529 
L 111.549157 795.368447 
L 114.188133 799.313894 
L 115.507622 800.639274 
L 116.82711 800.68872 
L 118.146598 798.896932 
L 119.466086 795.053252 
L 120.785574 789.41764 
L 123.424551 775.296957 
L 126.063527 761.40677 
L 127.383016 755.393451 
L 128.702504 750.089962 
L 130.021992 745.406951 
L 132.660968 737.221164 
L 136.619433 725.232724 
L 140.577898 712.423284 
L 141.897386 708.612279 
L 143.216874 705.461532 
L 144.536363 703.251414 
L 145.855851 702.245893 
L 147.175339 702.680202 
L 148.494827 704.754903 
L 149.814315 708.633776 
L 151.133804 714.44264 
L 152.453292 722.266111 
L 153.77278 732.138785 
L 155.092268 744.025922 
L 156.411757 757.786112 
L 159.050733 789.391164 
L 160.370221 805.640406 
L 161.689709 820.356271 
L 163.009198 831.726003 
L 164.328686 838.235641 
L 165.648174 839.414196 
L 166.967662 835.963547 
L 168.287151 829.168659 
L 169.606639 820.280096 
L 174.884592 780.020837 
L 176.20408 771.29589 
L 177.523568 763.739338 
L 178.843056 757.540674 
L 180.162545 752.836186 
L 181.482033 749.716158 
L 182.801521 748.2292 
L 184.121009 748.383849 
L 185.440498 750.147762 
L 186.759986 753.44496 
L 188.079474 758.151871 
L 189.398962 764.093287 
L 190.718451 771.039956 
L 193.357427 786.776285 
L 195.996403 802.657895 
L 197.315892 809.748425 
L 198.63538 815.810927 
L 199.954868 820.489714 
L 201.274356 823.336395 
L 202.593845 823.702008 
L 203.913333 820.709556 
L 205.232821 813.494314 
L 206.552309 801.739833 
L 207.871797 786.086075 
L 210.510774 748.829174 
L 213.14975 712.39995 
L 214.469239 696.418146 
L 215.788727 682.360632 
L 217.108215 670.350569 
L 218.427703 660.422331 
L 219.747192 652.554973 
L 221.06668 646.690942 
L 222.386168 642.745992 
L 223.705656 640.614068 
L 225.025144 640.169301 
L 226.344633 641.266379 
L 227.664121 643.739976 
L 228.983609 647.403628 
L 230.303097 652.048451 
L 231.622586 657.442323 
L 238.220027 686.38211 
L 239.539515 690.805421 
L 240.859003 694.395972 
L 242.178491 697.152538 
L 243.49798 699.163999 
L 244.817468 700.594768 
L 248.775933 703.680518 
L 250.095421 705.095955 
L 251.414909 707.035391 
L 252.734397 709.625387 
L 254.053885 712.932807 
L 255.373374 716.962842 
L 256.692862 721.660779 
L 259.331838 732.573607 
L 263.290303 749.856698 
L 264.609791 754.92223 
L 265.92928 759.226894 
L 267.248768 762.547236 
L 268.568256 764.707356 
L 269.887744 765.599503 
L 271.207232 765.187373 
L 272.526721 763.484828 
L 273.846209 760.520572 
L 275.165697 756.314846 
L 276.485185 750.892218 
L 277.804674 744.331585 
L 280.44365 728.699289 
L 283.082626 712.394867 
L 284.402115 705.160687 
L 285.721603 699.089107 
L 287.041091 694.495341 
L 288.360579 691.616317 
L 289.680068 690.622852 
L 290.999556 691.633486 
L 292.319044 694.726033 
L 293.638532 699.945162 
L 294.958021 707.305196 
L 296.277509 716.787264 
L 297.596997 728.329168 
L 298.916485 741.805012 
L 300.235973 756.990186 
L 305.513926 823.629243 
L 306.833415 836.900651 
L 308.152903 846.835466 
L 309.472391 853.359189 
L 310.791879 857.124913 
L 312.111367 859.126016 
L 316.069832 862.812888 
L 317.38932 864.889408 
L 318.708809 867.737019 
L 320.028297 871.365326 
L 321.347785 875.675354 
L 325.30625 890.208617 
L 326.625738 894.396844 
L 327.945226 897.6509 
L 329.264714 899.754015 
L 330.584203 900.671577 
L 331.903691 900.550941 
L 333.223179 899.671279 
L 337.181644 895.799274 
L 338.501132 895.024696 
L 339.82062 894.787474 
L 341.140109 895.116629 
L 342.459597 895.935596 
L 345.098573 898.177469 
L 346.418061 898.918828 
L 347.73755 898.873233 
L 349.057038 897.707534 
L 350.376526 895.264482 
L 351.696014 891.621175 
L 353.015503 887.068807 
L 356.973967 872.250537 
L 358.293455 868.258552 
L 359.612944 865.229964 
L 360.932432 863.345969 
L 362.25192 862.727567 
L 363.571408 863.446051 
L 364.890897 865.529411 
L 366.210385 868.964048 
L 367.529873 873.69186 
L 368.849361 879.60313 
L 370.16885 886.52641 
L 372.807826 902.357277 
L 375.446802 918.382454 
L 376.766291 925.439134 
L 378.085779 931.419669 
L 379.405267 936.179307 
L 380.724755 939.749155 
L 382.044244 942.299678 
L 383.363732 944.07399 
L 384.68322 945.323363 
L 386.002708 946.264814 
L 391.280661 949.492169 
L 393.919638 951.444176 
L 396.558614 953.695052 
L 399.197591 956.27396 
L 405.795032 963.335911 
L 407.11452 964.409123 
L 408.434008 965.211633 
L 409.753496 965.710949 
L 411.072985 965.9039 
L 412.392473 965.810161 
L 413.711961 965.459604 
L 415.031449 964.878359 
L 416.350937 964.078387 
L 417.670426 963.053605 
L 418.989914 961.783298 
L 420.309402 960.241436 
L 421.62889 958.408989 
L 422.948379 956.285598 
L 425.587355 951.296759 
L 432.184796 937.8531 
L 434.823773 933.263467 
L 441.421214 922.344999 
L 444.06019 918.094966 
L 445.379679 916.356182 
L 446.699167 915.072609 
L 448.018655 914.378489 
L 449.338143 914.37502 
L 450.657631 915.116101 
L 451.97712 916.596117 
L 453.296608 918.738366 
L 454.616096 921.384196 
L 457.255073 927.111405 
L 458.574561 929.469762 
L 459.894049 930.968967 
L 461.213537 931.297271 
L 462.533025 930.301679 
L 463.852514 928.023622 
L 465.172002 924.671559 
L 466.49149 920.547933 
L 473.088931 897.655054 
L 474.40842 893.701065 
L 475.727908 890.115537 
L 477.047396 886.935489 
L 478.366884 884.201379 
L 479.686372 881.958642 
L 481.005861 880.253552 
L 482.325349 879.124594 
L 483.644837 878.591023 
L 484.964325 878.640473 
L 486.283814 879.217699 
L 487.603302 880.21705 
L 491.561766 884.012389 
L 492.881255 884.882356 
L 494.200743 885.308662 
L 495.520231 885.270103 
L 496.839719 884.847965 
L 499.478696 883.538242 
L 500.798184 883.05274 
L 502.117672 882.915471 
L 503.437161 883.245117 
L 504.756649 884.103856 
L 506.076137 885.496902 
L 507.395625 887.374093 
L 508.715113 889.631023 
L 512.673578 896.846837 
L 513.993066 898.580142 
L 515.312555 899.548671 
L 516.632043 899.580613 
L 517.951531 898.633952 
L 519.271019 896.818346 
L 520.590508 894.374212 
L 523.229484 888.883102 
L 524.548972 886.464146 
L 525.86846 884.59642 
L 527.187949 883.444079 
L 528.507437 883.10393 
L 529.826925 883.613701 
L 531.146413 884.961491 
L 532.465902 887.094687 
L 533.78539 889.928002 
L 535.104878 893.351028 
L 537.743854 901.44537 
L 543.021807 918.94991 
L 545.660784 926.800368 
L 548.29976 933.657893 
L 550.938737 939.669451 
L 554.897201 947.789252 
L 560.175154 958.027445 
L 562.814131 962.82072 
L 565.453107 967.188927 
L 568.092084 971.016692 
L 570.73106 974.242377 
L 573.370037 976.860979 
L 576.009013 978.942924 
L 578.64799 980.596224 
L 581.286966 981.873565 
L 583.925942 982.753168 
L 586.564919 983.261544 
L 590.523384 983.818991 
L 593.16236 984.525554 
L 595.801337 985.671919 
L 599.759801 987.624709 
L 601.079289 988.044863 
L 602.398778 988.195111 
L 603.718266 987.985629 
L 605.037754 987.344849 
L 606.357242 986.23297 
L 607.676731 984.653364 
L 608.996219 982.657777 
L 611.635195 977.833817 
L 614.274172 972.780791 
L 615.59366 970.465367 
L 616.913148 968.386016 
L 618.232636 966.56128 
L 619.552125 964.969695 
L 622.191101 962.263616 
L 630.10803 954.883948 
L 631.427519 953.903933 
L 632.747007 953.12219 
L 634.066495 952.564179 
L 635.385983 952.231604 
L 636.705472 952.104731 
L 638.02496 952.149339 
L 640.663936 952.60322 
L 643.302913 953.397858 
L 644.622401 953.934363 
L 645.941889 954.603385 
L 647.261377 955.446665 
L 648.580866 956.506792 
L 649.900354 957.820321 
L 651.219842 959.412102 
L 652.53933 961.291076 
L 653.858819 963.447637 
L 656.497795 968.459281 
L 663.095236 982.190448 
L 665.734213 986.859472 
L 667.053701 988.843875 
L 668.373189 990.554497 
L 669.692677 991.963329 
L 671.012166 993.045577 
L 672.331654 993.782541 
L 673.651142 994.163981 
L 674.97063 994.188454 
L 676.290118 993.861316 
L 677.609607 993.191339 
L 678.929095 992.187657 
L 680.248583 990.858564 
L 681.568071 989.212899 
L 682.88756 987.263625 
L 684.207048 985.032322 
L 686.846024 979.872252 
L 692.123977 968.321723 
L 700.040907 951.094184 
L 702.679883 944.374934 
L 706.638348 933.21717 
L 709.277324 925.873498 
L 711.916301 919.205262 
L 714.555277 913.383056 
L 717.194253 908.356985 
L 719.83323 904.121086 
L 721.152718 902.364189 
L 722.472206 900.918168 
L 723.791695 899.850931 
L 725.111183 899.233717 
L 726.430671 899.132801 
L 727.750159 899.601852 
L 729.069648 900.67566 
L 730.389136 902.365546 
L 731.708624 904.656421 
L 733.028112 907.505408 
L 734.3476 910.841909 
L 736.986577 918.567408 
L 740.945042 930.771921 
L 742.26453 934.428711 
L 743.584018 937.67548 
L 744.903506 940.436526 
L 746.222994 942.678856 
L 747.542483 944.412364 
L 748.861971 945.682707 
L 750.181459 946.55832 
L 751.500947 947.114494 
L 752.820436 947.417815 
L 754.139924 986.2157 
L 754.139924 986.2157 
" style="fill:none;stroke:#1f77b4;stroke-linecap:square;stroke-width:1.5;"/>
   </g>
   <g id="patch_3">
    <path d="M 44.783053 1046.64351 
L 44.783053 18.118365 
" style="fill:none;stroke:#000000;stroke-linecap:square;stroke-linejoin:miter;stroke-width:0.8;"/>
   </g>
   <g id="patch_4">
    <path d="M 787.918822 1046.64351 
L 787.918822 18.118365 
" style="fill:none;stroke:#000000;stroke-linecap:square;stroke-linejoin:miter;stroke-width:0.8;"/>
   </g>
   <g id="patch_5">
    <path d="M 44.783053 1046.64351 
L 787.918823 1046.64351 
" style="fill:none;stroke:#000000;stroke-linecap:square;stroke-linejoin:miter;stroke-width:0.8;"/>
   </g>
   <g id="patch_6">
    <path d="M 44.783053 18.118365 
L 787.918823 18.118365 
" style="fill:none;stroke:#000000;stroke-linecap:square;stroke-linejoin:miter;stroke-width:0.8;"/>
   </g>
   <g id="text_19">
    <!-- Periodogram -->
    <defs>
     <path d="M 45.40625 27.984375 
Q 45.40625 37.75 41.375 43.109375 
Q 37.359375 48.484375 30.078125 48.484375 
Q 22.859375 48.484375 18.828125 43.109375 
Q 14.796875 37.75 14.796875 27.984375 
Q 14.796875 18.265625 18.828125 12.890625 
Q 22.859375 7.515625 30.078125 7.515625 
Q 37.359375 7.515625 41.375 12.890625 
Q 45.40625 18.265625 45.40625 27.984375 
z
M 54.390625 6.78125 
Q 54.390625 -7.171875 48.1875 -13.984375 
Q 42 -20.796875 29.203125 -20.796875 
Q 24.46875 -20.796875 20.265625 -20.09375 
Q 16.0625 -19.390625 12.109375 -17.921875 
L 12.109375 -9.1875 
Q 16.0625 -11.328125 19.921875 -12.34375 
Q 23.78125 -13.375 27.78125 -13.375 
Q 36.625 -13.375 41.015625 -8.765625 
Q 45.40625 -4.15625 45.40625 5.171875 
L 45.40625 9.625 
Q 42.625 4.78125 38.28125 2.390625 
Q 33.9375 0 27.875 0 
Q 17.828125 0 11.671875 7.65625 
Q 5.515625 15.328125 5.515625 27.984375 
Q 5.515625 40.671875 11.671875 48.328125 
Q 17.828125 56 27.875 56 
Q 33.9375 56 38.28125 53.609375 
Q 42.625 51.21875 45.40625 46.390625 
L 45.40625 54.6875 
L 54.390625 54.6875 
z
" id="DejaVuSans-103"/>
     <path d="M 52 44.1875 
Q 55.375 50.25 60.0625 53.125 
Q 64.75 56 71.09375 56 
Q 79.640625 56 84.28125 50.015625 
Q 88.921875 44.046875 88.921875 33.015625 
L 88.921875 0 
L 79.890625 0 
L 79.890625 32.71875 
Q 79.890625 40.578125 77.09375 44.375 
Q 74.3125 48.1875 68.609375 48.1875 
Q 61.625 48.1875 57.5625 43.546875 
Q 53.515625 38.921875 53.515625 30.90625 
L 53.515625 0 
L 44.484375 0 
L 44.484375 32.71875 
Q 44.484375 40.625 41.703125 44.40625 
Q 38.921875 48.1875 33.109375 48.1875 
Q 26.21875 48.1875 22.15625 43.53125 
Q 18.109375 38.875 18.109375 30.90625 
L 18.109375 0 
L 9.078125 0 
L 9.078125 54.6875 
L 18.109375 54.6875 
L 18.109375 46.1875 
Q 21.1875 51.21875 25.484375 53.609375 
Q 29.78125 56 35.6875 56 
Q 41.65625 56 45.828125 52.96875 
Q 50 49.953125 52 44.1875 
z
" id="DejaVuSans-109"/>
    </defs>
    <g transform="translate(377.962187 12.118365)scale(0.12 -0.12)">
     <use xlink:href="#DejaVuSans-80"/>
     <use x="60.255859" xlink:href="#DejaVuSans-101"/>
     <use x="121.779297" xlink:href="#DejaVuSans-114"/>
     <use x="162.892578" xlink:href="#DejaVuSans-105"/>
     <use x="190.675781" xlink:href="#DejaVuSans-111"/>
     <use x="251.857422" xlink:href="#DejaVuSans-100"/>
     <use x="315.333984" xlink:href="#DejaVuSans-111"/>
     <use x="376.515625" xlink:href="#DejaVuSans-103"/>
     <use x="439.992188" xlink:href="#DejaVuSans-114"/>
     <use x="481.105469" xlink:href="#DejaVuSans-97"/>
     <use x="542.384766" xlink:href="#DejaVuSans-109"/>
    </g>
   </g>
  </g>
  <g id="axes_2">
   <g id="patch_7">
    <path d="M 837.86399 1046.64351 
L 1580.99976 1046.64351 
L 1580.99976 18.118365 
L 837.86399 18.118365 
z
" style="fill:#ffffff;"/>
   </g>
   <g id="matplotlib.axis_3">
    <g id="xtick_8">
     <g id="line2d_34">
      <path clip-path="url(#pc4632ce2ec)" d="M 871.642889 1046.64351 
L 871.642889 18.118365 
" style="fill:none;stroke:#b0b0b0;stroke-linecap:square;stroke-width:0.8;"/>
     </g>
     <g id="line2d_35">
      <g>
       <use style="stroke:#000000;stroke-width:0.8;" x="871.642889" xlink:href="#m0bfa0d9aec" y="1046.64351"/>
      </g>
     </g>
     <g id="text_20">
      <!-- 0 -->
      <g transform="translate(868.461639 1061.241947)scale(0.1 -0.1)">
       <use xlink:href="#DejaVuSans-48"/>
      </g>
     </g>
    </g>
    <g id="xtick_9">
     <g id="line2d_36">
      <path clip-path="url(#pc4632ce2ec)" d="M 977.201947 1046.64351 
L 977.201947 18.118365 
" style="fill:none;stroke:#b0b0b0;stroke-linecap:square;stroke-width:0.8;"/>
     </g>
     <g id="line2d_37">
      <g>
       <use style="stroke:#000000;stroke-width:0.8;" x="977.201947" xlink:href="#m0bfa0d9aec" y="1046.64351"/>
      </g>
     </g>
     <g id="text_21">
      <!-- 1000 -->
      <g transform="translate(964.476947 1061.241947)scale(0.1 -0.1)">
       <use xlink:href="#DejaVuSans-49"/>
       <use x="63.623047" xlink:href="#DejaVuSans-48"/>
       <use x="127.246094" xlink:href="#DejaVuSans-48"/>
       <use x="190.869141" xlink:href="#DejaVuSans-48"/>
      </g>
     </g>
    </g>
    <g id="xtick_10">
     <g id="line2d_38">
      <path clip-path="url(#pc4632ce2ec)" d="M 1082.761005 1046.64351 
L 1082.761005 18.118365 
" style="fill:none;stroke:#b0b0b0;stroke-linecap:square;stroke-width:0.8;"/>
     </g>
     <g id="line2d_39">
      <g>
       <use style="stroke:#000000;stroke-width:0.8;" x="1082.761005" xlink:href="#m0bfa0d9aec" y="1046.64351"/>
      </g>
     </g>
     <g id="text_22">
      <!-- 2000 -->
      <g transform="translate(1070.036005 1061.241947)scale(0.1 -0.1)">
       <use xlink:href="#DejaVuSans-50"/>
       <use x="63.623047" xlink:href="#DejaVuSans-48"/>
       <use x="127.246094" xlink:href="#DejaVuSans-48"/>
       <use x="190.869141" xlink:href="#DejaVuSans-48"/>
      </g>
     </g>
    </g>
    <g id="xtick_11">
     <g id="line2d_40">
      <path clip-path="url(#pc4632ce2ec)" d="M 1188.320063 1046.64351 
L 1188.320063 18.118365 
" style="fill:none;stroke:#b0b0b0;stroke-linecap:square;stroke-width:0.8;"/>
     </g>
     <g id="line2d_41">
      <g>
       <use style="stroke:#000000;stroke-width:0.8;" x="1188.320063" xlink:href="#m0bfa0d9aec" y="1046.64351"/>
      </g>
     </g>
     <g id="text_23">
      <!-- 3000 -->
      <g transform="translate(1175.595063 1061.241947)scale(0.1 -0.1)">
       <use xlink:href="#DejaVuSans-51"/>
       <use x="63.623047" xlink:href="#DejaVuSans-48"/>
       <use x="127.246094" xlink:href="#DejaVuSans-48"/>
       <use x="190.869141" xlink:href="#DejaVuSans-48"/>
      </g>
     </g>
    </g>
    <g id="xtick_12">
     <g id="line2d_42">
      <path clip-path="url(#pc4632ce2ec)" d="M 1293.879122 1046.64351 
L 1293.879122 18.118365 
" style="fill:none;stroke:#b0b0b0;stroke-linecap:square;stroke-width:0.8;"/>
     </g>
     <g id="line2d_43">
      <g>
       <use style="stroke:#000000;stroke-width:0.8;" x="1293.879122" xlink:href="#m0bfa0d9aec" y="1046.64351"/>
      </g>
     </g>
     <g id="text_24">
      <!-- 4000 -->
      <g transform="translate(1281.154122 1061.241947)scale(0.1 -0.1)">
       <use xlink:href="#DejaVuSans-52"/>
       <use x="63.623047" xlink:href="#DejaVuSans-48"/>
       <use x="127.246094" xlink:href="#DejaVuSans-48"/>
       <use x="190.869141" xlink:href="#DejaVuSans-48"/>
      </g>
     </g>
    </g>
    <g id="xtick_13">
     <g id="line2d_44">
      <path clip-path="url(#pc4632ce2ec)" d="M 1399.43818 1046.64351 
L 1399.43818 18.118365 
" style="fill:none;stroke:#b0b0b0;stroke-linecap:square;stroke-width:0.8;"/>
     </g>
     <g id="line2d_45">
      <g>
       <use style="stroke:#000000;stroke-width:0.8;" x="1399.43818" xlink:href="#m0bfa0d9aec" y="1046.64351"/>
      </g>
     </g>
     <g id="text_25">
      <!-- 5000 -->
      <g transform="translate(1386.71318 1061.241947)scale(0.1 -0.1)">
       <use xlink:href="#DejaVuSans-53"/>
       <use x="63.623047" xlink:href="#DejaVuSans-48"/>
       <use x="127.246094" xlink:href="#DejaVuSans-48"/>
       <use x="190.869141" xlink:href="#DejaVuSans-48"/>
      </g>
     </g>
    </g>
    <g id="xtick_14">
     <g id="line2d_46">
      <path clip-path="url(#pc4632ce2ec)" d="M 1504.997238 1046.64351 
L 1504.997238 18.118365 
" style="fill:none;stroke:#b0b0b0;stroke-linecap:square;stroke-width:0.8;"/>
     </g>
     <g id="line2d_47">
      <g>
       <use style="stroke:#000000;stroke-width:0.8;" x="1504.997238" xlink:href="#m0bfa0d9aec" y="1046.64351"/>
      </g>
     </g>
     <g id="text_26">
      <!-- 6000 -->
      <g transform="translate(1492.272238 1061.241947)scale(0.1 -0.1)">
       <use xlink:href="#DejaVuSans-54"/>
       <use x="63.623047" xlink:href="#DejaVuSans-48"/>
       <use x="127.246094" xlink:href="#DejaVuSans-48"/>
       <use x="190.869141" xlink:href="#DejaVuSans-48"/>
      </g>
     </g>
    </g>
    <g id="text_27">
     <!-- Frequency -->
     <g transform="translate(1183.134219 1074.920072)scale(0.1 -0.1)">
      <use xlink:href="#DejaVuSans-70"/>
      <use x="57.410156" xlink:href="#DejaVuSans-114"/>
      <use x="98.492188" xlink:href="#DejaVuSans-101"/>
      <use x="160.015625" xlink:href="#DejaVuSans-113"/>
      <use x="223.492188" xlink:href="#DejaVuSans-117"/>
      <use x="286.871094" xlink:href="#DejaVuSans-101"/>
      <use x="348.394531" xlink:href="#DejaVuSans-110"/>
      <use x="411.773438" xlink:href="#DejaVuSans-99"/>
      <use x="466.753906" xlink:href="#DejaVuSans-121"/>
     </g>
    </g>
   </g>
   <g id="matplotlib.axis_4">
    <g id="ytick_10">
     <g id="line2d_48">
      <path clip-path="url(#pc4632ce2ec)" d="M 837.86399 1046.64351 
L 1580.99976 1046.64351 
" style="fill:none;stroke:#b0b0b0;stroke-linecap:square;stroke-width:0.8;"/>
     </g>
     <g id="line2d_49">
      <g>
       <use style="stroke:#000000;stroke-width:0.8;" x="837.86399" xlink:href="#mb3447f2c8e" y="1046.64351"/>
      </g>
     </g>
     <g id="text_28">
      <!-- −60 -->
      <g transform="translate(809.759302 1050.442729)scale(0.1 -0.1)">
       <use xlink:href="#DejaVuSans-8722"/>
       <use x="83.789062" xlink:href="#DejaVuSans-54"/>
       <use x="147.412109" xlink:href="#DejaVuSans-48"/>
      </g>
     </g>
    </g>
    <g id="ytick_11">
     <g id="line2d_50">
      <path clip-path="url(#pc4632ce2ec)" d="M 837.86399 918.077867 
L 1580.99976 918.077867 
" style="fill:none;stroke:#b0b0b0;stroke-linecap:square;stroke-width:0.8;"/>
     </g>
     <g id="line2d_51">
      <g>
       <use style="stroke:#000000;stroke-width:0.8;" x="837.86399" xlink:href="#mb3447f2c8e" y="918.077867"/>
      </g>
     </g>
     <g id="text_29">
      <!-- −50 -->
      <g transform="translate(809.759302 921.877086)scale(0.1 -0.1)">
       <use xlink:href="#DejaVuSans-8722"/>
       <use x="83.789062" xlink:href="#DejaVuSans-53"/>
       <use x="147.412109" xlink:href="#DejaVuSans-48"/>
      </g>
     </g>
    </g>
    <g id="ytick_12">
     <g id="line2d_52">
      <path clip-path="url(#pc4632ce2ec)" d="M 837.86399 789.512224 
L 1580.99976 789.512224 
" style="fill:none;stroke:#b0b0b0;stroke-linecap:square;stroke-width:0.8;"/>
     </g>
     <g id="line2d_53">
      <g>
       <use style="stroke:#000000;stroke-width:0.8;" x="837.86399" xlink:href="#mb3447f2c8e" y="789.512224"/>
      </g>
     </g>
     <g id="text_30">
      <!-- −40 -->
      <g transform="translate(809.759302 793.311442)scale(0.1 -0.1)">
       <use xlink:href="#DejaVuSans-8722"/>
       <use x="83.789062" xlink:href="#DejaVuSans-52"/>
       <use x="147.412109" xlink:href="#DejaVuSans-48"/>
      </g>
     </g>
    </g>
    <g id="ytick_13">
     <g id="line2d_54">
      <path clip-path="url(#pc4632ce2ec)" d="M 837.86399 660.946581 
L 1580.99976 660.946581 
" style="fill:none;stroke:#b0b0b0;stroke-linecap:square;stroke-width:0.8;"/>
     </g>
     <g id="line2d_55">
      <g>
       <use style="stroke:#000000;stroke-width:0.8;" x="837.86399" xlink:href="#mb3447f2c8e" y="660.946581"/>
      </g>
     </g>
     <g id="text_31">
      <!-- −30 -->
      <g transform="translate(809.759302 664.745799)scale(0.1 -0.1)">
       <use xlink:href="#DejaVuSans-8722"/>
       <use x="83.789062" xlink:href="#DejaVuSans-51"/>
       <use x="147.412109" xlink:href="#DejaVuSans-48"/>
      </g>
     </g>
    </g>
    <g id="ytick_14">
     <g id="line2d_56">
      <path clip-path="url(#pc4632ce2ec)" d="M 837.86399 532.380937 
L 1580.99976 532.380937 
" style="fill:none;stroke:#b0b0b0;stroke-linecap:square;stroke-width:0.8;"/>
     </g>
     <g id="line2d_57">
      <g>
       <use style="stroke:#000000;stroke-width:0.8;" x="837.86399" xlink:href="#mb3447f2c8e" y="532.380937"/>
      </g>
     </g>
     <g id="text_32">
      <!-- −20 -->
      <g transform="translate(809.759302 536.180156)scale(0.1 -0.1)">
       <use xlink:href="#DejaVuSans-8722"/>
       <use x="83.789062" xlink:href="#DejaVuSans-50"/>
       <use x="147.412109" xlink:href="#DejaVuSans-48"/>
      </g>
     </g>
    </g>
    <g id="ytick_15">
     <g id="line2d_58">
      <path clip-path="url(#pc4632ce2ec)" d="M 837.86399 403.815294 
L 1580.99976 403.815294 
" style="fill:none;stroke:#b0b0b0;stroke-linecap:square;stroke-width:0.8;"/>
     </g>
     <g id="line2d_59">
      <g>
       <use style="stroke:#000000;stroke-width:0.8;" x="837.86399" xlink:href="#mb3447f2c8e" y="403.815294"/>
      </g>
     </g>
     <g id="text_33">
      <!-- −10 -->
      <g transform="translate(809.759302 407.614513)scale(0.1 -0.1)">
       <use xlink:href="#DejaVuSans-8722"/>
       <use x="83.789062" xlink:href="#DejaVuSans-49"/>
       <use x="147.412109" xlink:href="#DejaVuSans-48"/>
      </g>
     </g>
    </g>
    <g id="ytick_16">
     <g id="line2d_60">
      <path clip-path="url(#pc4632ce2ec)" d="M 837.86399 275.249651 
L 1580.99976 275.249651 
" style="fill:none;stroke:#b0b0b0;stroke-linecap:square;stroke-width:0.8;"/>
     </g>
     <g id="line2d_61">
      <g>
       <use style="stroke:#000000;stroke-width:0.8;" x="837.86399" xlink:href="#mb3447f2c8e" y="275.249651"/>
      </g>
     </g>
     <g id="text_34">
      <!-- 0 -->
      <g transform="translate(824.50149 279.04887)scale(0.1 -0.1)">
       <use xlink:href="#DejaVuSans-48"/>
      </g>
     </g>
    </g>
    <g id="ytick_17">
     <g id="line2d_62">
      <path clip-path="url(#pc4632ce2ec)" d="M 837.86399 146.684008 
L 1580.99976 146.684008 
" style="fill:none;stroke:#b0b0b0;stroke-linecap:square;stroke-width:0.8;"/>
     </g>
     <g id="line2d_63">
      <g>
       <use style="stroke:#000000;stroke-width:0.8;" x="837.86399" xlink:href="#mb3447f2c8e" y="146.684008"/>
      </g>
     </g>
     <g id="text_35">
      <!-- 10 -->
      <g transform="translate(818.13899 150.483227)scale(0.1 -0.1)">
       <use xlink:href="#DejaVuSans-49"/>
       <use x="63.623047" xlink:href="#DejaVuSans-48"/>
      </g>
     </g>
    </g>
    <g id="ytick_18">
     <g id="line2d_64">
      <path clip-path="url(#pc4632ce2ec)" d="M 837.86399 18.118365 
L 1580.99976 18.118365 
" style="fill:none;stroke:#b0b0b0;stroke-linecap:square;stroke-width:0.8;"/>
     </g>
     <g id="line2d_65">
      <g>
       <use style="stroke:#000000;stroke-width:0.8;" x="837.86399" xlink:href="#mb3447f2c8e" y="18.118365"/>
      </g>
     </g>
     <g id="text_36">
      <!-- 20 -->
      <g transform="translate(818.13899 21.917584)scale(0.1 -0.1)">
       <use xlink:href="#DejaVuSans-50"/>
       <use x="63.623047" xlink:href="#DejaVuSans-48"/>
      </g>
     </g>
    </g>
   </g>
   <g id="line2d_66">
    <path clip-path="url(#pc4632ce2ec)" d="M 871.642889 808.1194 
L 874.281865 769.790729 
L 876.920842 770.843664 
L 879.559818 772.40183 
L 884.837771 776.244524 
L 890.115724 780.440228 
L 898.032653 787.358901 
L 900.67163 789.257353 
L 903.310606 790.213977 
L 905.949583 789.569439 
L 908.588559 786.761507 
L 911.227535 781.604495 
L 913.866512 774.42112 
L 916.505488 765.897622 
L 921.783441 747.752586 
L 924.422418 739.22876 
L 927.061394 731.577979 
L 929.700371 725.120836 
L 932.339347 720.191856 
L 934.978324 717.14378 
L 937.6173 716.324489 
L 940.256276 718.044791 
L 942.895253 722.544982 
L 945.534229 729.952405 
L 948.173206 740.203856 
L 950.812182 752.883348 
L 953.451159 766.913293 
L 956.090135 780.150821 
L 958.729112 789.452526 
L 961.368088 792.259132 
L 964.007065 788.844914 
L 966.646041 781.996254 
L 969.285018 774.662936 
L 971.923994 768.728791 
L 974.56297 765.118564 
L 977.201947 764.182844 
L 979.840923 765.928012 
L 982.4799 770.052637 
L 987.757853 781.485184 
L 990.396829 784.224766 
L 993.035806 780.403383 
L 995.674782 768.412824 
L 998.313759 750.422213 
L 1003.591711 710.849192 
L 1006.230688 693.770355 
L 1008.869664 679.719467 
L 1011.508641 668.94625 
L 1014.147617 661.477756 
L 1016.786594 657.21583 
L 1019.42557 655.969603 
L 1022.064547 657.455519 
L 1024.703523 661.281911 
L 1027.3425 666.9332 
L 1029.981476 673.776047 
L 1035.259429 688.332097 
L 1037.898405 695.026955 
L 1040.537382 701.147193 
L 1045.815335 712.799642 
L 1048.454311 719.055395 
L 1056.371241 739.598877 
L 1059.010217 744.897959 
L 1061.649193 747.50643 
L 1064.28817 746.490383 
L 1066.927146 741.875919 
L 1069.566123 734.738248 
L 1072.205099 726.663164 
L 1074.844076 719.143674 
L 1077.483052 713.307129 
L 1080.122029 709.913972 
L 1082.761005 709.449769 
L 1085.399982 712.212597 
L 1088.038958 718.368617 
L 1090.677934 727.973993 
L 1093.316911 740.962813 
L 1095.955887 757.094559 
L 1098.594864 775.850682 
L 1103.872817 816.920253 
L 1106.511793 835.898058 
L 1109.15077 851.654141 
L 1111.789746 863.712634 
L 1114.428723 872.728863 
L 1117.067699 879.705621 
L 1119.706675 885.297505 
L 1122.345652 889.691796 
L 1124.984628 892.853316 
L 1127.623605 894.786915 
L 1130.262581 895.620426 
L 1132.901558 895.512489 
L 1135.540534 894.529633 
L 1138.179511 892.632662 
L 1140.818487 889.802381 
L 1143.457464 886.212016 
L 1146.09644 882.306168 
L 1148.735417 878.72619 
L 1151.374393 876.150232 
L 1154.013369 875.153642 
L 1156.652346 876.136044 
L 1159.291322 879.299574 
L 1161.930299 884.644863 
L 1164.569275 891.962117 
L 1167.208252 900.814122 
L 1172.486205 920.267053 
L 1175.125181 929.155016 
L 1177.764158 936.561529 
L 1180.403134 942.284037 
L 1183.04211 946.545765 
L 1185.681087 949.794172 
L 1188.320063 952.466959 
L 1190.95904 954.853808 
L 1193.598016 957.064357 
L 1196.236993 959.056275 
L 1198.875969 960.684658 
L 1201.514946 961.75541 
L 1204.153922 962.076617 
L 1206.792899 961.503423 
L 1209.431875 959.970732 
L 1212.070851 957.508414 
L 1214.709828 954.236273 
L 1217.348804 950.340563 
L 1222.626757 941.553545 
L 1227.90471 932.812942 
L 1230.543687 928.921651 
L 1233.182663 925.590284 
L 1235.82164 922.994223 
L 1238.460616 921.271813 
L 1241.099592 920.472777 
L 1243.738569 920.496352 
L 1249.016522 921.568879 
L 1251.655498 921.421467 
L 1254.294475 919.97295 
L 1256.933451 916.908063 
L 1259.572428 912.370401 
L 1262.211404 906.887698 
L 1264.850381 901.140549 
L 1267.489357 895.745813 
L 1270.128333 891.145329 
L 1272.76731 887.583417 
L 1275.406286 885.125483 
L 1278.045263 883.689116 
L 1280.684239 883.083193 
L 1283.323216 883.061273 
L 1285.962192 883.390154 
L 1288.601169 883.917045 
L 1291.240145 884.604167 
L 1293.879122 885.506314 
L 1296.518098 886.69616 
L 1299.157075 888.171362 
L 1301.796051 889.788204 
L 1304.435027 891.261251 
L 1307.074004 892.251415 
L 1309.71298 892.523481 
L 1312.351957 892.093031 
L 1317.62991 890.527126 
L 1320.268886 890.405205 
L 1322.907863 891.315849 
L 1325.546839 893.50921 
L 1328.185816 897.055535 
L 1330.824792 901.862128 
L 1333.463768 907.704358 
L 1336.102745 914.26722 
L 1344.019674 934.905242 
L 1346.658651 941.261211 
L 1349.297627 947.163118 
L 1351.936604 952.602588 
L 1354.57558 957.592839 
L 1357.214557 962.141332 
L 1359.853533 966.240587 
L 1362.492509 969.873678 
L 1365.131486 973.026131 
L 1367.770462 975.696851 
L 1370.409439 977.90465 
L 1373.048415 979.690287 
L 1375.687392 981.114642 
L 1378.326368 982.252001 
L 1380.965345 983.176115 
L 1383.604321 983.938314 
L 1386.243298 984.541733 
L 1388.882274 984.921603 
L 1391.52125 984.945175 
L 1394.160227 984.442229 
L 1396.799203 983.264526 
L 1399.43818 981.352184 
L 1402.077156 978.771872 
L 1404.716133 975.703425 
L 1412.633062 965.859922 
L 1415.272039 962.952924 
L 1417.911015 960.3934 
L 1420.549991 958.227778 
L 1423.188968 956.494811 
L 1425.827944 955.232308 
L 1428.466921 954.475653 
L 1431.105897 954.254277 
L 1433.744874 954.590913 
L 1436.38385 955.504024 
L 1439.022827 957.009716 
L 1441.661803 959.11846 
L 1444.30078 961.824296 
L 1446.939756 965.088082 
L 1449.578732 968.819552 
L 1457.495662 980.948796 
L 1460.134638 984.400829 
L 1462.773615 987.052464 
L 1465.412591 988.648254 
L 1468.051568 989.019019 
L 1470.690544 988.105925 
L 1473.329521 985.963141 
L 1475.968497 982.736573 
L 1478.607474 978.623541 
L 1481.24645 973.825802 
L 1483.885426 968.511801 
L 1486.524403 962.800727 
L 1491.802356 950.492611 
L 1499.719285 931.193504 
L 1502.358262 925.127898 
L 1504.997238 919.556096 
L 1507.636215 914.663534 
L 1510.275191 910.623853 
L 1512.914167 907.59574 
L 1515.553144 905.717933 
L 1518.19212 905.099381 
L 1520.831097 905.804153 
L 1523.470073 907.8325 
L 1526.10905 911.100455 
L 1528.748026 915.42149 
L 1531.387003 920.496152 
L 1536.664956 931.211443 
L 1539.303932 935.886083 
L 1541.942908 939.520082 
L 1544.581885 941.811603 
L 1547.220861 981.294826 
L 1547.220861 981.294826 
" style="fill:none;stroke:#1f77b4;stroke-linecap:square;stroke-width:1.5;"/>
   </g>
   <g id="patch_8">
    <path d="M 837.86399 1046.64351 
L 837.86399 18.118365 
" style="fill:none;stroke:#000000;stroke-linecap:square;stroke-linejoin:miter;stroke-width:0.8;"/>
   </g>
   <g id="patch_9">
    <path d="M 1580.99976 1046.64351 
L 1580.99976 18.118365 
" style="fill:none;stroke:#000000;stroke-linecap:square;stroke-linejoin:miter;stroke-width:0.8;"/>
   </g>
   <g id="patch_10">
    <path d="M 837.86399 1046.64351 
L 1580.99976 1046.64351 
" style="fill:none;stroke:#000000;stroke-linecap:square;stroke-linejoin:miter;stroke-width:0.8;"/>
   </g>
   <g id="patch_11">
    <path d="M 837.86399 18.118365 
L 1580.99976 18.118365 
" style="fill:none;stroke:#000000;stroke-linecap:square;stroke-linejoin:miter;stroke-width:0.8;"/>
   </g>
   <g id="text_37">
    <!-- Welch -->
    <defs>
     <path d="M 3.328125 72.90625 
L 13.28125 72.90625 
L 28.609375 11.28125 
L 43.890625 72.90625 
L 54.984375 72.90625 
L 70.3125 11.28125 
L 85.59375 72.90625 
L 95.609375 72.90625 
L 77.296875 0 
L 64.890625 0 
L 49.515625 63.28125 
L 33.984375 0 
L 21.578125 0 
z
" id="DejaVuSans-87"/>
     <path d="M 54.890625 33.015625 
L 54.890625 0 
L 45.90625 0 
L 45.90625 32.71875 
Q 45.90625 40.484375 42.875 44.328125 
Q 39.84375 48.1875 33.796875 48.1875 
Q 26.515625 48.1875 22.3125 43.546875 
Q 18.109375 38.921875 18.109375 30.90625 
L 18.109375 0 
L 9.078125 0 
L 9.078125 75.984375 
L 18.109375 75.984375 
L 18.109375 46.1875 
Q 21.34375 51.125 25.703125 53.5625 
Q 30.078125 56 35.796875 56 
Q 45.21875 56 50.046875 50.171875 
Q 54.890625 44.34375 54.890625 33.015625 
z
" id="DejaVuSans-104"/>
    </defs>
    <g transform="translate(1191.04375 12.118365)scale(0.12 -0.12)">
     <use xlink:href="#DejaVuSans-87"/>
     <use x="98.798828" xlink:href="#DejaVuSans-101"/>
     <use x="160.322266" xlink:href="#DejaVuSans-108"/>
     <use x="188.105469" xlink:href="#DejaVuSans-99"/>
     <use x="243.085938" xlink:href="#DejaVuSans-104"/>
    </g>
   </g>
  </g>
 </g>
 <defs>
  <clipPath id="pa84cac1a07">
   <rect height="1028.525145" width="743.13577" x="44.783053" y="18.118365"/>
  </clipPath>
  <clipPath id="pc4632ce2ec">
   <rect height="1028.525145" width="743.13577" x="837.86399" y="18.118365"/>
  </clipPath>
 </defs>
</svg>
