<?xml version="1.0" encoding="utf-8" standalone="no"?>
<!DOCTYPE svg PUBLIC "-//W3C//DTD SVG 1.1//EN"
  "http://www.w3.org/Graphics/SVG/1.1/DTD/svg11.dtd">
<!-- Created with matplotlib (https://matplotlib.org/) -->
<svg height="1080pt" version="1.1" viewBox="0 0 1584 1080" width="1584pt" xmlns="http://www.w3.org/2000/svg" xmlns:xlink="http://www.w3.org/1999/xlink">
 <defs>
  <style type="text/css">
*{stroke-linecap:butt;stroke-linejoin:round;white-space:pre;}
  </style>
 </defs>
 <g id="figure_1">
  <g id="patch_1">
   <path d="M 0 1080 
L 1584 1080 
L 1584 0 
L 0 0 
z
" style="fill:#ffffff;"/>
  </g>
  <g id="axes_1">
   <g id="patch_2">
    <path d="M 44.783053 1046.64351 
L 787.918822 1046.64351 
L 787.918822 18.118365 
L 44.783053 18.118365 
z
" style="fill:#ffffff;"/>
   </g>
   <g id="matplotlib.axis_1">
    <g id="xtick_1">
     <g id="line2d_1">
      <path clip-path="url(#p43f525edd7)" d="M 78.561951 1046.64351 
L 78.561951 18.118365 
" style="fill:none;stroke:#b0b0b0;stroke-linecap:square;stroke-width:0.8;"/>
     </g>
     <g id="line2d_2">
      <defs>
       <path d="M 0 0 
L 0 3.5 
" id="m49b40c15e2" style="stroke:#000000;stroke-width:0.8;"/>
      </defs>
      <g>
       <use style="stroke:#000000;stroke-width:0.8;" x="78.561951" xlink:href="#m49b40c15e2" y="1046.64351"/>
      </g>
     </g>
     <g id="text_1">
      <!-- 0 -->
      <defs>
       <path d="M 31.78125 66.40625 
Q 24.171875 66.40625 20.328125 58.90625 
Q 16.5 51.421875 16.5 36.375 
Q 16.5 21.390625 20.328125 13.890625 
Q 24.171875 6.390625 31.78125 6.390625 
Q 39.453125 6.390625 43.28125 13.890625 
Q 47.125 21.390625 47.125 36.375 
Q 47.125 51.421875 43.28125 58.90625 
Q 39.453125 66.40625 31.78125 66.40625 
z
M 31.78125 74.21875 
Q 44.046875 74.21875 50.515625 64.515625 
Q 56.984375 54.828125 56.984375 36.375 
Q 56.984375 17.96875 50.515625 8.265625 
Q 44.046875 -1.421875 31.78125 -1.421875 
Q 19.53125 -1.421875 13.0625 8.265625 
Q 6.59375 17.96875 6.59375 36.375 
Q 6.59375 54.828125 13.0625 64.515625 
Q 19.53125 74.21875 31.78125 74.21875 
z
" id="DejaVuSans-48"/>
      </defs>
      <g transform="translate(75.380701 1061.241947)scale(0.1 -0.1)">
       <use xlink:href="#DejaVuSans-48"/>
      </g>
     </g>
    </g>
    <g id="xtick_2">
     <g id="line2d_3">
      <path clip-path="url(#p43f525edd7)" d="M 184.121009 1046.64351 
L 184.121009 18.118365 
" style="fill:none;stroke:#b0b0b0;stroke-linecap:square;stroke-width:0.8;"/>
     </g>
     <g id="line2d_4">
      <g>
       <use style="stroke:#000000;stroke-width:0.8;" x="184.121009" xlink:href="#m49b40c15e2" y="1046.64351"/>
      </g>
     </g>
     <g id="text_2">
      <!-- 1000 -->
      <defs>
       <path d="M 12.40625 8.296875 
L 28.515625 8.296875 
L 28.515625 63.921875 
L 10.984375 60.40625 
L 10.984375 69.390625 
L 28.421875 72.90625 
L 38.28125 72.90625 
L 38.28125 8.296875 
L 54.390625 8.296875 
L 54.390625 0 
L 12.40625 0 
z
" id="DejaVuSans-49"/>
      </defs>
      <g transform="translate(171.396009 1061.241947)scale(0.1 -0.1)">
       <use xlink:href="#DejaVuSans-49"/>
       <use x="63.623047" xlink:href="#DejaVuSans-48"/>
       <use x="127.246094" xlink:href="#DejaVuSans-48"/>
       <use x="190.869141" xlink:href="#DejaVuSans-48"/>
      </g>
     </g>
    </g>
    <g id="xtick_3">
     <g id="line2d_5">
      <path clip-path="url(#p43f525edd7)" d="M 289.680068 1046.64351 
L 289.680068 18.118365 
" style="fill:none;stroke:#b0b0b0;stroke-linecap:square;stroke-width:0.8;"/>
     </g>
     <g id="line2d_6">
      <g>
       <use style="stroke:#000000;stroke-width:0.8;" x="289.680068" xlink:href="#m49b40c15e2" y="1046.64351"/>
      </g>
     </g>
     <g id="text_3">
      <!-- 2000 -->
      <defs>
       <path d="M 19.1875 8.296875 
L 53.609375 8.296875 
L 53.609375 0 
L 7.328125 0 
L 7.328125 8.296875 
Q 12.9375 14.109375 22.625 23.890625 
Q 32.328125 33.6875 34.8125 36.53125 
Q 39.546875 41.84375 41.421875 45.53125 
Q 43.3125 49.21875 43.3125 52.78125 
Q 43.3125 58.59375 39.234375 62.25 
Q 35.15625 65.921875 28.609375 65.921875 
Q 23.96875 65.921875 18.8125 64.3125 
Q 13.671875 62.703125 7.8125 59.421875 
L 7.8125 69.390625 
Q 13.765625 71.78125 18.9375 73 
Q 24.125 74.21875 28.421875 74.21875 
Q 39.75 74.21875 46.484375 68.546875 
Q 53.21875 62.890625 53.21875 53.421875 
Q 53.21875 48.921875 51.53125 44.890625 
Q 49.859375 40.875 45.40625 35.40625 
Q 44.1875 33.984375 37.640625 27.21875 
Q 31.109375 20.453125 19.1875 8.296875 
z
" id="DejaVuSans-50"/>
      </defs>
      <g transform="translate(276.955068 1061.241947)scale(0.1 -0.1)">
       <use xlink:href="#DejaVuSans-50"/>
       <use x="63.623047" xlink:href="#DejaVuSans-48"/>
       <use x="127.246094" xlink:href="#DejaVuSans-48"/>
       <use x="190.869141" xlink:href="#DejaVuSans-48"/>
      </g>
     </g>
    </g>
    <g id="xtick_4">
     <g id="line2d_7">
      <path clip-path="url(#p43f525edd7)" d="M 395.239126 1046.64351 
L 395.239126 18.118365 
" style="fill:none;stroke:#b0b0b0;stroke-linecap:square;stroke-width:0.8;"/>
     </g>
     <g id="line2d_8">
      <g>
       <use style="stroke:#000000;stroke-width:0.8;" x="395.239126" xlink:href="#m49b40c15e2" y="1046.64351"/>
      </g>
     </g>
     <g id="text_4">
      <!-- 3000 -->
      <defs>
       <path d="M 40.578125 39.3125 
Q 47.65625 37.796875 51.625 33 
Q 55.609375 28.21875 55.609375 21.1875 
Q 55.609375 10.40625 48.1875 4.484375 
Q 40.765625 -1.421875 27.09375 -1.421875 
Q 22.515625 -1.421875 17.65625 -0.515625 
Q 12.796875 0.390625 7.625 2.203125 
L 7.625 11.71875 
Q 11.71875 9.328125 16.59375 8.109375 
Q 21.484375 6.890625 26.8125 6.890625 
Q 36.078125 6.890625 40.9375 10.546875 
Q 45.796875 14.203125 45.796875 21.1875 
Q 45.796875 27.640625 41.28125 31.265625 
Q 36.765625 34.90625 28.71875 34.90625 
L 20.21875 34.90625 
L 20.21875 43.015625 
L 29.109375 43.015625 
Q 36.375 43.015625 40.234375 45.921875 
Q 44.09375 48.828125 44.09375 54.296875 
Q 44.09375 59.90625 40.109375 62.90625 
Q 36.140625 65.921875 28.71875 65.921875 
Q 24.65625 65.921875 20.015625 65.03125 
Q 15.375 64.15625 9.8125 62.3125 
L 9.8125 71.09375 
Q 15.4375 72.65625 20.34375 73.4375 
Q 25.25 74.21875 29.59375 74.21875 
Q 40.828125 74.21875 47.359375 69.109375 
Q 53.90625 64.015625 53.90625 55.328125 
Q 53.90625 49.265625 50.4375 45.09375 
Q 46.96875 40.921875 40.578125 39.3125 
z
" id="DejaVuSans-51"/>
      </defs>
      <g transform="translate(382.514126 1061.241947)scale(0.1 -0.1)">
       <use xlink:href="#DejaVuSans-51"/>
       <use x="63.623047" xlink:href="#DejaVuSans-48"/>
       <use x="127.246094" xlink:href="#DejaVuSans-48"/>
       <use x="190.869141" xlink:href="#DejaVuSans-48"/>
      </g>
     </g>
    </g>
    <g id="xtick_5">
     <g id="line2d_9">
      <path clip-path="url(#p43f525edd7)" d="M 500.798184 1046.64351 
L 500.798184 18.118365 
" style="fill:none;stroke:#b0b0b0;stroke-linecap:square;stroke-width:0.8;"/>
     </g>
     <g id="line2d_10">
      <g>
       <use style="stroke:#000000;stroke-width:0.8;" x="500.798184" xlink:href="#m49b40c15e2" y="1046.64351"/>
      </g>
     </g>
     <g id="text_5">
      <!-- 4000 -->
      <defs>
       <path d="M 37.796875 64.3125 
L 12.890625 25.390625 
L 37.796875 25.390625 
z
M 35.203125 72.90625 
L 47.609375 72.90625 
L 47.609375 25.390625 
L 58.015625 25.390625 
L 58.015625 17.1875 
L 47.609375 17.1875 
L 47.609375 0 
L 37.796875 0 
L 37.796875 17.1875 
L 4.890625 17.1875 
L 4.890625 26.703125 
z
" id="DejaVuSans-52"/>
      </defs>
      <g transform="translate(488.073184 1061.241947)scale(0.1 -0.1)">
       <use xlink:href="#DejaVuSans-52"/>
       <use x="63.623047" xlink:href="#DejaVuSans-48"/>
       <use x="127.246094" xlink:href="#DejaVuSans-48"/>
       <use x="190.869141" xlink:href="#DejaVuSans-48"/>
      </g>
     </g>
    </g>
    <g id="xtick_6">
     <g id="line2d_11">
      <path clip-path="url(#p43f525edd7)" d="M 606.357242 1046.64351 
L 606.357242 18.118365 
" style="fill:none;stroke:#b0b0b0;stroke-linecap:square;stroke-width:0.8;"/>
     </g>
     <g id="line2d_12">
      <g>
       <use style="stroke:#000000;stroke-width:0.8;" x="606.357242" xlink:href="#m49b40c15e2" y="1046.64351"/>
      </g>
     </g>
     <g id="text_6">
      <!-- 5000 -->
      <defs>
       <path d="M 10.796875 72.90625 
L 49.515625 72.90625 
L 49.515625 64.59375 
L 19.828125 64.59375 
L 19.828125 46.734375 
Q 21.96875 47.46875 24.109375 47.828125 
Q 26.265625 48.1875 28.421875 48.1875 
Q 40.625 48.1875 47.75 41.5 
Q 54.890625 34.8125 54.890625 23.390625 
Q 54.890625 11.625 47.5625 5.09375 
Q 40.234375 -1.421875 26.90625 -1.421875 
Q 22.3125 -1.421875 17.546875 -0.640625 
Q 12.796875 0.140625 7.71875 1.703125 
L 7.71875 11.625 
Q 12.109375 9.234375 16.796875 8.0625 
Q 21.484375 6.890625 26.703125 6.890625 
Q 35.15625 6.890625 40.078125 11.328125 
Q 45.015625 15.765625 45.015625 23.390625 
Q 45.015625 31 40.078125 35.4375 
Q 35.15625 39.890625 26.703125 39.890625 
Q 22.75 39.890625 18.8125 39.015625 
Q 14.890625 38.140625 10.796875 36.28125 
z
" id="DejaVuSans-53"/>
      </defs>
      <g transform="translate(593.632242 1061.241947)scale(0.1 -0.1)">
       <use xlink:href="#DejaVuSans-53"/>
       <use x="63.623047" xlink:href="#DejaVuSans-48"/>
       <use x="127.246094" xlink:href="#DejaVuSans-48"/>
       <use x="190.869141" xlink:href="#DejaVuSans-48"/>
      </g>
     </g>
    </g>
    <g id="xtick_7">
     <g id="line2d_13">
      <path clip-path="url(#p43f525edd7)" d="M 711.916301 1046.64351 
L 711.916301 18.118365 
" style="fill:none;stroke:#b0b0b0;stroke-linecap:square;stroke-width:0.8;"/>
     </g>
     <g id="line2d_14">
      <g>
       <use style="stroke:#000000;stroke-width:0.8;" x="711.916301" xlink:href="#m49b40c15e2" y="1046.64351"/>
      </g>
     </g>
     <g id="text_7">
      <!-- 6000 -->
      <defs>
       <path d="M 33.015625 40.375 
Q 26.375 40.375 22.484375 35.828125 
Q 18.609375 31.296875 18.609375 23.390625 
Q 18.609375 15.53125 22.484375 10.953125 
Q 26.375 6.390625 33.015625 6.390625 
Q 39.65625 6.390625 43.53125 10.953125 
Q 47.40625 15.53125 47.40625 23.390625 
Q 47.40625 31.296875 43.53125 35.828125 
Q 39.65625 40.375 33.015625 40.375 
z
M 52.59375 71.296875 
L 52.59375 62.3125 
Q 48.875 64.0625 45.09375 64.984375 
Q 41.3125 65.921875 37.59375 65.921875 
Q 27.828125 65.921875 22.671875 59.328125 
Q 17.53125 52.734375 16.796875 39.40625 
Q 19.671875 43.65625 24.015625 45.921875 
Q 28.375 48.1875 33.59375 48.1875 
Q 44.578125 48.1875 50.953125 41.515625 
Q 57.328125 34.859375 57.328125 23.390625 
Q 57.328125 12.15625 50.6875 5.359375 
Q 44.046875 -1.421875 33.015625 -1.421875 
Q 20.359375 -1.421875 13.671875 8.265625 
Q 6.984375 17.96875 6.984375 36.375 
Q 6.984375 53.65625 15.1875 63.9375 
Q 23.390625 74.21875 37.203125 74.21875 
Q 40.921875 74.21875 44.703125 73.484375 
Q 48.484375 72.75 52.59375 71.296875 
z
" id="DejaVuSans-54"/>
      </defs>
      <g transform="translate(699.191301 1061.241947)scale(0.1 -0.1)">
       <use xlink:href="#DejaVuSans-54"/>
       <use x="63.623047" xlink:href="#DejaVuSans-48"/>
       <use x="127.246094" xlink:href="#DejaVuSans-48"/>
       <use x="190.869141" xlink:href="#DejaVuSans-48"/>
      </g>
     </g>
    </g>
    <g id="text_8">
     <!-- Frequency -->
     <defs>
      <path d="M 9.8125 72.90625 
L 51.703125 72.90625 
L 51.703125 64.59375 
L 19.671875 64.59375 
L 19.671875 43.109375 
L 48.578125 43.109375 
L 48.578125 34.8125 
L 19.671875 34.8125 
L 19.671875 0 
L 9.8125 0 
z
" id="DejaVuSans-70"/>
      <path d="M 41.109375 46.296875 
Q 39.59375 47.171875 37.8125 47.578125 
Q 36.03125 48 33.890625 48 
Q 26.265625 48 22.1875 43.046875 
Q 18.109375 38.09375 18.109375 28.8125 
L 18.109375 0 
L 9.078125 0 
L 9.078125 54.6875 
L 18.109375 54.6875 
L 18.109375 46.1875 
Q 20.953125 51.171875 25.484375 53.578125 
Q 30.03125 56 36.53125 56 
Q 37.453125 56 38.578125 55.875 
Q 39.703125 55.765625 41.0625 55.515625 
z
" id="DejaVuSans-114"/>
      <path d="M 56.203125 29.59375 
L 56.203125 25.203125 
L 14.890625 25.203125 
Q 15.484375 15.921875 20.484375 11.0625 
Q 25.484375 6.203125 34.421875 6.203125 
Q 39.59375 6.203125 44.453125 7.46875 
Q 49.3125 8.734375 54.109375 11.28125 
L 54.109375 2.78125 
Q 49.265625 0.734375 44.1875 -0.34375 
Q 39.109375 -1.421875 33.890625 -1.421875 
Q 20.796875 -1.421875 13.15625 6.1875 
Q 5.515625 13.8125 5.515625 26.8125 
Q 5.515625 40.234375 12.765625 48.109375 
Q 20.015625 56 32.328125 56 
Q 43.359375 56 49.78125 48.890625 
Q 56.203125 41.796875 56.203125 29.59375 
z
M 47.21875 32.234375 
Q 47.125 39.59375 43.09375 43.984375 
Q 39.0625 48.390625 32.421875 48.390625 
Q 24.90625 48.390625 20.390625 44.140625 
Q 15.875 39.890625 15.1875 32.171875 
z
" id="DejaVuSans-101"/>
      <path d="M 14.796875 27.296875 
Q 14.796875 17.390625 18.875 11.75 
Q 22.953125 6.109375 30.078125 6.109375 
Q 37.203125 6.109375 41.296875 11.75 
Q 45.40625 17.390625 45.40625 27.296875 
Q 45.40625 37.203125 41.296875 42.84375 
Q 37.203125 48.484375 30.078125 48.484375 
Q 22.953125 48.484375 18.875 42.84375 
Q 14.796875 37.203125 14.796875 27.296875 
z
M 45.40625 8.203125 
Q 42.578125 3.328125 38.25 0.953125 
Q 33.9375 -1.421875 27.875 -1.421875 
Q 17.96875 -1.421875 11.734375 6.484375 
Q 5.515625 14.40625 5.515625 27.296875 
Q 5.515625 40.1875 11.734375 48.09375 
Q 17.96875 56 27.875 56 
Q 33.9375 56 38.25 53.625 
Q 42.578125 51.265625 45.40625 46.390625 
L 45.40625 54.6875 
L 54.390625 54.6875 
L 54.390625 -20.796875 
L 45.40625 -20.796875 
z
" id="DejaVuSans-113"/>
      <path d="M 8.5 21.578125 
L 8.5 54.6875 
L 17.484375 54.6875 
L 17.484375 21.921875 
Q 17.484375 14.15625 20.5 10.265625 
Q 23.53125 6.390625 29.59375 6.390625 
Q 36.859375 6.390625 41.078125 11.03125 
Q 45.3125 15.671875 45.3125 23.6875 
L 45.3125 54.6875 
L 54.296875 54.6875 
L 54.296875 0 
L 45.3125 0 
L 45.3125 8.40625 
Q 42.046875 3.421875 37.71875 1 
Q 33.40625 -1.421875 27.6875 -1.421875 
Q 18.265625 -1.421875 13.375 4.4375 
Q 8.5 10.296875 8.5 21.578125 
z
M 31.109375 56 
z
" id="DejaVuSans-117"/>
      <path d="M 54.890625 33.015625 
L 54.890625 0 
L 45.90625 0 
L 45.90625 32.71875 
Q 45.90625 40.484375 42.875 44.328125 
Q 39.84375 48.1875 33.796875 48.1875 
Q 26.515625 48.1875 22.3125 43.546875 
Q 18.109375 38.921875 18.109375 30.90625 
L 18.109375 0 
L 9.078125 0 
L 9.078125 54.6875 
L 18.109375 54.6875 
L 18.109375 46.1875 
Q 21.34375 51.125 25.703125 53.5625 
Q 30.078125 56 35.796875 56 
Q 45.21875 56 50.046875 50.171875 
Q 54.890625 44.34375 54.890625 33.015625 
z
" id="DejaVuSans-110"/>
      <path d="M 48.78125 52.59375 
L 48.78125 44.1875 
Q 44.96875 46.296875 41.140625 47.34375 
Q 37.3125 48.390625 33.40625 48.390625 
Q 24.65625 48.390625 19.8125 42.84375 
Q 14.984375 37.3125 14.984375 27.296875 
Q 14.984375 17.28125 19.8125 11.734375 
Q 24.65625 6.203125 33.40625 6.203125 
Q 37.3125 6.203125 41.140625 7.25 
Q 44.96875 8.296875 48.78125 10.40625 
L 48.78125 2.09375 
Q 45.015625 0.34375 40.984375 -0.53125 
Q 36.96875 -1.421875 32.421875 -1.421875 
Q 20.0625 -1.421875 12.78125 6.34375 
Q 5.515625 14.109375 5.515625 27.296875 
Q 5.515625 40.671875 12.859375 48.328125 
Q 20.21875 56 33.015625 56 
Q 37.15625 56 41.109375 55.140625 
Q 45.0625 54.296875 48.78125 52.59375 
z
" id="DejaVuSans-99"/>
      <path d="M 32.171875 -5.078125 
Q 28.375 -14.84375 24.75 -17.8125 
Q 21.140625 -20.796875 15.09375 -20.796875 
L 7.90625 -20.796875 
L 7.90625 -13.28125 
L 13.1875 -13.28125 
Q 16.890625 -13.28125 18.9375 -11.515625 
Q 21 -9.765625 23.484375 -3.21875 
L 25.09375 0.875 
L 2.984375 54.6875 
L 12.5 54.6875 
L 29.59375 11.921875 
L 46.6875 54.6875 
L 56.203125 54.6875 
z
" id="DejaVuSans-121"/>
     </defs>
     <g transform="translate(390.053281 1074.920072)scale(0.1 -0.1)">
      <use xlink:href="#DejaVuSans-70"/>
      <use x="57.410156" xlink:href="#DejaVuSans-114"/>
      <use x="98.492188" xlink:href="#DejaVuSans-101"/>
      <use x="160.015625" xlink:href="#DejaVuSans-113"/>
      <use x="223.492188" xlink:href="#DejaVuSans-117"/>
      <use x="286.871094" xlink:href="#DejaVuSans-101"/>
      <use x="348.394531" xlink:href="#DejaVuSans-110"/>
      <use x="411.773438" xlink:href="#DejaVuSans-99"/>
      <use x="466.753906" xlink:href="#DejaVuSans-121"/>
     </g>
    </g>
   </g>
   <g id="matplotlib.axis_2">
    <g id="ytick_1">
     <g id="line2d_15">
      <path clip-path="url(#p43f525edd7)" d="M 44.783053 1046.64351 
L 787.918822 1046.64351 
" style="fill:none;stroke:#b0b0b0;stroke-linecap:square;stroke-width:0.8;"/>
     </g>
     <g id="line2d_16">
      <defs>
       <path d="M 0 0 
L -3.5 0 
" id="ma7d5b45904" style="stroke:#000000;stroke-width:0.8;"/>
      </defs>
      <g>
       <use style="stroke:#000000;stroke-width:0.8;" x="44.783053" xlink:href="#ma7d5b45904" y="1046.64351"/>
      </g>
     </g>
     <g id="text_9">
      <!-- −60 -->
      <defs>
       <path d="M 10.59375 35.5 
L 73.1875 35.5 
L 73.1875 27.203125 
L 10.59375 27.203125 
z
" id="DejaVuSans-8722"/>
      </defs>
      <g transform="translate(16.678365 1050.442729)scale(0.1 -0.1)">
       <use xlink:href="#DejaVuSans-8722"/>
       <use x="83.789062" xlink:href="#DejaVuSans-54"/>
       <use x="147.412109" xlink:href="#DejaVuSans-48"/>
      </g>
     </g>
    </g>
    <g id="ytick_2">
     <g id="line2d_17">
      <path clip-path="url(#p43f525edd7)" d="M 44.783053 918.077867 
L 787.918822 918.077867 
" style="fill:none;stroke:#b0b0b0;stroke-linecap:square;stroke-width:0.8;"/>
     </g>
     <g id="line2d_18">
      <g>
       <use style="stroke:#000000;stroke-width:0.8;" x="44.783053" xlink:href="#ma7d5b45904" y="918.077867"/>
      </g>
     </g>
     <g id="text_10">
      <!-- −50 -->
      <g transform="translate(16.678365 921.877086)scale(0.1 -0.1)">
       <use xlink:href="#DejaVuSans-8722"/>
       <use x="83.789062" xlink:href="#DejaVuSans-53"/>
       <use x="147.412109" xlink:href="#DejaVuSans-48"/>
      </g>
     </g>
    </g>
    <g id="ytick_3">
     <g id="line2d_19">
      <path clip-path="url(#p43f525edd7)" d="M 44.783053 789.512224 
L 787.918822 789.512224 
" style="fill:none;stroke:#b0b0b0;stroke-linecap:square;stroke-width:0.8;"/>
     </g>
     <g id="line2d_20">
      <g>
       <use style="stroke:#000000;stroke-width:0.8;" x="44.783053" xlink:href="#ma7d5b45904" y="789.512224"/>
      </g>
     </g>
     <g id="text_11">
      <!-- −40 -->
      <g transform="translate(16.678365 793.311442)scale(0.1 -0.1)">
       <use xlink:href="#DejaVuSans-8722"/>
       <use x="83.789062" xlink:href="#DejaVuSans-52"/>
       <use x="147.412109" xlink:href="#DejaVuSans-48"/>
      </g>
     </g>
    </g>
    <g id="ytick_4">
     <g id="line2d_21">
      <path clip-path="url(#p43f525edd7)" d="M 44.783053 660.946581 
L 787.918822 660.946581 
" style="fill:none;stroke:#b0b0b0;stroke-linecap:square;stroke-width:0.8;"/>
     </g>
     <g id="line2d_22">
      <g>
       <use style="stroke:#000000;stroke-width:0.8;" x="44.783053" xlink:href="#ma7d5b45904" y="660.946581"/>
      </g>
     </g>
     <g id="text_12">
      <!-- −30 -->
      <g transform="translate(16.678365 664.745799)scale(0.1 -0.1)">
       <use xlink:href="#DejaVuSans-8722"/>
       <use x="83.789062" xlink:href="#DejaVuSans-51"/>
       <use x="147.412109" xlink:href="#DejaVuSans-48"/>
      </g>
     </g>
    </g>
    <g id="ytick_5">
     <g id="line2d_23">
      <path clip-path="url(#p43f525edd7)" d="M 44.783053 532.380937 
L 787.918822 532.380937 
" style="fill:none;stroke:#b0b0b0;stroke-linecap:square;stroke-width:0.8;"/>
     </g>
     <g id="line2d_24">
      <g>
       <use style="stroke:#000000;stroke-width:0.8;" x="44.783053" xlink:href="#ma7d5b45904" y="532.380937"/>
      </g>
     </g>
     <g id="text_13">
      <!-- −20 -->
      <g transform="translate(16.678365 536.180156)scale(0.1 -0.1)">
       <use xlink:href="#DejaVuSans-8722"/>
       <use x="83.789062" xlink:href="#DejaVuSans-50"/>
       <use x="147.412109" xlink:href="#DejaVuSans-48"/>
      </g>
     </g>
    </g>
    <g id="ytick_6">
     <g id="line2d_25">
      <path clip-path="url(#p43f525edd7)" d="M 44.783053 403.815294 
L 787.918822 403.815294 
" style="fill:none;stroke:#b0b0b0;stroke-linecap:square;stroke-width:0.8;"/>
     </g>
     <g id="line2d_26">
      <g>
       <use style="stroke:#000000;stroke-width:0.8;" x="44.783053" xlink:href="#ma7d5b45904" y="403.815294"/>
      </g>
     </g>
     <g id="text_14">
      <!-- −10 -->
      <g transform="translate(16.678365 407.614513)scale(0.1 -0.1)">
       <use xlink:href="#DejaVuSans-8722"/>
       <use x="83.789062" xlink:href="#DejaVuSans-49"/>
       <use x="147.412109" xlink:href="#DejaVuSans-48"/>
      </g>
     </g>
    </g>
    <g id="ytick_7">
     <g id="line2d_27">
      <path clip-path="url(#p43f525edd7)" d="M 44.783053 275.249651 
L 787.918822 275.249651 
" style="fill:none;stroke:#b0b0b0;stroke-linecap:square;stroke-width:0.8;"/>
     </g>
     <g id="line2d_28">
      <g>
       <use style="stroke:#000000;stroke-width:0.8;" x="44.783053" xlink:href="#ma7d5b45904" y="275.249651"/>
      </g>
     </g>
     <g id="text_15">
      <!-- 0 -->
      <g transform="translate(31.420553 279.04887)scale(0.1 -0.1)">
       <use xlink:href="#DejaVuSans-48"/>
      </g>
     </g>
    </g>
    <g id="ytick_8">
     <g id="line2d_29">
      <path clip-path="url(#p43f525edd7)" d="M 44.783053 146.684008 
L 787.918822 146.684008 
" style="fill:none;stroke:#b0b0b0;stroke-linecap:square;stroke-width:0.8;"/>
     </g>
     <g id="line2d_30">
      <g>
       <use style="stroke:#000000;stroke-width:0.8;" x="44.783053" xlink:href="#ma7d5b45904" y="146.684008"/>
      </g>
     </g>
     <g id="text_16">
      <!-- 10 -->
      <g transform="translate(25.058053 150.483227)scale(0.1 -0.1)">
       <use xlink:href="#DejaVuSans-49"/>
       <use x="63.623047" xlink:href="#DejaVuSans-48"/>
      </g>
     </g>
    </g>
    <g id="ytick_9">
     <g id="line2d_31">
      <path clip-path="url(#p43f525edd7)" d="M 44.783053 18.118365 
L 787.918822 18.118365 
" style="fill:none;stroke:#b0b0b0;stroke-linecap:square;stroke-width:0.8;"/>
     </g>
     <g id="line2d_32">
      <g>
       <use style="stroke:#000000;stroke-width:0.8;" x="44.783053" xlink:href="#ma7d5b45904" y="18.118365"/>
      </g>
     </g>
     <g id="text_17">
      <!-- 20 -->
      <g transform="translate(25.058053 21.917584)scale(0.1 -0.1)">
       <use xlink:href="#DejaVuSans-50"/>
       <use x="63.623047" xlink:href="#DejaVuSans-48"/>
      </g>
     </g>
    </g>
    <g id="text_18">
     <!-- Power Spectral Density (dB/Hz) -->
     <defs>
      <path d="M 19.671875 64.796875 
L 19.671875 37.40625 
L 32.078125 37.40625 
Q 38.96875 37.40625 42.71875 40.96875 
Q 46.484375 44.53125 46.484375 51.125 
Q 46.484375 57.671875 42.71875 61.234375 
Q 38.96875 64.796875 32.078125 64.796875 
z
M 9.8125 72.90625 
L 32.078125 72.90625 
Q 44.34375 72.90625 50.609375 67.359375 
Q 56.890625 61.8125 56.890625 51.125 
Q 56.890625 40.328125 50.609375 34.8125 
Q 44.34375 29.296875 32.078125 29.296875 
L 19.671875 29.296875 
L 19.671875 0 
L 9.8125 0 
z
" id="DejaVuSans-80"/>
      <path d="M 30.609375 48.390625 
Q 23.390625 48.390625 19.1875 42.75 
Q 14.984375 37.109375 14.984375 27.296875 
Q 14.984375 17.484375 19.15625 11.84375 
Q 23.34375 6.203125 30.609375 6.203125 
Q 37.796875 6.203125 41.984375 11.859375 
Q 46.1875 17.53125 46.1875 27.296875 
Q 46.1875 37.015625 41.984375 42.703125 
Q 37.796875 48.390625 30.609375 48.390625 
z
M 30.609375 56 
Q 42.328125 56 49.015625 48.375 
Q 55.71875 40.765625 55.71875 27.296875 
Q 55.71875 13.875 49.015625 6.21875 
Q 42.328125 -1.421875 30.609375 -1.421875 
Q 18.84375 -1.421875 12.171875 6.21875 
Q 5.515625 13.875 5.515625 27.296875 
Q 5.515625 40.765625 12.171875 48.375 
Q 18.84375 56 30.609375 56 
z
" id="DejaVuSans-111"/>
      <path d="M 4.203125 54.6875 
L 13.1875 54.6875 
L 24.421875 12.015625 
L 35.59375 54.6875 
L 46.1875 54.6875 
L 57.421875 12.015625 
L 68.609375 54.6875 
L 77.59375 54.6875 
L 63.28125 0 
L 52.6875 0 
L 40.921875 44.828125 
L 29.109375 0 
L 18.5 0 
z
" id="DejaVuSans-119"/>
      <path id="DejaVuSans-32"/>
      <path d="M 53.515625 70.515625 
L 53.515625 60.890625 
Q 47.90625 63.578125 42.921875 64.890625 
Q 37.9375 66.21875 33.296875 66.21875 
Q 25.25 66.21875 20.875 63.09375 
Q 16.5 59.96875 16.5 54.203125 
Q 16.5 49.359375 19.40625 46.890625 
Q 22.3125 44.4375 30.421875 42.921875 
L 36.375 41.703125 
Q 47.40625 39.59375 52.65625 34.296875 
Q 57.90625 29 57.90625 20.125 
Q 57.90625 9.515625 50.796875 4.046875 
Q 43.703125 -1.421875 29.984375 -1.421875 
Q 24.8125 -1.421875 18.96875 -0.25 
Q 13.140625 0.921875 6.890625 3.21875 
L 6.890625 13.375 
Q 12.890625 10.015625 18.65625 8.296875 
Q 24.421875 6.59375 29.984375 6.59375 
Q 38.421875 6.59375 43.015625 9.90625 
Q 47.609375 13.234375 47.609375 19.390625 
Q 47.609375 24.75 44.3125 27.78125 
Q 41.015625 30.8125 33.5 32.328125 
L 27.484375 33.5 
Q 16.453125 35.6875 11.515625 40.375 
Q 6.59375 45.0625 6.59375 53.421875 
Q 6.59375 63.09375 13.40625 68.65625 
Q 20.21875 74.21875 32.171875 74.21875 
Q 37.3125 74.21875 42.625 73.28125 
Q 47.953125 72.359375 53.515625 70.515625 
z
" id="DejaVuSans-83"/>
      <path d="M 18.109375 8.203125 
L 18.109375 -20.796875 
L 9.078125 -20.796875 
L 9.078125 54.6875 
L 18.109375 54.6875 
L 18.109375 46.390625 
Q 20.953125 51.265625 25.265625 53.625 
Q 29.59375 56 35.59375 56 
Q 45.5625 56 51.78125 48.09375 
Q 58.015625 40.1875 58.015625 27.296875 
Q 58.015625 14.40625 51.78125 6.484375 
Q 45.5625 -1.421875 35.59375 -1.421875 
Q 29.59375 -1.421875 25.265625 0.953125 
Q 20.953125 3.328125 18.109375 8.203125 
z
M 48.6875 27.296875 
Q 48.6875 37.203125 44.609375 42.84375 
Q 40.53125 48.484375 33.40625 48.484375 
Q 26.265625 48.484375 22.1875 42.84375 
Q 18.109375 37.203125 18.109375 27.296875 
Q 18.109375 17.390625 22.1875 11.75 
Q 26.265625 6.109375 33.40625 6.109375 
Q 40.53125 6.109375 44.609375 11.75 
Q 48.6875 17.390625 48.6875 27.296875 
z
" id="DejaVuSans-112"/>
      <path d="M 18.3125 70.21875 
L 18.3125 54.6875 
L 36.8125 54.6875 
L 36.8125 47.703125 
L 18.3125 47.703125 
L 18.3125 18.015625 
Q 18.3125 11.328125 20.140625 9.421875 
Q 21.96875 7.515625 27.59375 7.515625 
L 36.8125 7.515625 
L 36.8125 0 
L 27.59375 0 
Q 17.1875 0 13.234375 3.875 
Q 9.28125 7.765625 9.28125 18.015625 
L 9.28125 47.703125 
L 2.6875 47.703125 
L 2.6875 54.6875 
L 9.28125 54.6875 
L 9.28125 70.21875 
z
" id="DejaVuSans-116"/>
      <path d="M 34.28125 27.484375 
Q 23.390625 27.484375 19.1875 25 
Q 14.984375 22.515625 14.984375 16.5 
Q 14.984375 11.71875 18.140625 8.90625 
Q 21.296875 6.109375 26.703125 6.109375 
Q 34.1875 6.109375 38.703125 11.40625 
Q 43.21875 16.703125 43.21875 25.484375 
L 43.21875 27.484375 
z
M 52.203125 31.203125 
L 52.203125 0 
L 43.21875 0 
L 43.21875 8.296875 
Q 40.140625 3.328125 35.546875 0.953125 
Q 30.953125 -1.421875 24.3125 -1.421875 
Q 15.921875 -1.421875 10.953125 3.296875 
Q 6 8.015625 6 15.921875 
Q 6 25.140625 12.171875 29.828125 
Q 18.359375 34.515625 30.609375 34.515625 
L 43.21875 34.515625 
L 43.21875 35.40625 
Q 43.21875 41.609375 39.140625 45 
Q 35.0625 48.390625 27.6875 48.390625 
Q 23 48.390625 18.546875 47.265625 
Q 14.109375 46.140625 10.015625 43.890625 
L 10.015625 52.203125 
Q 14.9375 54.109375 19.578125 55.046875 
Q 24.21875 56 28.609375 56 
Q 40.484375 56 46.34375 49.84375 
Q 52.203125 43.703125 52.203125 31.203125 
z
" id="DejaVuSans-97"/>
      <path d="M 9.421875 75.984375 
L 18.40625 75.984375 
L 18.40625 0 
L 9.421875 0 
z
" id="DejaVuSans-108"/>
      <path d="M 19.671875 64.796875 
L 19.671875 8.109375 
L 31.59375 8.109375 
Q 46.6875 8.109375 53.6875 14.9375 
Q 60.6875 21.78125 60.6875 36.53125 
Q 60.6875 51.171875 53.6875 57.984375 
Q 46.6875 64.796875 31.59375 64.796875 
z
M 9.8125 72.90625 
L 30.078125 72.90625 
Q 51.265625 72.90625 61.171875 64.09375 
Q 71.09375 55.28125 71.09375 36.53125 
Q 71.09375 17.671875 61.125 8.828125 
Q 51.171875 0 30.078125 0 
L 9.8125 0 
z
" id="DejaVuSans-68"/>
      <path d="M 44.28125 53.078125 
L 44.28125 44.578125 
Q 40.484375 46.53125 36.375 47.5 
Q 32.28125 48.484375 27.875 48.484375 
Q 21.1875 48.484375 17.84375 46.4375 
Q 14.5 44.390625 14.5 40.28125 
Q 14.5 37.15625 16.890625 35.375 
Q 19.28125 33.59375 26.515625 31.984375 
L 29.59375 31.296875 
Q 39.15625 29.25 43.1875 25.515625 
Q 47.21875 21.78125 47.21875 15.09375 
Q 47.21875 7.46875 41.1875 3.015625 
Q 35.15625 -1.421875 24.609375 -1.421875 
Q 20.21875 -1.421875 15.453125 -0.5625 
Q 10.6875 0.296875 5.421875 2 
L 5.421875 11.28125 
Q 10.40625 8.6875 15.234375 7.390625 
Q 20.0625 6.109375 24.8125 6.109375 
Q 31.15625 6.109375 34.5625 8.28125 
Q 37.984375 10.453125 37.984375 14.40625 
Q 37.984375 18.0625 35.515625 20.015625 
Q 33.0625 21.96875 24.703125 23.78125 
L 21.578125 24.515625 
Q 13.234375 26.265625 9.515625 29.90625 
Q 5.8125 33.546875 5.8125 39.890625 
Q 5.8125 47.609375 11.28125 51.796875 
Q 16.75 56 26.8125 56 
Q 31.78125 56 36.171875 55.265625 
Q 40.578125 54.546875 44.28125 53.078125 
z
" id="DejaVuSans-115"/>
      <path d="M 9.421875 54.6875 
L 18.40625 54.6875 
L 18.40625 0 
L 9.421875 0 
z
M 9.421875 75.984375 
L 18.40625 75.984375 
L 18.40625 64.59375 
L 9.421875 64.59375 
z
" id="DejaVuSans-105"/>
      <path d="M 31 75.875 
Q 24.46875 64.65625 21.28125 53.65625 
Q 18.109375 42.671875 18.109375 31.390625 
Q 18.109375 20.125 21.3125 9.0625 
Q 24.515625 -2 31 -13.1875 
L 23.1875 -13.1875 
Q 15.875 -1.703125 12.234375 9.375 
Q 8.59375 20.453125 8.59375 31.390625 
Q 8.59375 42.28125 12.203125 53.3125 
Q 15.828125 64.359375 23.1875 75.875 
z
" id="DejaVuSans-40"/>
      <path d="M 45.40625 46.390625 
L 45.40625 75.984375 
L 54.390625 75.984375 
L 54.390625 0 
L 45.40625 0 
L 45.40625 8.203125 
Q 42.578125 3.328125 38.25 0.953125 
Q 33.9375 -1.421875 27.875 -1.421875 
Q 17.96875 -1.421875 11.734375 6.484375 
Q 5.515625 14.40625 5.515625 27.296875 
Q 5.515625 40.1875 11.734375 48.09375 
Q 17.96875 56 27.875 56 
Q 33.9375 56 38.25 53.625 
Q 42.578125 51.265625 45.40625 46.390625 
z
M 14.796875 27.296875 
Q 14.796875 17.390625 18.875 11.75 
Q 22.953125 6.109375 30.078125 6.109375 
Q 37.203125 6.109375 41.296875 11.75 
Q 45.40625 17.390625 45.40625 27.296875 
Q 45.40625 37.203125 41.296875 42.84375 
Q 37.203125 48.484375 30.078125 48.484375 
Q 22.953125 48.484375 18.875 42.84375 
Q 14.796875 37.203125 14.796875 27.296875 
z
" id="DejaVuSans-100"/>
      <path d="M 19.671875 34.8125 
L 19.671875 8.109375 
L 35.5 8.109375 
Q 43.453125 8.109375 47.28125 11.40625 
Q 51.125 14.703125 51.125 21.484375 
Q 51.125 28.328125 47.28125 31.5625 
Q 43.453125 34.8125 35.5 34.8125 
z
M 19.671875 64.796875 
L 19.671875 42.828125 
L 34.28125 42.828125 
Q 41.5 42.828125 45.03125 45.53125 
Q 48.578125 48.25 48.578125 53.8125 
Q 48.578125 59.328125 45.03125 62.0625 
Q 41.5 64.796875 34.28125 64.796875 
z
M 9.8125 72.90625 
L 35.015625 72.90625 
Q 46.296875 72.90625 52.390625 68.21875 
Q 58.5 63.53125 58.5 54.890625 
Q 58.5 48.1875 55.375 44.234375 
Q 52.25 40.28125 46.1875 39.3125 
Q 53.46875 37.75 57.5 32.78125 
Q 61.53125 27.828125 61.53125 20.40625 
Q 61.53125 10.640625 54.890625 5.3125 
Q 48.25 0 35.984375 0 
L 9.8125 0 
z
" id="DejaVuSans-66"/>
      <path d="M 25.390625 72.90625 
L 33.6875 72.90625 
L 8.296875 -9.28125 
L 0 -9.28125 
z
" id="DejaVuSans-47"/>
      <path d="M 9.8125 72.90625 
L 19.671875 72.90625 
L 19.671875 43.015625 
L 55.515625 43.015625 
L 55.515625 72.90625 
L 65.375 72.90625 
L 65.375 0 
L 55.515625 0 
L 55.515625 34.71875 
L 19.671875 34.71875 
L 19.671875 0 
L 9.8125 0 
z
" id="DejaVuSans-72"/>
      <path d="M 5.515625 54.6875 
L 48.1875 54.6875 
L 48.1875 46.484375 
L 14.40625 7.171875 
L 48.1875 7.171875 
L 48.1875 0 
L 4.296875 0 
L 4.296875 8.203125 
L 38.09375 47.515625 
L 5.515625 47.515625 
z
" id="DejaVuSans-122"/>
      <path d="M 8.015625 75.875 
L 15.828125 75.875 
Q 23.140625 64.359375 26.78125 53.3125 
Q 30.421875 42.28125 30.421875 31.390625 
Q 30.421875 20.453125 26.78125 9.375 
Q 23.140625 -1.703125 15.828125 -13.1875 
L 8.015625 -13.1875 
Q 14.5 -2 17.703125 9.0625 
Q 20.90625 20.125 20.90625 31.390625 
Q 20.90625 42.671875 17.703125 53.65625 
Q 14.5 64.65625 8.015625 75.875 
z
" id="DejaVuSans-41"/>
     </defs>
     <g transform="translate(10.598678 610.667656)rotate(-90)scale(0.1 -0.1)">
      <use xlink:href="#DejaVuSans-80"/>
      <use x="60.255859" xlink:href="#DejaVuSans-111"/>
      <use x="121.4375" xlink:href="#DejaVuSans-119"/>
      <use x="203.224609" xlink:href="#DejaVuSans-101"/>
      <use x="264.748047" xlink:href="#DejaVuSans-114"/>
      <use x="305.861328" xlink:href="#DejaVuSans-32"/>
      <use x="337.648438" xlink:href="#DejaVuSans-83"/>
      <use x="401.125" xlink:href="#DejaVuSans-112"/>
      <use x="464.601562" xlink:href="#DejaVuSans-101"/>
      <use x="526.125" xlink:href="#DejaVuSans-99"/>
      <use x="581.105469" xlink:href="#DejaVuSans-116"/>
      <use x="620.314453" xlink:href="#DejaVuSans-114"/>
      <use x="661.427734" xlink:href="#DejaVuSans-97"/>
      <use x="722.707031" xlink:href="#DejaVuSans-108"/>
      <use x="750.490234" xlink:href="#DejaVuSans-32"/>
      <use x="782.277344" xlink:href="#DejaVuSans-68"/>
      <use x="859.279297" xlink:href="#DejaVuSans-101"/>
      <use x="920.802734" xlink:href="#DejaVuSans-110"/>
      <use x="984.181641" xlink:href="#DejaVuSans-115"/>
      <use x="1036.28125" xlink:href="#DejaVuSans-105"/>
      <use x="1064.064453" xlink:href="#DejaVuSans-116"/>
      <use x="1103.273438" xlink:href="#DejaVuSans-121"/>
      <use x="1162.453125" xlink:href="#DejaVuSans-32"/>
      <use x="1194.240234" xlink:href="#DejaVuSans-40"/>
      <use x="1233.253906" xlink:href="#DejaVuSans-100"/>
      <use x="1296.730469" xlink:href="#DejaVuSans-66"/>
      <use x="1365.333984" xlink:href="#DejaVuSans-47"/>
      <use x="1399.025391" xlink:href="#DejaVuSans-72"/>
      <use x="1474.220703" xlink:href="#DejaVuSans-122"/>
      <use x="1526.710938" xlink:href="#DejaVuSans-41"/>
     </g>
    </g>
   </g>
   <g id="line2d_33">
    <path clip-path="url(#p43f525edd7)" d="M 78.561951 833.088366 
L 79.881439 795.83025 
L 81.200928 799.963307 
L 82.520416 806.133031 
L 83.839904 813.11329 
L 85.159392 819.116335 
L 86.478881 822.293755 
L 87.798369 821.737741 
L 89.117857 818.045892 
L 95.715298 791.135698 
L 97.034786 785.030511 
L 98.354275 777.98226 
L 102.312739 755.302262 
L 103.632227 749.171865 
L 104.951716 744.317352 
L 106.271204 740.748809 
L 107.590692 738.361536 
L 108.91018 737.033053 
L 110.229669 736.684565 
L 111.549157 737.277854 
L 112.868645 738.737433 
L 115.507622 742.8801 
L 116.82711 743.864394 
L 118.146598 742.333299 
L 119.466086 737.13607 
L 120.785574 728.210949 
L 124.744039 693.022044 
L 126.063527 683.378827 
L 127.383016 676.164514 
L 128.702504 671.608667 
L 130.021992 669.631717 
L 131.34148 669.827635 
L 133.980457 673.046296 
L 135.299945 673.220245 
L 136.619433 670.564266 
L 137.938921 664.708282 
L 139.25841 656.480365 
L 141.897386 638.784385 
L 143.216874 631.836405 
L 144.536363 627.236735 
L 145.855851 625.450116 
L 147.175339 626.778688 
L 148.494827 631.422401 
L 149.814315 639.510557 
L 151.133804 651.110904 
L 152.453292 666.216209 
L 153.77278 684.698339 
L 155.092268 706.206479 
L 159.050733 777.560466 
L 160.370221 796.351925 
L 161.689709 809.410158 
L 163.009198 817.430353 
L 164.328686 822.286162 
L 165.648174 825.399795 
L 166.967662 827.136157 
L 168.287151 827.076842 
L 169.606639 824.64514 
L 170.926127 819.72044 
L 172.245615 812.869594 
L 174.884592 797.378415 
L 176.20408 790.492978 
L 177.523568 784.888779 
L 178.843056 780.781874 
L 180.162545 778.219407 
L 181.482033 777.135114 
L 182.801521 777.384054 
L 184.121009 778.76143 
L 185.440498 781.01278 
L 186.759986 783.844788 
L 190.718451 792.897176 
L 192.037939 795.443474 
L 193.357427 797.68905 
L 194.676915 799.680298 
L 195.996403 801.366433 
L 197.315892 802.46891 
L 198.63538 802.416551 
L 199.954868 800.420823 
L 201.274356 795.716505 
L 202.593845 787.856286 
L 203.913333 776.856139 
L 205.232821 763.125178 
L 207.871797 730.22098 
L 210.510774 695.507159 
L 211.830262 679.395713 
L 213.14975 664.895193 
L 214.469239 652.411968 
L 215.788727 642.240994 
L 217.108215 634.600218 
L 218.427703 629.657684 
L 219.747192 627.547573 
L 221.06668 628.374881 
L 222.386168 632.208478 
L 223.705656 639.059711 
L 225.025144 648.839186 
L 226.344633 661.27936 
L 228.983609 691.428223 
L 230.303097 706.638245 
L 231.622586 719.819395 
L 232.942074 730.011302 
L 234.261562 737.537232 
L 236.900538 749.85867 
L 238.220027 756.903772 
L 239.539515 765.02935 
L 242.178491 782.605237 
L 243.49798 790.393015 
L 244.817468 796.617087 
L 246.136956 801.224427 
L 247.456444 804.65423 
L 251.414909 813.395058 
L 255.373374 823.333697 
L 256.692862 826.199549 
L 258.01235 828.396622 
L 259.331838 829.675185 
L 260.651327 829.836805 
L 261.970815 828.77692 
L 263.290303 826.530662 
L 264.609791 823.297168 
L 269.887744 808.088447 
L 271.207232 805.357456 
L 273.846209 800.614676 
L 275.165697 797.145261 
L 276.485185 791.724513 
L 277.804674 783.860671 
L 279.124162 773.807513 
L 283.082626 739.457593 
L 284.402115 729.268574 
L 285.721603 720.47187 
L 287.041091 713.311258 
L 288.360579 708.001014 
L 289.680068 704.759847 
L 290.999556 703.812204 
L 292.319044 705.371916 
L 293.638532 709.620501 
L 294.958021 716.685637 
L 296.277509 726.618543 
L 297.596997 739.363788 
L 298.916485 754.711344 
L 301.555462 791.105251 
L 304.194438 827.674075 
L 305.513926 842.000321 
L 306.833415 852.02687 
L 308.152903 857.740743 
L 309.472391 859.971109 
L 310.791879 859.787392 
L 312.111367 858.124461 
L 316.069832 851.155508 
L 317.38932 849.921348 
L 318.708809 849.788472 
L 320.028297 850.821649 
L 321.347785 852.867318 
L 325.30625 860.683743 
L 326.625738 862.079058 
L 327.945226 862.357439 
L 329.264714 861.646567 
L 330.584203 860.288179 
L 333.223179 857.128355 
L 334.542667 855.811179 
L 337.181644 853.801202 
L 338.501132 852.811206 
L 339.82062 851.57112 
L 341.140109 849.909968 
L 342.459597 847.672673 
L 343.779085 844.639701 
L 345.098573 840.402732 
L 346.418061 834.285558 
L 347.73755 825.460453 
L 349.057038 813.350011 
L 350.376526 798.097308 
L 355.654479 728.055535 
L 356.973967 713.6459 
L 358.293455 701.680914 
L 359.612944 692.40573 
L 360.932432 685.970897 
L 362.25192 682.47084 
L 363.571408 681.965119 
L 364.890897 684.487564 
L 366.210385 690.045847 
L 367.529873 698.611049 
L 368.849361 710.093113 
L 370.16885 724.292658 
L 371.488338 740.812593 
L 375.446802 794.098636 
L 376.766291 807.135761 
L 378.085779 815.070094 
L 379.405267 818.181218 
L 380.724755 817.917312 
L 382.044244 815.741579 
L 383.363732 812.487369 
L 384.68322 808.38841 
L 386.002708 803.418745 
L 389.961173 785.694678 
L 391.280661 780.989031 
L 392.600149 778.130525 
L 393.919638 777.665737 
L 395.239126 779.934588 
L 396.558614 785.072434 
L 397.878102 793.002784 
L 399.197591 803.40046 
L 401.836567 828.669377 
L 403.156055 841.217304 
L 404.475543 851.971737 
L 405.795032 860.173267 
L 407.11452 865.914555 
L 408.434008 869.911524 
L 409.753496 872.974289 
L 411.072985 875.623773 
L 412.392473 877.979847 
L 413.711961 879.812531 
L 415.031449 880.66213 
L 416.350937 880.007249 
L 417.670426 877.472384 
L 418.989914 873.014093 
L 420.309402 866.9848 
L 424.267867 846.33452 
L 425.587355 840.846208 
L 426.906843 836.850513 
L 428.226332 834.602484 
L 429.54582 834.233231 
L 430.865308 835.757501 
L 432.184796 839.059904 
L 433.504284 843.857244 
L 437.462749 861.000226 
L 438.782237 864.753779 
L 440.101726 866.484626 
L 441.421214 866.391113 
L 442.740702 865.180494 
L 444.06019 863.698454 
L 445.379679 862.617072 
L 446.699167 862.306907 
L 448.018655 862.846352 
L 449.338143 864.094756 
L 451.97712 867.667167 
L 457.255073 875.082037 
L 459.894049 879.516934 
L 461.213537 881.858422 
L 462.533025 883.964325 
L 463.852514 885.480656 
L 465.172002 886.035836 
L 466.49149 885.320352 
L 467.810978 883.153731 
L 469.130467 879.516592 
L 470.449955 874.544507 
L 471.769443 868.497843 
L 474.40842 854.610234 
L 477.047396 840.926419 
L 478.366884 835.03619 
L 479.686372 830.137155 
L 481.005861 826.415666 
L 482.325349 823.990847 
L 483.644837 822.90851 
L 484.964325 823.128319 
L 486.283814 824.506368 
L 487.603302 826.781449 
L 491.561766 835.024352 
L 492.881255 837.001919 
L 494.200743 838.384125 
L 496.839719 840.426769 
L 498.159208 841.869333 
L 499.478696 844.058985 
L 500.798184 847.206601 
L 502.117672 851.390325 
L 503.437161 856.560457 
L 504.756649 862.546044 
L 508.715113 881.93275 
L 510.034602 887.261642 
L 511.35409 891.239144 
L 512.673578 893.684717 
L 513.993066 894.763142 
L 515.312555 894.936884 
L 516.632043 894.804103 
L 517.951531 894.918987 
L 519.271019 895.667473 
L 520.590508 897.209846 
L 521.909996 899.471332 
L 524.548972 904.873611 
L 525.86846 907.126136 
L 527.187949 908.558177 
L 528.507437 908.979433 
L 529.826925 908.357941 
L 531.146413 906.707185 
L 532.465902 903.962437 
L 533.78539 899.945728 
L 535.104878 894.469478 
L 536.424366 887.531655 
L 539.063343 870.896506 
L 540.382831 862.606415 
L 541.702319 855.307661 
L 543.021807 849.549051 
L 544.341296 845.682191 
L 545.660784 843.876861 
L 546.980272 844.148437 
L 548.29976 846.380748 
L 549.619249 850.340281 
L 550.938737 855.684757 
L 553.577713 868.697015 
L 556.21669 881.399181 
L 557.536178 886.625952 
L 558.855666 890.933659 
L 560.175154 894.453534 
L 561.494643 897.429909 
L 564.133619 902.643346 
L 566.772595 907.291612 
L 568.092084 909.156913 
L 569.411572 910.514943 
L 570.73106 911.311199 
L 572.050548 911.641361 
L 573.370037 911.750134 
L 574.689525 911.972529 
L 576.009013 912.64575 
L 577.328501 914.025679 
L 578.64799 916.227934 
L 579.967478 919.198753 
L 583.925942 929.944655 
L 585.245431 932.905779 
L 586.564919 935.116416 
L 587.884407 936.55775 
L 589.203895 937.351893 
L 590.523384 937.682563 
L 591.842872 937.728294 
L 595.801337 937.562037 
L 597.120825 937.858081 
L 598.440313 938.575895 
L 599.759801 939.836115 
L 601.079289 941.68964 
L 602.398778 944.083036 
L 606.357242 952.216087 
L 607.676731 954.106868 
L 608.996219 955.058422 
L 610.315707 954.915331 
L 611.635195 953.656318 
L 612.954683 951.359195 
L 614.274172 948.163868 
L 615.59366 944.25907 
L 620.871613 926.984362 
L 622.191101 923.684679 
L 623.510589 921.147833 
L 624.830078 919.347131 
L 626.149566 918.137886 
L 627.469054 917.299007 
L 630.10803 915.864152 
L 634.066495 913.340285 
L 635.385983 912.722031 
L 636.705472 912.377328 
L 638.02496 912.311537 
L 643.302913 912.819902 
L 644.622401 912.558814 
L 648.580866 911.042601 
L 649.900354 910.832522 
L 651.219842 911.068355 
L 652.53933 911.879053 
L 653.858819 913.339196 
L 655.178307 915.470687 
L 656.497795 918.250459 
L 657.817283 921.618495 
L 659.136771 925.482423 
L 661.775748 934.167843 
L 664.414724 942.942476 
L 665.734213 946.864971 
L 667.053701 950.26073 
L 668.373189 953.061359 
L 669.692677 955.301931 
L 671.012166 957.112879 
L 674.97063 961.848413 
L 677.609607 965.647698 
L 680.248583 969.506369 
L 681.568071 970.956255 
L 682.88756 971.802555 
L 684.207048 971.917078 
L 685.526536 971.281871 
L 686.846024 969.986665 
L 688.165512 968.197966 
L 693.443465 960.023797 
L 694.762954 958.502627 
L 696.082442 957.335391 
L 697.40193 956.474044 
L 700.040907 955.067901 
L 701.360395 954.080585 
L 702.679883 952.625897 
L 703.999371 950.625521 
L 706.638348 945.523649 
L 707.957836 943.022404 
L 709.277324 941.014271 
L 710.596812 939.769273 
L 711.916301 939.444063 
L 713.235789 940.076425 
L 714.555277 941.602618 
L 715.874765 943.887428 
L 717.194253 946.758464 
L 719.83323 953.561637 
L 725.111183 967.926951 
L 730.389136 981.727577 
L 736.986577 1000.183754 
L 738.306065 1003.20044 
L 739.625553 1005.668425 
L 740.945042 1007.518689 
L 742.26453 1008.738725 
L 743.584018 1009.367014 
L 744.903506 1009.483751 
L 746.222994 1009.200753 
L 747.542483 1008.650076 
L 751.500947 1006.726889 
L 752.820436 1006.354671 
L 754.139924 1006.225151 
L 754.139924 1006.225151 
" style="fill:none;stroke:#1f77b4;stroke-linecap:square;stroke-width:1.5;"/>
   </g>
   <g id="patch_3">
    <path d="M 44.783053 1046.64351 
L 44.783053 18.118365 
" style="fill:none;stroke:#000000;stroke-linecap:square;stroke-linejoin:miter;stroke-width:0.8;"/>
   </g>
   <g id="patch_4">
    <path d="M 787.918822 1046.64351 
L 787.918822 18.118365 
" style="fill:none;stroke:#000000;stroke-linecap:square;stroke-linejoin:miter;stroke-width:0.8;"/>
   </g>
   <g id="patch_5">
    <path d="M 44.783053 1046.64351 
L 787.918823 1046.64351 
" style="fill:none;stroke:#000000;stroke-linecap:square;stroke-linejoin:miter;stroke-width:0.8;"/>
   </g>
   <g id="patch_6">
    <path d="M 44.783053 18.118365 
L 787.918823 18.118365 
" style="fill:none;stroke:#000000;stroke-linecap:square;stroke-linejoin:miter;stroke-width:0.8;"/>
   </g>
   <g id="text_19">
    <!-- Periodogram -->
    <defs>
     <path d="M 45.40625 27.984375 
Q 45.40625 37.75 41.375 43.109375 
Q 37.359375 48.484375 30.078125 48.484375 
Q 22.859375 48.484375 18.828125 43.109375 
Q 14.796875 37.75 14.796875 27.984375 
Q 14.796875 18.265625 18.828125 12.890625 
Q 22.859375 7.515625 30.078125 7.515625 
Q 37.359375 7.515625 41.375 12.890625 
Q 45.40625 18.265625 45.40625 27.984375 
z
M 54.390625 6.78125 
Q 54.390625 -7.171875 48.1875 -13.984375 
Q 42 -20.796875 29.203125 -20.796875 
Q 24.46875 -20.796875 20.265625 -20.09375 
Q 16.0625 -19.390625 12.109375 -17.921875 
L 12.109375 -9.1875 
Q 16.0625 -11.328125 19.921875 -12.34375 
Q 23.78125 -13.375 27.78125 -13.375 
Q 36.625 -13.375 41.015625 -8.765625 
Q 45.40625 -4.15625 45.40625 5.171875 
L 45.40625 9.625 
Q 42.625 4.78125 38.28125 2.390625 
Q 33.9375 0 27.875 0 
Q 17.828125 0 11.671875 7.65625 
Q 5.515625 15.328125 5.515625 27.984375 
Q 5.515625 40.671875 11.671875 48.328125 
Q 17.828125 56 27.875 56 
Q 33.9375 56 38.28125 53.609375 
Q 42.625 51.21875 45.40625 46.390625 
L 45.40625 54.6875 
L 54.390625 54.6875 
z
" id="DejaVuSans-103"/>
     <path d="M 52 44.1875 
Q 55.375 50.25 60.0625 53.125 
Q 64.75 56 71.09375 56 
Q 79.640625 56 84.28125 50.015625 
Q 88.921875 44.046875 88.921875 33.015625 
L 88.921875 0 
L 79.890625 0 
L 79.890625 32.71875 
Q 79.890625 40.578125 77.09375 44.375 
Q 74.3125 48.1875 68.609375 48.1875 
Q 61.625 48.1875 57.5625 43.546875 
Q 53.515625 38.921875 53.515625 30.90625 
L 53.515625 0 
L 44.484375 0 
L 44.484375 32.71875 
Q 44.484375 40.625 41.703125 44.40625 
Q 38.921875 48.1875 33.109375 48.1875 
Q 26.21875 48.1875 22.15625 43.53125 
Q 18.109375 38.875 18.109375 30.90625 
L 18.109375 0 
L 9.078125 0 
L 9.078125 54.6875 
L 18.109375 54.6875 
L 18.109375 46.1875 
Q 21.1875 51.21875 25.484375 53.609375 
Q 29.78125 56 35.6875 56 
Q 41.65625 56 45.828125 52.96875 
Q 50 49.953125 52 44.1875 
z
" id="DejaVuSans-109"/>
    </defs>
    <g transform="translate(377.962187 12.118365)scale(0.12 -0.12)">
     <use xlink:href="#DejaVuSans-80"/>
     <use x="60.255859" xlink:href="#DejaVuSans-101"/>
     <use x="121.779297" xlink:href="#DejaVuSans-114"/>
     <use x="162.892578" xlink:href="#DejaVuSans-105"/>
     <use x="190.675781" xlink:href="#DejaVuSans-111"/>
     <use x="251.857422" xlink:href="#DejaVuSans-100"/>
     <use x="315.333984" xlink:href="#DejaVuSans-111"/>
     <use x="376.515625" xlink:href="#DejaVuSans-103"/>
     <use x="439.992188" xlink:href="#DejaVuSans-114"/>
     <use x="481.105469" xlink:href="#DejaVuSans-97"/>
     <use x="542.384766" xlink:href="#DejaVuSans-109"/>
    </g>
   </g>
  </g>
  <g id="axes_2">
   <g id="patch_7">
    <path d="M 837.86399 1046.64351 
L 1580.99976 1046.64351 
L 1580.99976 18.118365 
L 837.86399 18.118365 
z
" style="fill:#ffffff;"/>
   </g>
   <g id="matplotlib.axis_3">
    <g id="xtick_8">
     <g id="line2d_34">
      <path clip-path="url(#pc8dffaaf48)" d="M 871.642889 1046.64351 
L 871.642889 18.118365 
" style="fill:none;stroke:#b0b0b0;stroke-linecap:square;stroke-width:0.8;"/>
     </g>
     <g id="line2d_35">
      <g>
       <use style="stroke:#000000;stroke-width:0.8;" x="871.642889" xlink:href="#m49b40c15e2" y="1046.64351"/>
      </g>
     </g>
     <g id="text_20">
      <!-- 0 -->
      <g transform="translate(868.461639 1061.241947)scale(0.1 -0.1)">
       <use xlink:href="#DejaVuSans-48"/>
      </g>
     </g>
    </g>
    <g id="xtick_9">
     <g id="line2d_36">
      <path clip-path="url(#pc8dffaaf48)" d="M 977.201947 1046.64351 
L 977.201947 18.118365 
" style="fill:none;stroke:#b0b0b0;stroke-linecap:square;stroke-width:0.8;"/>
     </g>
     <g id="line2d_37">
      <g>
       <use style="stroke:#000000;stroke-width:0.8;" x="977.201947" xlink:href="#m49b40c15e2" y="1046.64351"/>
      </g>
     </g>
     <g id="text_21">
      <!-- 1000 -->
      <g transform="translate(964.476947 1061.241947)scale(0.1 -0.1)">
       <use xlink:href="#DejaVuSans-49"/>
       <use x="63.623047" xlink:href="#DejaVuSans-48"/>
       <use x="127.246094" xlink:href="#DejaVuSans-48"/>
       <use x="190.869141" xlink:href="#DejaVuSans-48"/>
      </g>
     </g>
    </g>
    <g id="xtick_10">
     <g id="line2d_38">
      <path clip-path="url(#pc8dffaaf48)" d="M 1082.761005 1046.64351 
L 1082.761005 18.118365 
" style="fill:none;stroke:#b0b0b0;stroke-linecap:square;stroke-width:0.8;"/>
     </g>
     <g id="line2d_39">
      <g>
       <use style="stroke:#000000;stroke-width:0.8;" x="1082.761005" xlink:href="#m49b40c15e2" y="1046.64351"/>
      </g>
     </g>
     <g id="text_22">
      <!-- 2000 -->
      <g transform="translate(1070.036005 1061.241947)scale(0.1 -0.1)">
       <use xlink:href="#DejaVuSans-50"/>
       <use x="63.623047" xlink:href="#DejaVuSans-48"/>
       <use x="127.246094" xlink:href="#DejaVuSans-48"/>
       <use x="190.869141" xlink:href="#DejaVuSans-48"/>
      </g>
     </g>
    </g>
    <g id="xtick_11">
     <g id="line2d_40">
      <path clip-path="url(#pc8dffaaf48)" d="M 1188.320063 1046.64351 
L 1188.320063 18.118365 
" style="fill:none;stroke:#b0b0b0;stroke-linecap:square;stroke-width:0.8;"/>
     </g>
     <g id="line2d_41">
      <g>
       <use style="stroke:#000000;stroke-width:0.8;" x="1188.320063" xlink:href="#m49b40c15e2" y="1046.64351"/>
      </g>
     </g>
     <g id="text_23">
      <!-- 3000 -->
      <g transform="translate(1175.595063 1061.241947)scale(0.1 -0.1)">
       <use xlink:href="#DejaVuSans-51"/>
       <use x="63.623047" xlink:href="#DejaVuSans-48"/>
       <use x="127.246094" xlink:href="#DejaVuSans-48"/>
       <use x="190.869141" xlink:href="#DejaVuSans-48"/>
      </g>
     </g>
    </g>
    <g id="xtick_12">
     <g id="line2d_42">
      <path clip-path="url(#pc8dffaaf48)" d="M 1293.879122 1046.64351 
L 1293.879122 18.118365 
" style="fill:none;stroke:#b0b0b0;stroke-linecap:square;stroke-width:0.8;"/>
     </g>
     <g id="line2d_43">
      <g>
       <use style="stroke:#000000;stroke-width:0.8;" x="1293.879122" xlink:href="#m49b40c15e2" y="1046.64351"/>
      </g>
     </g>
     <g id="text_24">
      <!-- 4000 -->
      <g transform="translate(1281.154122 1061.241947)scale(0.1 -0.1)">
       <use xlink:href="#DejaVuSans-52"/>
       <use x="63.623047" xlink:href="#DejaVuSans-48"/>
       <use x="127.246094" xlink:href="#DejaVuSans-48"/>
       <use x="190.869141" xlink:href="#DejaVuSans-48"/>
      </g>
     </g>
    </g>
    <g id="xtick_13">
     <g id="line2d_44">
      <path clip-path="url(#pc8dffaaf48)" d="M 1399.43818 1046.64351 
L 1399.43818 18.118365 
" style="fill:none;stroke:#b0b0b0;stroke-linecap:square;stroke-width:0.8;"/>
     </g>
     <g id="line2d_45">
      <g>
       <use style="stroke:#000000;stroke-width:0.8;" x="1399.43818" xlink:href="#m49b40c15e2" y="1046.64351"/>
      </g>
     </g>
     <g id="text_25">
      <!-- 5000 -->
      <g transform="translate(1386.71318 1061.241947)scale(0.1 -0.1)">
       <use xlink:href="#DejaVuSans-53"/>
       <use x="63.623047" xlink:href="#DejaVuSans-48"/>
       <use x="127.246094" xlink:href="#DejaVuSans-48"/>
       <use x="190.869141" xlink:href="#DejaVuSans-48"/>
      </g>
     </g>
    </g>
    <g id="xtick_14">
     <g id="line2d_46">
      <path clip-path="url(#pc8dffaaf48)" d="M 1504.997238 1046.64351 
L 1504.997238 18.118365 
" style="fill:none;stroke:#b0b0b0;stroke-linecap:square;stroke-width:0.8;"/>
     </g>
     <g id="line2d_47">
      <g>
       <use style="stroke:#000000;stroke-width:0.8;" x="1504.997238" xlink:href="#m49b40c15e2" y="1046.64351"/>
      </g>
     </g>
     <g id="text_26">
      <!-- 6000 -->
      <g transform="translate(1492.272238 1061.241947)scale(0.1 -0.1)">
       <use xlink:href="#DejaVuSans-54"/>
       <use x="63.623047" xlink:href="#DejaVuSans-48"/>
       <use x="127.246094" xlink:href="#DejaVuSans-48"/>
       <use x="190.869141" xlink:href="#DejaVuSans-48"/>
      </g>
     </g>
    </g>
    <g id="text_27">
     <!-- Frequency -->
     <g transform="translate(1183.134219 1074.920072)scale(0.1 -0.1)">
      <use xlink:href="#DejaVuSans-70"/>
      <use x="57.410156" xlink:href="#DejaVuSans-114"/>
      <use x="98.492188" xlink:href="#DejaVuSans-101"/>
      <use x="160.015625" xlink:href="#DejaVuSans-113"/>
      <use x="223.492188" xlink:href="#DejaVuSans-117"/>
      <use x="286.871094" xlink:href="#DejaVuSans-101"/>
      <use x="348.394531" xlink:href="#DejaVuSans-110"/>
      <use x="411.773438" xlink:href="#DejaVuSans-99"/>
      <use x="466.753906" xlink:href="#DejaVuSans-121"/>
     </g>
    </g>
   </g>
   <g id="matplotlib.axis_4">
    <g id="ytick_10">
     <g id="line2d_48">
      <path clip-path="url(#pc8dffaaf48)" d="M 837.86399 1046.64351 
L 1580.99976 1046.64351 
" style="fill:none;stroke:#b0b0b0;stroke-linecap:square;stroke-width:0.8;"/>
     </g>
     <g id="line2d_49">
      <g>
       <use style="stroke:#000000;stroke-width:0.8;" x="837.86399" xlink:href="#ma7d5b45904" y="1046.64351"/>
      </g>
     </g>
     <g id="text_28">
      <!-- −60 -->
      <g transform="translate(809.759302 1050.442729)scale(0.1 -0.1)">
       <use xlink:href="#DejaVuSans-8722"/>
       <use x="83.789062" xlink:href="#DejaVuSans-54"/>
       <use x="147.412109" xlink:href="#DejaVuSans-48"/>
      </g>
     </g>
    </g>
    <g id="ytick_11">
     <g id="line2d_50">
      <path clip-path="url(#pc8dffaaf48)" d="M 837.86399 918.077867 
L 1580.99976 918.077867 
" style="fill:none;stroke:#b0b0b0;stroke-linecap:square;stroke-width:0.8;"/>
     </g>
     <g id="line2d_51">
      <g>
       <use style="stroke:#000000;stroke-width:0.8;" x="837.86399" xlink:href="#ma7d5b45904" y="918.077867"/>
      </g>
     </g>
     <g id="text_29">
      <!-- −50 -->
      <g transform="translate(809.759302 921.877086)scale(0.1 -0.1)">
       <use xlink:href="#DejaVuSans-8722"/>
       <use x="83.789062" xlink:href="#DejaVuSans-53"/>
       <use x="147.412109" xlink:href="#DejaVuSans-48"/>
      </g>
     </g>
    </g>
    <g id="ytick_12">
     <g id="line2d_52">
      <path clip-path="url(#pc8dffaaf48)" d="M 837.86399 789.512224 
L 1580.99976 789.512224 
" style="fill:none;stroke:#b0b0b0;stroke-linecap:square;stroke-width:0.8;"/>
     </g>
     <g id="line2d_53">
      <g>
       <use style="stroke:#000000;stroke-width:0.8;" x="837.86399" xlink:href="#ma7d5b45904" y="789.512224"/>
      </g>
     </g>
     <g id="text_30">
      <!-- −40 -->
      <g transform="translate(809.759302 793.311442)scale(0.1 -0.1)">
       <use xlink:href="#DejaVuSans-8722"/>
       <use x="83.789062" xlink:href="#DejaVuSans-52"/>
       <use x="147.412109" xlink:href="#DejaVuSans-48"/>
      </g>
     </g>
    </g>
    <g id="ytick_13">
     <g id="line2d_54">
      <path clip-path="url(#pc8dffaaf48)" d="M 837.86399 660.946581 
L 1580.99976 660.946581 
" style="fill:none;stroke:#b0b0b0;stroke-linecap:square;stroke-width:0.8;"/>
     </g>
     <g id="line2d_55">
      <g>
       <use style="stroke:#000000;stroke-width:0.8;" x="837.86399" xlink:href="#ma7d5b45904" y="660.946581"/>
      </g>
     </g>
     <g id="text_31">
      <!-- −30 -->
      <g transform="translate(809.759302 664.745799)scale(0.1 -0.1)">
       <use xlink:href="#DejaVuSans-8722"/>
       <use x="83.789062" xlink:href="#DejaVuSans-51"/>
       <use x="147.412109" xlink:href="#DejaVuSans-48"/>
      </g>
     </g>
    </g>
    <g id="ytick_14">
     <g id="line2d_56">
      <path clip-path="url(#pc8dffaaf48)" d="M 837.86399 532.380937 
L 1580.99976 532.380937 
" style="fill:none;stroke:#b0b0b0;stroke-linecap:square;stroke-width:0.8;"/>
     </g>
     <g id="line2d_57">
      <g>
       <use style="stroke:#000000;stroke-width:0.8;" x="837.86399" xlink:href="#ma7d5b45904" y="532.380937"/>
      </g>
     </g>
     <g id="text_32">
      <!-- −20 -->
      <g transform="translate(809.759302 536.180156)scale(0.1 -0.1)">
       <use xlink:href="#DejaVuSans-8722"/>
       <use x="83.789062" xlink:href="#DejaVuSans-50"/>
       <use x="147.412109" xlink:href="#DejaVuSans-48"/>
      </g>
     </g>
    </g>
    <g id="ytick_15">
     <g id="line2d_58">
      <path clip-path="url(#pc8dffaaf48)" d="M 837.86399 403.815294 
L 1580.99976 403.815294 
" style="fill:none;stroke:#b0b0b0;stroke-linecap:square;stroke-width:0.8;"/>
     </g>
     <g id="line2d_59">
      <g>
       <use style="stroke:#000000;stroke-width:0.8;" x="837.86399" xlink:href="#ma7d5b45904" y="403.815294"/>
      </g>
     </g>
     <g id="text_33">
      <!-- −10 -->
      <g transform="translate(809.759302 407.614513)scale(0.1 -0.1)">
       <use xlink:href="#DejaVuSans-8722"/>
       <use x="83.789062" xlink:href="#DejaVuSans-49"/>
       <use x="147.412109" xlink:href="#DejaVuSans-48"/>
      </g>
     </g>
    </g>
    <g id="ytick_16">
     <g id="line2d_60">
      <path clip-path="url(#pc8dffaaf48)" d="M 837.86399 275.249651 
L 1580.99976 275.249651 
" style="fill:none;stroke:#b0b0b0;stroke-linecap:square;stroke-width:0.8;"/>
     </g>
     <g id="line2d_61">
      <g>
       <use style="stroke:#000000;stroke-width:0.8;" x="837.86399" xlink:href="#ma7d5b45904" y="275.249651"/>
      </g>
     </g>
     <g id="text_34">
      <!-- 0 -->
      <g transform="translate(824.50149 279.04887)scale(0.1 -0.1)">
       <use xlink:href="#DejaVuSans-48"/>
      </g>
     </g>
    </g>
    <g id="ytick_17">
     <g id="line2d_62">
      <path clip-path="url(#pc8dffaaf48)" d="M 837.86399 146.684008 
L 1580.99976 146.684008 
" style="fill:none;stroke:#b0b0b0;stroke-linecap:square;stroke-width:0.8;"/>
     </g>
     <g id="line2d_63">
      <g>
       <use style="stroke:#000000;stroke-width:0.8;" x="837.86399" xlink:href="#ma7d5b45904" y="146.684008"/>
      </g>
     </g>
     <g id="text_35">
      <!-- 10 -->
      <g transform="translate(818.13899 150.483227)scale(0.1 -0.1)">
       <use xlink:href="#DejaVuSans-49"/>
       <use x="63.623047" xlink:href="#DejaVuSans-48"/>
      </g>
     </g>
    </g>
    <g id="ytick_18">
     <g id="line2d_64">
      <path clip-path="url(#pc8dffaaf48)" d="M 837.86399 18.118365 
L 1580.99976 18.118365 
" style="fill:none;stroke:#b0b0b0;stroke-linecap:square;stroke-width:0.8;"/>
     </g>
     <g id="line2d_65">
      <g>
       <use style="stroke:#000000;stroke-width:0.8;" x="837.86399" xlink:href="#ma7d5b45904" y="18.118365"/>
      </g>
     </g>
     <g id="text_36">
      <!-- 20 -->
      <g transform="translate(818.13899 21.917584)scale(0.1 -0.1)">
       <use xlink:href="#DejaVuSans-50"/>
       <use x="63.623047" xlink:href="#DejaVuSans-48"/>
      </g>
     </g>
    </g>
   </g>
   <g id="line2d_66">
    <path clip-path="url(#pc8dffaaf48)" d="M 871.642889 844.872999 
L 874.281865 805.757798 
L 876.920842 804.32507 
L 879.559818 801.422642 
L 882.198794 796.675411 
L 884.837771 790.1136 
L 887.476747 782.248885 
L 892.7547 765.645634 
L 895.393677 758.077726 
L 898.032653 751.249106 
L 903.310606 738.582719 
L 905.949583 731.695094 
L 908.588559 723.895564 
L 911.227535 715.200065 
L 919.144465 687.647277 
L 921.783441 679.187407 
L 924.422418 671.386587 
L 927.061394 664.379924 
L 929.700371 658.413779 
L 932.339347 653.867167 
L 934.978324 651.202757 
L 937.6173 650.890943 
L 940.256276 653.347892 
L 942.895253 658.901375 
L 945.534229 667.774844 
L 948.173206 680.069041 
L 950.812182 695.713127 
L 953.451159 714.343665 
L 958.729112 756.0019 
L 961.368088 774.221181 
L 964.007065 786.591242 
L 966.646041 792.1166 
L 969.285018 792.698724 
L 971.923994 791.158562 
L 974.56297 789.446652 
L 977.201947 788.337881 
L 979.840923 787.662273 
L 982.4799 786.435781 
L 985.118876 782.961631 
L 987.757853 775.367274 
L 990.396829 762.781809 
L 993.035806 746.153572 
L 998.313759 709.348985 
L 1000.952735 692.806064 
L 1003.591711 678.898155 
L 1006.230688 668.112834 
L 1008.869664 660.700122 
L 1011.508641 656.773569 
L 1014.147617 656.361028 
L 1016.786594 659.423834 
L 1019.42557 665.855131 
L 1022.064547 675.462128 
L 1024.703523 687.934523 
L 1027.3425 702.803311 
L 1029.981476 719.402611 
L 1035.259429 754.173036 
L 1037.898405 770.336734 
L 1040.537382 784.556607 
L 1043.176358 796.337732 
L 1045.815335 805.43705 
L 1048.454311 811.731707 
L 1051.093288 815.125361 
L 1053.732264 815.534061 
L 1056.371241 812.919749 
L 1059.010217 807.348225 
L 1061.649193 799.078243 
L 1064.28817 788.653388 
L 1072.205099 753.505783 
L 1074.844076 743.701541 
L 1077.483052 736.103892 
L 1080.122029 731.179385 
L 1082.761005 729.241436 
L 1085.399982 730.485698 
L 1088.038958 735.011606 
L 1090.677934 742.823266 
L 1093.316911 753.802394 
L 1095.955887 767.641933 
L 1098.594864 783.728856 
L 1103.872817 817.814922 
L 1106.511793 832.309088 
L 1109.15077 843.060285 
L 1111.789746 849.873048 
L 1114.428723 853.618162 
L 1117.067699 855.380413 
L 1119.706675 855.8066 
L 1122.345652 854.930715 
L 1124.984628 852.221005 
L 1127.623605 846.711945 
L 1130.262581 837.373263 
L 1132.901558 823.807585 
L 1135.540534 806.787668 
L 1140.818487 769.287441 
L 1143.457464 752.093347 
L 1146.09644 737.374631 
L 1148.735417 725.700169 
L 1151.374393 717.387442 
L 1154.013369 712.599169 
L 1156.652346 711.396866 
L 1159.291322 713.758647 
L 1161.930299 719.56368 
L 1164.569275 728.536522 
L 1167.208252 740.137928 
L 1172.486205 766.812649 
L 1175.125181 778.465713 
L 1177.764158 786.851025 
L 1180.403134 791.812573 
L 1183.04211 794.613422 
L 1185.681087 797.009138 
L 1188.320063 800.406043 
L 1190.95904 805.605054 
L 1193.598016 812.861924 
L 1196.236993 821.967663 
L 1201.514946 842.561336 
L 1204.153922 851.355239 
L 1206.792899 857.176062 
L 1209.431875 859.377756 
L 1212.070851 858.506199 
L 1214.709828 855.891081 
L 1217.348804 852.919785 
L 1219.987781 850.602742 
L 1222.626757 849.491454 
L 1225.265734 849.749641 
L 1227.90471 851.249541 
L 1230.543687 853.667467 
L 1241.099592 865.277103 
L 1243.738569 867.793075 
L 1246.377545 870.102753 
L 1249.016522 872.053662 
L 1251.655498 873.289792 
L 1254.294475 873.301799 
L 1256.933451 871.61106 
L 1259.572428 868.027613 
L 1262.211404 862.815604 
L 1270.128333 844.505346 
L 1272.76731 839.831627 
L 1275.406286 836.570859 
L 1278.045263 834.841599 
L 1280.684239 834.621349 
L 1283.323216 835.799725 
L 1285.962192 838.22849 
L 1288.601169 841.761249 
L 1291.240145 846.272731 
L 1293.879122 851.650011 
L 1296.518098 857.758197 
L 1301.796051 871.268902 
L 1304.435027 877.994769 
L 1307.074004 884.159835 
L 1309.71298 889.381862 
L 1312.351957 893.33735 
L 1314.990933 895.729403 
L 1317.62991 896.254406 
L 1320.268886 894.668389 
L 1322.907863 890.973342 
L 1325.546839 885.582229 
L 1330.824792 873.037155 
L 1333.463768 867.698358 
L 1336.102745 863.916111 
L 1338.741721 862.084073 
L 1341.380698 862.363283 
L 1344.019674 864.709707 
L 1346.658651 868.89434 
L 1349.297627 874.520052 
L 1351.936604 881.05214 
L 1357.214557 894.447511 
L 1359.853533 900.340951 
L 1362.492509 905.415311 
L 1365.131486 909.763604 
L 1367.770462 913.621487 
L 1375.687392 924.29717 
L 1378.326368 927.722374 
L 1380.965345 930.950832 
L 1383.604321 933.897282 
L 1386.243298 936.541577 
L 1388.882274 938.917503 
L 1391.52125 941.04977 
L 1394.160227 942.874046 
L 1396.799203 944.189393 
L 1399.43818 944.685358 
L 1402.077156 944.05601 
L 1404.716133 942.156409 
L 1407.355109 939.105353 
L 1409.994086 935.260463 
L 1415.272039 927.022781 
L 1417.911015 923.374911 
L 1420.549991 920.314641 
L 1423.188968 917.891225 
L 1425.827944 916.073277 
L 1428.466921 914.791088 
L 1431.105897 913.974413 
L 1433.744874 913.582342 
L 1436.38385 913.622271 
L 1439.022827 914.154628 
L 1441.661803 915.281366 
L 1444.30078 917.119855 
L 1446.939756 919.768012 
L 1449.578732 923.268728 
L 1452.217709 927.581548 
L 1454.856685 932.568309 
L 1462.773615 948.970177 
L 1465.412591 953.890284 
L 1468.051568 958.08514 
L 1470.690544 961.369666 
L 1473.329521 963.620302 
L 1475.968497 964.779996 
L 1478.607474 964.872626 
L 1481.24645 964.010782 
L 1483.885426 962.380017 
L 1486.524403 960.203158 
L 1494.441332 952.619724 
L 1497.080309 950.46921 
L 1499.719285 948.890334 
L 1502.358262 948.109973 
L 1504.997238 948.318618 
L 1507.636215 949.642594 
L 1510.275191 952.12573 
L 1512.914167 955.723697 
L 1515.553144 960.309938 
L 1518.19212 965.68962 
L 1523.470073 977.809938 
L 1526.10905 983.964971 
L 1528.748026 989.769189 
L 1531.387003 994.92691 
L 1534.025979 999.202202 
L 1536.664956 1002.468916 
L 1539.303932 1004.740108 
L 1541.942908 1006.150023 
L 1544.581885 1006.888084 
L 1547.220861 1045.815717 
L 1547.220861 1045.815717 
" style="fill:none;stroke:#1f77b4;stroke-linecap:square;stroke-width:1.5;"/>
   </g>
   <g id="patch_8">
    <path d="M 837.86399 1046.64351 
L 837.86399 18.118365 
" style="fill:none;stroke:#000000;stroke-linecap:square;stroke-linejoin:miter;stroke-width:0.8;"/>
   </g>
   <g id="patch_9">
    <path d="M 1580.99976 1046.64351 
L 1580.99976 18.118365 
" style="fill:none;stroke:#000000;stroke-linecap:square;stroke-linejoin:miter;stroke-width:0.8;"/>
   </g>
   <g id="patch_10">
    <path d="M 837.86399 1046.64351 
L 1580.99976 1046.64351 
" style="fill:none;stroke:#000000;stroke-linecap:square;stroke-linejoin:miter;stroke-width:0.8;"/>
   </g>
   <g id="patch_11">
    <path d="M 837.86399 18.118365 
L 1580.99976 18.118365 
" style="fill:none;stroke:#000000;stroke-linecap:square;stroke-linejoin:miter;stroke-width:0.8;"/>
   </g>
   <g id="text_37">
    <!-- Welch -->
    <defs>
     <path d="M 3.328125 72.90625 
L 13.28125 72.90625 
L 28.609375 11.28125 
L 43.890625 72.90625 
L 54.984375 72.90625 
L 70.3125 11.28125 
L 85.59375 72.90625 
L 95.609375 72.90625 
L 77.296875 0 
L 64.890625 0 
L 49.515625 63.28125 
L 33.984375 0 
L 21.578125 0 
z
" id="DejaVuSans-87"/>
     <path d="M 54.890625 33.015625 
L 54.890625 0 
L 45.90625 0 
L 45.90625 32.71875 
Q 45.90625 40.484375 42.875 44.328125 
Q 39.84375 48.1875 33.796875 48.1875 
Q 26.515625 48.1875 22.3125 43.546875 
Q 18.109375 38.921875 18.109375 30.90625 
L 18.109375 0 
L 9.078125 0 
L 9.078125 75.984375 
L 18.109375 75.984375 
L 18.109375 46.1875 
Q 21.34375 51.125 25.703125 53.5625 
Q 30.078125 56 35.796875 56 
Q 45.21875 56 50.046875 50.171875 
Q 54.890625 44.34375 54.890625 33.015625 
z
" id="DejaVuSans-104"/>
    </defs>
    <g transform="translate(1191.04375 12.118365)scale(0.12 -0.12)">
     <use xlink:href="#DejaVuSans-87"/>
     <use x="98.798828" xlink:href="#DejaVuSans-101"/>
     <use x="160.322266" xlink:href="#DejaVuSans-108"/>
     <use x="188.105469" xlink:href="#DejaVuSans-99"/>
     <use x="243.085938" xlink:href="#DejaVuSans-104"/>
    </g>
   </g>
  </g>
 </g>
 <defs>
  <clipPath id="p43f525edd7">
   <rect height="1028.525145" width="743.13577" x="44.783053" y="18.118365"/>
  </clipPath>
  <clipPath id="pc8dffaaf48">
   <rect height="1028.525145" width="743.13577" x="837.86399" y="18.118365"/>
  </clipPath>
 </defs>
</svg>
