<?xml version="1.0" encoding="utf-8" standalone="no"?>
<!DOCTYPE svg PUBLIC "-//W3C//DTD SVG 1.1//EN"
  "http://www.w3.org/Graphics/SVG/1.1/DTD/svg11.dtd">
<!-- Created with matplotlib (https://matplotlib.org/) -->
<svg height="1080pt" version="1.1" viewBox="0 0 1584 1080" width="1584pt" xmlns="http://www.w3.org/2000/svg" xmlns:xlink="http://www.w3.org/1999/xlink">
 <metadata>
  <rdf:RDF xmlns:cc="http://creativecommons.org/ns#" xmlns:dc="http://purl.org/dc/elements/1.1/" xmlns:rdf="http://www.w3.org/1999/02/22-rdf-syntax-ns#">
   <cc:Work>
    <dc:type rdf:resource="http://purl.org/dc/dcmitype/StillImage"/>
    <dc:date>2021-02-18T12:05:38.581702</dc:date>
    <dc:format>image/svg+xml</dc:format>
    <dc:creator>
     <cc:Agent>
      <dc:title>Matplotlib v3.3.4, https://matplotlib.org/</dc:title>
     </cc:Agent>
    </dc:creator>
   </cc:Work>
  </rdf:RDF>
 </metadata>
 <defs>
  <style type="text/css">*{stroke-linecap:butt;stroke-linejoin:round;}</style>
 </defs>
 <g id="figure_1">
  <g id="patch_1">
   <path d="M 0 1080 
L 1584 1080 
L 1584 0 
L 0 0 
z
" style="fill:none;"/>
  </g>
  <g id="axes_1">
   <g id="patch_2">
    <path d="M 44.783053 1046.64351 
L 787.918822 1046.64351 
L 787.918822 18.118365 
L 44.783053 18.118365 
z
" style="fill:#ffffff;"/>
   </g>
   <g id="matplotlib.axis_1">
    <g id="xtick_1">
     <g id="line2d_1">
      <path clip-path="url(#pb7377527fd)" d="M 78.561951 1046.64351 
L 78.561951 18.118365 
" style="fill:none;stroke:#b0b0b0;stroke-linecap:square;stroke-width:0.8;"/>
     </g>
     <g id="line2d_2">
      <defs>
       <path d="M 0 0 
L 0 3.5 
" id="m0ad8de3c61" style="stroke:#000000;stroke-width:0.8;"/>
      </defs>
      <g>
       <use style="stroke:#000000;stroke-width:0.8;" x="78.561951" xlink:href="#m0ad8de3c61" y="1046.64351"/>
      </g>
     </g>
     <g id="text_1">
      <!-- 0 -->
      <g transform="translate(75.380701 1061.241947)scale(0.1 -0.1)">
       <defs>
        <path d="M 31.78125 66.40625 
Q 24.171875 66.40625 20.328125 58.90625 
Q 16.5 51.421875 16.5 36.375 
Q 16.5 21.390625 20.328125 13.890625 
Q 24.171875 6.390625 31.78125 6.390625 
Q 39.453125 6.390625 43.28125 13.890625 
Q 47.125 21.390625 47.125 36.375 
Q 47.125 51.421875 43.28125 58.90625 
Q 39.453125 66.40625 31.78125 66.40625 
z
M 31.78125 74.21875 
Q 44.046875 74.21875 50.515625 64.515625 
Q 56.984375 54.828125 56.984375 36.375 
Q 56.984375 17.96875 50.515625 8.265625 
Q 44.046875 -1.421875 31.78125 -1.421875 
Q 19.53125 -1.421875 13.0625 8.265625 
Q 6.59375 17.96875 6.59375 36.375 
Q 6.59375 54.828125 13.0625 64.515625 
Q 19.53125 74.21875 31.78125 74.21875 
z
" id="DejaVuSans-48"/>
       </defs>
       <use xlink:href="#DejaVuSans-48"/>
      </g>
     </g>
    </g>
    <g id="xtick_2">
     <g id="line2d_3">
      <path clip-path="url(#pb7377527fd)" d="M 184.121009 1046.64351 
L 184.121009 18.118365 
" style="fill:none;stroke:#b0b0b0;stroke-linecap:square;stroke-width:0.8;"/>
     </g>
     <g id="line2d_4">
      <g>
       <use style="stroke:#000000;stroke-width:0.8;" x="184.121009" xlink:href="#m0ad8de3c61" y="1046.64351"/>
      </g>
     </g>
     <g id="text_2">
      <!-- 1000 -->
      <g transform="translate(171.396009 1061.241947)scale(0.1 -0.1)">
       <defs>
        <path d="M 12.40625 8.296875 
L 28.515625 8.296875 
L 28.515625 63.921875 
L 10.984375 60.40625 
L 10.984375 69.390625 
L 28.421875 72.90625 
L 38.28125 72.90625 
L 38.28125 8.296875 
L 54.390625 8.296875 
L 54.390625 0 
L 12.40625 0 
z
" id="DejaVuSans-49"/>
       </defs>
       <use xlink:href="#DejaVuSans-49"/>
       <use x="63.623047" xlink:href="#DejaVuSans-48"/>
       <use x="127.246094" xlink:href="#DejaVuSans-48"/>
       <use x="190.869141" xlink:href="#DejaVuSans-48"/>
      </g>
     </g>
    </g>
    <g id="xtick_3">
     <g id="line2d_5">
      <path clip-path="url(#pb7377527fd)" d="M 289.680068 1046.64351 
L 289.680068 18.118365 
" style="fill:none;stroke:#b0b0b0;stroke-linecap:square;stroke-width:0.8;"/>
     </g>
     <g id="line2d_6">
      <g>
       <use style="stroke:#000000;stroke-width:0.8;" x="289.680068" xlink:href="#m0ad8de3c61" y="1046.64351"/>
      </g>
     </g>
     <g id="text_3">
      <!-- 2000 -->
      <g transform="translate(276.955068 1061.241947)scale(0.1 -0.1)">
       <defs>
        <path d="M 19.1875 8.296875 
L 53.609375 8.296875 
L 53.609375 0 
L 7.328125 0 
L 7.328125 8.296875 
Q 12.9375 14.109375 22.625 23.890625 
Q 32.328125 33.6875 34.8125 36.53125 
Q 39.546875 41.84375 41.421875 45.53125 
Q 43.3125 49.21875 43.3125 52.78125 
Q 43.3125 58.59375 39.234375 62.25 
Q 35.15625 65.921875 28.609375 65.921875 
Q 23.96875 65.921875 18.8125 64.3125 
Q 13.671875 62.703125 7.8125 59.421875 
L 7.8125 69.390625 
Q 13.765625 71.78125 18.9375 73 
Q 24.125 74.21875 28.421875 74.21875 
Q 39.75 74.21875 46.484375 68.546875 
Q 53.21875 62.890625 53.21875 53.421875 
Q 53.21875 48.921875 51.53125 44.890625 
Q 49.859375 40.875 45.40625 35.40625 
Q 44.1875 33.984375 37.640625 27.21875 
Q 31.109375 20.453125 19.1875 8.296875 
z
" id="DejaVuSans-50"/>
       </defs>
       <use xlink:href="#DejaVuSans-50"/>
       <use x="63.623047" xlink:href="#DejaVuSans-48"/>
       <use x="127.246094" xlink:href="#DejaVuSans-48"/>
       <use x="190.869141" xlink:href="#DejaVuSans-48"/>
      </g>
     </g>
    </g>
    <g id="xtick_4">
     <g id="line2d_7">
      <path clip-path="url(#pb7377527fd)" d="M 395.239126 1046.64351 
L 395.239126 18.118365 
" style="fill:none;stroke:#b0b0b0;stroke-linecap:square;stroke-width:0.8;"/>
     </g>
     <g id="line2d_8">
      <g>
       <use style="stroke:#000000;stroke-width:0.8;" x="395.239126" xlink:href="#m0ad8de3c61" y="1046.64351"/>
      </g>
     </g>
     <g id="text_4">
      <!-- 3000 -->
      <g transform="translate(382.514126 1061.241947)scale(0.1 -0.1)">
       <defs>
        <path d="M 40.578125 39.3125 
Q 47.65625 37.796875 51.625 33 
Q 55.609375 28.21875 55.609375 21.1875 
Q 55.609375 10.40625 48.1875 4.484375 
Q 40.765625 -1.421875 27.09375 -1.421875 
Q 22.515625 -1.421875 17.65625 -0.515625 
Q 12.796875 0.390625 7.625 2.203125 
L 7.625 11.71875 
Q 11.71875 9.328125 16.59375 8.109375 
Q 21.484375 6.890625 26.8125 6.890625 
Q 36.078125 6.890625 40.9375 10.546875 
Q 45.796875 14.203125 45.796875 21.1875 
Q 45.796875 27.640625 41.28125 31.265625 
Q 36.765625 34.90625 28.71875 34.90625 
L 20.21875 34.90625 
L 20.21875 43.015625 
L 29.109375 43.015625 
Q 36.375 43.015625 40.234375 45.921875 
Q 44.09375 48.828125 44.09375 54.296875 
Q 44.09375 59.90625 40.109375 62.90625 
Q 36.140625 65.921875 28.71875 65.921875 
Q 24.65625 65.921875 20.015625 65.03125 
Q 15.375 64.15625 9.8125 62.3125 
L 9.8125 71.09375 
Q 15.4375 72.65625 20.34375 73.4375 
Q 25.25 74.21875 29.59375 74.21875 
Q 40.828125 74.21875 47.359375 69.109375 
Q 53.90625 64.015625 53.90625 55.328125 
Q 53.90625 49.265625 50.4375 45.09375 
Q 46.96875 40.921875 40.578125 39.3125 
z
" id="DejaVuSans-51"/>
       </defs>
       <use xlink:href="#DejaVuSans-51"/>
       <use x="63.623047" xlink:href="#DejaVuSans-48"/>
       <use x="127.246094" xlink:href="#DejaVuSans-48"/>
       <use x="190.869141" xlink:href="#DejaVuSans-48"/>
      </g>
     </g>
    </g>
    <g id="xtick_5">
     <g id="line2d_9">
      <path clip-path="url(#pb7377527fd)" d="M 500.798184 1046.64351 
L 500.798184 18.118365 
" style="fill:none;stroke:#b0b0b0;stroke-linecap:square;stroke-width:0.8;"/>
     </g>
     <g id="line2d_10">
      <g>
       <use style="stroke:#000000;stroke-width:0.8;" x="500.798184" xlink:href="#m0ad8de3c61" y="1046.64351"/>
      </g>
     </g>
     <g id="text_5">
      <!-- 4000 -->
      <g transform="translate(488.073184 1061.241947)scale(0.1 -0.1)">
       <defs>
        <path d="M 37.796875 64.3125 
L 12.890625 25.390625 
L 37.796875 25.390625 
z
M 35.203125 72.90625 
L 47.609375 72.90625 
L 47.609375 25.390625 
L 58.015625 25.390625 
L 58.015625 17.1875 
L 47.609375 17.1875 
L 47.609375 0 
L 37.796875 0 
L 37.796875 17.1875 
L 4.890625 17.1875 
L 4.890625 26.703125 
z
" id="DejaVuSans-52"/>
       </defs>
       <use xlink:href="#DejaVuSans-52"/>
       <use x="63.623047" xlink:href="#DejaVuSans-48"/>
       <use x="127.246094" xlink:href="#DejaVuSans-48"/>
       <use x="190.869141" xlink:href="#DejaVuSans-48"/>
      </g>
     </g>
    </g>
    <g id="xtick_6">
     <g id="line2d_11">
      <path clip-path="url(#pb7377527fd)" d="M 606.357242 1046.64351 
L 606.357242 18.118365 
" style="fill:none;stroke:#b0b0b0;stroke-linecap:square;stroke-width:0.8;"/>
     </g>
     <g id="line2d_12">
      <g>
       <use style="stroke:#000000;stroke-width:0.8;" x="606.357242" xlink:href="#m0ad8de3c61" y="1046.64351"/>
      </g>
     </g>
     <g id="text_6">
      <!-- 5000 -->
      <g transform="translate(593.632242 1061.241947)scale(0.1 -0.1)">
       <defs>
        <path d="M 10.796875 72.90625 
L 49.515625 72.90625 
L 49.515625 64.59375 
L 19.828125 64.59375 
L 19.828125 46.734375 
Q 21.96875 47.46875 24.109375 47.828125 
Q 26.265625 48.1875 28.421875 48.1875 
Q 40.625 48.1875 47.75 41.5 
Q 54.890625 34.8125 54.890625 23.390625 
Q 54.890625 11.625 47.5625 5.09375 
Q 40.234375 -1.421875 26.90625 -1.421875 
Q 22.3125 -1.421875 17.546875 -0.640625 
Q 12.796875 0.140625 7.71875 1.703125 
L 7.71875 11.625 
Q 12.109375 9.234375 16.796875 8.0625 
Q 21.484375 6.890625 26.703125 6.890625 
Q 35.15625 6.890625 40.078125 11.328125 
Q 45.015625 15.765625 45.015625 23.390625 
Q 45.015625 31 40.078125 35.4375 
Q 35.15625 39.890625 26.703125 39.890625 
Q 22.75 39.890625 18.8125 39.015625 
Q 14.890625 38.140625 10.796875 36.28125 
z
" id="DejaVuSans-53"/>
       </defs>
       <use xlink:href="#DejaVuSans-53"/>
       <use x="63.623047" xlink:href="#DejaVuSans-48"/>
       <use x="127.246094" xlink:href="#DejaVuSans-48"/>
       <use x="190.869141" xlink:href="#DejaVuSans-48"/>
      </g>
     </g>
    </g>
    <g id="xtick_7">
     <g id="line2d_13">
      <path clip-path="url(#pb7377527fd)" d="M 711.916301 1046.64351 
L 711.916301 18.118365 
" style="fill:none;stroke:#b0b0b0;stroke-linecap:square;stroke-width:0.8;"/>
     </g>
     <g id="line2d_14">
      <g>
       <use style="stroke:#000000;stroke-width:0.8;" x="711.916301" xlink:href="#m0ad8de3c61" y="1046.64351"/>
      </g>
     </g>
     <g id="text_7">
      <!-- 6000 -->
      <g transform="translate(699.191301 1061.241947)scale(0.1 -0.1)">
       <defs>
        <path d="M 33.015625 40.375 
Q 26.375 40.375 22.484375 35.828125 
Q 18.609375 31.296875 18.609375 23.390625 
Q 18.609375 15.53125 22.484375 10.953125 
Q 26.375 6.390625 33.015625 6.390625 
Q 39.65625 6.390625 43.53125 10.953125 
Q 47.40625 15.53125 47.40625 23.390625 
Q 47.40625 31.296875 43.53125 35.828125 
Q 39.65625 40.375 33.015625 40.375 
z
M 52.59375 71.296875 
L 52.59375 62.3125 
Q 48.875 64.0625 45.09375 64.984375 
Q 41.3125 65.921875 37.59375 65.921875 
Q 27.828125 65.921875 22.671875 59.328125 
Q 17.53125 52.734375 16.796875 39.40625 
Q 19.671875 43.65625 24.015625 45.921875 
Q 28.375 48.1875 33.59375 48.1875 
Q 44.578125 48.1875 50.953125 41.515625 
Q 57.328125 34.859375 57.328125 23.390625 
Q 57.328125 12.15625 50.6875 5.359375 
Q 44.046875 -1.421875 33.015625 -1.421875 
Q 20.359375 -1.421875 13.671875 8.265625 
Q 6.984375 17.96875 6.984375 36.375 
Q 6.984375 53.65625 15.1875 63.9375 
Q 23.390625 74.21875 37.203125 74.21875 
Q 40.921875 74.21875 44.703125 73.484375 
Q 48.484375 72.75 52.59375 71.296875 
z
" id="DejaVuSans-54"/>
       </defs>
       <use xlink:href="#DejaVuSans-54"/>
       <use x="63.623047" xlink:href="#DejaVuSans-48"/>
       <use x="127.246094" xlink:href="#DejaVuSans-48"/>
       <use x="190.869141" xlink:href="#DejaVuSans-48"/>
      </g>
     </g>
    </g>
    <g id="text_8">
     <!-- Frequency -->
     <g transform="translate(390.52125 1074.920072)scale(0.1 -0.1)">
      <defs>
       <path d="M 9.8125 72.90625 
L 51.703125 72.90625 
L 51.703125 64.59375 
L 19.671875 64.59375 
L 19.671875 43.109375 
L 48.578125 43.109375 
L 48.578125 34.8125 
L 19.671875 34.8125 
L 19.671875 0 
L 9.8125 0 
z
" id="DejaVuSans-70"/>
       <path d="M 41.109375 46.296875 
Q 39.59375 47.171875 37.8125 47.578125 
Q 36.03125 48 33.890625 48 
Q 26.265625 48 22.1875 43.046875 
Q 18.109375 38.09375 18.109375 28.8125 
L 18.109375 0 
L 9.078125 0 
L 9.078125 54.6875 
L 18.109375 54.6875 
L 18.109375 46.1875 
Q 20.953125 51.171875 25.484375 53.578125 
Q 30.03125 56 36.53125 56 
Q 37.453125 56 38.578125 55.875 
Q 39.703125 55.765625 41.0625 55.515625 
z
" id="DejaVuSans-114"/>
       <path d="M 56.203125 29.59375 
L 56.203125 25.203125 
L 14.890625 25.203125 
Q 15.484375 15.921875 20.484375 11.0625 
Q 25.484375 6.203125 34.421875 6.203125 
Q 39.59375 6.203125 44.453125 7.46875 
Q 49.3125 8.734375 54.109375 11.28125 
L 54.109375 2.78125 
Q 49.265625 0.734375 44.1875 -0.34375 
Q 39.109375 -1.421875 33.890625 -1.421875 
Q 20.796875 -1.421875 13.15625 6.1875 
Q 5.515625 13.8125 5.515625 26.8125 
Q 5.515625 40.234375 12.765625 48.109375 
Q 20.015625 56 32.328125 56 
Q 43.359375 56 49.78125 48.890625 
Q 56.203125 41.796875 56.203125 29.59375 
z
M 47.21875 32.234375 
Q 47.125 39.59375 43.09375 43.984375 
Q 39.0625 48.390625 32.421875 48.390625 
Q 24.90625 48.390625 20.390625 44.140625 
Q 15.875 39.890625 15.1875 32.171875 
z
" id="DejaVuSans-101"/>
       <path d="M 14.796875 27.296875 
Q 14.796875 17.390625 18.875 11.75 
Q 22.953125 6.109375 30.078125 6.109375 
Q 37.203125 6.109375 41.296875 11.75 
Q 45.40625 17.390625 45.40625 27.296875 
Q 45.40625 37.203125 41.296875 42.84375 
Q 37.203125 48.484375 30.078125 48.484375 
Q 22.953125 48.484375 18.875 42.84375 
Q 14.796875 37.203125 14.796875 27.296875 
z
M 45.40625 8.203125 
Q 42.578125 3.328125 38.25 0.953125 
Q 33.9375 -1.421875 27.875 -1.421875 
Q 17.96875 -1.421875 11.734375 6.484375 
Q 5.515625 14.40625 5.515625 27.296875 
Q 5.515625 40.1875 11.734375 48.09375 
Q 17.96875 56 27.875 56 
Q 33.9375 56 38.25 53.625 
Q 42.578125 51.265625 45.40625 46.390625 
L 45.40625 54.6875 
L 54.390625 54.6875 
L 54.390625 -20.796875 
L 45.40625 -20.796875 
z
" id="DejaVuSans-113"/>
       <path d="M 8.5 21.578125 
L 8.5 54.6875 
L 17.484375 54.6875 
L 17.484375 21.921875 
Q 17.484375 14.15625 20.5 10.265625 
Q 23.53125 6.390625 29.59375 6.390625 
Q 36.859375 6.390625 41.078125 11.03125 
Q 45.3125 15.671875 45.3125 23.6875 
L 45.3125 54.6875 
L 54.296875 54.6875 
L 54.296875 0 
L 45.3125 0 
L 45.3125 8.40625 
Q 42.046875 3.421875 37.71875 1 
Q 33.40625 -1.421875 27.6875 -1.421875 
Q 18.265625 -1.421875 13.375 4.4375 
Q 8.5 10.296875 8.5 21.578125 
z
M 31.109375 56 
z
" id="DejaVuSans-117"/>
       <path d="M 54.890625 33.015625 
L 54.890625 0 
L 45.90625 0 
L 45.90625 32.71875 
Q 45.90625 40.484375 42.875 44.328125 
Q 39.84375 48.1875 33.796875 48.1875 
Q 26.515625 48.1875 22.3125 43.546875 
Q 18.109375 38.921875 18.109375 30.90625 
L 18.109375 0 
L 9.078125 0 
L 9.078125 54.6875 
L 18.109375 54.6875 
L 18.109375 46.1875 
Q 21.34375 51.125 25.703125 53.5625 
Q 30.078125 56 35.796875 56 
Q 45.21875 56 50.046875 50.171875 
Q 54.890625 44.34375 54.890625 33.015625 
z
" id="DejaVuSans-110"/>
       <path d="M 48.78125 52.59375 
L 48.78125 44.1875 
Q 44.96875 46.296875 41.140625 47.34375 
Q 37.3125 48.390625 33.40625 48.390625 
Q 24.65625 48.390625 19.8125 42.84375 
Q 14.984375 37.3125 14.984375 27.296875 
Q 14.984375 17.28125 19.8125 11.734375 
Q 24.65625 6.203125 33.40625 6.203125 
Q 37.3125 6.203125 41.140625 7.25 
Q 44.96875 8.296875 48.78125 10.40625 
L 48.78125 2.09375 
Q 45.015625 0.34375 40.984375 -0.53125 
Q 36.96875 -1.421875 32.421875 -1.421875 
Q 20.0625 -1.421875 12.78125 6.34375 
Q 5.515625 14.109375 5.515625 27.296875 
Q 5.515625 40.671875 12.859375 48.328125 
Q 20.21875 56 33.015625 56 
Q 37.15625 56 41.109375 55.140625 
Q 45.0625 54.296875 48.78125 52.59375 
z
" id="DejaVuSans-99"/>
       <path d="M 32.171875 -5.078125 
Q 28.375 -14.84375 24.75 -17.8125 
Q 21.140625 -20.796875 15.09375 -20.796875 
L 7.90625 -20.796875 
L 7.90625 -13.28125 
L 13.1875 -13.28125 
Q 16.890625 -13.28125 18.9375 -11.515625 
Q 21 -9.765625 23.484375 -3.21875 
L 25.09375 0.875 
L 2.984375 54.6875 
L 12.5 54.6875 
L 29.59375 11.921875 
L 46.6875 54.6875 
L 56.203125 54.6875 
z
" id="DejaVuSans-121"/>
      </defs>
      <use xlink:href="#DejaVuSans-70"/>
      <use x="50.269531" xlink:href="#DejaVuSans-114"/>
      <use x="89.132812" xlink:href="#DejaVuSans-101"/>
      <use x="150.65625" xlink:href="#DejaVuSans-113"/>
      <use x="214.132812" xlink:href="#DejaVuSans-117"/>
      <use x="277.511719" xlink:href="#DejaVuSans-101"/>
      <use x="339.035156" xlink:href="#DejaVuSans-110"/>
      <use x="402.414062" xlink:href="#DejaVuSans-99"/>
      <use x="457.394531" xlink:href="#DejaVuSans-121"/>
     </g>
    </g>
   </g>
   <g id="matplotlib.axis_2">
    <g id="ytick_1">
     <g id="line2d_15">
      <path clip-path="url(#pb7377527fd)" d="M 44.783053 1046.64351 
L 787.918822 1046.64351 
" style="fill:none;stroke:#b0b0b0;stroke-linecap:square;stroke-width:0.8;"/>
     </g>
     <g id="line2d_16">
      <defs>
       <path d="M 0 0 
L -3.5 0 
" id="m89cda50259" style="stroke:#000000;stroke-width:0.8;"/>
      </defs>
      <g>
       <use style="stroke:#000000;stroke-width:0.8;" x="44.783053" xlink:href="#m89cda50259" y="1046.64351"/>
      </g>
     </g>
     <g id="text_9">
      <!-- −60 -->
      <g transform="translate(16.678365 1050.442729)scale(0.1 -0.1)">
       <defs>
        <path d="M 10.59375 35.5 
L 73.1875 35.5 
L 73.1875 27.203125 
L 10.59375 27.203125 
z
" id="DejaVuSans-8722"/>
       </defs>
       <use xlink:href="#DejaVuSans-8722"/>
       <use x="83.789062" xlink:href="#DejaVuSans-54"/>
       <use x="147.412109" xlink:href="#DejaVuSans-48"/>
      </g>
     </g>
    </g>
    <g id="ytick_2">
     <g id="line2d_17">
      <path clip-path="url(#pb7377527fd)" d="M 44.783053 918.077867 
L 787.918822 918.077867 
" style="fill:none;stroke:#b0b0b0;stroke-linecap:square;stroke-width:0.8;"/>
     </g>
     <g id="line2d_18">
      <g>
       <use style="stroke:#000000;stroke-width:0.8;" x="44.783053" xlink:href="#m89cda50259" y="918.077867"/>
      </g>
     </g>
     <g id="text_10">
      <!-- −50 -->
      <g transform="translate(16.678365 921.877086)scale(0.1 -0.1)">
       <use xlink:href="#DejaVuSans-8722"/>
       <use x="83.789062" xlink:href="#DejaVuSans-53"/>
       <use x="147.412109" xlink:href="#DejaVuSans-48"/>
      </g>
     </g>
    </g>
    <g id="ytick_3">
     <g id="line2d_19">
      <path clip-path="url(#pb7377527fd)" d="M 44.783053 789.512224 
L 787.918822 789.512224 
" style="fill:none;stroke:#b0b0b0;stroke-linecap:square;stroke-width:0.8;"/>
     </g>
     <g id="line2d_20">
      <g>
       <use style="stroke:#000000;stroke-width:0.8;" x="44.783053" xlink:href="#m89cda50259" y="789.512224"/>
      </g>
     </g>
     <g id="text_11">
      <!-- −40 -->
      <g transform="translate(16.678365 793.311442)scale(0.1 -0.1)">
       <use xlink:href="#DejaVuSans-8722"/>
       <use x="83.789062" xlink:href="#DejaVuSans-52"/>
       <use x="147.412109" xlink:href="#DejaVuSans-48"/>
      </g>
     </g>
    </g>
    <g id="ytick_4">
     <g id="line2d_21">
      <path clip-path="url(#pb7377527fd)" d="M 44.783053 660.946581 
L 787.918822 660.946581 
" style="fill:none;stroke:#b0b0b0;stroke-linecap:square;stroke-width:0.8;"/>
     </g>
     <g id="line2d_22">
      <g>
       <use style="stroke:#000000;stroke-width:0.8;" x="44.783053" xlink:href="#m89cda50259" y="660.946581"/>
      </g>
     </g>
     <g id="text_12">
      <!-- −30 -->
      <g transform="translate(16.678365 664.745799)scale(0.1 -0.1)">
       <use xlink:href="#DejaVuSans-8722"/>
       <use x="83.789062" xlink:href="#DejaVuSans-51"/>
       <use x="147.412109" xlink:href="#DejaVuSans-48"/>
      </g>
     </g>
    </g>
    <g id="ytick_5">
     <g id="line2d_23">
      <path clip-path="url(#pb7377527fd)" d="M 44.783053 532.380937 
L 787.918822 532.380937 
" style="fill:none;stroke:#b0b0b0;stroke-linecap:square;stroke-width:0.8;"/>
     </g>
     <g id="line2d_24">
      <g>
       <use style="stroke:#000000;stroke-width:0.8;" x="44.783053" xlink:href="#m89cda50259" y="532.380937"/>
      </g>
     </g>
     <g id="text_13">
      <!-- −20 -->
      <g transform="translate(16.678365 536.180156)scale(0.1 -0.1)">
       <use xlink:href="#DejaVuSans-8722"/>
       <use x="83.789062" xlink:href="#DejaVuSans-50"/>
       <use x="147.412109" xlink:href="#DejaVuSans-48"/>
      </g>
     </g>
    </g>
    <g id="ytick_6">
     <g id="line2d_25">
      <path clip-path="url(#pb7377527fd)" d="M 44.783053 403.815294 
L 787.918822 403.815294 
" style="fill:none;stroke:#b0b0b0;stroke-linecap:square;stroke-width:0.8;"/>
     </g>
     <g id="line2d_26">
      <g>
       <use style="stroke:#000000;stroke-width:0.8;" x="44.783053" xlink:href="#m89cda50259" y="403.815294"/>
      </g>
     </g>
     <g id="text_14">
      <!-- −10 -->
      <g transform="translate(16.678365 407.614513)scale(0.1 -0.1)">
       <use xlink:href="#DejaVuSans-8722"/>
       <use x="83.789062" xlink:href="#DejaVuSans-49"/>
       <use x="147.412109" xlink:href="#DejaVuSans-48"/>
      </g>
     </g>
    </g>
    <g id="ytick_7">
     <g id="line2d_27">
      <path clip-path="url(#pb7377527fd)" d="M 44.783053 275.249651 
L 787.918822 275.249651 
" style="fill:none;stroke:#b0b0b0;stroke-linecap:square;stroke-width:0.8;"/>
     </g>
     <g id="line2d_28">
      <g>
       <use style="stroke:#000000;stroke-width:0.8;" x="44.783053" xlink:href="#m89cda50259" y="275.249651"/>
      </g>
     </g>
     <g id="text_15">
      <!-- 0 -->
      <g transform="translate(31.420553 279.04887)scale(0.1 -0.1)">
       <use xlink:href="#DejaVuSans-48"/>
      </g>
     </g>
    </g>
    <g id="ytick_8">
     <g id="line2d_29">
      <path clip-path="url(#pb7377527fd)" d="M 44.783053 146.684008 
L 787.918822 146.684008 
" style="fill:none;stroke:#b0b0b0;stroke-linecap:square;stroke-width:0.8;"/>
     </g>
     <g id="line2d_30">
      <g>
       <use style="stroke:#000000;stroke-width:0.8;" x="44.783053" xlink:href="#m89cda50259" y="146.684008"/>
      </g>
     </g>
     <g id="text_16">
      <!-- 10 -->
      <g transform="translate(25.058053 150.483227)scale(0.1 -0.1)">
       <use xlink:href="#DejaVuSans-49"/>
       <use x="63.623047" xlink:href="#DejaVuSans-48"/>
      </g>
     </g>
    </g>
    <g id="ytick_9">
     <g id="line2d_31">
      <path clip-path="url(#pb7377527fd)" d="M 44.783053 18.118365 
L 787.918822 18.118365 
" style="fill:none;stroke:#b0b0b0;stroke-linecap:square;stroke-width:0.8;"/>
     </g>
     <g id="line2d_32">
      <g>
       <use style="stroke:#000000;stroke-width:0.8;" x="44.783053" xlink:href="#m89cda50259" y="18.118365"/>
      </g>
     </g>
     <g id="text_17">
      <!-- 20 -->
      <g transform="translate(25.058053 21.917584)scale(0.1 -0.1)">
       <use xlink:href="#DejaVuSans-50"/>
       <use x="63.623047" xlink:href="#DejaVuSans-48"/>
      </g>
     </g>
    </g>
    <g id="text_18">
     <!-- Power Spectral Density (dB/Hz) -->
     <g transform="translate(10.598678 610.48875)rotate(-90)scale(0.1 -0.1)">
      <defs>
       <path d="M 19.671875 64.796875 
L 19.671875 37.40625 
L 32.078125 37.40625 
Q 38.96875 37.40625 42.71875 40.96875 
Q 46.484375 44.53125 46.484375 51.125 
Q 46.484375 57.671875 42.71875 61.234375 
Q 38.96875 64.796875 32.078125 64.796875 
z
M 9.8125 72.90625 
L 32.078125 72.90625 
Q 44.34375 72.90625 50.609375 67.359375 
Q 56.890625 61.8125 56.890625 51.125 
Q 56.890625 40.328125 50.609375 34.8125 
Q 44.34375 29.296875 32.078125 29.296875 
L 19.671875 29.296875 
L 19.671875 0 
L 9.8125 0 
z
" id="DejaVuSans-80"/>
       <path d="M 30.609375 48.390625 
Q 23.390625 48.390625 19.1875 42.75 
Q 14.984375 37.109375 14.984375 27.296875 
Q 14.984375 17.484375 19.15625 11.84375 
Q 23.34375 6.203125 30.609375 6.203125 
Q 37.796875 6.203125 41.984375 11.859375 
Q 46.1875 17.53125 46.1875 27.296875 
Q 46.1875 37.015625 41.984375 42.703125 
Q 37.796875 48.390625 30.609375 48.390625 
z
M 30.609375 56 
Q 42.328125 56 49.015625 48.375 
Q 55.71875 40.765625 55.71875 27.296875 
Q 55.71875 13.875 49.015625 6.21875 
Q 42.328125 -1.421875 30.609375 -1.421875 
Q 18.84375 -1.421875 12.171875 6.21875 
Q 5.515625 13.875 5.515625 27.296875 
Q 5.515625 40.765625 12.171875 48.375 
Q 18.84375 56 30.609375 56 
z
" id="DejaVuSans-111"/>
       <path d="M 4.203125 54.6875 
L 13.1875 54.6875 
L 24.421875 12.015625 
L 35.59375 54.6875 
L 46.1875 54.6875 
L 57.421875 12.015625 
L 68.609375 54.6875 
L 77.59375 54.6875 
L 63.28125 0 
L 52.6875 0 
L 40.921875 44.828125 
L 29.109375 0 
L 18.5 0 
z
" id="DejaVuSans-119"/>
       <path id="DejaVuSans-32"/>
       <path d="M 53.515625 70.515625 
L 53.515625 60.890625 
Q 47.90625 63.578125 42.921875 64.890625 
Q 37.9375 66.21875 33.296875 66.21875 
Q 25.25 66.21875 20.875 63.09375 
Q 16.5 59.96875 16.5 54.203125 
Q 16.5 49.359375 19.40625 46.890625 
Q 22.3125 44.4375 30.421875 42.921875 
L 36.375 41.703125 
Q 47.40625 39.59375 52.65625 34.296875 
Q 57.90625 29 57.90625 20.125 
Q 57.90625 9.515625 50.796875 4.046875 
Q 43.703125 -1.421875 29.984375 -1.421875 
Q 24.8125 -1.421875 18.96875 -0.25 
Q 13.140625 0.921875 6.890625 3.21875 
L 6.890625 13.375 
Q 12.890625 10.015625 18.65625 8.296875 
Q 24.421875 6.59375 29.984375 6.59375 
Q 38.421875 6.59375 43.015625 9.90625 
Q 47.609375 13.234375 47.609375 19.390625 
Q 47.609375 24.75 44.3125 27.78125 
Q 41.015625 30.8125 33.5 32.328125 
L 27.484375 33.5 
Q 16.453125 35.6875 11.515625 40.375 
Q 6.59375 45.0625 6.59375 53.421875 
Q 6.59375 63.09375 13.40625 68.65625 
Q 20.21875 74.21875 32.171875 74.21875 
Q 37.3125 74.21875 42.625 73.28125 
Q 47.953125 72.359375 53.515625 70.515625 
z
" id="DejaVuSans-83"/>
       <path d="M 18.109375 8.203125 
L 18.109375 -20.796875 
L 9.078125 -20.796875 
L 9.078125 54.6875 
L 18.109375 54.6875 
L 18.109375 46.390625 
Q 20.953125 51.265625 25.265625 53.625 
Q 29.59375 56 35.59375 56 
Q 45.5625 56 51.78125 48.09375 
Q 58.015625 40.1875 58.015625 27.296875 
Q 58.015625 14.40625 51.78125 6.484375 
Q 45.5625 -1.421875 35.59375 -1.421875 
Q 29.59375 -1.421875 25.265625 0.953125 
Q 20.953125 3.328125 18.109375 8.203125 
z
M 48.6875 27.296875 
Q 48.6875 37.203125 44.609375 42.84375 
Q 40.53125 48.484375 33.40625 48.484375 
Q 26.265625 48.484375 22.1875 42.84375 
Q 18.109375 37.203125 18.109375 27.296875 
Q 18.109375 17.390625 22.1875 11.75 
Q 26.265625 6.109375 33.40625 6.109375 
Q 40.53125 6.109375 44.609375 11.75 
Q 48.6875 17.390625 48.6875 27.296875 
z
" id="DejaVuSans-112"/>
       <path d="M 18.3125 70.21875 
L 18.3125 54.6875 
L 36.8125 54.6875 
L 36.8125 47.703125 
L 18.3125 47.703125 
L 18.3125 18.015625 
Q 18.3125 11.328125 20.140625 9.421875 
Q 21.96875 7.515625 27.59375 7.515625 
L 36.8125 7.515625 
L 36.8125 0 
L 27.59375 0 
Q 17.1875 0 13.234375 3.875 
Q 9.28125 7.765625 9.28125 18.015625 
L 9.28125 47.703125 
L 2.6875 47.703125 
L 2.6875 54.6875 
L 9.28125 54.6875 
L 9.28125 70.21875 
z
" id="DejaVuSans-116"/>
       <path d="M 34.28125 27.484375 
Q 23.390625 27.484375 19.1875 25 
Q 14.984375 22.515625 14.984375 16.5 
Q 14.984375 11.71875 18.140625 8.90625 
Q 21.296875 6.109375 26.703125 6.109375 
Q 34.1875 6.109375 38.703125 11.40625 
Q 43.21875 16.703125 43.21875 25.484375 
L 43.21875 27.484375 
z
M 52.203125 31.203125 
L 52.203125 0 
L 43.21875 0 
L 43.21875 8.296875 
Q 40.140625 3.328125 35.546875 0.953125 
Q 30.953125 -1.421875 24.3125 -1.421875 
Q 15.921875 -1.421875 10.953125 3.296875 
Q 6 8.015625 6 15.921875 
Q 6 25.140625 12.171875 29.828125 
Q 18.359375 34.515625 30.609375 34.515625 
L 43.21875 34.515625 
L 43.21875 35.40625 
Q 43.21875 41.609375 39.140625 45 
Q 35.0625 48.390625 27.6875 48.390625 
Q 23 48.390625 18.546875 47.265625 
Q 14.109375 46.140625 10.015625 43.890625 
L 10.015625 52.203125 
Q 14.9375 54.109375 19.578125 55.046875 
Q 24.21875 56 28.609375 56 
Q 40.484375 56 46.34375 49.84375 
Q 52.203125 43.703125 52.203125 31.203125 
z
" id="DejaVuSans-97"/>
       <path d="M 9.421875 75.984375 
L 18.40625 75.984375 
L 18.40625 0 
L 9.421875 0 
z
" id="DejaVuSans-108"/>
       <path d="M 19.671875 64.796875 
L 19.671875 8.109375 
L 31.59375 8.109375 
Q 46.6875 8.109375 53.6875 14.9375 
Q 60.6875 21.78125 60.6875 36.53125 
Q 60.6875 51.171875 53.6875 57.984375 
Q 46.6875 64.796875 31.59375 64.796875 
z
M 9.8125 72.90625 
L 30.078125 72.90625 
Q 51.265625 72.90625 61.171875 64.09375 
Q 71.09375 55.28125 71.09375 36.53125 
Q 71.09375 17.671875 61.125 8.828125 
Q 51.171875 0 30.078125 0 
L 9.8125 0 
z
" id="DejaVuSans-68"/>
       <path d="M 44.28125 53.078125 
L 44.28125 44.578125 
Q 40.484375 46.53125 36.375 47.5 
Q 32.28125 48.484375 27.875 48.484375 
Q 21.1875 48.484375 17.84375 46.4375 
Q 14.5 44.390625 14.5 40.28125 
Q 14.5 37.15625 16.890625 35.375 
Q 19.28125 33.59375 26.515625 31.984375 
L 29.59375 31.296875 
Q 39.15625 29.25 43.1875 25.515625 
Q 47.21875 21.78125 47.21875 15.09375 
Q 47.21875 7.46875 41.1875 3.015625 
Q 35.15625 -1.421875 24.609375 -1.421875 
Q 20.21875 -1.421875 15.453125 -0.5625 
Q 10.6875 0.296875 5.421875 2 
L 5.421875 11.28125 
Q 10.40625 8.6875 15.234375 7.390625 
Q 20.0625 6.109375 24.8125 6.109375 
Q 31.15625 6.109375 34.5625 8.28125 
Q 37.984375 10.453125 37.984375 14.40625 
Q 37.984375 18.0625 35.515625 20.015625 
Q 33.0625 21.96875 24.703125 23.78125 
L 21.578125 24.515625 
Q 13.234375 26.265625 9.515625 29.90625 
Q 5.8125 33.546875 5.8125 39.890625 
Q 5.8125 47.609375 11.28125 51.796875 
Q 16.75 56 26.8125 56 
Q 31.78125 56 36.171875 55.265625 
Q 40.578125 54.546875 44.28125 53.078125 
z
" id="DejaVuSans-115"/>
       <path d="M 9.421875 54.6875 
L 18.40625 54.6875 
L 18.40625 0 
L 9.421875 0 
z
M 9.421875 75.984375 
L 18.40625 75.984375 
L 18.40625 64.59375 
L 9.421875 64.59375 
z
" id="DejaVuSans-105"/>
       <path d="M 31 75.875 
Q 24.46875 64.65625 21.28125 53.65625 
Q 18.109375 42.671875 18.109375 31.390625 
Q 18.109375 20.125 21.3125 9.0625 
Q 24.515625 -2 31 -13.1875 
L 23.1875 -13.1875 
Q 15.875 -1.703125 12.234375 9.375 
Q 8.59375 20.453125 8.59375 31.390625 
Q 8.59375 42.28125 12.203125 53.3125 
Q 15.828125 64.359375 23.1875 75.875 
z
" id="DejaVuSans-40"/>
       <path d="M 45.40625 46.390625 
L 45.40625 75.984375 
L 54.390625 75.984375 
L 54.390625 0 
L 45.40625 0 
L 45.40625 8.203125 
Q 42.578125 3.328125 38.25 0.953125 
Q 33.9375 -1.421875 27.875 -1.421875 
Q 17.96875 -1.421875 11.734375 6.484375 
Q 5.515625 14.40625 5.515625 27.296875 
Q 5.515625 40.1875 11.734375 48.09375 
Q 17.96875 56 27.875 56 
Q 33.9375 56 38.25 53.625 
Q 42.578125 51.265625 45.40625 46.390625 
z
M 14.796875 27.296875 
Q 14.796875 17.390625 18.875 11.75 
Q 22.953125 6.109375 30.078125 6.109375 
Q 37.203125 6.109375 41.296875 11.75 
Q 45.40625 17.390625 45.40625 27.296875 
Q 45.40625 37.203125 41.296875 42.84375 
Q 37.203125 48.484375 30.078125 48.484375 
Q 22.953125 48.484375 18.875 42.84375 
Q 14.796875 37.203125 14.796875 27.296875 
z
" id="DejaVuSans-100"/>
       <path d="M 19.671875 34.8125 
L 19.671875 8.109375 
L 35.5 8.109375 
Q 43.453125 8.109375 47.28125 11.40625 
Q 51.125 14.703125 51.125 21.484375 
Q 51.125 28.328125 47.28125 31.5625 
Q 43.453125 34.8125 35.5 34.8125 
z
M 19.671875 64.796875 
L 19.671875 42.828125 
L 34.28125 42.828125 
Q 41.5 42.828125 45.03125 45.53125 
Q 48.578125 48.25 48.578125 53.8125 
Q 48.578125 59.328125 45.03125 62.0625 
Q 41.5 64.796875 34.28125 64.796875 
z
M 9.8125 72.90625 
L 35.015625 72.90625 
Q 46.296875 72.90625 52.390625 68.21875 
Q 58.5 63.53125 58.5 54.890625 
Q 58.5 48.1875 55.375 44.234375 
Q 52.25 40.28125 46.1875 39.3125 
Q 53.46875 37.75 57.5 32.78125 
Q 61.53125 27.828125 61.53125 20.40625 
Q 61.53125 10.640625 54.890625 5.3125 
Q 48.25 0 35.984375 0 
L 9.8125 0 
z
" id="DejaVuSans-66"/>
       <path d="M 25.390625 72.90625 
L 33.6875 72.90625 
L 8.296875 -9.28125 
L 0 -9.28125 
z
" id="DejaVuSans-47"/>
       <path d="M 9.8125 72.90625 
L 19.671875 72.90625 
L 19.671875 43.015625 
L 55.515625 43.015625 
L 55.515625 72.90625 
L 65.375 72.90625 
L 65.375 0 
L 55.515625 0 
L 55.515625 34.71875 
L 19.671875 34.71875 
L 19.671875 0 
L 9.8125 0 
z
" id="DejaVuSans-72"/>
       <path d="M 5.515625 54.6875 
L 48.1875 54.6875 
L 48.1875 46.484375 
L 14.40625 7.171875 
L 48.1875 7.171875 
L 48.1875 0 
L 4.296875 0 
L 4.296875 8.203125 
L 38.09375 47.515625 
L 5.515625 47.515625 
z
" id="DejaVuSans-122"/>
       <path d="M 8.015625 75.875 
L 15.828125 75.875 
Q 23.140625 64.359375 26.78125 53.3125 
Q 30.421875 42.28125 30.421875 31.390625 
Q 30.421875 20.453125 26.78125 9.375 
Q 23.140625 -1.703125 15.828125 -13.1875 
L 8.015625 -13.1875 
Q 14.5 -2 17.703125 9.0625 
Q 20.90625 20.125 20.90625 31.390625 
Q 20.90625 42.671875 17.703125 53.65625 
Q 14.5 64.65625 8.015625 75.875 
z
" id="DejaVuSans-41"/>
      </defs>
      <use xlink:href="#DejaVuSans-80"/>
      <use x="56.677734" xlink:href="#DejaVuSans-111"/>
      <use x="117.859375" xlink:href="#DejaVuSans-119"/>
      <use x="199.646484" xlink:href="#DejaVuSans-101"/>
      <use x="261.169922" xlink:href="#DejaVuSans-114"/>
      <use x="302.283203" xlink:href="#DejaVuSans-32"/>
      <use x="334.070312" xlink:href="#DejaVuSans-83"/>
      <use x="397.546875" xlink:href="#DejaVuSans-112"/>
      <use x="461.023438" xlink:href="#DejaVuSans-101"/>
      <use x="522.546875" xlink:href="#DejaVuSans-99"/>
      <use x="577.527344" xlink:href="#DejaVuSans-116"/>
      <use x="616.736328" xlink:href="#DejaVuSans-114"/>
      <use x="657.849609" xlink:href="#DejaVuSans-97"/>
      <use x="719.128906" xlink:href="#DejaVuSans-108"/>
      <use x="746.912109" xlink:href="#DejaVuSans-32"/>
      <use x="778.699219" xlink:href="#DejaVuSans-68"/>
      <use x="855.701172" xlink:href="#DejaVuSans-101"/>
      <use x="917.224609" xlink:href="#DejaVuSans-110"/>
      <use x="980.603516" xlink:href="#DejaVuSans-115"/>
      <use x="1032.703125" xlink:href="#DejaVuSans-105"/>
      <use x="1060.486328" xlink:href="#DejaVuSans-116"/>
      <use x="1099.695312" xlink:href="#DejaVuSans-121"/>
      <use x="1158.875" xlink:href="#DejaVuSans-32"/>
      <use x="1190.662109" xlink:href="#DejaVuSans-40"/>
      <use x="1229.675781" xlink:href="#DejaVuSans-100"/>
      <use x="1293.152344" xlink:href="#DejaVuSans-66"/>
      <use x="1361.755859" xlink:href="#DejaVuSans-47"/>
      <use x="1395.447266" xlink:href="#DejaVuSans-72"/>
      <use x="1470.642578" xlink:href="#DejaVuSans-122"/>
      <use x="1523.132812" xlink:href="#DejaVuSans-41"/>
     </g>
    </g>
   </g>
   <g id="line2d_33">
    <path clip-path="url(#pb7377527fd)" d="M 78.561951 799.345024 
L 79.881439 761.233581 
L 81.200928 762.771205 
L 82.520416 764.581353 
L 83.839904 765.697835 
L 85.159392 765.232485 
L 86.478881 762.869831 
L 87.798369 759.100822 
L 89.117857 754.962768 
L 90.437345 751.561274 
L 91.756833 749.7533 
L 93.076322 750.065803 
L 94.39581 752.730533 
L 95.715298 757.725676 
L 97.034786 764.775477 
L 100.993251 790.713944 
L 102.312739 797.050911 
L 103.632227 800.601004 
L 104.951716 801.501968 
L 106.271204 800.665507 
L 107.590692 799.259889 
L 108.91018 798.291786 
L 110.229669 798.450425 
L 111.549157 800.081749 
L 112.868645 803.133911 
L 114.188133 806.987739 
L 115.507622 810.204892 
L 116.82711 810.532987 
L 118.146598 805.843349 
L 119.466086 795.80007 
L 123.424551 754.404937 
L 124.744039 743.201586 
L 126.063527 734.697656 
L 127.383016 729.01895 
L 128.702504 726.03435 
L 130.021992 725.393794 
L 131.34148 726.521166 
L 133.980457 730.658577 
L 135.299945 731.648885 
L 136.619433 730.760691 
L 137.938921 727.599938 
L 139.25841 722.261383 
L 140.577898 715.241787 
L 144.536363 692.070636 
L 145.855851 686.429014 
L 147.175339 682.991073 
L 148.494827 682.246904 
L 149.814315 684.559264 
L 151.133804 690.186716 
L 152.453292 699.301705 
L 153.77278 711.99478 
L 155.092268 728.25444 
L 156.411757 747.903205 
L 159.050733 794.843067 
L 160.370221 819.074372 
L 161.689709 840.18822 
L 163.009198 855.38437 
L 164.328686 863.94145 
L 165.648174 867.395312 
L 166.967662 867.657154 
L 168.287151 865.683875 
L 169.606639 861.52885 
L 170.926127 854.971426 
L 172.245615 846.073972 
L 173.565104 835.369683 
L 177.523568 800.934807 
L 178.843056 791.23246 
L 180.162545 783.325825 
L 181.482033 777.555965 
L 182.801521 774.149271 
L 184.121009 773.21886 
L 185.440498 774.755027 
L 186.759986 778.606576 
L 188.079474 784.458739 
L 189.398962 791.822973 
L 193.357427 816.599703 
L 194.676915 824.016021 
L 195.996403 830.712721 
L 197.315892 836.754263 
L 198.63538 842.116979 
L 199.954868 846.553632 
L 201.274356 849.580031 
L 202.593845 850.562657 
L 203.913333 848.843821 
L 205.232821 843.852366 
L 206.552309 835.207955 
L 207.871797 822.853505 
L 209.191286 807.176289 
L 211.830262 769.455967 
L 214.469239 730.734878 
L 215.788727 713.43415 
L 217.108215 698.405201 
L 218.427703 686.088263 
L 219.747192 676.78175 
L 221.06668 670.676501 
L 222.386168 667.87968 
L 223.705656 668.426142 
L 225.025144 672.275264 
L 226.344633 679.289477 
L 227.664121 689.188408 
L 228.983609 701.473005 
L 232.942074 742.642267 
L 234.261562 753.220164 
L 235.58105 760.579334 
L 236.900538 764.964458 
L 238.220027 767.24133 
L 239.539515 768.359044 
L 242.178491 769.721591 
L 243.49798 770.635522 
L 244.817468 771.857249 
L 246.136956 773.366146 
L 248.775933 776.901865 
L 251.414909 780.461465 
L 254.053885 783.569446 
L 258.01235 787.785845 
L 259.331838 789.348018 
L 260.651327 791.083494 
L 263.290303 795.12754 
L 265.92928 799.820501 
L 268.568256 804.606297 
L 269.887744 806.610253 
L 271.207232 808.001405 
L 272.526721 808.482006 
L 273.846209 807.761541 
L 275.165697 805.546645 
L 276.485185 801.517272 
L 277.804674 795.363707 
L 279.124162 786.938565 
L 280.44365 776.454627 
L 285.721603 729.82292 
L 287.041091 721.359054 
L 288.360579 715.39353 
L 289.680068 712.244504 
L 290.999556 712.12004 
L 292.319044 715.148702 
L 293.638532 721.39836 
L 294.958021 730.883479 
L 296.277509 743.559981 
L 297.596997 759.303516 
L 298.916485 777.861582 
L 301.555462 821.16793 
L 302.87495 843.673587 
L 304.194438 864.236724 
L 305.513926 880.584459 
L 306.833415 891.285158 
L 308.152903 896.602532 
L 309.472391 898.078391 
L 310.791879 897.44945 
L 313.430856 894.670285 
L 314.750344 893.86762 
L 316.069832 893.89531 
L 317.38932 894.850943 
L 318.708809 896.690752 
L 320.028297 899.259828 
L 322.667273 905.666435 
L 325.30625 912.315038 
L 326.625738 915.36268 
L 327.945226 918.094209 
L 329.264714 920.400354 
L 330.584203 922.160407 
L 331.903691 923.284373 
L 333.223179 923.772845 
L 334.542667 923.75526 
L 337.181644 923.243318 
L 338.501132 923.333949 
L 339.82062 923.941537 
L 341.140109 925.12288 
L 342.459597 926.777369 
L 343.779085 928.643829 
L 345.098573 930.316194 
L 346.418061 931.284662 
L 347.73755 931.014534 
L 349.057038 929.069338 
L 350.376526 925.254861 
L 351.696014 919.717657 
L 353.015503 912.929265 
L 355.654479 898.296987 
L 356.973967 891.750277 
L 358.293455 886.36477 
L 359.612944 882.429659 
L 360.932432 880.093529 
L 362.25192 879.388114 
L 363.571408 880.249159 
L 364.890897 882.532197 
L 366.210385 886.02379 
L 367.529873 890.449773 
L 372.807826 910.504748 
L 374.127314 914.349705 
L 375.446802 917.287629 
L 376.766291 919.355358 
L 378.085779 920.72598 
L 379.405267 921.636856 
L 382.044244 922.903809 
L 387.322196 925.304748 
L 388.641685 925.990773 
L 389.961173 926.816554 
L 391.280661 927.845907 
L 392.600149 929.098749 
L 397.878102 934.818581 
L 399.197591 935.927665 
L 400.517079 936.845693 
L 403.156055 938.302767 
L 404.475543 938.897549 
L 405.795032 939.367917 
L 407.11452 939.644331 
L 408.434008 939.661811 
L 409.753496 939.397999 
L 411.072985 938.895559 
L 413.711961 937.626351 
L 415.031449 937.134649 
L 416.350937 936.881889 
L 417.670426 936.905621 
L 418.989914 937.175496 
L 422.948379 938.436187 
L 424.267867 938.627259 
L 425.587355 938.596746 
L 426.906843 938.353732 
L 428.226332 937.938803 
L 430.865308 936.784057 
L 438.782237 932.864242 
L 441.421214 931.794837 
L 444.06019 930.978177 
L 445.379679 930.775488 
L 446.699167 930.803552 
L 448.018655 931.136557 
L 449.338143 931.833215 
L 450.657631 932.919429 
L 451.97712 934.371891 
L 454.616096 937.974332 
L 455.935584 939.7783 
L 457.255073 941.300591 
L 458.574561 942.348301 
L 459.894049 942.795204 
L 461.213537 942.603811 
L 462.533025 941.817122 
L 463.852514 940.525912 
L 465.172002 938.82932 
L 466.49149 936.806293 
L 467.810978 934.50612 
L 470.449955 929.175532 
L 473.088931 923.050059 
L 478.366884 910.102779 
L 479.686372 907.153541 
L 481.005861 904.512652 
L 482.325349 902.299616 
L 483.644837 900.635768 
L 484.964325 899.627715 
L 486.283814 899.347548 
L 487.603302 899.812925 
L 488.92279 900.969824 
L 490.242278 902.680921 
L 494.200743 908.605481 
L 495.520231 909.823704 
L 496.839719 910.264489 
L 498.159208 909.88245 
L 499.478696 908.795119 
L 503.437161 904.024081 
L 504.756649 902.939315 
L 506.076137 902.50815 
L 507.395625 902.863685 
L 508.715113 904.057209 
L 510.034602 906.055773 
L 511.35409 908.74015 
L 516.632043 921.133839 
L 517.951531 922.974499 
L 519.271019 923.809978 
L 520.590508 923.668497 
L 521.909996 922.776504 
L 524.548972 920.230315 
L 525.86846 919.348017 
L 527.187949 919.129633 
L 528.507437 919.752009 
L 529.826925 921.290393 
L 531.146413 923.731815 
L 532.465902 926.993677 
L 533.78539 930.944767 
L 536.424366 940.27261 
L 541.702319 960.24052 
L 543.021807 964.699172 
L 544.341296 968.698928 
L 545.660784 972.141142 
L 546.980272 974.961297 
L 548.29976 977.146271 
L 549.619249 978.746489 
L 550.938737 979.875501 
L 552.258225 980.692739 
L 554.897201 982.063808 
L 556.21669 982.865743 
L 558.855666 984.851759 
L 561.494643 986.965142 
L 564.133619 988.755121 
L 566.772595 990.245271 
L 569.411572 991.536119 
L 570.73106 992.012989 
L 572.050548 992.274377 
L 573.370037 992.246087 
L 574.689525 991.885718 
L 576.009013 991.19656 
L 577.328501 990.226365 
L 579.967478 987.759447 
L 585.245431 982.5047 
L 587.884407 980.190671 
L 589.203895 979.239458 
L 590.523384 978.515494 
L 591.842872 978.083054 
L 593.16236 977.977268 
L 594.481848 978.18426 
L 597.120825 979.184282 
L 598.440313 979.676212 
L 599.759801 979.929282 
L 601.079289 979.799135 
L 602.398778 979.207948 
L 603.718266 978.161735 
L 605.037754 976.745929 
L 608.996219 971.825848 
L 610.315707 970.513335 
L 611.635195 969.583125 
L 612.954683 969.103516 
L 614.274172 969.091416 
L 615.59366 969.511173 
L 616.913148 970.277671 
L 620.871613 973.262785 
L 622.191101 973.949816 
L 623.510589 974.247184 
L 624.830078 974.071174 
L 626.149566 973.390998 
L 627.469054 972.228033 
L 628.788542 970.648578 
L 631.427519 966.664529 
L 634.066495 962.424043 
L 635.385983 960.495893 
L 636.705472 958.789857 
L 638.02496 957.316878 
L 640.663936 954.857699 
L 643.302913 952.360704 
L 644.622401 950.850043 
L 647.261377 947.23631 
L 649.900354 943.573531 
L 651.219842 942.188042 
L 652.53933 941.37065 
L 653.858819 941.292774 
L 655.178307 942.076793 
L 656.497795 943.782001 
L 657.817283 946.394522 
L 659.136771 949.821962 
L 660.45626 953.895604 
L 665.734213 971.733648 
L 667.053701 975.445457 
L 668.373189 978.611306 
L 669.692677 981.226683 
L 671.012166 983.323508 
L 672.331654 984.942183 
L 673.651142 986.108 
L 674.97063 986.814601 
L 676.290118 987.018465 
L 677.609607 986.649951 
L 678.929095 985.642677 
L 680.248583 983.97273 
L 681.568071 981.688805 
L 682.88756 978.914608 
L 685.526536 972.569499 
L 692.123977 955.883206 
L 694.762954 948.031922 
L 696.082442 943.580429 
L 698.721418 933.485888 
L 701.360395 921.865993 
L 709.277324 884.733305 
L 710.596812 879.469824 
L 711.916301 874.786681 
L 713.235789 870.807276 
L 714.555277 867.646789 
L 715.874765 865.393338 
L 717.194253 864.086926 
L 718.513742 863.701675 
L 719.83323 864.13626 
L 721.152718 865.216976 
L 722.472206 866.717454 
L 725.111183 870.049538 
L 727.750159 872.912851 
L 730.389136 875.623188 
L 731.708624 877.303053 
L 733.028112 879.371613 
L 734.3476 881.864098 
L 736.986577 887.813448 
L 739.625553 893.96898 
L 740.945042 896.729189 
L 742.26453 899.180436 
L 743.584018 901.337279 
L 746.222994 904.981367 
L 747.542483 906.547091 
L 748.861971 907.936511 
L 750.181459 909.105076 
L 751.500947 909.994928 
L 752.820436 910.552893 
L 754.139924 910.743055 
L 754.139924 910.743055 
" style="fill:none;stroke:#1f77b4;stroke-linecap:square;stroke-width:1.5;"/>
   </g>
   <g id="patch_3">
    <path d="M 44.783053 1046.64351 
L 44.783053 18.118365 
" style="fill:none;stroke:#000000;stroke-linecap:square;stroke-linejoin:miter;stroke-width:0.8;"/>
   </g>
   <g id="patch_4">
    <path d="M 787.918822 1046.64351 
L 787.918822 18.118365 
" style="fill:none;stroke:#000000;stroke-linecap:square;stroke-linejoin:miter;stroke-width:0.8;"/>
   </g>
   <g id="patch_5">
    <path d="M 44.783053 1046.64351 
L 787.918823 1046.64351 
" style="fill:none;stroke:#000000;stroke-linecap:square;stroke-linejoin:miter;stroke-width:0.8;"/>
   </g>
   <g id="patch_6">
    <path d="M 44.783053 18.118365 
L 787.918823 18.118365 
" style="fill:none;stroke:#000000;stroke-linecap:square;stroke-linejoin:miter;stroke-width:0.8;"/>
   </g>
   <g id="text_19">
    <!-- Periodogram -->
    <g transform="translate(378.176875 12.118365)scale(0.12 -0.12)">
     <defs>
      <path d="M 45.40625 27.984375 
Q 45.40625 37.75 41.375 43.109375 
Q 37.359375 48.484375 30.078125 48.484375 
Q 22.859375 48.484375 18.828125 43.109375 
Q 14.796875 37.75 14.796875 27.984375 
Q 14.796875 18.265625 18.828125 12.890625 
Q 22.859375 7.515625 30.078125 7.515625 
Q 37.359375 7.515625 41.375 12.890625 
Q 45.40625 18.265625 45.40625 27.984375 
z
M 54.390625 6.78125 
Q 54.390625 -7.171875 48.1875 -13.984375 
Q 42 -20.796875 29.203125 -20.796875 
Q 24.46875 -20.796875 20.265625 -20.09375 
Q 16.0625 -19.390625 12.109375 -17.921875 
L 12.109375 -9.1875 
Q 16.0625 -11.328125 19.921875 -12.34375 
Q 23.78125 -13.375 27.78125 -13.375 
Q 36.625 -13.375 41.015625 -8.765625 
Q 45.40625 -4.15625 45.40625 5.171875 
L 45.40625 9.625 
Q 42.625 4.78125 38.28125 2.390625 
Q 33.9375 0 27.875 0 
Q 17.828125 0 11.671875 7.65625 
Q 5.515625 15.328125 5.515625 27.984375 
Q 5.515625 40.671875 11.671875 48.328125 
Q 17.828125 56 27.875 56 
Q 33.9375 56 38.28125 53.609375 
Q 42.625 51.21875 45.40625 46.390625 
L 45.40625 54.6875 
L 54.390625 54.6875 
z
" id="DejaVuSans-103"/>
      <path d="M 52 44.1875 
Q 55.375 50.25 60.0625 53.125 
Q 64.75 56 71.09375 56 
Q 79.640625 56 84.28125 50.015625 
Q 88.921875 44.046875 88.921875 33.015625 
L 88.921875 0 
L 79.890625 0 
L 79.890625 32.71875 
Q 79.890625 40.578125 77.09375 44.375 
Q 74.3125 48.1875 68.609375 48.1875 
Q 61.625 48.1875 57.5625 43.546875 
Q 53.515625 38.921875 53.515625 30.90625 
L 53.515625 0 
L 44.484375 0 
L 44.484375 32.71875 
Q 44.484375 40.625 41.703125 44.40625 
Q 38.921875 48.1875 33.109375 48.1875 
Q 26.21875 48.1875 22.15625 43.53125 
Q 18.109375 38.875 18.109375 30.90625 
L 18.109375 0 
L 9.078125 0 
L 9.078125 54.6875 
L 18.109375 54.6875 
L 18.109375 46.1875 
Q 21.1875 51.21875 25.484375 53.609375 
Q 29.78125 56 35.6875 56 
Q 41.65625 56 45.828125 52.96875 
Q 50 49.953125 52 44.1875 
z
" id="DejaVuSans-109"/>
     </defs>
     <use xlink:href="#DejaVuSans-80"/>
     <use x="56.677734" xlink:href="#DejaVuSans-101"/>
     <use x="118.201172" xlink:href="#DejaVuSans-114"/>
     <use x="159.314453" xlink:href="#DejaVuSans-105"/>
     <use x="187.097656" xlink:href="#DejaVuSans-111"/>
     <use x="248.279297" xlink:href="#DejaVuSans-100"/>
     <use x="311.755859" xlink:href="#DejaVuSans-111"/>
     <use x="372.9375" xlink:href="#DejaVuSans-103"/>
     <use x="436.414062" xlink:href="#DejaVuSans-114"/>
     <use x="477.527344" xlink:href="#DejaVuSans-97"/>
     <use x="538.806641" xlink:href="#DejaVuSans-109"/>
    </g>
   </g>
  </g>
  <g id="axes_2">
   <g id="patch_7">
    <path d="M 837.86399 1046.64351 
L 1580.99976 1046.64351 
L 1580.99976 18.118365 
L 837.86399 18.118365 
z
" style="fill:#ffffff;"/>
   </g>
   <g id="matplotlib.axis_3">
    <g id="xtick_8">
     <g id="line2d_34">
      <path clip-path="url(#p7f4a632481)" d="M 871.642889 1046.64351 
L 871.642889 18.118365 
" style="fill:none;stroke:#b0b0b0;stroke-linecap:square;stroke-width:0.8;"/>
     </g>
     <g id="line2d_35">
      <g>
       <use style="stroke:#000000;stroke-width:0.8;" x="871.642889" xlink:href="#m0ad8de3c61" y="1046.64351"/>
      </g>
     </g>
     <g id="text_20">
      <!-- 0 -->
      <g transform="translate(868.461639 1061.241947)scale(0.1 -0.1)">
       <use xlink:href="#DejaVuSans-48"/>
      </g>
     </g>
    </g>
    <g id="xtick_9">
     <g id="line2d_36">
      <path clip-path="url(#p7f4a632481)" d="M 977.201947 1046.64351 
L 977.201947 18.118365 
" style="fill:none;stroke:#b0b0b0;stroke-linecap:square;stroke-width:0.8;"/>
     </g>
     <g id="line2d_37">
      <g>
       <use style="stroke:#000000;stroke-width:0.8;" x="977.201947" xlink:href="#m0ad8de3c61" y="1046.64351"/>
      </g>
     </g>
     <g id="text_21">
      <!-- 1000 -->
      <g transform="translate(964.476947 1061.241947)scale(0.1 -0.1)">
       <use xlink:href="#DejaVuSans-49"/>
       <use x="63.623047" xlink:href="#DejaVuSans-48"/>
       <use x="127.246094" xlink:href="#DejaVuSans-48"/>
       <use x="190.869141" xlink:href="#DejaVuSans-48"/>
      </g>
     </g>
    </g>
    <g id="xtick_10">
     <g id="line2d_38">
      <path clip-path="url(#p7f4a632481)" d="M 1082.761005 1046.64351 
L 1082.761005 18.118365 
" style="fill:none;stroke:#b0b0b0;stroke-linecap:square;stroke-width:0.8;"/>
     </g>
     <g id="line2d_39">
      <g>
       <use style="stroke:#000000;stroke-width:0.8;" x="1082.761005" xlink:href="#m0ad8de3c61" y="1046.64351"/>
      </g>
     </g>
     <g id="text_22">
      <!-- 2000 -->
      <g transform="translate(1070.036005 1061.241947)scale(0.1 -0.1)">
       <use xlink:href="#DejaVuSans-50"/>
       <use x="63.623047" xlink:href="#DejaVuSans-48"/>
       <use x="127.246094" xlink:href="#DejaVuSans-48"/>
       <use x="190.869141" xlink:href="#DejaVuSans-48"/>
      </g>
     </g>
    </g>
    <g id="xtick_11">
     <g id="line2d_40">
      <path clip-path="url(#p7f4a632481)" d="M 1188.320063 1046.64351 
L 1188.320063 18.118365 
" style="fill:none;stroke:#b0b0b0;stroke-linecap:square;stroke-width:0.8;"/>
     </g>
     <g id="line2d_41">
      <g>
       <use style="stroke:#000000;stroke-width:0.8;" x="1188.320063" xlink:href="#m0ad8de3c61" y="1046.64351"/>
      </g>
     </g>
     <g id="text_23">
      <!-- 3000 -->
      <g transform="translate(1175.595063 1061.241947)scale(0.1 -0.1)">
       <use xlink:href="#DejaVuSans-51"/>
       <use x="63.623047" xlink:href="#DejaVuSans-48"/>
       <use x="127.246094" xlink:href="#DejaVuSans-48"/>
       <use x="190.869141" xlink:href="#DejaVuSans-48"/>
      </g>
     </g>
    </g>
    <g id="xtick_12">
     <g id="line2d_42">
      <path clip-path="url(#p7f4a632481)" d="M 1293.879122 1046.64351 
L 1293.879122 18.118365 
" style="fill:none;stroke:#b0b0b0;stroke-linecap:square;stroke-width:0.8;"/>
     </g>
     <g id="line2d_43">
      <g>
       <use style="stroke:#000000;stroke-width:0.8;" x="1293.879122" xlink:href="#m0ad8de3c61" y="1046.64351"/>
      </g>
     </g>
     <g id="text_24">
      <!-- 4000 -->
      <g transform="translate(1281.154122 1061.241947)scale(0.1 -0.1)">
       <use xlink:href="#DejaVuSans-52"/>
       <use x="63.623047" xlink:href="#DejaVuSans-48"/>
       <use x="127.246094" xlink:href="#DejaVuSans-48"/>
       <use x="190.869141" xlink:href="#DejaVuSans-48"/>
      </g>
     </g>
    </g>
    <g id="xtick_13">
     <g id="line2d_44">
      <path clip-path="url(#p7f4a632481)" d="M 1399.43818 1046.64351 
L 1399.43818 18.118365 
" style="fill:none;stroke:#b0b0b0;stroke-linecap:square;stroke-width:0.8;"/>
     </g>
     <g id="line2d_45">
      <g>
       <use style="stroke:#000000;stroke-width:0.8;" x="1399.43818" xlink:href="#m0ad8de3c61" y="1046.64351"/>
      </g>
     </g>
     <g id="text_25">
      <!-- 5000 -->
      <g transform="translate(1386.71318 1061.241947)scale(0.1 -0.1)">
       <use xlink:href="#DejaVuSans-53"/>
       <use x="63.623047" xlink:href="#DejaVuSans-48"/>
       <use x="127.246094" xlink:href="#DejaVuSans-48"/>
       <use x="190.869141" xlink:href="#DejaVuSans-48"/>
      </g>
     </g>
    </g>
    <g id="xtick_14">
     <g id="line2d_46">
      <path clip-path="url(#p7f4a632481)" d="M 1504.997238 1046.64351 
L 1504.997238 18.118365 
" style="fill:none;stroke:#b0b0b0;stroke-linecap:square;stroke-width:0.8;"/>
     </g>
     <g id="line2d_47">
      <g>
       <use style="stroke:#000000;stroke-width:0.8;" x="1504.997238" xlink:href="#m0ad8de3c61" y="1046.64351"/>
      </g>
     </g>
     <g id="text_26">
      <!-- 6000 -->
      <g transform="translate(1492.272238 1061.241947)scale(0.1 -0.1)">
       <use xlink:href="#DejaVuSans-54"/>
       <use x="63.623047" xlink:href="#DejaVuSans-48"/>
       <use x="127.246094" xlink:href="#DejaVuSans-48"/>
       <use x="190.869141" xlink:href="#DejaVuSans-48"/>
      </g>
     </g>
    </g>
    <g id="text_27">
     <!-- Frequency -->
     <g transform="translate(1183.602187 1074.920072)scale(0.1 -0.1)">
      <use xlink:href="#DejaVuSans-70"/>
      <use x="50.269531" xlink:href="#DejaVuSans-114"/>
      <use x="89.132812" xlink:href="#DejaVuSans-101"/>
      <use x="150.65625" xlink:href="#DejaVuSans-113"/>
      <use x="214.132812" xlink:href="#DejaVuSans-117"/>
      <use x="277.511719" xlink:href="#DejaVuSans-101"/>
      <use x="339.035156" xlink:href="#DejaVuSans-110"/>
      <use x="402.414062" xlink:href="#DejaVuSans-99"/>
      <use x="457.394531" xlink:href="#DejaVuSans-121"/>
     </g>
    </g>
   </g>
   <g id="matplotlib.axis_4">
    <g id="ytick_10">
     <g id="line2d_48">
      <path clip-path="url(#p7f4a632481)" d="M 837.86399 1046.64351 
L 1580.99976 1046.64351 
" style="fill:none;stroke:#b0b0b0;stroke-linecap:square;stroke-width:0.8;"/>
     </g>
     <g id="line2d_49">
      <g>
       <use style="stroke:#000000;stroke-width:0.8;" x="837.86399" xlink:href="#m89cda50259" y="1046.64351"/>
      </g>
     </g>
     <g id="text_28">
      <!-- −60 -->
      <g transform="translate(809.759302 1050.442729)scale(0.1 -0.1)">
       <use xlink:href="#DejaVuSans-8722"/>
       <use x="83.789062" xlink:href="#DejaVuSans-54"/>
       <use x="147.412109" xlink:href="#DejaVuSans-48"/>
      </g>
     </g>
    </g>
    <g id="ytick_11">
     <g id="line2d_50">
      <path clip-path="url(#p7f4a632481)" d="M 837.86399 918.077867 
L 1580.99976 918.077867 
" style="fill:none;stroke:#b0b0b0;stroke-linecap:square;stroke-width:0.8;"/>
     </g>
     <g id="line2d_51">
      <g>
       <use style="stroke:#000000;stroke-width:0.8;" x="837.86399" xlink:href="#m89cda50259" y="918.077867"/>
      </g>
     </g>
     <g id="text_29">
      <!-- −50 -->
      <g transform="translate(809.759302 921.877086)scale(0.1 -0.1)">
       <use xlink:href="#DejaVuSans-8722"/>
       <use x="83.789062" xlink:href="#DejaVuSans-53"/>
       <use x="147.412109" xlink:href="#DejaVuSans-48"/>
      </g>
     </g>
    </g>
    <g id="ytick_12">
     <g id="line2d_52">
      <path clip-path="url(#p7f4a632481)" d="M 837.86399 789.512224 
L 1580.99976 789.512224 
" style="fill:none;stroke:#b0b0b0;stroke-linecap:square;stroke-width:0.8;"/>
     </g>
     <g id="line2d_53">
      <g>
       <use style="stroke:#000000;stroke-width:0.8;" x="837.86399" xlink:href="#m89cda50259" y="789.512224"/>
      </g>
     </g>
     <g id="text_30">
      <!-- −40 -->
      <g transform="translate(809.759302 793.311442)scale(0.1 -0.1)">
       <use xlink:href="#DejaVuSans-8722"/>
       <use x="83.789062" xlink:href="#DejaVuSans-52"/>
       <use x="147.412109" xlink:href="#DejaVuSans-48"/>
      </g>
     </g>
    </g>
    <g id="ytick_13">
     <g id="line2d_54">
      <path clip-path="url(#p7f4a632481)" d="M 837.86399 660.946581 
L 1580.99976 660.946581 
" style="fill:none;stroke:#b0b0b0;stroke-linecap:square;stroke-width:0.8;"/>
     </g>
     <g id="line2d_55">
      <g>
       <use style="stroke:#000000;stroke-width:0.8;" x="837.86399" xlink:href="#m89cda50259" y="660.946581"/>
      </g>
     </g>
     <g id="text_31">
      <!-- −30 -->
      <g transform="translate(809.759302 664.745799)scale(0.1 -0.1)">
       <use xlink:href="#DejaVuSans-8722"/>
       <use x="83.789062" xlink:href="#DejaVuSans-51"/>
       <use x="147.412109" xlink:href="#DejaVuSans-48"/>
      </g>
     </g>
    </g>
    <g id="ytick_14">
     <g id="line2d_56">
      <path clip-path="url(#p7f4a632481)" d="M 837.86399 532.380937 
L 1580.99976 532.380937 
" style="fill:none;stroke:#b0b0b0;stroke-linecap:square;stroke-width:0.8;"/>
     </g>
     <g id="line2d_57">
      <g>
       <use style="stroke:#000000;stroke-width:0.8;" x="837.86399" xlink:href="#m89cda50259" y="532.380937"/>
      </g>
     </g>
     <g id="text_32">
      <!-- −20 -->
      <g transform="translate(809.759302 536.180156)scale(0.1 -0.1)">
       <use xlink:href="#DejaVuSans-8722"/>
       <use x="83.789062" xlink:href="#DejaVuSans-50"/>
       <use x="147.412109" xlink:href="#DejaVuSans-48"/>
      </g>
     </g>
    </g>
    <g id="ytick_15">
     <g id="line2d_58">
      <path clip-path="url(#p7f4a632481)" d="M 837.86399 403.815294 
L 1580.99976 403.815294 
" style="fill:none;stroke:#b0b0b0;stroke-linecap:square;stroke-width:0.8;"/>
     </g>
     <g id="line2d_59">
      <g>
       <use style="stroke:#000000;stroke-width:0.8;" x="837.86399" xlink:href="#m89cda50259" y="403.815294"/>
      </g>
     </g>
     <g id="text_33">
      <!-- −10 -->
      <g transform="translate(809.759302 407.614513)scale(0.1 -0.1)">
       <use xlink:href="#DejaVuSans-8722"/>
       <use x="83.789062" xlink:href="#DejaVuSans-49"/>
       <use x="147.412109" xlink:href="#DejaVuSans-48"/>
      </g>
     </g>
    </g>
    <g id="ytick_16">
     <g id="line2d_60">
      <path clip-path="url(#p7f4a632481)" d="M 837.86399 275.249651 
L 1580.99976 275.249651 
" style="fill:none;stroke:#b0b0b0;stroke-linecap:square;stroke-width:0.8;"/>
     </g>
     <g id="line2d_61">
      <g>
       <use style="stroke:#000000;stroke-width:0.8;" x="837.86399" xlink:href="#m89cda50259" y="275.249651"/>
      </g>
     </g>
     <g id="text_34">
      <!-- 0 -->
      <g transform="translate(824.50149 279.04887)scale(0.1 -0.1)">
       <use xlink:href="#DejaVuSans-48"/>
      </g>
     </g>
    </g>
    <g id="ytick_17">
     <g id="line2d_62">
      <path clip-path="url(#p7f4a632481)" d="M 837.86399 146.684008 
L 1580.99976 146.684008 
" style="fill:none;stroke:#b0b0b0;stroke-linecap:square;stroke-width:0.8;"/>
     </g>
     <g id="line2d_63">
      <g>
       <use style="stroke:#000000;stroke-width:0.8;" x="837.86399" xlink:href="#m89cda50259" y="146.684008"/>
      </g>
     </g>
     <g id="text_35">
      <!-- 10 -->
      <g transform="translate(818.13899 150.483227)scale(0.1 -0.1)">
       <use xlink:href="#DejaVuSans-49"/>
       <use x="63.623047" xlink:href="#DejaVuSans-48"/>
      </g>
     </g>
    </g>
    <g id="ytick_18">
     <g id="line2d_64">
      <path clip-path="url(#p7f4a632481)" d="M 837.86399 18.118365 
L 1580.99976 18.118365 
" style="fill:none;stroke:#b0b0b0;stroke-linecap:square;stroke-width:0.8;"/>
     </g>
     <g id="line2d_65">
      <g>
       <use style="stroke:#000000;stroke-width:0.8;" x="837.86399" xlink:href="#m89cda50259" y="18.118365"/>
      </g>
     </g>
     <g id="text_36">
      <!-- 20 -->
      <g transform="translate(818.13899 21.917584)scale(0.1 -0.1)">
       <use xlink:href="#DejaVuSans-50"/>
       <use x="63.623047" xlink:href="#DejaVuSans-48"/>
      </g>
     </g>
    </g>
   </g>
   <g id="line2d_66">
    <path clip-path="url(#p7f4a632481)" d="M 871.642889 799.626065 
L 874.281865 760.867853 
L 876.920842 760.800604 
L 879.559818 760.991474 
L 882.198794 761.79187 
L 884.837771 763.530596 
L 887.476747 766.418062 
L 890.115724 770.468812 
L 892.7547 775.438224 
L 895.393677 780.769889 
L 898.032653 785.572384 
L 900.67163 788.694521 
L 903.310606 789.00853 
L 905.949583 785.897345 
L 908.588559 779.628447 
L 911.227535 771.226837 
L 916.505488 752.782706 
L 919.144465 744.296962 
L 921.783441 736.638143 
L 924.422418 729.706129 
L 927.061394 723.352066 
L 929.700371 717.56484 
L 932.339347 712.570195 
L 934.978324 708.806831 
L 937.6173 706.818185 
L 940.256276 707.135943 
L 942.895253 710.203678 
L 945.534229 716.34139 
L 948.173206 725.723045 
L 950.812182 738.327029 
L 953.451159 753.804041 
L 958.729112 788.438272 
L 961.368088 802.280244 
L 964.007065 809.556754 
L 966.646041 809.898338 
L 969.285018 806.021199 
L 971.923994 801.165014 
L 974.56297 797.437088 
L 977.201947 795.819376 
L 979.840923 796.578331 
L 982.4799 799.475192 
L 985.118876 803.701204 
L 987.757853 807.590379 
L 990.396829 808.43396 
L 993.035806 803.323789 
L 995.674782 791.345682 
L 998.313759 774.570941 
L 1000.952735 756.241732 
L 1003.591711 738.882371 
L 1006.230688 723.940356 
L 1008.869664 712.130285 
L 1011.508641 703.768404 
L 1014.147617 698.960516 
L 1016.786594 697.684784 
L 1019.42557 699.813734 
L 1022.064547 705.09821 
L 1024.703523 713.123703 
L 1027.3425 723.251522 
L 1032.620452 745.987266 
L 1035.259429 756.363968 
L 1037.898405 764.950981 
L 1040.537382 771.594423 
L 1043.176358 776.663085 
L 1045.815335 780.724999 
L 1048.454311 784.252495 
L 1051.093288 787.481385 
L 1053.732264 790.368751 
L 1056.371241 792.568316 
L 1059.010217 793.425343 
L 1061.649193 792.099195 
L 1064.28817 787.930231 
L 1066.927146 780.923742 
L 1069.566123 771.927562 
L 1072.205099 762.302146 
L 1074.844076 753.41801 
L 1077.483052 746.358582 
L 1080.122029 741.87067 
L 1082.761005 740.431665 
L 1085.399982 742.33195 
L 1088.038958 747.733689 
L 1090.677934 756.698298 
L 1093.316911 769.180805 
L 1095.955887 784.983954 
L 1098.594864 803.656956 
L 1106.511793 865.190757 
L 1109.15077 881.329396 
L 1111.789746 893.058737 
L 1114.428723 901.028912 
L 1117.067699 906.616311 
L 1119.706675 910.951306 
L 1122.345652 914.593979 
L 1124.984628 917.669603 
L 1127.623605 920.081435 
L 1130.262581 921.637567 
L 1132.901558 922.09737 
L 1135.540534 921.214527 
L 1138.179511 918.841425 
L 1140.818487 915.07305 
L 1143.457464 910.322562 
L 1146.09644 905.248627 
L 1148.735417 900.579014 
L 1151.374393 896.942338 
L 1154.013369 894.773189 
L 1156.652346 894.284671 
L 1159.291322 895.475717 
L 1161.930299 898.150748 
L 1164.569275 901.948889 
L 1172.486205 915.26924 
L 1175.125181 919.00713 
L 1177.764158 922.136222 
L 1180.403134 924.757597 
L 1183.04211 927.035047 
L 1188.320063 931.046825 
L 1190.95904 932.844318 
L 1193.598016 934.44401 
L 1196.236993 935.774829 
L 1198.875969 936.786465 
L 1201.514946 937.471099 
L 1204.153922 937.865245 
L 1206.792899 938.032801 
L 1209.431875 938.038401 
L 1214.709828 937.698597 
L 1217.348804 937.346771 
L 1219.987781 936.848589 
L 1225.265734 935.451627 
L 1230.543687 933.961397 
L 1233.182663 933.447848 
L 1235.82164 933.228334 
L 1238.460616 933.361779 
L 1241.099592 933.840088 
L 1249.016522 935.907495 
L 1251.655498 935.916291 
L 1254.294475 935.082295 
L 1256.933451 933.228459 
L 1259.572428 930.357501 
L 1262.211404 926.659721 
L 1270.128333 914.125152 
L 1272.76731 910.662396 
L 1275.406286 907.973711 
L 1278.045263 906.139002 
L 1280.684239 905.115921 
L 1283.323216 904.757972 
L 1285.962192 904.856689 
L 1288.601169 905.205849 
L 1293.879122 906.226826 
L 1296.518098 906.956845 
L 1299.157075 907.985745 
L 1301.796051 909.407206 
L 1304.435027 911.22565 
L 1307.074004 913.344653 
L 1317.62991 922.482139 
L 1320.268886 925.140769 
L 1322.907863 928.37327 
L 1325.546839 932.387919 
L 1328.185816 937.27537 
L 1330.824792 942.974598 
L 1336.102745 955.822589 
L 1338.741721 962.227845 
L 1341.380698 968.108955 
L 1344.019674 973.203829 
L 1346.658651 977.414734 
L 1349.297627 980.792079 
L 1351.936604 983.466094 
L 1354.57558 985.567723 
L 1357.214557 987.175721 
L 1359.853533 988.303843 
L 1362.492509 988.922155 
L 1365.131486 988.996976 
L 1367.770462 988.531275 
L 1370.409439 987.589316 
L 1373.048415 986.296362 
L 1380.965345 981.900907 
L 1383.604321 980.659253 
L 1388.882274 978.59825 
L 1394.160227 976.632478 
L 1402.077156 973.527672 
L 1404.716133 972.708356 
L 1407.355109 972.075799 
L 1412.633062 971.053379 
L 1415.272039 970.335349 
L 1417.911015 969.241064 
L 1420.549991 967.664235 
L 1423.188968 965.599914 
L 1425.827944 963.137913 
L 1433.744874 954.993307 
L 1436.38385 952.641561 
L 1439.022827 950.796684 
L 1441.661803 949.661159 
L 1444.30078 949.423149 
L 1446.939756 950.228179 
L 1449.578732 952.14657 
L 1452.217709 955.142182 
L 1454.856685 959.046258 
L 1462.773615 972.335111 
L 1465.412591 975.458025 
L 1468.051568 977.02206 
L 1470.690544 976.723652 
L 1473.329521 974.505775 
L 1475.968497 970.504629 
L 1478.607474 964.945001 
L 1481.24645 958.055419 
L 1483.885426 950.044036 
L 1486.524403 941.127137 
L 1491.802356 921.716751 
L 1494.441332 911.952315 
L 1497.080309 902.679249 
L 1499.719285 894.260688 
L 1502.358262 886.98808 
L 1504.997238 881.063874 
L 1507.636215 876.598138 
L 1510.275191 873.614401 
L 1512.914167 872.061385 
L 1515.553144 871.828853 
L 1518.19212 872.765955 
L 1520.831097 874.699356 
L 1523.470073 877.447114 
L 1526.10905 880.824438 
L 1528.748026 884.64026 
L 1534.025979 892.738612 
L 1536.664956 896.541113 
L 1539.303932 899.838311 
L 1541.942908 902.391111 
L 1544.581885 904.006286 
L 1547.220861 943.261133 
L 1547.220861 943.261133 
" style="fill:none;stroke:#1f77b4;stroke-linecap:square;stroke-width:1.5;"/>
   </g>
   <g id="patch_8">
    <path d="M 837.86399 1046.64351 
L 837.86399 18.118365 
" style="fill:none;stroke:#000000;stroke-linecap:square;stroke-linejoin:miter;stroke-width:0.8;"/>
   </g>
   <g id="patch_9">
    <path d="M 1580.99976 1046.64351 
L 1580.99976 18.118365 
" style="fill:none;stroke:#000000;stroke-linecap:square;stroke-linejoin:miter;stroke-width:0.8;"/>
   </g>
   <g id="patch_10">
    <path d="M 837.86399 1046.64351 
L 1580.99976 1046.64351 
" style="fill:none;stroke:#000000;stroke-linecap:square;stroke-linejoin:miter;stroke-width:0.8;"/>
   </g>
   <g id="patch_11">
    <path d="M 837.86399 18.118365 
L 1580.99976 18.118365 
" style="fill:none;stroke:#000000;stroke-linecap:square;stroke-linejoin:miter;stroke-width:0.8;"/>
   </g>
   <g id="text_37">
    <!-- Welch -->
    <g transform="translate(1191.391562 12.118365)scale(0.12 -0.12)">
     <defs>
      <path d="M 3.328125 72.90625 
L 13.28125 72.90625 
L 28.609375 11.28125 
L 43.890625 72.90625 
L 54.984375 72.90625 
L 70.3125 11.28125 
L 85.59375 72.90625 
L 95.609375 72.90625 
L 77.296875 0 
L 64.890625 0 
L 49.515625 63.28125 
L 33.984375 0 
L 21.578125 0 
z
" id="DejaVuSans-87"/>
      <path d="M 54.890625 33.015625 
L 54.890625 0 
L 45.90625 0 
L 45.90625 32.71875 
Q 45.90625 40.484375 42.875 44.328125 
Q 39.84375 48.1875 33.796875 48.1875 
Q 26.515625 48.1875 22.3125 43.546875 
Q 18.109375 38.921875 18.109375 30.90625 
L 18.109375 0 
L 9.078125 0 
L 9.078125 75.984375 
L 18.109375 75.984375 
L 18.109375 46.1875 
Q 21.34375 51.125 25.703125 53.5625 
Q 30.078125 56 35.796875 56 
Q 45.21875 56 50.046875 50.171875 
Q 54.890625 44.34375 54.890625 33.015625 
z
" id="DejaVuSans-104"/>
     </defs>
     <use xlink:href="#DejaVuSans-87"/>
     <use x="93.001953" xlink:href="#DejaVuSans-101"/>
     <use x="154.525391" xlink:href="#DejaVuSans-108"/>
     <use x="182.308594" xlink:href="#DejaVuSans-99"/>
     <use x="237.289062" xlink:href="#DejaVuSans-104"/>
    </g>
   </g>
  </g>
 </g>
 <defs>
  <clipPath id="pb7377527fd">
   <rect height="1028.525145" width="743.13577" x="44.783053" y="18.118365"/>
  </clipPath>
  <clipPath id="p7f4a632481">
   <rect height="1028.525145" width="743.13577" x="837.86399" y="18.118365"/>
  </clipPath>
 </defs>
</svg>
