<?xml version="1.0" encoding="utf-8" standalone="no"?>
<!DOCTYPE svg PUBLIC "-//W3C//DTD SVG 1.1//EN"
  "http://www.w3.org/Graphics/SVG/1.1/DTD/svg11.dtd">
<!-- Created with matplotlib (https://matplotlib.org/) -->
<svg height="1080pt" version="1.1" viewBox="0 0 1584 1080" width="1584pt" xmlns="http://www.w3.org/2000/svg" xmlns:xlink="http://www.w3.org/1999/xlink">
 <metadata>
  <rdf:RDF xmlns:cc="http://creativecommons.org/ns#" xmlns:dc="http://purl.org/dc/elements/1.1/" xmlns:rdf="http://www.w3.org/1999/02/22-rdf-syntax-ns#">
   <cc:Work>
    <dc:type rdf:resource="http://purl.org/dc/dcmitype/StillImage"/>
    <dc:date>2021-02-18T09:55:32.986120</dc:date>
    <dc:format>image/svg+xml</dc:format>
    <dc:creator>
     <cc:Agent>
      <dc:title>Matplotlib v3.3.4, https://matplotlib.org/</dc:title>
     </cc:Agent>
    </dc:creator>
   </cc:Work>
  </rdf:RDF>
 </metadata>
 <defs>
  <style type="text/css">*{stroke-linecap:butt;stroke-linejoin:round;}</style>
 </defs>
 <g id="figure_1">
  <g id="patch_1">
   <path d="M 0 1080 
L 1584 1080 
L 1584 0 
L 0 0 
z
" style="fill:none;"/>
  </g>
  <g id="axes_1">
   <g id="patch_2">
    <path d="M 44.783053 1046.64351 
L 787.918822 1046.64351 
L 787.918822 18.118365 
L 44.783053 18.118365 
z
" style="fill:#ffffff;"/>
   </g>
   <g id="matplotlib.axis_1">
    <g id="xtick_1">
     <g id="line2d_1">
      <path clip-path="url(#p4995dcff6d)" d="M 78.561951 1046.64351 
L 78.561951 18.118365 
" style="fill:none;stroke:#b0b0b0;stroke-linecap:square;stroke-width:0.8;"/>
     </g>
     <g id="line2d_2">
      <defs>
       <path d="M 0 0 
L 0 3.5 
" id="m34e8a168f6" style="stroke:#000000;stroke-width:0.8;"/>
      </defs>
      <g>
       <use style="stroke:#000000;stroke-width:0.8;" x="78.561951" xlink:href="#m34e8a168f6" y="1046.64351"/>
      </g>
     </g>
     <g id="text_1">
      <!-- 0 -->
      <g transform="translate(75.380701 1061.241947)scale(0.1 -0.1)">
       <defs>
        <path d="M 31.78125 66.40625 
Q 24.171875 66.40625 20.328125 58.90625 
Q 16.5 51.421875 16.5 36.375 
Q 16.5 21.390625 20.328125 13.890625 
Q 24.171875 6.390625 31.78125 6.390625 
Q 39.453125 6.390625 43.28125 13.890625 
Q 47.125 21.390625 47.125 36.375 
Q 47.125 51.421875 43.28125 58.90625 
Q 39.453125 66.40625 31.78125 66.40625 
z
M 31.78125 74.21875 
Q 44.046875 74.21875 50.515625 64.515625 
Q 56.984375 54.828125 56.984375 36.375 
Q 56.984375 17.96875 50.515625 8.265625 
Q 44.046875 -1.421875 31.78125 -1.421875 
Q 19.53125 -1.421875 13.0625 8.265625 
Q 6.59375 17.96875 6.59375 36.375 
Q 6.59375 54.828125 13.0625 64.515625 
Q 19.53125 74.21875 31.78125 74.21875 
z
" id="DejaVuSans-48"/>
       </defs>
       <use xlink:href="#DejaVuSans-48"/>
      </g>
     </g>
    </g>
    <g id="xtick_2">
     <g id="line2d_3">
      <path clip-path="url(#p4995dcff6d)" d="M 184.121009 1046.64351 
L 184.121009 18.118365 
" style="fill:none;stroke:#b0b0b0;stroke-linecap:square;stroke-width:0.8;"/>
     </g>
     <g id="line2d_4">
      <g>
       <use style="stroke:#000000;stroke-width:0.8;" x="184.121009" xlink:href="#m34e8a168f6" y="1046.64351"/>
      </g>
     </g>
     <g id="text_2">
      <!-- 1000 -->
      <g transform="translate(171.396009 1061.241947)scale(0.1 -0.1)">
       <defs>
        <path d="M 12.40625 8.296875 
L 28.515625 8.296875 
L 28.515625 63.921875 
L 10.984375 60.40625 
L 10.984375 69.390625 
L 28.421875 72.90625 
L 38.28125 72.90625 
L 38.28125 8.296875 
L 54.390625 8.296875 
L 54.390625 0 
L 12.40625 0 
z
" id="DejaVuSans-49"/>
       </defs>
       <use xlink:href="#DejaVuSans-49"/>
       <use x="63.623047" xlink:href="#DejaVuSans-48"/>
       <use x="127.246094" xlink:href="#DejaVuSans-48"/>
       <use x="190.869141" xlink:href="#DejaVuSans-48"/>
      </g>
     </g>
    </g>
    <g id="xtick_3">
     <g id="line2d_5">
      <path clip-path="url(#p4995dcff6d)" d="M 289.680068 1046.64351 
L 289.680068 18.118365 
" style="fill:none;stroke:#b0b0b0;stroke-linecap:square;stroke-width:0.8;"/>
     </g>
     <g id="line2d_6">
      <g>
       <use style="stroke:#000000;stroke-width:0.8;" x="289.680068" xlink:href="#m34e8a168f6" y="1046.64351"/>
      </g>
     </g>
     <g id="text_3">
      <!-- 2000 -->
      <g transform="translate(276.955068 1061.241947)scale(0.1 -0.1)">
       <defs>
        <path d="M 19.1875 8.296875 
L 53.609375 8.296875 
L 53.609375 0 
L 7.328125 0 
L 7.328125 8.296875 
Q 12.9375 14.109375 22.625 23.890625 
Q 32.328125 33.6875 34.8125 36.53125 
Q 39.546875 41.84375 41.421875 45.53125 
Q 43.3125 49.21875 43.3125 52.78125 
Q 43.3125 58.59375 39.234375 62.25 
Q 35.15625 65.921875 28.609375 65.921875 
Q 23.96875 65.921875 18.8125 64.3125 
Q 13.671875 62.703125 7.8125 59.421875 
L 7.8125 69.390625 
Q 13.765625 71.78125 18.9375 73 
Q 24.125 74.21875 28.421875 74.21875 
Q 39.75 74.21875 46.484375 68.546875 
Q 53.21875 62.890625 53.21875 53.421875 
Q 53.21875 48.921875 51.53125 44.890625 
Q 49.859375 40.875 45.40625 35.40625 
Q 44.1875 33.984375 37.640625 27.21875 
Q 31.109375 20.453125 19.1875 8.296875 
z
" id="DejaVuSans-50"/>
       </defs>
       <use xlink:href="#DejaVuSans-50"/>
       <use x="63.623047" xlink:href="#DejaVuSans-48"/>
       <use x="127.246094" xlink:href="#DejaVuSans-48"/>
       <use x="190.869141" xlink:href="#DejaVuSans-48"/>
      </g>
     </g>
    </g>
    <g id="xtick_4">
     <g id="line2d_7">
      <path clip-path="url(#p4995dcff6d)" d="M 395.239126 1046.64351 
L 395.239126 18.118365 
" style="fill:none;stroke:#b0b0b0;stroke-linecap:square;stroke-width:0.8;"/>
     </g>
     <g id="line2d_8">
      <g>
       <use style="stroke:#000000;stroke-width:0.8;" x="395.239126" xlink:href="#m34e8a168f6" y="1046.64351"/>
      </g>
     </g>
     <g id="text_4">
      <!-- 3000 -->
      <g transform="translate(382.514126 1061.241947)scale(0.1 -0.1)">
       <defs>
        <path d="M 40.578125 39.3125 
Q 47.65625 37.796875 51.625 33 
Q 55.609375 28.21875 55.609375 21.1875 
Q 55.609375 10.40625 48.1875 4.484375 
Q 40.765625 -1.421875 27.09375 -1.421875 
Q 22.515625 -1.421875 17.65625 -0.515625 
Q 12.796875 0.390625 7.625 2.203125 
L 7.625 11.71875 
Q 11.71875 9.328125 16.59375 8.109375 
Q 21.484375 6.890625 26.8125 6.890625 
Q 36.078125 6.890625 40.9375 10.546875 
Q 45.796875 14.203125 45.796875 21.1875 
Q 45.796875 27.640625 41.28125 31.265625 
Q 36.765625 34.90625 28.71875 34.90625 
L 20.21875 34.90625 
L 20.21875 43.015625 
L 29.109375 43.015625 
Q 36.375 43.015625 40.234375 45.921875 
Q 44.09375 48.828125 44.09375 54.296875 
Q 44.09375 59.90625 40.109375 62.90625 
Q 36.140625 65.921875 28.71875 65.921875 
Q 24.65625 65.921875 20.015625 65.03125 
Q 15.375 64.15625 9.8125 62.3125 
L 9.8125 71.09375 
Q 15.4375 72.65625 20.34375 73.4375 
Q 25.25 74.21875 29.59375 74.21875 
Q 40.828125 74.21875 47.359375 69.109375 
Q 53.90625 64.015625 53.90625 55.328125 
Q 53.90625 49.265625 50.4375 45.09375 
Q 46.96875 40.921875 40.578125 39.3125 
z
" id="DejaVuSans-51"/>
       </defs>
       <use xlink:href="#DejaVuSans-51"/>
       <use x="63.623047" xlink:href="#DejaVuSans-48"/>
       <use x="127.246094" xlink:href="#DejaVuSans-48"/>
       <use x="190.869141" xlink:href="#DejaVuSans-48"/>
      </g>
     </g>
    </g>
    <g id="xtick_5">
     <g id="line2d_9">
      <path clip-path="url(#p4995dcff6d)" d="M 500.798184 1046.64351 
L 500.798184 18.118365 
" style="fill:none;stroke:#b0b0b0;stroke-linecap:square;stroke-width:0.8;"/>
     </g>
     <g id="line2d_10">
      <g>
       <use style="stroke:#000000;stroke-width:0.8;" x="500.798184" xlink:href="#m34e8a168f6" y="1046.64351"/>
      </g>
     </g>
     <g id="text_5">
      <!-- 4000 -->
      <g transform="translate(488.073184 1061.241947)scale(0.1 -0.1)">
       <defs>
        <path d="M 37.796875 64.3125 
L 12.890625 25.390625 
L 37.796875 25.390625 
z
M 35.203125 72.90625 
L 47.609375 72.90625 
L 47.609375 25.390625 
L 58.015625 25.390625 
L 58.015625 17.1875 
L 47.609375 17.1875 
L 47.609375 0 
L 37.796875 0 
L 37.796875 17.1875 
L 4.890625 17.1875 
L 4.890625 26.703125 
z
" id="DejaVuSans-52"/>
       </defs>
       <use xlink:href="#DejaVuSans-52"/>
       <use x="63.623047" xlink:href="#DejaVuSans-48"/>
       <use x="127.246094" xlink:href="#DejaVuSans-48"/>
       <use x="190.869141" xlink:href="#DejaVuSans-48"/>
      </g>
     </g>
    </g>
    <g id="xtick_6">
     <g id="line2d_11">
      <path clip-path="url(#p4995dcff6d)" d="M 606.357242 1046.64351 
L 606.357242 18.118365 
" style="fill:none;stroke:#b0b0b0;stroke-linecap:square;stroke-width:0.8;"/>
     </g>
     <g id="line2d_12">
      <g>
       <use style="stroke:#000000;stroke-width:0.8;" x="606.357242" xlink:href="#m34e8a168f6" y="1046.64351"/>
      </g>
     </g>
     <g id="text_6">
      <!-- 5000 -->
      <g transform="translate(593.632242 1061.241947)scale(0.1 -0.1)">
       <defs>
        <path d="M 10.796875 72.90625 
L 49.515625 72.90625 
L 49.515625 64.59375 
L 19.828125 64.59375 
L 19.828125 46.734375 
Q 21.96875 47.46875 24.109375 47.828125 
Q 26.265625 48.1875 28.421875 48.1875 
Q 40.625 48.1875 47.75 41.5 
Q 54.890625 34.8125 54.890625 23.390625 
Q 54.890625 11.625 47.5625 5.09375 
Q 40.234375 -1.421875 26.90625 -1.421875 
Q 22.3125 -1.421875 17.546875 -0.640625 
Q 12.796875 0.140625 7.71875 1.703125 
L 7.71875 11.625 
Q 12.109375 9.234375 16.796875 8.0625 
Q 21.484375 6.890625 26.703125 6.890625 
Q 35.15625 6.890625 40.078125 11.328125 
Q 45.015625 15.765625 45.015625 23.390625 
Q 45.015625 31 40.078125 35.4375 
Q 35.15625 39.890625 26.703125 39.890625 
Q 22.75 39.890625 18.8125 39.015625 
Q 14.890625 38.140625 10.796875 36.28125 
z
" id="DejaVuSans-53"/>
       </defs>
       <use xlink:href="#DejaVuSans-53"/>
       <use x="63.623047" xlink:href="#DejaVuSans-48"/>
       <use x="127.246094" xlink:href="#DejaVuSans-48"/>
       <use x="190.869141" xlink:href="#DejaVuSans-48"/>
      </g>
     </g>
    </g>
    <g id="xtick_7">
     <g id="line2d_13">
      <path clip-path="url(#p4995dcff6d)" d="M 711.916301 1046.64351 
L 711.916301 18.118365 
" style="fill:none;stroke:#b0b0b0;stroke-linecap:square;stroke-width:0.8;"/>
     </g>
     <g id="line2d_14">
      <g>
       <use style="stroke:#000000;stroke-width:0.8;" x="711.916301" xlink:href="#m34e8a168f6" y="1046.64351"/>
      </g>
     </g>
     <g id="text_7">
      <!-- 6000 -->
      <g transform="translate(699.191301 1061.241947)scale(0.1 -0.1)">
       <defs>
        <path d="M 33.015625 40.375 
Q 26.375 40.375 22.484375 35.828125 
Q 18.609375 31.296875 18.609375 23.390625 
Q 18.609375 15.53125 22.484375 10.953125 
Q 26.375 6.390625 33.015625 6.390625 
Q 39.65625 6.390625 43.53125 10.953125 
Q 47.40625 15.53125 47.40625 23.390625 
Q 47.40625 31.296875 43.53125 35.828125 
Q 39.65625 40.375 33.015625 40.375 
z
M 52.59375 71.296875 
L 52.59375 62.3125 
Q 48.875 64.0625 45.09375 64.984375 
Q 41.3125 65.921875 37.59375 65.921875 
Q 27.828125 65.921875 22.671875 59.328125 
Q 17.53125 52.734375 16.796875 39.40625 
Q 19.671875 43.65625 24.015625 45.921875 
Q 28.375 48.1875 33.59375 48.1875 
Q 44.578125 48.1875 50.953125 41.515625 
Q 57.328125 34.859375 57.328125 23.390625 
Q 57.328125 12.15625 50.6875 5.359375 
Q 44.046875 -1.421875 33.015625 -1.421875 
Q 20.359375 -1.421875 13.671875 8.265625 
Q 6.984375 17.96875 6.984375 36.375 
Q 6.984375 53.65625 15.1875 63.9375 
Q 23.390625 74.21875 37.203125 74.21875 
Q 40.921875 74.21875 44.703125 73.484375 
Q 48.484375 72.75 52.59375 71.296875 
z
" id="DejaVuSans-54"/>
       </defs>
       <use xlink:href="#DejaVuSans-54"/>
       <use x="63.623047" xlink:href="#DejaVuSans-48"/>
       <use x="127.246094" xlink:href="#DejaVuSans-48"/>
       <use x="190.869141" xlink:href="#DejaVuSans-48"/>
      </g>
     </g>
    </g>
    <g id="text_8">
     <!-- Frequency -->
     <g transform="translate(390.52125 1074.920072)scale(0.1 -0.1)">
      <defs>
       <path d="M 9.8125 72.90625 
L 51.703125 72.90625 
L 51.703125 64.59375 
L 19.671875 64.59375 
L 19.671875 43.109375 
L 48.578125 43.109375 
L 48.578125 34.8125 
L 19.671875 34.8125 
L 19.671875 0 
L 9.8125 0 
z
" id="DejaVuSans-70"/>
       <path d="M 41.109375 46.296875 
Q 39.59375 47.171875 37.8125 47.578125 
Q 36.03125 48 33.890625 48 
Q 26.265625 48 22.1875 43.046875 
Q 18.109375 38.09375 18.109375 28.8125 
L 18.109375 0 
L 9.078125 0 
L 9.078125 54.6875 
L 18.109375 54.6875 
L 18.109375 46.1875 
Q 20.953125 51.171875 25.484375 53.578125 
Q 30.03125 56 36.53125 56 
Q 37.453125 56 38.578125 55.875 
Q 39.703125 55.765625 41.0625 55.515625 
z
" id="DejaVuSans-114"/>
       <path d="M 56.203125 29.59375 
L 56.203125 25.203125 
L 14.890625 25.203125 
Q 15.484375 15.921875 20.484375 11.0625 
Q 25.484375 6.203125 34.421875 6.203125 
Q 39.59375 6.203125 44.453125 7.46875 
Q 49.3125 8.734375 54.109375 11.28125 
L 54.109375 2.78125 
Q 49.265625 0.734375 44.1875 -0.34375 
Q 39.109375 -1.421875 33.890625 -1.421875 
Q 20.796875 -1.421875 13.15625 6.1875 
Q 5.515625 13.8125 5.515625 26.8125 
Q 5.515625 40.234375 12.765625 48.109375 
Q 20.015625 56 32.328125 56 
Q 43.359375 56 49.78125 48.890625 
Q 56.203125 41.796875 56.203125 29.59375 
z
M 47.21875 32.234375 
Q 47.125 39.59375 43.09375 43.984375 
Q 39.0625 48.390625 32.421875 48.390625 
Q 24.90625 48.390625 20.390625 44.140625 
Q 15.875 39.890625 15.1875 32.171875 
z
" id="DejaVuSans-101"/>
       <path d="M 14.796875 27.296875 
Q 14.796875 17.390625 18.875 11.75 
Q 22.953125 6.109375 30.078125 6.109375 
Q 37.203125 6.109375 41.296875 11.75 
Q 45.40625 17.390625 45.40625 27.296875 
Q 45.40625 37.203125 41.296875 42.84375 
Q 37.203125 48.484375 30.078125 48.484375 
Q 22.953125 48.484375 18.875 42.84375 
Q 14.796875 37.203125 14.796875 27.296875 
z
M 45.40625 8.203125 
Q 42.578125 3.328125 38.25 0.953125 
Q 33.9375 -1.421875 27.875 -1.421875 
Q 17.96875 -1.421875 11.734375 6.484375 
Q 5.515625 14.40625 5.515625 27.296875 
Q 5.515625 40.1875 11.734375 48.09375 
Q 17.96875 56 27.875 56 
Q 33.9375 56 38.25 53.625 
Q 42.578125 51.265625 45.40625 46.390625 
L 45.40625 54.6875 
L 54.390625 54.6875 
L 54.390625 -20.796875 
L 45.40625 -20.796875 
z
" id="DejaVuSans-113"/>
       <path d="M 8.5 21.578125 
L 8.5 54.6875 
L 17.484375 54.6875 
L 17.484375 21.921875 
Q 17.484375 14.15625 20.5 10.265625 
Q 23.53125 6.390625 29.59375 6.390625 
Q 36.859375 6.390625 41.078125 11.03125 
Q 45.3125 15.671875 45.3125 23.6875 
L 45.3125 54.6875 
L 54.296875 54.6875 
L 54.296875 0 
L 45.3125 0 
L 45.3125 8.40625 
Q 42.046875 3.421875 37.71875 1 
Q 33.40625 -1.421875 27.6875 -1.421875 
Q 18.265625 -1.421875 13.375 4.4375 
Q 8.5 10.296875 8.5 21.578125 
z
M 31.109375 56 
z
" id="DejaVuSans-117"/>
       <path d="M 54.890625 33.015625 
L 54.890625 0 
L 45.90625 0 
L 45.90625 32.71875 
Q 45.90625 40.484375 42.875 44.328125 
Q 39.84375 48.1875 33.796875 48.1875 
Q 26.515625 48.1875 22.3125 43.546875 
Q 18.109375 38.921875 18.109375 30.90625 
L 18.109375 0 
L 9.078125 0 
L 9.078125 54.6875 
L 18.109375 54.6875 
L 18.109375 46.1875 
Q 21.34375 51.125 25.703125 53.5625 
Q 30.078125 56 35.796875 56 
Q 45.21875 56 50.046875 50.171875 
Q 54.890625 44.34375 54.890625 33.015625 
z
" id="DejaVuSans-110"/>
       <path d="M 48.78125 52.59375 
L 48.78125 44.1875 
Q 44.96875 46.296875 41.140625 47.34375 
Q 37.3125 48.390625 33.40625 48.390625 
Q 24.65625 48.390625 19.8125 42.84375 
Q 14.984375 37.3125 14.984375 27.296875 
Q 14.984375 17.28125 19.8125 11.734375 
Q 24.65625 6.203125 33.40625 6.203125 
Q 37.3125 6.203125 41.140625 7.25 
Q 44.96875 8.296875 48.78125 10.40625 
L 48.78125 2.09375 
Q 45.015625 0.34375 40.984375 -0.53125 
Q 36.96875 -1.421875 32.421875 -1.421875 
Q 20.0625 -1.421875 12.78125 6.34375 
Q 5.515625 14.109375 5.515625 27.296875 
Q 5.515625 40.671875 12.859375 48.328125 
Q 20.21875 56 33.015625 56 
Q 37.15625 56 41.109375 55.140625 
Q 45.0625 54.296875 48.78125 52.59375 
z
" id="DejaVuSans-99"/>
       <path d="M 32.171875 -5.078125 
Q 28.375 -14.84375 24.75 -17.8125 
Q 21.140625 -20.796875 15.09375 -20.796875 
L 7.90625 -20.796875 
L 7.90625 -13.28125 
L 13.1875 -13.28125 
Q 16.890625 -13.28125 18.9375 -11.515625 
Q 21 -9.765625 23.484375 -3.21875 
L 25.09375 0.875 
L 2.984375 54.6875 
L 12.5 54.6875 
L 29.59375 11.921875 
L 46.6875 54.6875 
L 56.203125 54.6875 
z
" id="DejaVuSans-121"/>
      </defs>
      <use xlink:href="#DejaVuSans-70"/>
      <use x="50.269531" xlink:href="#DejaVuSans-114"/>
      <use x="89.132812" xlink:href="#DejaVuSans-101"/>
      <use x="150.65625" xlink:href="#DejaVuSans-113"/>
      <use x="214.132812" xlink:href="#DejaVuSans-117"/>
      <use x="277.511719" xlink:href="#DejaVuSans-101"/>
      <use x="339.035156" xlink:href="#DejaVuSans-110"/>
      <use x="402.414062" xlink:href="#DejaVuSans-99"/>
      <use x="457.394531" xlink:href="#DejaVuSans-121"/>
     </g>
    </g>
   </g>
   <g id="matplotlib.axis_2">
    <g id="ytick_1">
     <g id="line2d_15">
      <path clip-path="url(#p4995dcff6d)" d="M 44.783053 1046.64351 
L 787.918822 1046.64351 
" style="fill:none;stroke:#b0b0b0;stroke-linecap:square;stroke-width:0.8;"/>
     </g>
     <g id="line2d_16">
      <defs>
       <path d="M 0 0 
L -3.5 0 
" id="mff7cfb379c" style="stroke:#000000;stroke-width:0.8;"/>
      </defs>
      <g>
       <use style="stroke:#000000;stroke-width:0.8;" x="44.783053" xlink:href="#mff7cfb379c" y="1046.64351"/>
      </g>
     </g>
     <g id="text_9">
      <!-- −60 -->
      <g transform="translate(16.678365 1050.442729)scale(0.1 -0.1)">
       <defs>
        <path d="M 10.59375 35.5 
L 73.1875 35.5 
L 73.1875 27.203125 
L 10.59375 27.203125 
z
" id="DejaVuSans-8722"/>
       </defs>
       <use xlink:href="#DejaVuSans-8722"/>
       <use x="83.789062" xlink:href="#DejaVuSans-54"/>
       <use x="147.412109" xlink:href="#DejaVuSans-48"/>
      </g>
     </g>
    </g>
    <g id="ytick_2">
     <g id="line2d_17">
      <path clip-path="url(#p4995dcff6d)" d="M 44.783053 918.077867 
L 787.918822 918.077867 
" style="fill:none;stroke:#b0b0b0;stroke-linecap:square;stroke-width:0.8;"/>
     </g>
     <g id="line2d_18">
      <g>
       <use style="stroke:#000000;stroke-width:0.8;" x="44.783053" xlink:href="#mff7cfb379c" y="918.077867"/>
      </g>
     </g>
     <g id="text_10">
      <!-- −50 -->
      <g transform="translate(16.678365 921.877086)scale(0.1 -0.1)">
       <use xlink:href="#DejaVuSans-8722"/>
       <use x="83.789062" xlink:href="#DejaVuSans-53"/>
       <use x="147.412109" xlink:href="#DejaVuSans-48"/>
      </g>
     </g>
    </g>
    <g id="ytick_3">
     <g id="line2d_19">
      <path clip-path="url(#p4995dcff6d)" d="M 44.783053 789.512224 
L 787.918822 789.512224 
" style="fill:none;stroke:#b0b0b0;stroke-linecap:square;stroke-width:0.8;"/>
     </g>
     <g id="line2d_20">
      <g>
       <use style="stroke:#000000;stroke-width:0.8;" x="44.783053" xlink:href="#mff7cfb379c" y="789.512224"/>
      </g>
     </g>
     <g id="text_11">
      <!-- −40 -->
      <g transform="translate(16.678365 793.311442)scale(0.1 -0.1)">
       <use xlink:href="#DejaVuSans-8722"/>
       <use x="83.789062" xlink:href="#DejaVuSans-52"/>
       <use x="147.412109" xlink:href="#DejaVuSans-48"/>
      </g>
     </g>
    </g>
    <g id="ytick_4">
     <g id="line2d_21">
      <path clip-path="url(#p4995dcff6d)" d="M 44.783053 660.946581 
L 787.918822 660.946581 
" style="fill:none;stroke:#b0b0b0;stroke-linecap:square;stroke-width:0.8;"/>
     </g>
     <g id="line2d_22">
      <g>
       <use style="stroke:#000000;stroke-width:0.8;" x="44.783053" xlink:href="#mff7cfb379c" y="660.946581"/>
      </g>
     </g>
     <g id="text_12">
      <!-- −30 -->
      <g transform="translate(16.678365 664.745799)scale(0.1 -0.1)">
       <use xlink:href="#DejaVuSans-8722"/>
       <use x="83.789062" xlink:href="#DejaVuSans-51"/>
       <use x="147.412109" xlink:href="#DejaVuSans-48"/>
      </g>
     </g>
    </g>
    <g id="ytick_5">
     <g id="line2d_23">
      <path clip-path="url(#p4995dcff6d)" d="M 44.783053 532.380937 
L 787.918822 532.380937 
" style="fill:none;stroke:#b0b0b0;stroke-linecap:square;stroke-width:0.8;"/>
     </g>
     <g id="line2d_24">
      <g>
       <use style="stroke:#000000;stroke-width:0.8;" x="44.783053" xlink:href="#mff7cfb379c" y="532.380937"/>
      </g>
     </g>
     <g id="text_13">
      <!-- −20 -->
      <g transform="translate(16.678365 536.180156)scale(0.1 -0.1)">
       <use xlink:href="#DejaVuSans-8722"/>
       <use x="83.789062" xlink:href="#DejaVuSans-50"/>
       <use x="147.412109" xlink:href="#DejaVuSans-48"/>
      </g>
     </g>
    </g>
    <g id="ytick_6">
     <g id="line2d_25">
      <path clip-path="url(#p4995dcff6d)" d="M 44.783053 403.815294 
L 787.918822 403.815294 
" style="fill:none;stroke:#b0b0b0;stroke-linecap:square;stroke-width:0.8;"/>
     </g>
     <g id="line2d_26">
      <g>
       <use style="stroke:#000000;stroke-width:0.8;" x="44.783053" xlink:href="#mff7cfb379c" y="403.815294"/>
      </g>
     </g>
     <g id="text_14">
      <!-- −10 -->
      <g transform="translate(16.678365 407.614513)scale(0.1 -0.1)">
       <use xlink:href="#DejaVuSans-8722"/>
       <use x="83.789062" xlink:href="#DejaVuSans-49"/>
       <use x="147.412109" xlink:href="#DejaVuSans-48"/>
      </g>
     </g>
    </g>
    <g id="ytick_7">
     <g id="line2d_27">
      <path clip-path="url(#p4995dcff6d)" d="M 44.783053 275.249651 
L 787.918822 275.249651 
" style="fill:none;stroke:#b0b0b0;stroke-linecap:square;stroke-width:0.8;"/>
     </g>
     <g id="line2d_28">
      <g>
       <use style="stroke:#000000;stroke-width:0.8;" x="44.783053" xlink:href="#mff7cfb379c" y="275.249651"/>
      </g>
     </g>
     <g id="text_15">
      <!-- 0 -->
      <g transform="translate(31.420553 279.04887)scale(0.1 -0.1)">
       <use xlink:href="#DejaVuSans-48"/>
      </g>
     </g>
    </g>
    <g id="ytick_8">
     <g id="line2d_29">
      <path clip-path="url(#p4995dcff6d)" d="M 44.783053 146.684008 
L 787.918822 146.684008 
" style="fill:none;stroke:#b0b0b0;stroke-linecap:square;stroke-width:0.8;"/>
     </g>
     <g id="line2d_30">
      <g>
       <use style="stroke:#000000;stroke-width:0.8;" x="44.783053" xlink:href="#mff7cfb379c" y="146.684008"/>
      </g>
     </g>
     <g id="text_16">
      <!-- 10 -->
      <g transform="translate(25.058053 150.483227)scale(0.1 -0.1)">
       <use xlink:href="#DejaVuSans-49"/>
       <use x="63.623047" xlink:href="#DejaVuSans-48"/>
      </g>
     </g>
    </g>
    <g id="ytick_9">
     <g id="line2d_31">
      <path clip-path="url(#p4995dcff6d)" d="M 44.783053 18.118365 
L 787.918822 18.118365 
" style="fill:none;stroke:#b0b0b0;stroke-linecap:square;stroke-width:0.8;"/>
     </g>
     <g id="line2d_32">
      <g>
       <use style="stroke:#000000;stroke-width:0.8;" x="44.783053" xlink:href="#mff7cfb379c" y="18.118365"/>
      </g>
     </g>
     <g id="text_17">
      <!-- 20 -->
      <g transform="translate(25.058053 21.917584)scale(0.1 -0.1)">
       <use xlink:href="#DejaVuSans-50"/>
       <use x="63.623047" xlink:href="#DejaVuSans-48"/>
      </g>
     </g>
    </g>
    <g id="text_18">
     <!-- Power Spectral Density (dB/Hz) -->
     <g transform="translate(10.598678 610.48875)rotate(-90)scale(0.1 -0.1)">
      <defs>
       <path d="M 19.671875 64.796875 
L 19.671875 37.40625 
L 32.078125 37.40625 
Q 38.96875 37.40625 42.71875 40.96875 
Q 46.484375 44.53125 46.484375 51.125 
Q 46.484375 57.671875 42.71875 61.234375 
Q 38.96875 64.796875 32.078125 64.796875 
z
M 9.8125 72.90625 
L 32.078125 72.90625 
Q 44.34375 72.90625 50.609375 67.359375 
Q 56.890625 61.8125 56.890625 51.125 
Q 56.890625 40.328125 50.609375 34.8125 
Q 44.34375 29.296875 32.078125 29.296875 
L 19.671875 29.296875 
L 19.671875 0 
L 9.8125 0 
z
" id="DejaVuSans-80"/>
       <path d="M 30.609375 48.390625 
Q 23.390625 48.390625 19.1875 42.75 
Q 14.984375 37.109375 14.984375 27.296875 
Q 14.984375 17.484375 19.15625 11.84375 
Q 23.34375 6.203125 30.609375 6.203125 
Q 37.796875 6.203125 41.984375 11.859375 
Q 46.1875 17.53125 46.1875 27.296875 
Q 46.1875 37.015625 41.984375 42.703125 
Q 37.796875 48.390625 30.609375 48.390625 
z
M 30.609375 56 
Q 42.328125 56 49.015625 48.375 
Q 55.71875 40.765625 55.71875 27.296875 
Q 55.71875 13.875 49.015625 6.21875 
Q 42.328125 -1.421875 30.609375 -1.421875 
Q 18.84375 -1.421875 12.171875 6.21875 
Q 5.515625 13.875 5.515625 27.296875 
Q 5.515625 40.765625 12.171875 48.375 
Q 18.84375 56 30.609375 56 
z
" id="DejaVuSans-111"/>
       <path d="M 4.203125 54.6875 
L 13.1875 54.6875 
L 24.421875 12.015625 
L 35.59375 54.6875 
L 46.1875 54.6875 
L 57.421875 12.015625 
L 68.609375 54.6875 
L 77.59375 54.6875 
L 63.28125 0 
L 52.6875 0 
L 40.921875 44.828125 
L 29.109375 0 
L 18.5 0 
z
" id="DejaVuSans-119"/>
       <path id="DejaVuSans-32"/>
       <path d="M 53.515625 70.515625 
L 53.515625 60.890625 
Q 47.90625 63.578125 42.921875 64.890625 
Q 37.9375 66.21875 33.296875 66.21875 
Q 25.25 66.21875 20.875 63.09375 
Q 16.5 59.96875 16.5 54.203125 
Q 16.5 49.359375 19.40625 46.890625 
Q 22.3125 44.4375 30.421875 42.921875 
L 36.375 41.703125 
Q 47.40625 39.59375 52.65625 34.296875 
Q 57.90625 29 57.90625 20.125 
Q 57.90625 9.515625 50.796875 4.046875 
Q 43.703125 -1.421875 29.984375 -1.421875 
Q 24.8125 -1.421875 18.96875 -0.25 
Q 13.140625 0.921875 6.890625 3.21875 
L 6.890625 13.375 
Q 12.890625 10.015625 18.65625 8.296875 
Q 24.421875 6.59375 29.984375 6.59375 
Q 38.421875 6.59375 43.015625 9.90625 
Q 47.609375 13.234375 47.609375 19.390625 
Q 47.609375 24.75 44.3125 27.78125 
Q 41.015625 30.8125 33.5 32.328125 
L 27.484375 33.5 
Q 16.453125 35.6875 11.515625 40.375 
Q 6.59375 45.0625 6.59375 53.421875 
Q 6.59375 63.09375 13.40625 68.65625 
Q 20.21875 74.21875 32.171875 74.21875 
Q 37.3125 74.21875 42.625 73.28125 
Q 47.953125 72.359375 53.515625 70.515625 
z
" id="DejaVuSans-83"/>
       <path d="M 18.109375 8.203125 
L 18.109375 -20.796875 
L 9.078125 -20.796875 
L 9.078125 54.6875 
L 18.109375 54.6875 
L 18.109375 46.390625 
Q 20.953125 51.265625 25.265625 53.625 
Q 29.59375 56 35.59375 56 
Q 45.5625 56 51.78125 48.09375 
Q 58.015625 40.1875 58.015625 27.296875 
Q 58.015625 14.40625 51.78125 6.484375 
Q 45.5625 -1.421875 35.59375 -1.421875 
Q 29.59375 -1.421875 25.265625 0.953125 
Q 20.953125 3.328125 18.109375 8.203125 
z
M 48.6875 27.296875 
Q 48.6875 37.203125 44.609375 42.84375 
Q 40.53125 48.484375 33.40625 48.484375 
Q 26.265625 48.484375 22.1875 42.84375 
Q 18.109375 37.203125 18.109375 27.296875 
Q 18.109375 17.390625 22.1875 11.75 
Q 26.265625 6.109375 33.40625 6.109375 
Q 40.53125 6.109375 44.609375 11.75 
Q 48.6875 17.390625 48.6875 27.296875 
z
" id="DejaVuSans-112"/>
       <path d="M 18.3125 70.21875 
L 18.3125 54.6875 
L 36.8125 54.6875 
L 36.8125 47.703125 
L 18.3125 47.703125 
L 18.3125 18.015625 
Q 18.3125 11.328125 20.140625 9.421875 
Q 21.96875 7.515625 27.59375 7.515625 
L 36.8125 7.515625 
L 36.8125 0 
L 27.59375 0 
Q 17.1875 0 13.234375 3.875 
Q 9.28125 7.765625 9.28125 18.015625 
L 9.28125 47.703125 
L 2.6875 47.703125 
L 2.6875 54.6875 
L 9.28125 54.6875 
L 9.28125 70.21875 
z
" id="DejaVuSans-116"/>
       <path d="M 34.28125 27.484375 
Q 23.390625 27.484375 19.1875 25 
Q 14.984375 22.515625 14.984375 16.5 
Q 14.984375 11.71875 18.140625 8.90625 
Q 21.296875 6.109375 26.703125 6.109375 
Q 34.1875 6.109375 38.703125 11.40625 
Q 43.21875 16.703125 43.21875 25.484375 
L 43.21875 27.484375 
z
M 52.203125 31.203125 
L 52.203125 0 
L 43.21875 0 
L 43.21875 8.296875 
Q 40.140625 3.328125 35.546875 0.953125 
Q 30.953125 -1.421875 24.3125 -1.421875 
Q 15.921875 -1.421875 10.953125 3.296875 
Q 6 8.015625 6 15.921875 
Q 6 25.140625 12.171875 29.828125 
Q 18.359375 34.515625 30.609375 34.515625 
L 43.21875 34.515625 
L 43.21875 35.40625 
Q 43.21875 41.609375 39.140625 45 
Q 35.0625 48.390625 27.6875 48.390625 
Q 23 48.390625 18.546875 47.265625 
Q 14.109375 46.140625 10.015625 43.890625 
L 10.015625 52.203125 
Q 14.9375 54.109375 19.578125 55.046875 
Q 24.21875 56 28.609375 56 
Q 40.484375 56 46.34375 49.84375 
Q 52.203125 43.703125 52.203125 31.203125 
z
" id="DejaVuSans-97"/>
       <path d="M 9.421875 75.984375 
L 18.40625 75.984375 
L 18.40625 0 
L 9.421875 0 
z
" id="DejaVuSans-108"/>
       <path d="M 19.671875 64.796875 
L 19.671875 8.109375 
L 31.59375 8.109375 
Q 46.6875 8.109375 53.6875 14.9375 
Q 60.6875 21.78125 60.6875 36.53125 
Q 60.6875 51.171875 53.6875 57.984375 
Q 46.6875 64.796875 31.59375 64.796875 
z
M 9.8125 72.90625 
L 30.078125 72.90625 
Q 51.265625 72.90625 61.171875 64.09375 
Q 71.09375 55.28125 71.09375 36.53125 
Q 71.09375 17.671875 61.125 8.828125 
Q 51.171875 0 30.078125 0 
L 9.8125 0 
z
" id="DejaVuSans-68"/>
       <path d="M 44.28125 53.078125 
L 44.28125 44.578125 
Q 40.484375 46.53125 36.375 47.5 
Q 32.28125 48.484375 27.875 48.484375 
Q 21.1875 48.484375 17.84375 46.4375 
Q 14.5 44.390625 14.5 40.28125 
Q 14.5 37.15625 16.890625 35.375 
Q 19.28125 33.59375 26.515625 31.984375 
L 29.59375 31.296875 
Q 39.15625 29.25 43.1875 25.515625 
Q 47.21875 21.78125 47.21875 15.09375 
Q 47.21875 7.46875 41.1875 3.015625 
Q 35.15625 -1.421875 24.609375 -1.421875 
Q 20.21875 -1.421875 15.453125 -0.5625 
Q 10.6875 0.296875 5.421875 2 
L 5.421875 11.28125 
Q 10.40625 8.6875 15.234375 7.390625 
Q 20.0625 6.109375 24.8125 6.109375 
Q 31.15625 6.109375 34.5625 8.28125 
Q 37.984375 10.453125 37.984375 14.40625 
Q 37.984375 18.0625 35.515625 20.015625 
Q 33.0625 21.96875 24.703125 23.78125 
L 21.578125 24.515625 
Q 13.234375 26.265625 9.515625 29.90625 
Q 5.8125 33.546875 5.8125 39.890625 
Q 5.8125 47.609375 11.28125 51.796875 
Q 16.75 56 26.8125 56 
Q 31.78125 56 36.171875 55.265625 
Q 40.578125 54.546875 44.28125 53.078125 
z
" id="DejaVuSans-115"/>
       <path d="M 9.421875 54.6875 
L 18.40625 54.6875 
L 18.40625 0 
L 9.421875 0 
z
M 9.421875 75.984375 
L 18.40625 75.984375 
L 18.40625 64.59375 
L 9.421875 64.59375 
z
" id="DejaVuSans-105"/>
       <path d="M 31 75.875 
Q 24.46875 64.65625 21.28125 53.65625 
Q 18.109375 42.671875 18.109375 31.390625 
Q 18.109375 20.125 21.3125 9.0625 
Q 24.515625 -2 31 -13.1875 
L 23.1875 -13.1875 
Q 15.875 -1.703125 12.234375 9.375 
Q 8.59375 20.453125 8.59375 31.390625 
Q 8.59375 42.28125 12.203125 53.3125 
Q 15.828125 64.359375 23.1875 75.875 
z
" id="DejaVuSans-40"/>
       <path d="M 45.40625 46.390625 
L 45.40625 75.984375 
L 54.390625 75.984375 
L 54.390625 0 
L 45.40625 0 
L 45.40625 8.203125 
Q 42.578125 3.328125 38.25 0.953125 
Q 33.9375 -1.421875 27.875 -1.421875 
Q 17.96875 -1.421875 11.734375 6.484375 
Q 5.515625 14.40625 5.515625 27.296875 
Q 5.515625 40.1875 11.734375 48.09375 
Q 17.96875 56 27.875 56 
Q 33.9375 56 38.25 53.625 
Q 42.578125 51.265625 45.40625 46.390625 
z
M 14.796875 27.296875 
Q 14.796875 17.390625 18.875 11.75 
Q 22.953125 6.109375 30.078125 6.109375 
Q 37.203125 6.109375 41.296875 11.75 
Q 45.40625 17.390625 45.40625 27.296875 
Q 45.40625 37.203125 41.296875 42.84375 
Q 37.203125 48.484375 30.078125 48.484375 
Q 22.953125 48.484375 18.875 42.84375 
Q 14.796875 37.203125 14.796875 27.296875 
z
" id="DejaVuSans-100"/>
       <path d="M 19.671875 34.8125 
L 19.671875 8.109375 
L 35.5 8.109375 
Q 43.453125 8.109375 47.28125 11.40625 
Q 51.125 14.703125 51.125 21.484375 
Q 51.125 28.328125 47.28125 31.5625 
Q 43.453125 34.8125 35.5 34.8125 
z
M 19.671875 64.796875 
L 19.671875 42.828125 
L 34.28125 42.828125 
Q 41.5 42.828125 45.03125 45.53125 
Q 48.578125 48.25 48.578125 53.8125 
Q 48.578125 59.328125 45.03125 62.0625 
Q 41.5 64.796875 34.28125 64.796875 
z
M 9.8125 72.90625 
L 35.015625 72.90625 
Q 46.296875 72.90625 52.390625 68.21875 
Q 58.5 63.53125 58.5 54.890625 
Q 58.5 48.1875 55.375 44.234375 
Q 52.25 40.28125 46.1875 39.3125 
Q 53.46875 37.75 57.5 32.78125 
Q 61.53125 27.828125 61.53125 20.40625 
Q 61.53125 10.640625 54.890625 5.3125 
Q 48.25 0 35.984375 0 
L 9.8125 0 
z
" id="DejaVuSans-66"/>
       <path d="M 25.390625 72.90625 
L 33.6875 72.90625 
L 8.296875 -9.28125 
L 0 -9.28125 
z
" id="DejaVuSans-47"/>
       <path d="M 9.8125 72.90625 
L 19.671875 72.90625 
L 19.671875 43.015625 
L 55.515625 43.015625 
L 55.515625 72.90625 
L 65.375 72.90625 
L 65.375 0 
L 55.515625 0 
L 55.515625 34.71875 
L 19.671875 34.71875 
L 19.671875 0 
L 9.8125 0 
z
" id="DejaVuSans-72"/>
       <path d="M 5.515625 54.6875 
L 48.1875 54.6875 
L 48.1875 46.484375 
L 14.40625 7.171875 
L 48.1875 7.171875 
L 48.1875 0 
L 4.296875 0 
L 4.296875 8.203125 
L 38.09375 47.515625 
L 5.515625 47.515625 
z
" id="DejaVuSans-122"/>
       <path d="M 8.015625 75.875 
L 15.828125 75.875 
Q 23.140625 64.359375 26.78125 53.3125 
Q 30.421875 42.28125 30.421875 31.390625 
Q 30.421875 20.453125 26.78125 9.375 
Q 23.140625 -1.703125 15.828125 -13.1875 
L 8.015625 -13.1875 
Q 14.5 -2 17.703125 9.0625 
Q 20.90625 20.125 20.90625 31.390625 
Q 20.90625 42.671875 17.703125 53.65625 
Q 14.5 64.65625 8.015625 75.875 
z
" id="DejaVuSans-41"/>
      </defs>
      <use xlink:href="#DejaVuSans-80"/>
      <use x="56.677734" xlink:href="#DejaVuSans-111"/>
      <use x="117.859375" xlink:href="#DejaVuSans-119"/>
      <use x="199.646484" xlink:href="#DejaVuSans-101"/>
      <use x="261.169922" xlink:href="#DejaVuSans-114"/>
      <use x="302.283203" xlink:href="#DejaVuSans-32"/>
      <use x="334.070312" xlink:href="#DejaVuSans-83"/>
      <use x="397.546875" xlink:href="#DejaVuSans-112"/>
      <use x="461.023438" xlink:href="#DejaVuSans-101"/>
      <use x="522.546875" xlink:href="#DejaVuSans-99"/>
      <use x="577.527344" xlink:href="#DejaVuSans-116"/>
      <use x="616.736328" xlink:href="#DejaVuSans-114"/>
      <use x="657.849609" xlink:href="#DejaVuSans-97"/>
      <use x="719.128906" xlink:href="#DejaVuSans-108"/>
      <use x="746.912109" xlink:href="#DejaVuSans-32"/>
      <use x="778.699219" xlink:href="#DejaVuSans-68"/>
      <use x="855.701172" xlink:href="#DejaVuSans-101"/>
      <use x="917.224609" xlink:href="#DejaVuSans-110"/>
      <use x="980.603516" xlink:href="#DejaVuSans-115"/>
      <use x="1032.703125" xlink:href="#DejaVuSans-105"/>
      <use x="1060.486328" xlink:href="#DejaVuSans-116"/>
      <use x="1099.695312" xlink:href="#DejaVuSans-121"/>
      <use x="1158.875" xlink:href="#DejaVuSans-32"/>
      <use x="1190.662109" xlink:href="#DejaVuSans-40"/>
      <use x="1229.675781" xlink:href="#DejaVuSans-100"/>
      <use x="1293.152344" xlink:href="#DejaVuSans-66"/>
      <use x="1361.755859" xlink:href="#DejaVuSans-47"/>
      <use x="1395.447266" xlink:href="#DejaVuSans-72"/>
      <use x="1470.642578" xlink:href="#DejaVuSans-122"/>
      <use x="1523.132812" xlink:href="#DejaVuSans-41"/>
     </g>
    </g>
   </g>
   <g id="line2d_33">
    <path clip-path="url(#p4995dcff6d)" d="M 78.561951 822.568343 
L 79.881439 785.24525 
L 81.200928 789.146547 
L 83.839904 800.86788 
L 85.159392 805.464254 
L 86.478881 806.92967 
L 87.798369 804.747625 
L 89.117857 799.790955 
L 93.076322 780.500466 
L 95.715298 767.14393 
L 97.034786 759.515625 
L 100.993251 734.434651 
L 102.312739 727.03316 
L 103.632227 720.752889 
L 104.951716 715.669192 
L 106.271204 711.703781 
L 107.590692 708.722363 
L 108.91018 706.622305 
L 110.229669 705.372741 
L 111.549157 704.985923 
L 112.868645 705.426216 
L 115.507622 707.676163 
L 116.82711 708.203054 
L 118.146598 707.150647 
L 119.466086 703.894349 
L 120.785574 698.515875 
L 123.424551 685.034047 
L 124.744039 679.218657 
L 126.063527 675.205467 
L 127.383016 673.47937 
L 128.702504 674.213031 
L 130.021992 677.248301 
L 131.34148 681.984764 
L 132.660968 687.160076 
L 133.980457 690.664027 
L 135.299945 689.907155 
L 136.619433 683.242098 
L 137.938921 671.333205 
L 141.897386 627.896285 
L 143.216874 616.735129 
L 144.536363 608.622036 
L 145.855851 603.881345 
L 147.175339 602.700443 
L 148.494827 605.189563 
L 149.814315 611.409353 
L 151.133804 621.378222 
L 152.453292 635.061724 
L 153.77278 652.338023 
L 155.092268 672.924116 
L 157.731245 721.190353 
L 159.050733 745.976457 
L 160.370221 768.238702 
L 161.689709 785.990805 
L 163.009198 798.785121 
L 164.328686 807.632279 
L 165.648174 813.725931 
L 166.967662 817.531651 
L 168.287151 818.845276 
L 169.606639 817.402883 
L 170.926127 813.438318 
L 172.245615 807.755765 
L 174.884592 795.195338 
L 176.20408 789.778129 
L 177.523568 785.426706 
L 178.843056 782.236329 
L 180.162545 780.182268 
L 181.482033 779.181937 
L 182.801521 779.134045 
L 184.121009 779.935215 
L 185.440498 781.47612 
L 186.759986 783.623081 
L 189.398962 788.961709 
L 190.718451 791.645316 
L 192.037939 793.979547 
L 193.357427 795.754569 
L 194.676915 796.843893 
L 195.996403 797.17522 
L 197.315892 796.651023 
L 198.63538 795.051366 
L 199.954868 791.955883 
L 201.274356 786.719411 
L 202.593845 778.55712 
L 203.913333 766.808579 
L 205.232821 751.330179 
L 206.552309 732.729646 
L 211.830262 651.167264 
L 213.14975 633.855901 
L 214.469239 618.886214 
L 215.788727 606.546202 
L 217.108215 597.0583 
L 218.427703 590.604307 
L 219.747192 587.337688 
L 221.06668 587.388595 
L 222.386168 590.864001 
L 223.705656 597.84231 
L 225.025144 608.35818 
L 226.344633 622.367636 
L 227.664121 639.67427 
L 228.983609 659.785812 
L 231.622586 703.550998 
L 232.942074 722.985703 
L 234.261562 738.057686 
L 235.58105 748.781993 
L 239.539515 773.966012 
L 240.859003 784.648001 
L 244.817468 821.114952 
L 246.136956 830.57628 
L 247.456444 836.845365 
L 248.775933 840.05913 
L 250.095421 841.139168 
L 251.414909 841.156455 
L 252.734397 840.8932 
L 254.053885 840.751378 
L 255.373374 840.839757 
L 259.331838 841.493284 
L 260.651327 841.350467 
L 261.970815 840.831083 
L 263.290303 839.843527 
L 264.609791 838.282724 
L 265.92928 836.029932 
L 267.248768 832.994778 
L 268.568256 829.178153 
L 269.887744 824.696345 
L 271.207232 819.713489 
L 272.526721 814.288008 
L 273.846209 808.205002 
L 275.165697 800.909626 
L 276.485185 791.667173 
L 277.804674 779.972415 
L 279.124162 765.959359 
L 283.082626 719.378823 
L 284.402115 705.752382 
L 285.721603 694.259551 
L 287.041091 685.299964 
L 288.360579 679.151232 
L 289.680068 676.013465 
L 290.999556 676.034846 
L 292.319044 679.323511 
L 293.638532 685.94936 
L 294.958021 695.936474 
L 296.277509 709.243559 
L 297.596997 725.726322 
L 298.916485 745.072582 
L 301.555462 789.646445 
L 304.194438 833.471511 
L 305.513926 851.116012 
L 306.833415 864.692224 
L 308.152903 874.33968 
L 309.472391 880.579613 
L 310.791879 883.902488 
L 312.111367 884.749678 
L 313.430856 883.684387 
L 314.750344 881.4592 
L 316.069832 878.912561 
L 317.38932 876.806606 
L 318.708809 875.714086 
L 320.028297 875.976343 
L 321.347785 877.705338 
L 322.667273 880.803316 
L 323.986762 884.991865 
L 327.945226 899.694979 
L 329.264714 903.800061 
L 330.584203 906.902612 
L 331.903691 908.685583 
L 333.223179 908.786562 
L 334.542667 906.84003 
L 335.862156 902.642203 
L 337.181644 896.327296 
L 338.501132 888.384258 
L 341.140109 870.150719 
L 343.779085 850.855051 
L 345.098573 840.030313 
L 346.418061 827.231318 
L 347.73755 811.643973 
L 349.057038 793.196391 
L 354.334991 712.714003 
L 355.654479 696.45383 
L 356.973967 682.922531 
L 358.293455 672.310202 
L 359.612944 664.700772 
L 360.932432 660.117087 
L 362.25192 658.548057 
L 363.571408 659.964257 
L 364.890897 664.325731 
L 366.210385 671.58345 
L 367.529873 681.67364 
L 368.849361 694.501443 
L 370.16885 709.905793 
L 371.488338 727.589588 
L 375.446802 786.053908 
L 376.766291 801.585256 
L 378.085779 811.589561 
L 379.405267 815.745278 
L 380.724755 815.680271 
L 383.363732 811.449001 
L 384.68322 810.086717 
L 386.002708 810.058669 
L 387.322196 811.50286 
L 388.641685 814.32733 
L 389.961173 818.269527 
L 395.239126 836.690648 
L 396.558614 840.104339 
L 397.878102 842.853998 
L 399.197591 845.139536 
L 404.475543 853.449087 
L 407.11452 857.997067 
L 409.753496 863.004928 
L 411.072985 865.830615 
L 413.711961 872.282791 
L 417.670426 882.766012 
L 418.989914 885.88304 
L 420.309402 888.568676 
L 421.62889 890.718644 
L 422.948379 892.255802 
L 424.267867 893.129974 
L 425.587355 893.329754 
L 426.906843 892.902051 
L 428.226332 891.964997 
L 432.184796 888.071937 
L 433.504284 887.106663 
L 434.823773 886.553416 
L 436.143261 886.453815 
L 437.462749 886.769982 
L 438.782237 887.392501 
L 441.421214 888.880063 
L 442.740702 889.374526 
L 444.06019 889.496622 
L 445.379679 889.158359 
L 446.699167 888.33812 
L 448.018655 887.080009 
L 449.338143 885.487758 
L 451.97712 881.947646 
L 453.296608 880.385577 
L 454.616096 879.212572 
L 455.935584 878.573592 
L 457.255073 878.556404 
L 458.574561 879.182645 
L 459.894049 880.40721 
L 461.213537 882.123389 
L 466.49149 890.150855 
L 467.810978 891.317222 
L 469.130467 891.752699 
L 470.449955 891.371091 
L 471.769443 890.18008 
L 473.088931 888.273878 
L 474.40842 885.810098 
L 477.047396 879.981267 
L 479.686372 874.153371 
L 481.005861 871.552632 
L 483.644837 867.097119 
L 487.603302 861.033039 
L 490.242278 856.307096 
L 492.881255 851.262357 
L 494.200743 849.014968 
L 495.520231 847.222964 
L 496.839719 846.083045 
L 498.159208 845.763992 
L 499.478696 846.396357 
L 500.798184 848.067211 
L 502.117672 850.818063 
L 503.437161 854.644209 
L 504.756649 859.493635 
L 506.076137 865.263669 
L 508.715113 878.860324 
L 511.35409 893.351623 
L 512.673578 900.031436 
L 513.993066 905.847329 
L 515.312555 910.543548 
L 516.632043 914.018564 
L 517.951531 916.330482 
L 519.271019 917.654748 
L 520.590508 918.220729 
L 521.909996 918.257532 
L 523.229484 917.963596 
L 528.507437 916.133767 
L 529.826925 915.897962 
L 532.465902 915.791686 
L 533.78539 915.792762 
L 535.104878 915.67417 
L 536.424366 915.286971 
L 537.743854 914.492863 
L 539.063343 913.203238 
L 540.382831 911.408753 
L 541.702319 909.184272 
L 544.341296 904.01406 
L 546.980272 898.863364 
L 548.29976 896.558164 
L 549.619249 894.511807 
L 550.938737 892.761192 
L 552.258225 891.333851 
L 553.577713 890.246524 
L 554.897201 889.498427 
L 556.21669 889.0647 
L 557.536178 888.896013 
L 558.855666 888.927957 
L 561.494643 889.372922 
L 562.814131 889.750328 
L 564.133619 890.272123 
L 565.453107 891.003795 
L 566.772595 892.013068 
L 568.092084 893.348616 
L 569.411572 895.027936 
L 570.73106 897.037124 
L 572.050548 899.34042 
L 574.689525 904.660173 
L 577.328501 910.731277 
L 579.967478 917.404289 
L 583.925942 927.611592 
L 585.245431 930.604815 
L 586.564919 933.162896 
L 587.884407 935.195958 
L 589.203895 936.681662 
L 590.523384 937.664843 
L 591.842872 938.236594 
L 593.16236 938.506109 
L 595.801337 938.555256 
L 598.440313 938.562384 
L 599.759801 938.748432 
L 601.079289 939.121496 
L 602.398778 939.677 
L 606.357242 941.596287 
L 607.676731 941.885632 
L 608.996219 941.811558 
L 610.315707 941.335382 
L 611.635195 940.477389 
L 612.954683 939.300486 
L 614.274172 937.885467 
L 616.913148 934.611921 
L 619.552125 930.892327 
L 620.871613 928.800655 
L 622.191101 926.494588 
L 624.830078 921.182822 
L 628.788542 912.070763 
L 632.747007 903.032236 
L 635.385983 897.714867 
L 636.705472 895.398084 
L 638.02496 893.333812 
L 640.663936 889.8604 
L 645.941889 883.924641 
L 648.580866 881.221804 
L 649.900354 880.22418 
L 651.219842 879.662718 
L 652.53933 879.684216 
L 653.858819 880.405669 
L 655.178307 881.898768 
L 656.497795 884.182128 
L 657.817283 887.220248 
L 659.136771 890.927203 
L 661.775748 899.790585 
L 665.734213 913.84351 
L 667.053701 917.889894 
L 668.373189 921.327606 
L 669.692677 924.08231 
L 671.012166 926.18209 
L 672.331654 927.759585 
L 676.290118 931.604292 
L 677.609607 933.31451 
L 678.929095 935.444165 
L 680.248583 937.97344 
L 684.207048 946.41351 
L 685.526536 948.746279 
L 686.846024 950.48355 
L 688.165512 951.516401 
L 689.485001 951.831475 
L 690.804489 951.497532 
L 692.123977 950.63813 
L 693.443465 949.403139 
L 700.040907 942.139647 
L 702.679883 939.594464 
L 703.999371 938.183667 
L 705.318859 936.553232 
L 706.638348 934.65203 
L 709.277324 930.139131 
L 711.916301 925.384143 
L 713.235789 923.277264 
L 714.555277 921.535765 
L 715.874765 920.269341 
L 717.194253 919.559384 
L 718.513742 919.460905 
L 719.83323 920.006694 
L 721.152718 921.210987 
L 722.472206 923.070714 
L 723.791695 925.56403 
L 725.111183 928.647609 
L 726.430671 932.255442 
L 729.069648 940.688077 
L 733.028112 954.924746 
L 735.667089 964.454723 
L 738.306065 973.087514 
L 739.625553 976.721362 
L 740.945042 979.703515 
L 742.26453 981.924047 
L 743.584018 983.336905 
L 744.903506 983.97544 
L 746.222994 983.950514 
L 747.542483 983.432879 
L 751.500947 980.956037 
L 752.820436 980.424896 
L 754.139924 980.237339 
L 754.139924 980.237339 
" style="fill:none;stroke:#1f77b4;stroke-linecap:square;stroke-width:1.5;"/>
   </g>
   <g id="patch_3">
    <path d="M 44.783053 1046.64351 
L 44.783053 18.118365 
" style="fill:none;stroke:#000000;stroke-linecap:square;stroke-linejoin:miter;stroke-width:0.8;"/>
   </g>
   <g id="patch_4">
    <path d="M 787.918822 1046.64351 
L 787.918822 18.118365 
" style="fill:none;stroke:#000000;stroke-linecap:square;stroke-linejoin:miter;stroke-width:0.8;"/>
   </g>
   <g id="patch_5">
    <path d="M 44.783053 1046.64351 
L 787.918823 1046.64351 
" style="fill:none;stroke:#000000;stroke-linecap:square;stroke-linejoin:miter;stroke-width:0.8;"/>
   </g>
   <g id="patch_6">
    <path d="M 44.783053 18.118365 
L 787.918823 18.118365 
" style="fill:none;stroke:#000000;stroke-linecap:square;stroke-linejoin:miter;stroke-width:0.8;"/>
   </g>
   <g id="text_19">
    <!-- Periodogram -->
    <g transform="translate(378.176875 12.118365)scale(0.12 -0.12)">
     <defs>
      <path d="M 45.40625 27.984375 
Q 45.40625 37.75 41.375 43.109375 
Q 37.359375 48.484375 30.078125 48.484375 
Q 22.859375 48.484375 18.828125 43.109375 
Q 14.796875 37.75 14.796875 27.984375 
Q 14.796875 18.265625 18.828125 12.890625 
Q 22.859375 7.515625 30.078125 7.515625 
Q 37.359375 7.515625 41.375 12.890625 
Q 45.40625 18.265625 45.40625 27.984375 
z
M 54.390625 6.78125 
Q 54.390625 -7.171875 48.1875 -13.984375 
Q 42 -20.796875 29.203125 -20.796875 
Q 24.46875 -20.796875 20.265625 -20.09375 
Q 16.0625 -19.390625 12.109375 -17.921875 
L 12.109375 -9.1875 
Q 16.0625 -11.328125 19.921875 -12.34375 
Q 23.78125 -13.375 27.78125 -13.375 
Q 36.625 -13.375 41.015625 -8.765625 
Q 45.40625 -4.15625 45.40625 5.171875 
L 45.40625 9.625 
Q 42.625 4.78125 38.28125 2.390625 
Q 33.9375 0 27.875 0 
Q 17.828125 0 11.671875 7.65625 
Q 5.515625 15.328125 5.515625 27.984375 
Q 5.515625 40.671875 11.671875 48.328125 
Q 17.828125 56 27.875 56 
Q 33.9375 56 38.28125 53.609375 
Q 42.625 51.21875 45.40625 46.390625 
L 45.40625 54.6875 
L 54.390625 54.6875 
z
" id="DejaVuSans-103"/>
      <path d="M 52 44.1875 
Q 55.375 50.25 60.0625 53.125 
Q 64.75 56 71.09375 56 
Q 79.640625 56 84.28125 50.015625 
Q 88.921875 44.046875 88.921875 33.015625 
L 88.921875 0 
L 79.890625 0 
L 79.890625 32.71875 
Q 79.890625 40.578125 77.09375 44.375 
Q 74.3125 48.1875 68.609375 48.1875 
Q 61.625 48.1875 57.5625 43.546875 
Q 53.515625 38.921875 53.515625 30.90625 
L 53.515625 0 
L 44.484375 0 
L 44.484375 32.71875 
Q 44.484375 40.625 41.703125 44.40625 
Q 38.921875 48.1875 33.109375 48.1875 
Q 26.21875 48.1875 22.15625 43.53125 
Q 18.109375 38.875 18.109375 30.90625 
L 18.109375 0 
L 9.078125 0 
L 9.078125 54.6875 
L 18.109375 54.6875 
L 18.109375 46.1875 
Q 21.1875 51.21875 25.484375 53.609375 
Q 29.78125 56 35.6875 56 
Q 41.65625 56 45.828125 52.96875 
Q 50 49.953125 52 44.1875 
z
" id="DejaVuSans-109"/>
     </defs>
     <use xlink:href="#DejaVuSans-80"/>
     <use x="56.677734" xlink:href="#DejaVuSans-101"/>
     <use x="118.201172" xlink:href="#DejaVuSans-114"/>
     <use x="159.314453" xlink:href="#DejaVuSans-105"/>
     <use x="187.097656" xlink:href="#DejaVuSans-111"/>
     <use x="248.279297" xlink:href="#DejaVuSans-100"/>
     <use x="311.755859" xlink:href="#DejaVuSans-111"/>
     <use x="372.9375" xlink:href="#DejaVuSans-103"/>
     <use x="436.414062" xlink:href="#DejaVuSans-114"/>
     <use x="477.527344" xlink:href="#DejaVuSans-97"/>
     <use x="538.806641" xlink:href="#DejaVuSans-109"/>
    </g>
   </g>
  </g>
  <g id="axes_2">
   <g id="patch_7">
    <path d="M 837.86399 1046.64351 
L 1580.99976 1046.64351 
L 1580.99976 18.118365 
L 837.86399 18.118365 
z
" style="fill:#ffffff;"/>
   </g>
   <g id="matplotlib.axis_3">
    <g id="xtick_8">
     <g id="line2d_34">
      <path clip-path="url(#p2af1c27faf)" d="M 871.642889 1046.64351 
L 871.642889 18.118365 
" style="fill:none;stroke:#b0b0b0;stroke-linecap:square;stroke-width:0.8;"/>
     </g>
     <g id="line2d_35">
      <g>
       <use style="stroke:#000000;stroke-width:0.8;" x="871.642889" xlink:href="#m34e8a168f6" y="1046.64351"/>
      </g>
     </g>
     <g id="text_20">
      <!-- 0 -->
      <g transform="translate(868.461639 1061.241947)scale(0.1 -0.1)">
       <use xlink:href="#DejaVuSans-48"/>
      </g>
     </g>
    </g>
    <g id="xtick_9">
     <g id="line2d_36">
      <path clip-path="url(#p2af1c27faf)" d="M 977.201947 1046.64351 
L 977.201947 18.118365 
" style="fill:none;stroke:#b0b0b0;stroke-linecap:square;stroke-width:0.8;"/>
     </g>
     <g id="line2d_37">
      <g>
       <use style="stroke:#000000;stroke-width:0.8;" x="977.201947" xlink:href="#m34e8a168f6" y="1046.64351"/>
      </g>
     </g>
     <g id="text_21">
      <!-- 1000 -->
      <g transform="translate(964.476947 1061.241947)scale(0.1 -0.1)">
       <use xlink:href="#DejaVuSans-49"/>
       <use x="63.623047" xlink:href="#DejaVuSans-48"/>
       <use x="127.246094" xlink:href="#DejaVuSans-48"/>
       <use x="190.869141" xlink:href="#DejaVuSans-48"/>
      </g>
     </g>
    </g>
    <g id="xtick_10">
     <g id="line2d_38">
      <path clip-path="url(#p2af1c27faf)" d="M 1082.761005 1046.64351 
L 1082.761005 18.118365 
" style="fill:none;stroke:#b0b0b0;stroke-linecap:square;stroke-width:0.8;"/>
     </g>
     <g id="line2d_39">
      <g>
       <use style="stroke:#000000;stroke-width:0.8;" x="1082.761005" xlink:href="#m34e8a168f6" y="1046.64351"/>
      </g>
     </g>
     <g id="text_22">
      <!-- 2000 -->
      <g transform="translate(1070.036005 1061.241947)scale(0.1 -0.1)">
       <use xlink:href="#DejaVuSans-50"/>
       <use x="63.623047" xlink:href="#DejaVuSans-48"/>
       <use x="127.246094" xlink:href="#DejaVuSans-48"/>
       <use x="190.869141" xlink:href="#DejaVuSans-48"/>
      </g>
     </g>
    </g>
    <g id="xtick_11">
     <g id="line2d_40">
      <path clip-path="url(#p2af1c27faf)" d="M 1188.320063 1046.64351 
L 1188.320063 18.118365 
" style="fill:none;stroke:#b0b0b0;stroke-linecap:square;stroke-width:0.8;"/>
     </g>
     <g id="line2d_41">
      <g>
       <use style="stroke:#000000;stroke-width:0.8;" x="1188.320063" xlink:href="#m34e8a168f6" y="1046.64351"/>
      </g>
     </g>
     <g id="text_23">
      <!-- 3000 -->
      <g transform="translate(1175.595063 1061.241947)scale(0.1 -0.1)">
       <use xlink:href="#DejaVuSans-51"/>
       <use x="63.623047" xlink:href="#DejaVuSans-48"/>
       <use x="127.246094" xlink:href="#DejaVuSans-48"/>
       <use x="190.869141" xlink:href="#DejaVuSans-48"/>
      </g>
     </g>
    </g>
    <g id="xtick_12">
     <g id="line2d_42">
      <path clip-path="url(#p2af1c27faf)" d="M 1293.879122 1046.64351 
L 1293.879122 18.118365 
" style="fill:none;stroke:#b0b0b0;stroke-linecap:square;stroke-width:0.8;"/>
     </g>
     <g id="line2d_43">
      <g>
       <use style="stroke:#000000;stroke-width:0.8;" x="1293.879122" xlink:href="#m34e8a168f6" y="1046.64351"/>
      </g>
     </g>
     <g id="text_24">
      <!-- 4000 -->
      <g transform="translate(1281.154122 1061.241947)scale(0.1 -0.1)">
       <use xlink:href="#DejaVuSans-52"/>
       <use x="63.623047" xlink:href="#DejaVuSans-48"/>
       <use x="127.246094" xlink:href="#DejaVuSans-48"/>
       <use x="190.869141" xlink:href="#DejaVuSans-48"/>
      </g>
     </g>
    </g>
    <g id="xtick_13">
     <g id="line2d_44">
      <path clip-path="url(#p2af1c27faf)" d="M 1399.43818 1046.64351 
L 1399.43818 18.118365 
" style="fill:none;stroke:#b0b0b0;stroke-linecap:square;stroke-width:0.8;"/>
     </g>
     <g id="line2d_45">
      <g>
       <use style="stroke:#000000;stroke-width:0.8;" x="1399.43818" xlink:href="#m34e8a168f6" y="1046.64351"/>
      </g>
     </g>
     <g id="text_25">
      <!-- 5000 -->
      <g transform="translate(1386.71318 1061.241947)scale(0.1 -0.1)">
       <use xlink:href="#DejaVuSans-53"/>
       <use x="63.623047" xlink:href="#DejaVuSans-48"/>
       <use x="127.246094" xlink:href="#DejaVuSans-48"/>
       <use x="190.869141" xlink:href="#DejaVuSans-48"/>
      </g>
     </g>
    </g>
    <g id="xtick_14">
     <g id="line2d_46">
      <path clip-path="url(#p2af1c27faf)" d="M 1504.997238 1046.64351 
L 1504.997238 18.118365 
" style="fill:none;stroke:#b0b0b0;stroke-linecap:square;stroke-width:0.8;"/>
     </g>
     <g id="line2d_47">
      <g>
       <use style="stroke:#000000;stroke-width:0.8;" x="1504.997238" xlink:href="#m34e8a168f6" y="1046.64351"/>
      </g>
     </g>
     <g id="text_26">
      <!-- 6000 -->
      <g transform="translate(1492.272238 1061.241947)scale(0.1 -0.1)">
       <use xlink:href="#DejaVuSans-54"/>
       <use x="63.623047" xlink:href="#DejaVuSans-48"/>
       <use x="127.246094" xlink:href="#DejaVuSans-48"/>
       <use x="190.869141" xlink:href="#DejaVuSans-48"/>
      </g>
     </g>
    </g>
    <g id="text_27">
     <!-- Frequency -->
     <g transform="translate(1183.602187 1074.920072)scale(0.1 -0.1)">
      <use xlink:href="#DejaVuSans-70"/>
      <use x="50.269531" xlink:href="#DejaVuSans-114"/>
      <use x="89.132812" xlink:href="#DejaVuSans-101"/>
      <use x="150.65625" xlink:href="#DejaVuSans-113"/>
      <use x="214.132812" xlink:href="#DejaVuSans-117"/>
      <use x="277.511719" xlink:href="#DejaVuSans-101"/>
      <use x="339.035156" xlink:href="#DejaVuSans-110"/>
      <use x="402.414062" xlink:href="#DejaVuSans-99"/>
      <use x="457.394531" xlink:href="#DejaVuSans-121"/>
     </g>
    </g>
   </g>
   <g id="matplotlib.axis_4">
    <g id="ytick_10">
     <g id="line2d_48">
      <path clip-path="url(#p2af1c27faf)" d="M 837.86399 1046.64351 
L 1580.99976 1046.64351 
" style="fill:none;stroke:#b0b0b0;stroke-linecap:square;stroke-width:0.8;"/>
     </g>
     <g id="line2d_49">
      <g>
       <use style="stroke:#000000;stroke-width:0.8;" x="837.86399" xlink:href="#mff7cfb379c" y="1046.64351"/>
      </g>
     </g>
     <g id="text_28">
      <!-- −60 -->
      <g transform="translate(809.759302 1050.442729)scale(0.1 -0.1)">
       <use xlink:href="#DejaVuSans-8722"/>
       <use x="83.789062" xlink:href="#DejaVuSans-54"/>
       <use x="147.412109" xlink:href="#DejaVuSans-48"/>
      </g>
     </g>
    </g>
    <g id="ytick_11">
     <g id="line2d_50">
      <path clip-path="url(#p2af1c27faf)" d="M 837.86399 918.077867 
L 1580.99976 918.077867 
" style="fill:none;stroke:#b0b0b0;stroke-linecap:square;stroke-width:0.8;"/>
     </g>
     <g id="line2d_51">
      <g>
       <use style="stroke:#000000;stroke-width:0.8;" x="837.86399" xlink:href="#mff7cfb379c" y="918.077867"/>
      </g>
     </g>
     <g id="text_29">
      <!-- −50 -->
      <g transform="translate(809.759302 921.877086)scale(0.1 -0.1)">
       <use xlink:href="#DejaVuSans-8722"/>
       <use x="83.789062" xlink:href="#DejaVuSans-53"/>
       <use x="147.412109" xlink:href="#DejaVuSans-48"/>
      </g>
     </g>
    </g>
    <g id="ytick_12">
     <g id="line2d_52">
      <path clip-path="url(#p2af1c27faf)" d="M 837.86399 789.512224 
L 1580.99976 789.512224 
" style="fill:none;stroke:#b0b0b0;stroke-linecap:square;stroke-width:0.8;"/>
     </g>
     <g id="line2d_53">
      <g>
       <use style="stroke:#000000;stroke-width:0.8;" x="837.86399" xlink:href="#mff7cfb379c" y="789.512224"/>
      </g>
     </g>
     <g id="text_30">
      <!-- −40 -->
      <g transform="translate(809.759302 793.311442)scale(0.1 -0.1)">
       <use xlink:href="#DejaVuSans-8722"/>
       <use x="83.789062" xlink:href="#DejaVuSans-52"/>
       <use x="147.412109" xlink:href="#DejaVuSans-48"/>
      </g>
     </g>
    </g>
    <g id="ytick_13">
     <g id="line2d_54">
      <path clip-path="url(#p2af1c27faf)" d="M 837.86399 660.946581 
L 1580.99976 660.946581 
" style="fill:none;stroke:#b0b0b0;stroke-linecap:square;stroke-width:0.8;"/>
     </g>
     <g id="line2d_55">
      <g>
       <use style="stroke:#000000;stroke-width:0.8;" x="837.86399" xlink:href="#mff7cfb379c" y="660.946581"/>
      </g>
     </g>
     <g id="text_31">
      <!-- −30 -->
      <g transform="translate(809.759302 664.745799)scale(0.1 -0.1)">
       <use xlink:href="#DejaVuSans-8722"/>
       <use x="83.789062" xlink:href="#DejaVuSans-51"/>
       <use x="147.412109" xlink:href="#DejaVuSans-48"/>
      </g>
     </g>
    </g>
    <g id="ytick_14">
     <g id="line2d_56">
      <path clip-path="url(#p2af1c27faf)" d="M 837.86399 532.380937 
L 1580.99976 532.380937 
" style="fill:none;stroke:#b0b0b0;stroke-linecap:square;stroke-width:0.8;"/>
     </g>
     <g id="line2d_57">
      <g>
       <use style="stroke:#000000;stroke-width:0.8;" x="837.86399" xlink:href="#mff7cfb379c" y="532.380937"/>
      </g>
     </g>
     <g id="text_32">
      <!-- −20 -->
      <g transform="translate(809.759302 536.180156)scale(0.1 -0.1)">
       <use xlink:href="#DejaVuSans-8722"/>
       <use x="83.789062" xlink:href="#DejaVuSans-50"/>
       <use x="147.412109" xlink:href="#DejaVuSans-48"/>
      </g>
     </g>
    </g>
    <g id="ytick_15">
     <g id="line2d_58">
      <path clip-path="url(#p2af1c27faf)" d="M 837.86399 403.815294 
L 1580.99976 403.815294 
" style="fill:none;stroke:#b0b0b0;stroke-linecap:square;stroke-width:0.8;"/>
     </g>
     <g id="line2d_59">
      <g>
       <use style="stroke:#000000;stroke-width:0.8;" x="837.86399" xlink:href="#mff7cfb379c" y="403.815294"/>
      </g>
     </g>
     <g id="text_33">
      <!-- −10 -->
      <g transform="translate(809.759302 407.614513)scale(0.1 -0.1)">
       <use xlink:href="#DejaVuSans-8722"/>
       <use x="83.789062" xlink:href="#DejaVuSans-49"/>
       <use x="147.412109" xlink:href="#DejaVuSans-48"/>
      </g>
     </g>
    </g>
    <g id="ytick_16">
     <g id="line2d_60">
      <path clip-path="url(#p2af1c27faf)" d="M 837.86399 275.249651 
L 1580.99976 275.249651 
" style="fill:none;stroke:#b0b0b0;stroke-linecap:square;stroke-width:0.8;"/>
     </g>
     <g id="line2d_61">
      <g>
       <use style="stroke:#000000;stroke-width:0.8;" x="837.86399" xlink:href="#mff7cfb379c" y="275.249651"/>
      </g>
     </g>
     <g id="text_34">
      <!-- 0 -->
      <g transform="translate(824.50149 279.04887)scale(0.1 -0.1)">
       <use xlink:href="#DejaVuSans-48"/>
      </g>
     </g>
    </g>
    <g id="ytick_17">
     <g id="line2d_62">
      <path clip-path="url(#p2af1c27faf)" d="M 837.86399 146.684008 
L 1580.99976 146.684008 
" style="fill:none;stroke:#b0b0b0;stroke-linecap:square;stroke-width:0.8;"/>
     </g>
     <g id="line2d_63">
      <g>
       <use style="stroke:#000000;stroke-width:0.8;" x="837.86399" xlink:href="#mff7cfb379c" y="146.684008"/>
      </g>
     </g>
     <g id="text_35">
      <!-- 10 -->
      <g transform="translate(818.13899 150.483227)scale(0.1 -0.1)">
       <use xlink:href="#DejaVuSans-49"/>
       <use x="63.623047" xlink:href="#DejaVuSans-48"/>
      </g>
     </g>
    </g>
    <g id="ytick_18">
     <g id="line2d_64">
      <path clip-path="url(#p2af1c27faf)" d="M 837.86399 18.118365 
L 1580.99976 18.118365 
" style="fill:none;stroke:#b0b0b0;stroke-linecap:square;stroke-width:0.8;"/>
     </g>
     <g id="line2d_65">
      <g>
       <use style="stroke:#000000;stroke-width:0.8;" x="837.86399" xlink:href="#mff7cfb379c" y="18.118365"/>
      </g>
     </g>
     <g id="text_36">
      <!-- 20 -->
      <g transform="translate(818.13899 21.917584)scale(0.1 -0.1)">
       <use xlink:href="#DejaVuSans-50"/>
       <use x="63.623047" xlink:href="#DejaVuSans-48"/>
      </g>
     </g>
    </g>
   </g>
   <g id="line2d_66">
    <path clip-path="url(#p2af1c27faf)" d="M 871.642889 830.225938 
L 874.281865 790.652464 
L 876.920842 787.900188 
L 879.559818 783.006055 
L 882.198794 775.92514 
L 884.837771 767.060237 
L 892.7547 737.713704 
L 895.393677 729.258348 
L 898.032653 721.963308 
L 900.67163 715.759332 
L 903.310606 710.416305 
L 905.949583 705.631206 
L 913.866512 692.104361 
L 916.505488 687.23373 
L 919.144465 681.747169 
L 921.783441 675.30427 
L 924.422418 667.757087 
L 929.700371 650.923414 
L 932.339347 643.341331 
L 934.978324 637.580596 
L 937.6173 634.394886 
L 940.256276 634.318952 
L 942.895253 637.701981 
L 945.534229 644.751679 
L 948.173206 655.56041 
L 950.812182 670.096687 
L 953.451159 688.13951 
L 956.090135 709.113032 
L 961.368088 753.781885 
L 964.007065 771.849072 
L 966.646041 783.291489 
L 969.285018 788.21529 
L 971.923994 789.086274 
L 974.56297 788.389757 
L 977.201947 787.368943 
L 979.840923 785.950601 
L 982.4799 782.883192 
L 985.118876 776.036288 
L 987.757853 763.504069 
L 990.396829 745.261576 
L 998.313759 679.324484 
L 1000.952735 660.445194 
L 1003.591711 644.781989 
L 1006.230688 632.680912 
L 1008.869664 624.315132 
L 1011.508641 619.769599 
L 1014.147617 619.082257 
L 1016.786594 622.261372 
L 1019.42557 629.288231 
L 1022.064547 640.10812 
L 1024.703523 654.608159 
L 1027.3425 672.576913 
L 1029.981476 693.637481 
L 1032.620452 717.145813 
L 1037.898405 766.833994 
L 1040.537382 789.494555 
L 1043.176358 808.078961 
L 1045.815335 821.333607 
L 1048.454311 829.06924 
L 1051.093288 831.782951 
L 1053.732264 829.985316 
L 1056.371241 823.884065 
L 1059.010217 813.618728 
L 1061.649193 799.752399 
L 1064.28817 783.486481 
L 1069.566123 749.914951 
L 1072.205099 735.227062 
L 1074.844076 723.099134 
L 1077.483052 714.031927 
L 1080.122029 708.337148 
L 1082.761005 706.206697 
L 1085.399982 707.756587 
L 1088.038958 713.049925 
L 1090.677934 722.101966 
L 1093.316911 734.865409 
L 1095.955887 751.186787 
L 1098.594864 770.71466 
L 1101.23384 792.732954 
L 1106.511793 838.194212 
L 1109.15077 857.078553 
L 1111.789746 870.901644 
L 1114.428723 879.744077 
L 1117.067699 884.739178 
L 1119.706675 886.509887 
L 1122.345652 884.312896 
L 1124.984628 876.393007 
L 1127.623605 861.526275 
L 1130.262581 840.568142 
L 1138.179511 766.986738 
L 1140.818487 745.472715 
L 1143.457464 727.043448 
L 1146.09644 712.047999 
L 1148.735417 700.667642 
L 1151.374393 692.991358 
L 1154.013369 689.054516 
L 1156.652346 688.855508 
L 1159.291322 692.356572 
L 1161.930299 699.468999 
L 1164.569275 710.017885 
L 1167.208252 723.677293 
L 1169.847228 739.867748 
L 1175.125181 775.564132 
L 1177.764158 792.025441 
L 1180.403134 805.717916 
L 1183.04211 816.321042 
L 1185.681087 824.484418 
L 1188.320063 831.200448 
L 1190.95904 837.239797 
L 1196.236993 848.620665 
L 1201.514946 859.552371 
L 1206.792899 870.053361 
L 1209.431875 874.948699 
L 1212.070851 879.346088 
L 1214.709828 883.002312 
L 1217.348804 885.733841 
L 1219.987781 887.493824 
L 1222.626757 888.39114 
L 1225.265734 888.638121 
L 1227.90471 888.461502 
L 1230.543687 888.029297 
L 1233.182663 887.426768 
L 1235.82164 886.682667 
L 1243.738569 884.084955 
L 1246.377545 883.480171 
L 1249.016522 883.216122 
L 1251.655498 883.314186 
L 1256.933451 884.01339 
L 1259.572428 884.03104 
L 1262.211404 883.381803 
L 1264.850381 881.842431 
L 1267.489357 879.372463 
L 1270.128333 876.114529 
L 1272.76731 872.33362 
L 1278.045263 864.455349 
L 1280.684239 860.968922 
L 1283.323216 858.167808 
L 1285.962192 856.322933 
L 1288.601169 855.682245 
L 1291.240145 856.451605 
L 1293.879122 858.770319 
L 1296.518098 862.684087 
L 1299.157075 868.115865 
L 1301.796051 874.835726 
L 1309.71298 897.843273 
L 1312.351957 904.277799 
L 1314.990933 909.168076 
L 1317.62991 912.357471 
L 1320.268886 913.976521 
L 1322.907863 914.298149 
L 1325.546839 913.593472 
L 1328.185816 912.069639 
L 1330.824792 909.887964 
L 1333.463768 907.213146 
L 1341.380698 898.384575 
L 1344.019674 895.945093 
L 1346.658651 894.069951 
L 1349.297627 892.870661 
L 1351.936604 892.412591 
L 1354.57558 892.728205 
L 1357.214557 893.829028 
L 1359.853533 895.711676 
L 1362.492509 898.356035 
L 1365.131486 901.716223 
L 1367.770462 905.707098 
L 1370.409439 910.190783 
L 1378.326368 924.379186 
L 1380.965345 928.473921 
L 1383.604321 931.890661 
L 1386.243298 934.552308 
L 1388.882274 936.485091 
L 1391.52125 937.774353 
L 1394.160227 938.504271 
L 1396.799203 938.711319 
L 1399.43818 938.36965 
L 1402.077156 937.408873 
L 1404.716133 935.751414 
L 1407.355109 933.351489 
L 1409.994086 930.221084 
L 1412.633062 926.437162 
L 1415.272039 922.132864 
L 1420.549991 912.663744 
L 1425.827944 903.264168 
L 1428.466921 898.988622 
L 1431.105897 895.167189 
L 1433.744874 891.91552 
L 1436.38385 889.352614 
L 1439.022827 887.606223 
L 1441.661803 886.807899 
L 1444.30078 887.077388 
L 1446.939756 888.49958 
L 1449.578732 891.099039 
L 1452.217709 894.817517 
L 1454.856685 899.500395 
L 1457.495662 904.899244 
L 1465.412591 922.201367 
L 1468.051568 927.416946 
L 1470.690544 932.099691 
L 1473.329521 936.189061 
L 1475.968497 939.614798 
L 1478.607474 942.265774 
L 1481.24645 944.007878 
L 1483.885426 944.739288 
L 1486.524403 944.445748 
L 1489.163379 943.22078 
L 1491.802356 941.245267 
L 1494.441332 938.749831 
L 1499.719285 933.216367 
L 1502.358262 930.707877 
L 1504.997238 928.727817 
L 1507.636215 927.526855 
L 1510.275191 927.319326 
L 1512.914167 928.263987 
L 1515.553144 930.448741 
L 1518.19212 933.879137 
L 1520.831097 938.468733 
L 1523.470073 944.03016 
L 1528.748026 956.789886 
L 1531.387003 963.125682 
L 1534.025979 968.807954 
L 1536.664956 973.465943 
L 1539.303932 976.915927 
L 1541.942908 979.181998 
L 1544.581885 980.42463 
L 1547.220861 1019.517174 
L 1547.220861 1019.517174 
" style="fill:none;stroke:#1f77b4;stroke-linecap:square;stroke-width:1.5;"/>
   </g>
   <g id="patch_8">
    <path d="M 837.86399 1046.64351 
L 837.86399 18.118365 
" style="fill:none;stroke:#000000;stroke-linecap:square;stroke-linejoin:miter;stroke-width:0.8;"/>
   </g>
   <g id="patch_9">
    <path d="M 1580.99976 1046.64351 
L 1580.99976 18.118365 
" style="fill:none;stroke:#000000;stroke-linecap:square;stroke-linejoin:miter;stroke-width:0.8;"/>
   </g>
   <g id="patch_10">
    <path d="M 837.86399 1046.64351 
L 1580.99976 1046.64351 
" style="fill:none;stroke:#000000;stroke-linecap:square;stroke-linejoin:miter;stroke-width:0.8;"/>
   </g>
   <g id="patch_11">
    <path d="M 837.86399 18.118365 
L 1580.99976 18.118365 
" style="fill:none;stroke:#000000;stroke-linecap:square;stroke-linejoin:miter;stroke-width:0.8;"/>
   </g>
   <g id="text_37">
    <!-- Welch -->
    <g transform="translate(1191.391562 12.118365)scale(0.12 -0.12)">
     <defs>
      <path d="M 3.328125 72.90625 
L 13.28125 72.90625 
L 28.609375 11.28125 
L 43.890625 72.90625 
L 54.984375 72.90625 
L 70.3125 11.28125 
L 85.59375 72.90625 
L 95.609375 72.90625 
L 77.296875 0 
L 64.890625 0 
L 49.515625 63.28125 
L 33.984375 0 
L 21.578125 0 
z
" id="DejaVuSans-87"/>
      <path d="M 54.890625 33.015625 
L 54.890625 0 
L 45.90625 0 
L 45.90625 32.71875 
Q 45.90625 40.484375 42.875 44.328125 
Q 39.84375 48.1875 33.796875 48.1875 
Q 26.515625 48.1875 22.3125 43.546875 
Q 18.109375 38.921875 18.109375 30.90625 
L 18.109375 0 
L 9.078125 0 
L 9.078125 75.984375 
L 18.109375 75.984375 
L 18.109375 46.1875 
Q 21.34375 51.125 25.703125 53.5625 
Q 30.078125 56 35.796875 56 
Q 45.21875 56 50.046875 50.171875 
Q 54.890625 44.34375 54.890625 33.015625 
z
" id="DejaVuSans-104"/>
     </defs>
     <use xlink:href="#DejaVuSans-87"/>
     <use x="93.001953" xlink:href="#DejaVuSans-101"/>
     <use x="154.525391" xlink:href="#DejaVuSans-108"/>
     <use x="182.308594" xlink:href="#DejaVuSans-99"/>
     <use x="237.289062" xlink:href="#DejaVuSans-104"/>
    </g>
   </g>
  </g>
 </g>
 <defs>
  <clipPath id="p4995dcff6d">
   <rect height="1028.525145" width="743.13577" x="44.783053" y="18.118365"/>
  </clipPath>
  <clipPath id="p2af1c27faf">
   <rect height="1028.525145" width="743.13577" x="837.86399" y="18.118365"/>
  </clipPath>
 </defs>
</svg>
