<?xml version="1.0" encoding="utf-8" standalone="no"?>
<!DOCTYPE svg PUBLIC "-//W3C//DTD SVG 1.1//EN"
  "http://www.w3.org/Graphics/SVG/1.1/DTD/svg11.dtd">
<!-- Created with matplotlib (https://matplotlib.org/) -->
<svg height="1080pt" version="1.1" viewBox="0 0 1584 1080" width="1584pt" xmlns="http://www.w3.org/2000/svg" xmlns:xlink="http://www.w3.org/1999/xlink">
 <defs>
  <style type="text/css">
*{stroke-linecap:butt;stroke-linejoin:round;white-space:pre;}
  </style>
 </defs>
 <g id="figure_1">
  <g id="patch_1">
   <path d="M 0 1080 
L 1584 1080 
L 1584 0 
L 0 0 
z
" style="fill:#ffffff;"/>
  </g>
  <g id="axes_1">
   <g id="patch_2">
    <path d="M 44.783053 1046.64351 
L 787.918822 1046.64351 
L 787.918822 18.118365 
L 44.783053 18.118365 
z
" style="fill:#ffffff;"/>
   </g>
   <g id="matplotlib.axis_1">
    <g id="xtick_1">
     <g id="line2d_1">
      <path clip-path="url(#pce249598c6)" d="M 78.561951 1046.64351 
L 78.561951 18.118365 
" style="fill:none;stroke:#b0b0b0;stroke-linecap:square;stroke-width:0.8;"/>
     </g>
     <g id="line2d_2">
      <defs>
       <path d="M 0 0 
L 0 3.5 
" id="ma2da8cdc77" style="stroke:#000000;stroke-width:0.8;"/>
      </defs>
      <g>
       <use style="stroke:#000000;stroke-width:0.8;" x="78.561951" xlink:href="#ma2da8cdc77" y="1046.64351"/>
      </g>
     </g>
     <g id="text_1">
      <!-- 0 -->
      <defs>
       <path d="M 31.78125 66.40625 
Q 24.171875 66.40625 20.328125 58.90625 
Q 16.5 51.421875 16.5 36.375 
Q 16.5 21.390625 20.328125 13.890625 
Q 24.171875 6.390625 31.78125 6.390625 
Q 39.453125 6.390625 43.28125 13.890625 
Q 47.125 21.390625 47.125 36.375 
Q 47.125 51.421875 43.28125 58.90625 
Q 39.453125 66.40625 31.78125 66.40625 
z
M 31.78125 74.21875 
Q 44.046875 74.21875 50.515625 64.515625 
Q 56.984375 54.828125 56.984375 36.375 
Q 56.984375 17.96875 50.515625 8.265625 
Q 44.046875 -1.421875 31.78125 -1.421875 
Q 19.53125 -1.421875 13.0625 8.265625 
Q 6.59375 17.96875 6.59375 36.375 
Q 6.59375 54.828125 13.0625 64.515625 
Q 19.53125 74.21875 31.78125 74.21875 
z
" id="DejaVuSans-48"/>
      </defs>
      <g transform="translate(75.380701 1061.241947)scale(0.1 -0.1)">
       <use xlink:href="#DejaVuSans-48"/>
      </g>
     </g>
    </g>
    <g id="xtick_2">
     <g id="line2d_3">
      <path clip-path="url(#pce249598c6)" d="M 184.121009 1046.64351 
L 184.121009 18.118365 
" style="fill:none;stroke:#b0b0b0;stroke-linecap:square;stroke-width:0.8;"/>
     </g>
     <g id="line2d_4">
      <g>
       <use style="stroke:#000000;stroke-width:0.8;" x="184.121009" xlink:href="#ma2da8cdc77" y="1046.64351"/>
      </g>
     </g>
     <g id="text_2">
      <!-- 1000 -->
      <defs>
       <path d="M 12.40625 8.296875 
L 28.515625 8.296875 
L 28.515625 63.921875 
L 10.984375 60.40625 
L 10.984375 69.390625 
L 28.421875 72.90625 
L 38.28125 72.90625 
L 38.28125 8.296875 
L 54.390625 8.296875 
L 54.390625 0 
L 12.40625 0 
z
" id="DejaVuSans-49"/>
      </defs>
      <g transform="translate(171.396009 1061.241947)scale(0.1 -0.1)">
       <use xlink:href="#DejaVuSans-49"/>
       <use x="63.623047" xlink:href="#DejaVuSans-48"/>
       <use x="127.246094" xlink:href="#DejaVuSans-48"/>
       <use x="190.869141" xlink:href="#DejaVuSans-48"/>
      </g>
     </g>
    </g>
    <g id="xtick_3">
     <g id="line2d_5">
      <path clip-path="url(#pce249598c6)" d="M 289.680068 1046.64351 
L 289.680068 18.118365 
" style="fill:none;stroke:#b0b0b0;stroke-linecap:square;stroke-width:0.8;"/>
     </g>
     <g id="line2d_6">
      <g>
       <use style="stroke:#000000;stroke-width:0.8;" x="289.680068" xlink:href="#ma2da8cdc77" y="1046.64351"/>
      </g>
     </g>
     <g id="text_3">
      <!-- 2000 -->
      <defs>
       <path d="M 19.1875 8.296875 
L 53.609375 8.296875 
L 53.609375 0 
L 7.328125 0 
L 7.328125 8.296875 
Q 12.9375 14.109375 22.625 23.890625 
Q 32.328125 33.6875 34.8125 36.53125 
Q 39.546875 41.84375 41.421875 45.53125 
Q 43.3125 49.21875 43.3125 52.78125 
Q 43.3125 58.59375 39.234375 62.25 
Q 35.15625 65.921875 28.609375 65.921875 
Q 23.96875 65.921875 18.8125 64.3125 
Q 13.671875 62.703125 7.8125 59.421875 
L 7.8125 69.390625 
Q 13.765625 71.78125 18.9375 73 
Q 24.125 74.21875 28.421875 74.21875 
Q 39.75 74.21875 46.484375 68.546875 
Q 53.21875 62.890625 53.21875 53.421875 
Q 53.21875 48.921875 51.53125 44.890625 
Q 49.859375 40.875 45.40625 35.40625 
Q 44.1875 33.984375 37.640625 27.21875 
Q 31.109375 20.453125 19.1875 8.296875 
z
" id="DejaVuSans-50"/>
      </defs>
      <g transform="translate(276.955068 1061.241947)scale(0.1 -0.1)">
       <use xlink:href="#DejaVuSans-50"/>
       <use x="63.623047" xlink:href="#DejaVuSans-48"/>
       <use x="127.246094" xlink:href="#DejaVuSans-48"/>
       <use x="190.869141" xlink:href="#DejaVuSans-48"/>
      </g>
     </g>
    </g>
    <g id="xtick_4">
     <g id="line2d_7">
      <path clip-path="url(#pce249598c6)" d="M 395.239126 1046.64351 
L 395.239126 18.118365 
" style="fill:none;stroke:#b0b0b0;stroke-linecap:square;stroke-width:0.8;"/>
     </g>
     <g id="line2d_8">
      <g>
       <use style="stroke:#000000;stroke-width:0.8;" x="395.239126" xlink:href="#ma2da8cdc77" y="1046.64351"/>
      </g>
     </g>
     <g id="text_4">
      <!-- 3000 -->
      <defs>
       <path d="M 40.578125 39.3125 
Q 47.65625 37.796875 51.625 33 
Q 55.609375 28.21875 55.609375 21.1875 
Q 55.609375 10.40625 48.1875 4.484375 
Q 40.765625 -1.421875 27.09375 -1.421875 
Q 22.515625 -1.421875 17.65625 -0.515625 
Q 12.796875 0.390625 7.625 2.203125 
L 7.625 11.71875 
Q 11.71875 9.328125 16.59375 8.109375 
Q 21.484375 6.890625 26.8125 6.890625 
Q 36.078125 6.890625 40.9375 10.546875 
Q 45.796875 14.203125 45.796875 21.1875 
Q 45.796875 27.640625 41.28125 31.265625 
Q 36.765625 34.90625 28.71875 34.90625 
L 20.21875 34.90625 
L 20.21875 43.015625 
L 29.109375 43.015625 
Q 36.375 43.015625 40.234375 45.921875 
Q 44.09375 48.828125 44.09375 54.296875 
Q 44.09375 59.90625 40.109375 62.90625 
Q 36.140625 65.921875 28.71875 65.921875 
Q 24.65625 65.921875 20.015625 65.03125 
Q 15.375 64.15625 9.8125 62.3125 
L 9.8125 71.09375 
Q 15.4375 72.65625 20.34375 73.4375 
Q 25.25 74.21875 29.59375 74.21875 
Q 40.828125 74.21875 47.359375 69.109375 
Q 53.90625 64.015625 53.90625 55.328125 
Q 53.90625 49.265625 50.4375 45.09375 
Q 46.96875 40.921875 40.578125 39.3125 
z
" id="DejaVuSans-51"/>
      </defs>
      <g transform="translate(382.514126 1061.241947)scale(0.1 -0.1)">
       <use xlink:href="#DejaVuSans-51"/>
       <use x="63.623047" xlink:href="#DejaVuSans-48"/>
       <use x="127.246094" xlink:href="#DejaVuSans-48"/>
       <use x="190.869141" xlink:href="#DejaVuSans-48"/>
      </g>
     </g>
    </g>
    <g id="xtick_5">
     <g id="line2d_9">
      <path clip-path="url(#pce249598c6)" d="M 500.798184 1046.64351 
L 500.798184 18.118365 
" style="fill:none;stroke:#b0b0b0;stroke-linecap:square;stroke-width:0.8;"/>
     </g>
     <g id="line2d_10">
      <g>
       <use style="stroke:#000000;stroke-width:0.8;" x="500.798184" xlink:href="#ma2da8cdc77" y="1046.64351"/>
      </g>
     </g>
     <g id="text_5">
      <!-- 4000 -->
      <defs>
       <path d="M 37.796875 64.3125 
L 12.890625 25.390625 
L 37.796875 25.390625 
z
M 35.203125 72.90625 
L 47.609375 72.90625 
L 47.609375 25.390625 
L 58.015625 25.390625 
L 58.015625 17.1875 
L 47.609375 17.1875 
L 47.609375 0 
L 37.796875 0 
L 37.796875 17.1875 
L 4.890625 17.1875 
L 4.890625 26.703125 
z
" id="DejaVuSans-52"/>
      </defs>
      <g transform="translate(488.073184 1061.241947)scale(0.1 -0.1)">
       <use xlink:href="#DejaVuSans-52"/>
       <use x="63.623047" xlink:href="#DejaVuSans-48"/>
       <use x="127.246094" xlink:href="#DejaVuSans-48"/>
       <use x="190.869141" xlink:href="#DejaVuSans-48"/>
      </g>
     </g>
    </g>
    <g id="xtick_6">
     <g id="line2d_11">
      <path clip-path="url(#pce249598c6)" d="M 606.357242 1046.64351 
L 606.357242 18.118365 
" style="fill:none;stroke:#b0b0b0;stroke-linecap:square;stroke-width:0.8;"/>
     </g>
     <g id="line2d_12">
      <g>
       <use style="stroke:#000000;stroke-width:0.8;" x="606.357242" xlink:href="#ma2da8cdc77" y="1046.64351"/>
      </g>
     </g>
     <g id="text_6">
      <!-- 5000 -->
      <defs>
       <path d="M 10.796875 72.90625 
L 49.515625 72.90625 
L 49.515625 64.59375 
L 19.828125 64.59375 
L 19.828125 46.734375 
Q 21.96875 47.46875 24.109375 47.828125 
Q 26.265625 48.1875 28.421875 48.1875 
Q 40.625 48.1875 47.75 41.5 
Q 54.890625 34.8125 54.890625 23.390625 
Q 54.890625 11.625 47.5625 5.09375 
Q 40.234375 -1.421875 26.90625 -1.421875 
Q 22.3125 -1.421875 17.546875 -0.640625 
Q 12.796875 0.140625 7.71875 1.703125 
L 7.71875 11.625 
Q 12.109375 9.234375 16.796875 8.0625 
Q 21.484375 6.890625 26.703125 6.890625 
Q 35.15625 6.890625 40.078125 11.328125 
Q 45.015625 15.765625 45.015625 23.390625 
Q 45.015625 31 40.078125 35.4375 
Q 35.15625 39.890625 26.703125 39.890625 
Q 22.75 39.890625 18.8125 39.015625 
Q 14.890625 38.140625 10.796875 36.28125 
z
" id="DejaVuSans-53"/>
      </defs>
      <g transform="translate(593.632242 1061.241947)scale(0.1 -0.1)">
       <use xlink:href="#DejaVuSans-53"/>
       <use x="63.623047" xlink:href="#DejaVuSans-48"/>
       <use x="127.246094" xlink:href="#DejaVuSans-48"/>
       <use x="190.869141" xlink:href="#DejaVuSans-48"/>
      </g>
     </g>
    </g>
    <g id="xtick_7">
     <g id="line2d_13">
      <path clip-path="url(#pce249598c6)" d="M 711.916301 1046.64351 
L 711.916301 18.118365 
" style="fill:none;stroke:#b0b0b0;stroke-linecap:square;stroke-width:0.8;"/>
     </g>
     <g id="line2d_14">
      <g>
       <use style="stroke:#000000;stroke-width:0.8;" x="711.916301" xlink:href="#ma2da8cdc77" y="1046.64351"/>
      </g>
     </g>
     <g id="text_7">
      <!-- 6000 -->
      <defs>
       <path d="M 33.015625 40.375 
Q 26.375 40.375 22.484375 35.828125 
Q 18.609375 31.296875 18.609375 23.390625 
Q 18.609375 15.53125 22.484375 10.953125 
Q 26.375 6.390625 33.015625 6.390625 
Q 39.65625 6.390625 43.53125 10.953125 
Q 47.40625 15.53125 47.40625 23.390625 
Q 47.40625 31.296875 43.53125 35.828125 
Q 39.65625 40.375 33.015625 40.375 
z
M 52.59375 71.296875 
L 52.59375 62.3125 
Q 48.875 64.0625 45.09375 64.984375 
Q 41.3125 65.921875 37.59375 65.921875 
Q 27.828125 65.921875 22.671875 59.328125 
Q 17.53125 52.734375 16.796875 39.40625 
Q 19.671875 43.65625 24.015625 45.921875 
Q 28.375 48.1875 33.59375 48.1875 
Q 44.578125 48.1875 50.953125 41.515625 
Q 57.328125 34.859375 57.328125 23.390625 
Q 57.328125 12.15625 50.6875 5.359375 
Q 44.046875 -1.421875 33.015625 -1.421875 
Q 20.359375 -1.421875 13.671875 8.265625 
Q 6.984375 17.96875 6.984375 36.375 
Q 6.984375 53.65625 15.1875 63.9375 
Q 23.390625 74.21875 37.203125 74.21875 
Q 40.921875 74.21875 44.703125 73.484375 
Q 48.484375 72.75 52.59375 71.296875 
z
" id="DejaVuSans-54"/>
      </defs>
      <g transform="translate(699.191301 1061.241947)scale(0.1 -0.1)">
       <use xlink:href="#DejaVuSans-54"/>
       <use x="63.623047" xlink:href="#DejaVuSans-48"/>
       <use x="127.246094" xlink:href="#DejaVuSans-48"/>
       <use x="190.869141" xlink:href="#DejaVuSans-48"/>
      </g>
     </g>
    </g>
    <g id="text_8">
     <!-- Frequency -->
     <defs>
      <path d="M 9.8125 72.90625 
L 51.703125 72.90625 
L 51.703125 64.59375 
L 19.671875 64.59375 
L 19.671875 43.109375 
L 48.578125 43.109375 
L 48.578125 34.8125 
L 19.671875 34.8125 
L 19.671875 0 
L 9.8125 0 
z
" id="DejaVuSans-70"/>
      <path d="M 41.109375 46.296875 
Q 39.59375 47.171875 37.8125 47.578125 
Q 36.03125 48 33.890625 48 
Q 26.265625 48 22.1875 43.046875 
Q 18.109375 38.09375 18.109375 28.8125 
L 18.109375 0 
L 9.078125 0 
L 9.078125 54.6875 
L 18.109375 54.6875 
L 18.109375 46.1875 
Q 20.953125 51.171875 25.484375 53.578125 
Q 30.03125 56 36.53125 56 
Q 37.453125 56 38.578125 55.875 
Q 39.703125 55.765625 41.0625 55.515625 
z
" id="DejaVuSans-114"/>
      <path d="M 56.203125 29.59375 
L 56.203125 25.203125 
L 14.890625 25.203125 
Q 15.484375 15.921875 20.484375 11.0625 
Q 25.484375 6.203125 34.421875 6.203125 
Q 39.59375 6.203125 44.453125 7.46875 
Q 49.3125 8.734375 54.109375 11.28125 
L 54.109375 2.78125 
Q 49.265625 0.734375 44.1875 -0.34375 
Q 39.109375 -1.421875 33.890625 -1.421875 
Q 20.796875 -1.421875 13.15625 6.1875 
Q 5.515625 13.8125 5.515625 26.8125 
Q 5.515625 40.234375 12.765625 48.109375 
Q 20.015625 56 32.328125 56 
Q 43.359375 56 49.78125 48.890625 
Q 56.203125 41.796875 56.203125 29.59375 
z
M 47.21875 32.234375 
Q 47.125 39.59375 43.09375 43.984375 
Q 39.0625 48.390625 32.421875 48.390625 
Q 24.90625 48.390625 20.390625 44.140625 
Q 15.875 39.890625 15.1875 32.171875 
z
" id="DejaVuSans-101"/>
      <path d="M 14.796875 27.296875 
Q 14.796875 17.390625 18.875 11.75 
Q 22.953125 6.109375 30.078125 6.109375 
Q 37.203125 6.109375 41.296875 11.75 
Q 45.40625 17.390625 45.40625 27.296875 
Q 45.40625 37.203125 41.296875 42.84375 
Q 37.203125 48.484375 30.078125 48.484375 
Q 22.953125 48.484375 18.875 42.84375 
Q 14.796875 37.203125 14.796875 27.296875 
z
M 45.40625 8.203125 
Q 42.578125 3.328125 38.25 0.953125 
Q 33.9375 -1.421875 27.875 -1.421875 
Q 17.96875 -1.421875 11.734375 6.484375 
Q 5.515625 14.40625 5.515625 27.296875 
Q 5.515625 40.1875 11.734375 48.09375 
Q 17.96875 56 27.875 56 
Q 33.9375 56 38.25 53.625 
Q 42.578125 51.265625 45.40625 46.390625 
L 45.40625 54.6875 
L 54.390625 54.6875 
L 54.390625 -20.796875 
L 45.40625 -20.796875 
z
" id="DejaVuSans-113"/>
      <path d="M 8.5 21.578125 
L 8.5 54.6875 
L 17.484375 54.6875 
L 17.484375 21.921875 
Q 17.484375 14.15625 20.5 10.265625 
Q 23.53125 6.390625 29.59375 6.390625 
Q 36.859375 6.390625 41.078125 11.03125 
Q 45.3125 15.671875 45.3125 23.6875 
L 45.3125 54.6875 
L 54.296875 54.6875 
L 54.296875 0 
L 45.3125 0 
L 45.3125 8.40625 
Q 42.046875 3.421875 37.71875 1 
Q 33.40625 -1.421875 27.6875 -1.421875 
Q 18.265625 -1.421875 13.375 4.4375 
Q 8.5 10.296875 8.5 21.578125 
z
M 31.109375 56 
z
" id="DejaVuSans-117"/>
      <path d="M 54.890625 33.015625 
L 54.890625 0 
L 45.90625 0 
L 45.90625 32.71875 
Q 45.90625 40.484375 42.875 44.328125 
Q 39.84375 48.1875 33.796875 48.1875 
Q 26.515625 48.1875 22.3125 43.546875 
Q 18.109375 38.921875 18.109375 30.90625 
L 18.109375 0 
L 9.078125 0 
L 9.078125 54.6875 
L 18.109375 54.6875 
L 18.109375 46.1875 
Q 21.34375 51.125 25.703125 53.5625 
Q 30.078125 56 35.796875 56 
Q 45.21875 56 50.046875 50.171875 
Q 54.890625 44.34375 54.890625 33.015625 
z
" id="DejaVuSans-110"/>
      <path d="M 48.78125 52.59375 
L 48.78125 44.1875 
Q 44.96875 46.296875 41.140625 47.34375 
Q 37.3125 48.390625 33.40625 48.390625 
Q 24.65625 48.390625 19.8125 42.84375 
Q 14.984375 37.3125 14.984375 27.296875 
Q 14.984375 17.28125 19.8125 11.734375 
Q 24.65625 6.203125 33.40625 6.203125 
Q 37.3125 6.203125 41.140625 7.25 
Q 44.96875 8.296875 48.78125 10.40625 
L 48.78125 2.09375 
Q 45.015625 0.34375 40.984375 -0.53125 
Q 36.96875 -1.421875 32.421875 -1.421875 
Q 20.0625 -1.421875 12.78125 6.34375 
Q 5.515625 14.109375 5.515625 27.296875 
Q 5.515625 40.671875 12.859375 48.328125 
Q 20.21875 56 33.015625 56 
Q 37.15625 56 41.109375 55.140625 
Q 45.0625 54.296875 48.78125 52.59375 
z
" id="DejaVuSans-99"/>
      <path d="M 32.171875 -5.078125 
Q 28.375 -14.84375 24.75 -17.8125 
Q 21.140625 -20.796875 15.09375 -20.796875 
L 7.90625 -20.796875 
L 7.90625 -13.28125 
L 13.1875 -13.28125 
Q 16.890625 -13.28125 18.9375 -11.515625 
Q 21 -9.765625 23.484375 -3.21875 
L 25.09375 0.875 
L 2.984375 54.6875 
L 12.5 54.6875 
L 29.59375 11.921875 
L 46.6875 54.6875 
L 56.203125 54.6875 
z
" id="DejaVuSans-121"/>
     </defs>
     <g transform="translate(390.053281 1074.920072)scale(0.1 -0.1)">
      <use xlink:href="#DejaVuSans-70"/>
      <use x="57.410156" xlink:href="#DejaVuSans-114"/>
      <use x="98.492188" xlink:href="#DejaVuSans-101"/>
      <use x="160.015625" xlink:href="#DejaVuSans-113"/>
      <use x="223.492188" xlink:href="#DejaVuSans-117"/>
      <use x="286.871094" xlink:href="#DejaVuSans-101"/>
      <use x="348.394531" xlink:href="#DejaVuSans-110"/>
      <use x="411.773438" xlink:href="#DejaVuSans-99"/>
      <use x="466.753906" xlink:href="#DejaVuSans-121"/>
     </g>
    </g>
   </g>
   <g id="matplotlib.axis_2">
    <g id="ytick_1">
     <g id="line2d_15">
      <path clip-path="url(#pce249598c6)" d="M 44.783053 1046.64351 
L 787.918822 1046.64351 
" style="fill:none;stroke:#b0b0b0;stroke-linecap:square;stroke-width:0.8;"/>
     </g>
     <g id="line2d_16">
      <defs>
       <path d="M 0 0 
L -3.5 0 
" id="mf52979b44d" style="stroke:#000000;stroke-width:0.8;"/>
      </defs>
      <g>
       <use style="stroke:#000000;stroke-width:0.8;" x="44.783053" xlink:href="#mf52979b44d" y="1046.64351"/>
      </g>
     </g>
     <g id="text_9">
      <!-- −60 -->
      <defs>
       <path d="M 10.59375 35.5 
L 73.1875 35.5 
L 73.1875 27.203125 
L 10.59375 27.203125 
z
" id="DejaVuSans-8722"/>
      </defs>
      <g transform="translate(16.678365 1050.442729)scale(0.1 -0.1)">
       <use xlink:href="#DejaVuSans-8722"/>
       <use x="83.789062" xlink:href="#DejaVuSans-54"/>
       <use x="147.412109" xlink:href="#DejaVuSans-48"/>
      </g>
     </g>
    </g>
    <g id="ytick_2">
     <g id="line2d_17">
      <path clip-path="url(#pce249598c6)" d="M 44.783053 918.077867 
L 787.918822 918.077867 
" style="fill:none;stroke:#b0b0b0;stroke-linecap:square;stroke-width:0.8;"/>
     </g>
     <g id="line2d_18">
      <g>
       <use style="stroke:#000000;stroke-width:0.8;" x="44.783053" xlink:href="#mf52979b44d" y="918.077867"/>
      </g>
     </g>
     <g id="text_10">
      <!-- −50 -->
      <g transform="translate(16.678365 921.877086)scale(0.1 -0.1)">
       <use xlink:href="#DejaVuSans-8722"/>
       <use x="83.789062" xlink:href="#DejaVuSans-53"/>
       <use x="147.412109" xlink:href="#DejaVuSans-48"/>
      </g>
     </g>
    </g>
    <g id="ytick_3">
     <g id="line2d_19">
      <path clip-path="url(#pce249598c6)" d="M 44.783053 789.512224 
L 787.918822 789.512224 
" style="fill:none;stroke:#b0b0b0;stroke-linecap:square;stroke-width:0.8;"/>
     </g>
     <g id="line2d_20">
      <g>
       <use style="stroke:#000000;stroke-width:0.8;" x="44.783053" xlink:href="#mf52979b44d" y="789.512224"/>
      </g>
     </g>
     <g id="text_11">
      <!-- −40 -->
      <g transform="translate(16.678365 793.311442)scale(0.1 -0.1)">
       <use xlink:href="#DejaVuSans-8722"/>
       <use x="83.789062" xlink:href="#DejaVuSans-52"/>
       <use x="147.412109" xlink:href="#DejaVuSans-48"/>
      </g>
     </g>
    </g>
    <g id="ytick_4">
     <g id="line2d_21">
      <path clip-path="url(#pce249598c6)" d="M 44.783053 660.946581 
L 787.918822 660.946581 
" style="fill:none;stroke:#b0b0b0;stroke-linecap:square;stroke-width:0.8;"/>
     </g>
     <g id="line2d_22">
      <g>
       <use style="stroke:#000000;stroke-width:0.8;" x="44.783053" xlink:href="#mf52979b44d" y="660.946581"/>
      </g>
     </g>
     <g id="text_12">
      <!-- −30 -->
      <g transform="translate(16.678365 664.745799)scale(0.1 -0.1)">
       <use xlink:href="#DejaVuSans-8722"/>
       <use x="83.789062" xlink:href="#DejaVuSans-51"/>
       <use x="147.412109" xlink:href="#DejaVuSans-48"/>
      </g>
     </g>
    </g>
    <g id="ytick_5">
     <g id="line2d_23">
      <path clip-path="url(#pce249598c6)" d="M 44.783053 532.380937 
L 787.918822 532.380937 
" style="fill:none;stroke:#b0b0b0;stroke-linecap:square;stroke-width:0.8;"/>
     </g>
     <g id="line2d_24">
      <g>
       <use style="stroke:#000000;stroke-width:0.8;" x="44.783053" xlink:href="#mf52979b44d" y="532.380937"/>
      </g>
     </g>
     <g id="text_13">
      <!-- −20 -->
      <g transform="translate(16.678365 536.180156)scale(0.1 -0.1)">
       <use xlink:href="#DejaVuSans-8722"/>
       <use x="83.789062" xlink:href="#DejaVuSans-50"/>
       <use x="147.412109" xlink:href="#DejaVuSans-48"/>
      </g>
     </g>
    </g>
    <g id="ytick_6">
     <g id="line2d_25">
      <path clip-path="url(#pce249598c6)" d="M 44.783053 403.815294 
L 787.918822 403.815294 
" style="fill:none;stroke:#b0b0b0;stroke-linecap:square;stroke-width:0.8;"/>
     </g>
     <g id="line2d_26">
      <g>
       <use style="stroke:#000000;stroke-width:0.8;" x="44.783053" xlink:href="#mf52979b44d" y="403.815294"/>
      </g>
     </g>
     <g id="text_14">
      <!-- −10 -->
      <g transform="translate(16.678365 407.614513)scale(0.1 -0.1)">
       <use xlink:href="#DejaVuSans-8722"/>
       <use x="83.789062" xlink:href="#DejaVuSans-49"/>
       <use x="147.412109" xlink:href="#DejaVuSans-48"/>
      </g>
     </g>
    </g>
    <g id="ytick_7">
     <g id="line2d_27">
      <path clip-path="url(#pce249598c6)" d="M 44.783053 275.249651 
L 787.918822 275.249651 
" style="fill:none;stroke:#b0b0b0;stroke-linecap:square;stroke-width:0.8;"/>
     </g>
     <g id="line2d_28">
      <g>
       <use style="stroke:#000000;stroke-width:0.8;" x="44.783053" xlink:href="#mf52979b44d" y="275.249651"/>
      </g>
     </g>
     <g id="text_15">
      <!-- 0 -->
      <g transform="translate(31.420553 279.04887)scale(0.1 -0.1)">
       <use xlink:href="#DejaVuSans-48"/>
      </g>
     </g>
    </g>
    <g id="ytick_8">
     <g id="line2d_29">
      <path clip-path="url(#pce249598c6)" d="M 44.783053 146.684008 
L 787.918822 146.684008 
" style="fill:none;stroke:#b0b0b0;stroke-linecap:square;stroke-width:0.8;"/>
     </g>
     <g id="line2d_30">
      <g>
       <use style="stroke:#000000;stroke-width:0.8;" x="44.783053" xlink:href="#mf52979b44d" y="146.684008"/>
      </g>
     </g>
     <g id="text_16">
      <!-- 10 -->
      <g transform="translate(25.058053 150.483227)scale(0.1 -0.1)">
       <use xlink:href="#DejaVuSans-49"/>
       <use x="63.623047" xlink:href="#DejaVuSans-48"/>
      </g>
     </g>
    </g>
    <g id="ytick_9">
     <g id="line2d_31">
      <path clip-path="url(#pce249598c6)" d="M 44.783053 18.118365 
L 787.918822 18.118365 
" style="fill:none;stroke:#b0b0b0;stroke-linecap:square;stroke-width:0.8;"/>
     </g>
     <g id="line2d_32">
      <g>
       <use style="stroke:#000000;stroke-width:0.8;" x="44.783053" xlink:href="#mf52979b44d" y="18.118365"/>
      </g>
     </g>
     <g id="text_17">
      <!-- 20 -->
      <g transform="translate(25.058053 21.917584)scale(0.1 -0.1)">
       <use xlink:href="#DejaVuSans-50"/>
       <use x="63.623047" xlink:href="#DejaVuSans-48"/>
      </g>
     </g>
    </g>
    <g id="text_18">
     <!-- Power Spectral Density (dB/Hz) -->
     <defs>
      <path d="M 19.671875 64.796875 
L 19.671875 37.40625 
L 32.078125 37.40625 
Q 38.96875 37.40625 42.71875 40.96875 
Q 46.484375 44.53125 46.484375 51.125 
Q 46.484375 57.671875 42.71875 61.234375 
Q 38.96875 64.796875 32.078125 64.796875 
z
M 9.8125 72.90625 
L 32.078125 72.90625 
Q 44.34375 72.90625 50.609375 67.359375 
Q 56.890625 61.8125 56.890625 51.125 
Q 56.890625 40.328125 50.609375 34.8125 
Q 44.34375 29.296875 32.078125 29.296875 
L 19.671875 29.296875 
L 19.671875 0 
L 9.8125 0 
z
" id="DejaVuSans-80"/>
      <path d="M 30.609375 48.390625 
Q 23.390625 48.390625 19.1875 42.75 
Q 14.984375 37.109375 14.984375 27.296875 
Q 14.984375 17.484375 19.15625 11.84375 
Q 23.34375 6.203125 30.609375 6.203125 
Q 37.796875 6.203125 41.984375 11.859375 
Q 46.1875 17.53125 46.1875 27.296875 
Q 46.1875 37.015625 41.984375 42.703125 
Q 37.796875 48.390625 30.609375 48.390625 
z
M 30.609375 56 
Q 42.328125 56 49.015625 48.375 
Q 55.71875 40.765625 55.71875 27.296875 
Q 55.71875 13.875 49.015625 6.21875 
Q 42.328125 -1.421875 30.609375 -1.421875 
Q 18.84375 -1.421875 12.171875 6.21875 
Q 5.515625 13.875 5.515625 27.296875 
Q 5.515625 40.765625 12.171875 48.375 
Q 18.84375 56 30.609375 56 
z
" id="DejaVuSans-111"/>
      <path d="M 4.203125 54.6875 
L 13.1875 54.6875 
L 24.421875 12.015625 
L 35.59375 54.6875 
L 46.1875 54.6875 
L 57.421875 12.015625 
L 68.609375 54.6875 
L 77.59375 54.6875 
L 63.28125 0 
L 52.6875 0 
L 40.921875 44.828125 
L 29.109375 0 
L 18.5 0 
z
" id="DejaVuSans-119"/>
      <path id="DejaVuSans-32"/>
      <path d="M 53.515625 70.515625 
L 53.515625 60.890625 
Q 47.90625 63.578125 42.921875 64.890625 
Q 37.9375 66.21875 33.296875 66.21875 
Q 25.25 66.21875 20.875 63.09375 
Q 16.5 59.96875 16.5 54.203125 
Q 16.5 49.359375 19.40625 46.890625 
Q 22.3125 44.4375 30.421875 42.921875 
L 36.375 41.703125 
Q 47.40625 39.59375 52.65625 34.296875 
Q 57.90625 29 57.90625 20.125 
Q 57.90625 9.515625 50.796875 4.046875 
Q 43.703125 -1.421875 29.984375 -1.421875 
Q 24.8125 -1.421875 18.96875 -0.25 
Q 13.140625 0.921875 6.890625 3.21875 
L 6.890625 13.375 
Q 12.890625 10.015625 18.65625 8.296875 
Q 24.421875 6.59375 29.984375 6.59375 
Q 38.421875 6.59375 43.015625 9.90625 
Q 47.609375 13.234375 47.609375 19.390625 
Q 47.609375 24.75 44.3125 27.78125 
Q 41.015625 30.8125 33.5 32.328125 
L 27.484375 33.5 
Q 16.453125 35.6875 11.515625 40.375 
Q 6.59375 45.0625 6.59375 53.421875 
Q 6.59375 63.09375 13.40625 68.65625 
Q 20.21875 74.21875 32.171875 74.21875 
Q 37.3125 74.21875 42.625 73.28125 
Q 47.953125 72.359375 53.515625 70.515625 
z
" id="DejaVuSans-83"/>
      <path d="M 18.109375 8.203125 
L 18.109375 -20.796875 
L 9.078125 -20.796875 
L 9.078125 54.6875 
L 18.109375 54.6875 
L 18.109375 46.390625 
Q 20.953125 51.265625 25.265625 53.625 
Q 29.59375 56 35.59375 56 
Q 45.5625 56 51.78125 48.09375 
Q 58.015625 40.1875 58.015625 27.296875 
Q 58.015625 14.40625 51.78125 6.484375 
Q 45.5625 -1.421875 35.59375 -1.421875 
Q 29.59375 -1.421875 25.265625 0.953125 
Q 20.953125 3.328125 18.109375 8.203125 
z
M 48.6875 27.296875 
Q 48.6875 37.203125 44.609375 42.84375 
Q 40.53125 48.484375 33.40625 48.484375 
Q 26.265625 48.484375 22.1875 42.84375 
Q 18.109375 37.203125 18.109375 27.296875 
Q 18.109375 17.390625 22.1875 11.75 
Q 26.265625 6.109375 33.40625 6.109375 
Q 40.53125 6.109375 44.609375 11.75 
Q 48.6875 17.390625 48.6875 27.296875 
z
" id="DejaVuSans-112"/>
      <path d="M 18.3125 70.21875 
L 18.3125 54.6875 
L 36.8125 54.6875 
L 36.8125 47.703125 
L 18.3125 47.703125 
L 18.3125 18.015625 
Q 18.3125 11.328125 20.140625 9.421875 
Q 21.96875 7.515625 27.59375 7.515625 
L 36.8125 7.515625 
L 36.8125 0 
L 27.59375 0 
Q 17.1875 0 13.234375 3.875 
Q 9.28125 7.765625 9.28125 18.015625 
L 9.28125 47.703125 
L 2.6875 47.703125 
L 2.6875 54.6875 
L 9.28125 54.6875 
L 9.28125 70.21875 
z
" id="DejaVuSans-116"/>
      <path d="M 34.28125 27.484375 
Q 23.390625 27.484375 19.1875 25 
Q 14.984375 22.515625 14.984375 16.5 
Q 14.984375 11.71875 18.140625 8.90625 
Q 21.296875 6.109375 26.703125 6.109375 
Q 34.1875 6.109375 38.703125 11.40625 
Q 43.21875 16.703125 43.21875 25.484375 
L 43.21875 27.484375 
z
M 52.203125 31.203125 
L 52.203125 0 
L 43.21875 0 
L 43.21875 8.296875 
Q 40.140625 3.328125 35.546875 0.953125 
Q 30.953125 -1.421875 24.3125 -1.421875 
Q 15.921875 -1.421875 10.953125 3.296875 
Q 6 8.015625 6 15.921875 
Q 6 25.140625 12.171875 29.828125 
Q 18.359375 34.515625 30.609375 34.515625 
L 43.21875 34.515625 
L 43.21875 35.40625 
Q 43.21875 41.609375 39.140625 45 
Q 35.0625 48.390625 27.6875 48.390625 
Q 23 48.390625 18.546875 47.265625 
Q 14.109375 46.140625 10.015625 43.890625 
L 10.015625 52.203125 
Q 14.9375 54.109375 19.578125 55.046875 
Q 24.21875 56 28.609375 56 
Q 40.484375 56 46.34375 49.84375 
Q 52.203125 43.703125 52.203125 31.203125 
z
" id="DejaVuSans-97"/>
      <path d="M 9.421875 75.984375 
L 18.40625 75.984375 
L 18.40625 0 
L 9.421875 0 
z
" id="DejaVuSans-108"/>
      <path d="M 19.671875 64.796875 
L 19.671875 8.109375 
L 31.59375 8.109375 
Q 46.6875 8.109375 53.6875 14.9375 
Q 60.6875 21.78125 60.6875 36.53125 
Q 60.6875 51.171875 53.6875 57.984375 
Q 46.6875 64.796875 31.59375 64.796875 
z
M 9.8125 72.90625 
L 30.078125 72.90625 
Q 51.265625 72.90625 61.171875 64.09375 
Q 71.09375 55.28125 71.09375 36.53125 
Q 71.09375 17.671875 61.125 8.828125 
Q 51.171875 0 30.078125 0 
L 9.8125 0 
z
" id="DejaVuSans-68"/>
      <path d="M 44.28125 53.078125 
L 44.28125 44.578125 
Q 40.484375 46.53125 36.375 47.5 
Q 32.28125 48.484375 27.875 48.484375 
Q 21.1875 48.484375 17.84375 46.4375 
Q 14.5 44.390625 14.5 40.28125 
Q 14.5 37.15625 16.890625 35.375 
Q 19.28125 33.59375 26.515625 31.984375 
L 29.59375 31.296875 
Q 39.15625 29.25 43.1875 25.515625 
Q 47.21875 21.78125 47.21875 15.09375 
Q 47.21875 7.46875 41.1875 3.015625 
Q 35.15625 -1.421875 24.609375 -1.421875 
Q 20.21875 -1.421875 15.453125 -0.5625 
Q 10.6875 0.296875 5.421875 2 
L 5.421875 11.28125 
Q 10.40625 8.6875 15.234375 7.390625 
Q 20.0625 6.109375 24.8125 6.109375 
Q 31.15625 6.109375 34.5625 8.28125 
Q 37.984375 10.453125 37.984375 14.40625 
Q 37.984375 18.0625 35.515625 20.015625 
Q 33.0625 21.96875 24.703125 23.78125 
L 21.578125 24.515625 
Q 13.234375 26.265625 9.515625 29.90625 
Q 5.8125 33.546875 5.8125 39.890625 
Q 5.8125 47.609375 11.28125 51.796875 
Q 16.75 56 26.8125 56 
Q 31.78125 56 36.171875 55.265625 
Q 40.578125 54.546875 44.28125 53.078125 
z
" id="DejaVuSans-115"/>
      <path d="M 9.421875 54.6875 
L 18.40625 54.6875 
L 18.40625 0 
L 9.421875 0 
z
M 9.421875 75.984375 
L 18.40625 75.984375 
L 18.40625 64.59375 
L 9.421875 64.59375 
z
" id="DejaVuSans-105"/>
      <path d="M 31 75.875 
Q 24.46875 64.65625 21.28125 53.65625 
Q 18.109375 42.671875 18.109375 31.390625 
Q 18.109375 20.125 21.3125 9.0625 
Q 24.515625 -2 31 -13.1875 
L 23.1875 -13.1875 
Q 15.875 -1.703125 12.234375 9.375 
Q 8.59375 20.453125 8.59375 31.390625 
Q 8.59375 42.28125 12.203125 53.3125 
Q 15.828125 64.359375 23.1875 75.875 
z
" id="DejaVuSans-40"/>
      <path d="M 45.40625 46.390625 
L 45.40625 75.984375 
L 54.390625 75.984375 
L 54.390625 0 
L 45.40625 0 
L 45.40625 8.203125 
Q 42.578125 3.328125 38.25 0.953125 
Q 33.9375 -1.421875 27.875 -1.421875 
Q 17.96875 -1.421875 11.734375 6.484375 
Q 5.515625 14.40625 5.515625 27.296875 
Q 5.515625 40.1875 11.734375 48.09375 
Q 17.96875 56 27.875 56 
Q 33.9375 56 38.25 53.625 
Q 42.578125 51.265625 45.40625 46.390625 
z
M 14.796875 27.296875 
Q 14.796875 17.390625 18.875 11.75 
Q 22.953125 6.109375 30.078125 6.109375 
Q 37.203125 6.109375 41.296875 11.75 
Q 45.40625 17.390625 45.40625 27.296875 
Q 45.40625 37.203125 41.296875 42.84375 
Q 37.203125 48.484375 30.078125 48.484375 
Q 22.953125 48.484375 18.875 42.84375 
Q 14.796875 37.203125 14.796875 27.296875 
z
" id="DejaVuSans-100"/>
      <path d="M 19.671875 34.8125 
L 19.671875 8.109375 
L 35.5 8.109375 
Q 43.453125 8.109375 47.28125 11.40625 
Q 51.125 14.703125 51.125 21.484375 
Q 51.125 28.328125 47.28125 31.5625 
Q 43.453125 34.8125 35.5 34.8125 
z
M 19.671875 64.796875 
L 19.671875 42.828125 
L 34.28125 42.828125 
Q 41.5 42.828125 45.03125 45.53125 
Q 48.578125 48.25 48.578125 53.8125 
Q 48.578125 59.328125 45.03125 62.0625 
Q 41.5 64.796875 34.28125 64.796875 
z
M 9.8125 72.90625 
L 35.015625 72.90625 
Q 46.296875 72.90625 52.390625 68.21875 
Q 58.5 63.53125 58.5 54.890625 
Q 58.5 48.1875 55.375 44.234375 
Q 52.25 40.28125 46.1875 39.3125 
Q 53.46875 37.75 57.5 32.78125 
Q 61.53125 27.828125 61.53125 20.40625 
Q 61.53125 10.640625 54.890625 5.3125 
Q 48.25 0 35.984375 0 
L 9.8125 0 
z
" id="DejaVuSans-66"/>
      <path d="M 25.390625 72.90625 
L 33.6875 72.90625 
L 8.296875 -9.28125 
L 0 -9.28125 
z
" id="DejaVuSans-47"/>
      <path d="M 9.8125 72.90625 
L 19.671875 72.90625 
L 19.671875 43.015625 
L 55.515625 43.015625 
L 55.515625 72.90625 
L 65.375 72.90625 
L 65.375 0 
L 55.515625 0 
L 55.515625 34.71875 
L 19.671875 34.71875 
L 19.671875 0 
L 9.8125 0 
z
" id="DejaVuSans-72"/>
      <path d="M 5.515625 54.6875 
L 48.1875 54.6875 
L 48.1875 46.484375 
L 14.40625 7.171875 
L 48.1875 7.171875 
L 48.1875 0 
L 4.296875 0 
L 4.296875 8.203125 
L 38.09375 47.515625 
L 5.515625 47.515625 
z
" id="DejaVuSans-122"/>
      <path d="M 8.015625 75.875 
L 15.828125 75.875 
Q 23.140625 64.359375 26.78125 53.3125 
Q 30.421875 42.28125 30.421875 31.390625 
Q 30.421875 20.453125 26.78125 9.375 
Q 23.140625 -1.703125 15.828125 -13.1875 
L 8.015625 -13.1875 
Q 14.5 -2 17.703125 9.0625 
Q 20.90625 20.125 20.90625 31.390625 
Q 20.90625 42.671875 17.703125 53.65625 
Q 14.5 64.65625 8.015625 75.875 
z
" id="DejaVuSans-41"/>
     </defs>
     <g transform="translate(10.598678 610.667656)rotate(-90)scale(0.1 -0.1)">
      <use xlink:href="#DejaVuSans-80"/>
      <use x="60.255859" xlink:href="#DejaVuSans-111"/>
      <use x="121.4375" xlink:href="#DejaVuSans-119"/>
      <use x="203.224609" xlink:href="#DejaVuSans-101"/>
      <use x="264.748047" xlink:href="#DejaVuSans-114"/>
      <use x="305.861328" xlink:href="#DejaVuSans-32"/>
      <use x="337.648438" xlink:href="#DejaVuSans-83"/>
      <use x="401.125" xlink:href="#DejaVuSans-112"/>
      <use x="464.601562" xlink:href="#DejaVuSans-101"/>
      <use x="526.125" xlink:href="#DejaVuSans-99"/>
      <use x="581.105469" xlink:href="#DejaVuSans-116"/>
      <use x="620.314453" xlink:href="#DejaVuSans-114"/>
      <use x="661.427734" xlink:href="#DejaVuSans-97"/>
      <use x="722.707031" xlink:href="#DejaVuSans-108"/>
      <use x="750.490234" xlink:href="#DejaVuSans-32"/>
      <use x="782.277344" xlink:href="#DejaVuSans-68"/>
      <use x="859.279297" xlink:href="#DejaVuSans-101"/>
      <use x="920.802734" xlink:href="#DejaVuSans-110"/>
      <use x="984.181641" xlink:href="#DejaVuSans-115"/>
      <use x="1036.28125" xlink:href="#DejaVuSans-105"/>
      <use x="1064.064453" xlink:href="#DejaVuSans-116"/>
      <use x="1103.273438" xlink:href="#DejaVuSans-121"/>
      <use x="1162.453125" xlink:href="#DejaVuSans-32"/>
      <use x="1194.240234" xlink:href="#DejaVuSans-40"/>
      <use x="1233.253906" xlink:href="#DejaVuSans-100"/>
      <use x="1296.730469" xlink:href="#DejaVuSans-66"/>
      <use x="1365.333984" xlink:href="#DejaVuSans-47"/>
      <use x="1399.025391" xlink:href="#DejaVuSans-72"/>
      <use x="1474.220703" xlink:href="#DejaVuSans-122"/>
      <use x="1526.710938" xlink:href="#DejaVuSans-41"/>
     </g>
    </g>
   </g>
   <g id="line2d_33">
    <path clip-path="url(#pce249598c6)" d="M 78.561951 833.375627 
L 79.881439 796.020911 
L 81.200928 799.858899 
L 82.520416 805.532698 
L 83.839904 811.862437 
L 85.159392 817.223604 
L 86.478881 820.046066 
L 87.798369 819.624666 
L 89.117857 816.460978 
L 90.437345 811.682443 
L 93.076322 800.314398 
L 94.39581 793.816131 
L 95.715298 786.346882 
L 97.034786 777.793551 
L 100.993251 750.075508 
L 102.312739 742.147382 
L 103.632227 735.463655 
L 104.951716 730.045527 
L 106.271204 725.790387 
L 107.590692 722.575563 
L 108.91018 720.340663 
L 110.229669 719.117432 
L 111.549157 718.991872 
L 112.868645 720.006613 
L 114.188133 722.024746 
L 115.507622 724.581692 
L 116.82711 726.783709 
L 118.146598 727.396223 
L 119.466086 725.292585 
L 120.785574 720.126984 
L 122.105063 712.627364 
L 124.744039 696.152967 
L 126.063527 689.561123 
L 127.383016 684.96396 
L 128.702504 682.526043 
L 130.021992 682.028593 
L 131.34148 682.823825 
L 132.660968 683.781499 
L 133.980457 683.395354 
L 135.299945 680.262256 
L 136.619433 673.81612 
L 137.938921 664.660662 
L 140.577898 643.592981 
L 141.897386 634.104721 
L 143.216874 626.368063 
L 144.536363 620.841548 
L 145.855851 617.835745 
L 147.175339 617.576091 
L 148.494827 620.236516 
L 149.814315 625.95452 
L 151.133804 634.834134 
L 152.453292 646.937758 
L 153.77278 662.26238 
L 155.092268 680.688801 
L 156.411757 701.884202 
L 160.370221 771.877777 
L 161.689709 791.081388 
L 163.009198 805.241186 
L 164.328686 814.312253 
L 165.648174 819.075769 
L 166.967662 820.122119 
L 168.287151 817.693081 
L 169.606639 812.211687 
L 170.926127 804.635014 
L 173.565104 788.260038 
L 174.884592 781.528895 
L 176.20408 776.563415 
L 177.523568 773.57423 
L 178.843056 772.550056 
L 180.162545 773.3118 
L 181.482033 775.552803 
L 182.801521 778.878436 
L 188.079474 794.884557 
L 189.398962 798.120053 
L 190.718451 800.845291 
L 192.037939 803.146434 
L 195.996403 809.095963 
L 197.315892 811.02654 
L 198.63538 812.628055 
L 199.954868 813.325273 
L 201.274356 812.296048 
L 202.593845 808.629995 
L 203.913333 801.635202 
L 205.232821 791.192386 
L 206.552309 777.910744 
L 210.510774 732.780317 
L 211.830262 719.48413 
L 213.14975 708.127089 
L 214.469239 698.98362 
L 215.788727 692.187519 
L 217.108215 687.795587 
L 218.427703 685.832819 
L 219.747192 686.318357 
L 221.06668 689.27194 
L 222.386168 694.700669 
L 223.705656 702.565843 
L 225.025144 712.729255 
L 226.344633 724.880073 
L 231.622586 778.38832 
L 232.942074 788.576917 
L 234.261562 796.976368 
L 236.900538 810.808964 
L 239.539515 823.066291 
L 240.859003 828.340683 
L 242.178491 832.639331 
L 243.49798 835.846235 
L 244.817468 838.117587 
L 246.136956 839.80162 
L 251.414909 845.752559 
L 252.734397 846.829164 
L 254.053885 847.278551 
L 255.373374 846.970807 
L 256.692862 845.947977 
L 258.01235 844.378376 
L 259.331838 842.459654 
L 261.970815 838.065715 
L 264.609791 833.0858 
L 268.568256 824.860803 
L 269.887744 822.031347 
L 271.207232 818.917203 
L 272.526721 815.028134 
L 273.846209 809.64531 
L 275.165697 802.054303 
L 276.485185 791.949863 
L 277.804674 779.730639 
L 280.44365 753.141705 
L 281.763138 741.016144 
L 283.082626 730.770345 
L 284.402115 722.874029 
L 285.721603 717.578833 
L 287.041091 714.979775 
L 288.360579 715.058749 
L 289.680068 717.71188 
L 290.999556 722.766859 
L 292.319044 729.996166 
L 293.638532 739.130212 
L 294.958021 749.871635 
L 297.596997 774.920836 
L 302.87495 829.467393 
L 304.194438 841.458991 
L 305.513926 851.752138 
L 306.833415 859.956917 
L 308.152903 865.948482 
L 309.472391 869.92971 
L 310.791879 872.3801 
L 312.111367 873.919444 
L 313.430856 875.162485 
L 314.750344 876.620196 
L 316.069832 878.65566 
L 317.38932 881.474841 
L 318.708809 885.130647 
L 320.028297 889.528256 
L 323.986762 904.19484 
L 325.30625 908.115076 
L 326.625738 910.816216 
L 327.945226 912.029809 
L 329.264714 911.666027 
L 330.584203 909.781724 
L 331.903691 906.519355 
L 333.223179 902.062924 
L 334.542667 896.629818 
L 337.181644 883.920316 
L 339.82062 870.769145 
L 342.459597 858.73043 
L 345.098573 846.680445 
L 346.418061 839.39641 
L 347.73755 830.478469 
L 349.057038 819.64588 
L 350.376526 807.085153 
L 355.654479 752.837521 
L 356.973967 741.481009 
L 358.293455 731.865886 
L 359.612944 724.248881 
L 360.932432 718.828311 
L 362.25192 715.753397 
L 363.571408 715.123281 
L 364.890897 716.977032 
L 366.210385 721.273179 
L 367.529873 727.854367 
L 368.849361 736.391417 
L 372.807826 766.364694 
L 374.127314 774.013301 
L 375.446802 778.764671 
L 376.766291 780.571661 
L 378.085779 780.183452 
L 380.724755 777.075429 
L 382.044244 776.048128 
L 383.363732 776.03027 
L 384.68322 777.230292 
L 386.002708 779.701788 
L 387.322196 783.383847 
L 388.641685 788.125553 
L 389.961173 793.702014 
L 395.239126 818.113748 
L 396.558614 823.078071 
L 397.878102 827.094855 
L 399.197591 830.129929 
L 400.517079 832.299666 
L 401.836567 833.833574 
L 405.795032 837.317384 
L 407.11452 838.801533 
L 408.434008 840.619378 
L 409.753496 842.766033 
L 412.392473 847.730442 
L 415.031449 852.698333 
L 416.350937 854.835299 
L 417.670426 856.612195 
L 418.989914 857.983903 
L 420.309402 858.934225 
L 421.62889 859.460465 
L 422.948379 859.567821 
L 424.267867 859.277997 
L 425.587355 858.644533 
L 428.226332 856.752079 
L 430.865308 854.860595 
L 432.184796 854.145306 
L 434.823773 853.169691 
L 436.143261 852.741558 
L 437.462749 852.188543 
L 438.782237 851.388544 
L 440.101726 850.255337 
L 441.421214 848.759827 
L 442.740702 846.93801 
L 448.018655 838.812593 
L 449.338143 837.348346 
L 450.657631 836.387696 
L 451.97712 836.009207 
L 453.296608 836.239569 
L 454.616096 837.04954 
L 455.935584 838.356827 
L 457.255073 840.036433 
L 462.533025 847.455462 
L 463.852514 848.822958 
L 465.172002 849.809824 
L 466.49149 850.358721 
L 467.810978 850.426013 
L 469.130467 849.982574 
L 470.449955 849.019607 
L 471.769443 847.55672 
L 473.088931 845.647424 
L 474.40842 843.377441 
L 477.047396 838.189607 
L 481.005861 830.190351 
L 483.644837 825.20163 
L 486.283814 820.622425 
L 487.603302 818.642877 
L 488.92279 817.044906 
L 490.242278 816.001307 
L 491.561766 815.690462 
L 492.881255 816.271227 
L 494.200743 817.862826 
L 495.520231 820.531668 
L 496.839719 824.284147 
L 498.159208 829.063365 
L 499.478696 834.748267 
L 502.117672 848.041599 
L 504.756649 862.070339 
L 506.076137 868.576031 
L 507.395625 874.34619 
L 508.715113 879.148048 
L 510.034602 882.826011 
L 511.35409 885.310777 
L 512.673578 886.61902 
L 513.993066 886.845883 
L 515.312555 886.151305 
L 516.632043 884.740595 
L 517.951531 882.840677 
L 523.229484 874.316901 
L 524.548972 872.565599 
L 527.187949 869.647894 
L 532.465902 864.442602 
L 533.78539 862.894393 
L 535.104878 861.140599 
L 536.424366 859.156751 
L 539.063343 854.599666 
L 541.702319 849.831802 
L 543.021807 847.638992 
L 544.341296 845.671855 
L 545.660784 843.947425 
L 546.980272 842.44451 
L 549.619249 839.958551 
L 550.938737 838.935275 
L 552.258225 838.068406 
L 553.577713 837.382801 
L 554.897201 836.903247 
L 556.21669 836.650361 
L 557.536178 836.647101 
L 558.855666 836.930435 
L 560.175154 837.557961 
L 561.494643 838.601113 
L 562.814131 840.123989 
L 564.133619 842.154999 
L 565.453107 844.663176 
L 568.092084 850.669187 
L 572.050548 860.02015 
L 576.009013 868.98483 
L 578.64799 875.512311 
L 581.286966 882.149465 
L 582.606454 885.148636 
L 583.925942 887.727963 
L 585.245431 889.788962 
L 586.564919 891.309861 
L 587.884407 892.347165 
L 589.203895 893.014005 
L 590.523384 893.443962 
L 594.481848 894.260662 
L 597.120825 894.557931 
L 598.440313 894.505926 
L 599.759801 894.25572 
L 601.079289 893.784471 
L 602.398778 893.095344 
L 603.718266 892.215385 
L 606.357242 890.079239 
L 608.996219 887.849235 
L 611.635195 885.953191 
L 614.274172 884.551537 
L 616.913148 883.392714 
L 618.232636 882.69437 
L 619.552125 881.758972 
L 620.871613 880.475053 
L 622.191101 878.778543 
L 623.510589 876.685047 
L 628.788542 867.374894 
L 630.10803 865.823668 
L 631.427519 864.894724 
L 632.747007 864.641236 
L 634.066495 865.049016 
L 635.385983 866.038576 
L 636.705472 867.469987 
L 640.663936 872.372506 
L 641.983424 873.48346 
L 643.302913 874.063726 
L 644.622401 874.070584 
L 645.941889 873.554341 
L 647.261377 872.64187 
L 651.219842 869.311421 
L 652.53933 868.558844 
L 653.858819 868.160313 
L 655.178307 868.127519 
L 656.497795 868.402974 
L 660.45626 869.777288 
L 661.775748 869.960437 
L 663.095236 869.884865 
L 664.414724 869.572888 
L 667.053701 868.483046 
L 669.692677 867.01288 
L 671.012166 866.086035 
L 672.331654 864.963841 
L 673.651142 863.620425 
L 676.290118 860.436887 
L 677.609607 858.824521 
L 678.929095 857.411059 
L 680.248583 856.356564 
L 681.568071 855.784624 
L 682.88756 855.759836 
L 684.207048 856.276561 
L 685.526536 857.26036 
L 686.846024 858.58236 
L 690.804489 863.043136 
L 692.123977 864.301981 
L 693.443465 865.36428 
L 694.762954 866.23958 
L 696.082442 866.951799 
L 697.40193 867.522911 
L 698.721418 867.965918 
L 700.040907 868.28688 
L 702.679883 868.591878 
L 705.318859 868.561066 
L 709.277324 868.352689 
L 710.596812 868.389287 
L 711.916301 868.573728 
L 713.235789 868.978504 
L 714.555277 869.673232 
L 715.874765 870.710848 
L 717.194253 872.116788 
L 718.513742 873.884584 
L 719.83323 875.978093 
L 722.472206 880.887984 
L 726.430671 888.744068 
L 727.750159 891.072881 
L 729.069648 893.078391 
L 730.389136 894.691566 
L 731.708624 895.904739 
L 733.028112 896.789878 
L 735.667089 898.230336 
L 736.986577 899.208262 
L 738.306065 900.621904 
L 739.625553 902.60082 
L 740.945042 905.192344 
L 742.26453 908.354781 
L 744.903506 915.827105 
L 747.542483 923.391646 
L 748.861971 926.641093 
L 750.181459 929.297815 
L 751.500947 931.251331 
L 752.820436 932.440736 
L 754.139924 932.83949 
L 754.139924 932.83949 
" style="fill:none;stroke:#1f77b4;stroke-linecap:square;stroke-width:1.5;"/>
   </g>
   <g id="patch_3">
    <path d="M 44.783053 1046.64351 
L 44.783053 18.118365 
" style="fill:none;stroke:#000000;stroke-linecap:square;stroke-linejoin:miter;stroke-width:0.8;"/>
   </g>
   <g id="patch_4">
    <path d="M 787.918822 1046.64351 
L 787.918822 18.118365 
" style="fill:none;stroke:#000000;stroke-linecap:square;stroke-linejoin:miter;stroke-width:0.8;"/>
   </g>
   <g id="patch_5">
    <path d="M 44.783053 1046.64351 
L 787.918823 1046.64351 
" style="fill:none;stroke:#000000;stroke-linecap:square;stroke-linejoin:miter;stroke-width:0.8;"/>
   </g>
   <g id="patch_6">
    <path d="M 44.783053 18.118365 
L 787.918823 18.118365 
" style="fill:none;stroke:#000000;stroke-linecap:square;stroke-linejoin:miter;stroke-width:0.8;"/>
   </g>
   <g id="text_19">
    <!-- Periodogram -->
    <defs>
     <path d="M 45.40625 27.984375 
Q 45.40625 37.75 41.375 43.109375 
Q 37.359375 48.484375 30.078125 48.484375 
Q 22.859375 48.484375 18.828125 43.109375 
Q 14.796875 37.75 14.796875 27.984375 
Q 14.796875 18.265625 18.828125 12.890625 
Q 22.859375 7.515625 30.078125 7.515625 
Q 37.359375 7.515625 41.375 12.890625 
Q 45.40625 18.265625 45.40625 27.984375 
z
M 54.390625 6.78125 
Q 54.390625 -7.171875 48.1875 -13.984375 
Q 42 -20.796875 29.203125 -20.796875 
Q 24.46875 -20.796875 20.265625 -20.09375 
Q 16.0625 -19.390625 12.109375 -17.921875 
L 12.109375 -9.1875 
Q 16.0625 -11.328125 19.921875 -12.34375 
Q 23.78125 -13.375 27.78125 -13.375 
Q 36.625 -13.375 41.015625 -8.765625 
Q 45.40625 -4.15625 45.40625 5.171875 
L 45.40625 9.625 
Q 42.625 4.78125 38.28125 2.390625 
Q 33.9375 0 27.875 0 
Q 17.828125 0 11.671875 7.65625 
Q 5.515625 15.328125 5.515625 27.984375 
Q 5.515625 40.671875 11.671875 48.328125 
Q 17.828125 56 27.875 56 
Q 33.9375 56 38.28125 53.609375 
Q 42.625 51.21875 45.40625 46.390625 
L 45.40625 54.6875 
L 54.390625 54.6875 
z
" id="DejaVuSans-103"/>
     <path d="M 52 44.1875 
Q 55.375 50.25 60.0625 53.125 
Q 64.75 56 71.09375 56 
Q 79.640625 56 84.28125 50.015625 
Q 88.921875 44.046875 88.921875 33.015625 
L 88.921875 0 
L 79.890625 0 
L 79.890625 32.71875 
Q 79.890625 40.578125 77.09375 44.375 
Q 74.3125 48.1875 68.609375 48.1875 
Q 61.625 48.1875 57.5625 43.546875 
Q 53.515625 38.921875 53.515625 30.90625 
L 53.515625 0 
L 44.484375 0 
L 44.484375 32.71875 
Q 44.484375 40.625 41.703125 44.40625 
Q 38.921875 48.1875 33.109375 48.1875 
Q 26.21875 48.1875 22.15625 43.53125 
Q 18.109375 38.875 18.109375 30.90625 
L 18.109375 0 
L 9.078125 0 
L 9.078125 54.6875 
L 18.109375 54.6875 
L 18.109375 46.1875 
Q 21.1875 51.21875 25.484375 53.609375 
Q 29.78125 56 35.6875 56 
Q 41.65625 56 45.828125 52.96875 
Q 50 49.953125 52 44.1875 
z
" id="DejaVuSans-109"/>
    </defs>
    <g transform="translate(377.962187 12.118365)scale(0.12 -0.12)">
     <use xlink:href="#DejaVuSans-80"/>
     <use x="60.255859" xlink:href="#DejaVuSans-101"/>
     <use x="121.779297" xlink:href="#DejaVuSans-114"/>
     <use x="162.892578" xlink:href="#DejaVuSans-105"/>
     <use x="190.675781" xlink:href="#DejaVuSans-111"/>
     <use x="251.857422" xlink:href="#DejaVuSans-100"/>
     <use x="315.333984" xlink:href="#DejaVuSans-111"/>
     <use x="376.515625" xlink:href="#DejaVuSans-103"/>
     <use x="439.992188" xlink:href="#DejaVuSans-114"/>
     <use x="481.105469" xlink:href="#DejaVuSans-97"/>
     <use x="542.384766" xlink:href="#DejaVuSans-109"/>
    </g>
   </g>
  </g>
  <g id="axes_2">
   <g id="patch_7">
    <path d="M 837.86399 1046.64351 
L 1580.99976 1046.64351 
L 1580.99976 18.118365 
L 837.86399 18.118365 
z
" style="fill:#ffffff;"/>
   </g>
   <g id="matplotlib.axis_3">
    <g id="xtick_8">
     <g id="line2d_34">
      <path clip-path="url(#p26a38c6dfd)" d="M 871.642889 1046.64351 
L 871.642889 18.118365 
" style="fill:none;stroke:#b0b0b0;stroke-linecap:square;stroke-width:0.8;"/>
     </g>
     <g id="line2d_35">
      <g>
       <use style="stroke:#000000;stroke-width:0.8;" x="871.642889" xlink:href="#ma2da8cdc77" y="1046.64351"/>
      </g>
     </g>
     <g id="text_20">
      <!-- 0 -->
      <g transform="translate(868.461639 1061.241947)scale(0.1 -0.1)">
       <use xlink:href="#DejaVuSans-48"/>
      </g>
     </g>
    </g>
    <g id="xtick_9">
     <g id="line2d_36">
      <path clip-path="url(#p26a38c6dfd)" d="M 977.201947 1046.64351 
L 977.201947 18.118365 
" style="fill:none;stroke:#b0b0b0;stroke-linecap:square;stroke-width:0.8;"/>
     </g>
     <g id="line2d_37">
      <g>
       <use style="stroke:#000000;stroke-width:0.8;" x="977.201947" xlink:href="#ma2da8cdc77" y="1046.64351"/>
      </g>
     </g>
     <g id="text_21">
      <!-- 1000 -->
      <g transform="translate(964.476947 1061.241947)scale(0.1 -0.1)">
       <use xlink:href="#DejaVuSans-49"/>
       <use x="63.623047" xlink:href="#DejaVuSans-48"/>
       <use x="127.246094" xlink:href="#DejaVuSans-48"/>
       <use x="190.869141" xlink:href="#DejaVuSans-48"/>
      </g>
     </g>
    </g>
    <g id="xtick_10">
     <g id="line2d_38">
      <path clip-path="url(#p26a38c6dfd)" d="M 1082.761005 1046.64351 
L 1082.761005 18.118365 
" style="fill:none;stroke:#b0b0b0;stroke-linecap:square;stroke-width:0.8;"/>
     </g>
     <g id="line2d_39">
      <g>
       <use style="stroke:#000000;stroke-width:0.8;" x="1082.761005" xlink:href="#ma2da8cdc77" y="1046.64351"/>
      </g>
     </g>
     <g id="text_22">
      <!-- 2000 -->
      <g transform="translate(1070.036005 1061.241947)scale(0.1 -0.1)">
       <use xlink:href="#DejaVuSans-50"/>
       <use x="63.623047" xlink:href="#DejaVuSans-48"/>
       <use x="127.246094" xlink:href="#DejaVuSans-48"/>
       <use x="190.869141" xlink:href="#DejaVuSans-48"/>
      </g>
     </g>
    </g>
    <g id="xtick_11">
     <g id="line2d_40">
      <path clip-path="url(#p26a38c6dfd)" d="M 1188.320063 1046.64351 
L 1188.320063 18.118365 
" style="fill:none;stroke:#b0b0b0;stroke-linecap:square;stroke-width:0.8;"/>
     </g>
     <g id="line2d_41">
      <g>
       <use style="stroke:#000000;stroke-width:0.8;" x="1188.320063" xlink:href="#ma2da8cdc77" y="1046.64351"/>
      </g>
     </g>
     <g id="text_23">
      <!-- 3000 -->
      <g transform="translate(1175.595063 1061.241947)scale(0.1 -0.1)">
       <use xlink:href="#DejaVuSans-51"/>
       <use x="63.623047" xlink:href="#DejaVuSans-48"/>
       <use x="127.246094" xlink:href="#DejaVuSans-48"/>
       <use x="190.869141" xlink:href="#DejaVuSans-48"/>
      </g>
     </g>
    </g>
    <g id="xtick_12">
     <g id="line2d_42">
      <path clip-path="url(#p26a38c6dfd)" d="M 1293.879122 1046.64351 
L 1293.879122 18.118365 
" style="fill:none;stroke:#b0b0b0;stroke-linecap:square;stroke-width:0.8;"/>
     </g>
     <g id="line2d_43">
      <g>
       <use style="stroke:#000000;stroke-width:0.8;" x="1293.879122" xlink:href="#ma2da8cdc77" y="1046.64351"/>
      </g>
     </g>
     <g id="text_24">
      <!-- 4000 -->
      <g transform="translate(1281.154122 1061.241947)scale(0.1 -0.1)">
       <use xlink:href="#DejaVuSans-52"/>
       <use x="63.623047" xlink:href="#DejaVuSans-48"/>
       <use x="127.246094" xlink:href="#DejaVuSans-48"/>
       <use x="190.869141" xlink:href="#DejaVuSans-48"/>
      </g>
     </g>
    </g>
    <g id="xtick_13">
     <g id="line2d_44">
      <path clip-path="url(#p26a38c6dfd)" d="M 1399.43818 1046.64351 
L 1399.43818 18.118365 
" style="fill:none;stroke:#b0b0b0;stroke-linecap:square;stroke-width:0.8;"/>
     </g>
     <g id="line2d_45">
      <g>
       <use style="stroke:#000000;stroke-width:0.8;" x="1399.43818" xlink:href="#ma2da8cdc77" y="1046.64351"/>
      </g>
     </g>
     <g id="text_25">
      <!-- 5000 -->
      <g transform="translate(1386.71318 1061.241947)scale(0.1 -0.1)">
       <use xlink:href="#DejaVuSans-53"/>
       <use x="63.623047" xlink:href="#DejaVuSans-48"/>
       <use x="127.246094" xlink:href="#DejaVuSans-48"/>
       <use x="190.869141" xlink:href="#DejaVuSans-48"/>
      </g>
     </g>
    </g>
    <g id="xtick_14">
     <g id="line2d_46">
      <path clip-path="url(#p26a38c6dfd)" d="M 1504.997238 1046.64351 
L 1504.997238 18.118365 
" style="fill:none;stroke:#b0b0b0;stroke-linecap:square;stroke-width:0.8;"/>
     </g>
     <g id="line2d_47">
      <g>
       <use style="stroke:#000000;stroke-width:0.8;" x="1504.997238" xlink:href="#ma2da8cdc77" y="1046.64351"/>
      </g>
     </g>
     <g id="text_26">
      <!-- 6000 -->
      <g transform="translate(1492.272238 1061.241947)scale(0.1 -0.1)">
       <use xlink:href="#DejaVuSans-54"/>
       <use x="63.623047" xlink:href="#DejaVuSans-48"/>
       <use x="127.246094" xlink:href="#DejaVuSans-48"/>
       <use x="190.869141" xlink:href="#DejaVuSans-48"/>
      </g>
     </g>
    </g>
    <g id="text_27">
     <!-- Frequency -->
     <g transform="translate(1183.134219 1074.920072)scale(0.1 -0.1)">
      <use xlink:href="#DejaVuSans-70"/>
      <use x="57.410156" xlink:href="#DejaVuSans-114"/>
      <use x="98.492188" xlink:href="#DejaVuSans-101"/>
      <use x="160.015625" xlink:href="#DejaVuSans-113"/>
      <use x="223.492188" xlink:href="#DejaVuSans-117"/>
      <use x="286.871094" xlink:href="#DejaVuSans-101"/>
      <use x="348.394531" xlink:href="#DejaVuSans-110"/>
      <use x="411.773438" xlink:href="#DejaVuSans-99"/>
      <use x="466.753906" xlink:href="#DejaVuSans-121"/>
     </g>
    </g>
   </g>
   <g id="matplotlib.axis_4">
    <g id="ytick_10">
     <g id="line2d_48">
      <path clip-path="url(#p26a38c6dfd)" d="M 837.86399 1046.64351 
L 1580.99976 1046.64351 
" style="fill:none;stroke:#b0b0b0;stroke-linecap:square;stroke-width:0.8;"/>
     </g>
     <g id="line2d_49">
      <g>
       <use style="stroke:#000000;stroke-width:0.8;" x="837.86399" xlink:href="#mf52979b44d" y="1046.64351"/>
      </g>
     </g>
     <g id="text_28">
      <!-- −60 -->
      <g transform="translate(809.759302 1050.442729)scale(0.1 -0.1)">
       <use xlink:href="#DejaVuSans-8722"/>
       <use x="83.789062" xlink:href="#DejaVuSans-54"/>
       <use x="147.412109" xlink:href="#DejaVuSans-48"/>
      </g>
     </g>
    </g>
    <g id="ytick_11">
     <g id="line2d_50">
      <path clip-path="url(#p26a38c6dfd)" d="M 837.86399 918.077867 
L 1580.99976 918.077867 
" style="fill:none;stroke:#b0b0b0;stroke-linecap:square;stroke-width:0.8;"/>
     </g>
     <g id="line2d_51">
      <g>
       <use style="stroke:#000000;stroke-width:0.8;" x="837.86399" xlink:href="#mf52979b44d" y="918.077867"/>
      </g>
     </g>
     <g id="text_29">
      <!-- −50 -->
      <g transform="translate(809.759302 921.877086)scale(0.1 -0.1)">
       <use xlink:href="#DejaVuSans-8722"/>
       <use x="83.789062" xlink:href="#DejaVuSans-53"/>
       <use x="147.412109" xlink:href="#DejaVuSans-48"/>
      </g>
     </g>
    </g>
    <g id="ytick_12">
     <g id="line2d_52">
      <path clip-path="url(#p26a38c6dfd)" d="M 837.86399 789.512224 
L 1580.99976 789.512224 
" style="fill:none;stroke:#b0b0b0;stroke-linecap:square;stroke-width:0.8;"/>
     </g>
     <g id="line2d_53">
      <g>
       <use style="stroke:#000000;stroke-width:0.8;" x="837.86399" xlink:href="#mf52979b44d" y="789.512224"/>
      </g>
     </g>
     <g id="text_30">
      <!-- −40 -->
      <g transform="translate(809.759302 793.311442)scale(0.1 -0.1)">
       <use xlink:href="#DejaVuSans-8722"/>
       <use x="83.789062" xlink:href="#DejaVuSans-52"/>
       <use x="147.412109" xlink:href="#DejaVuSans-48"/>
      </g>
     </g>
    </g>
    <g id="ytick_13">
     <g id="line2d_54">
      <path clip-path="url(#p26a38c6dfd)" d="M 837.86399 660.946581 
L 1580.99976 660.946581 
" style="fill:none;stroke:#b0b0b0;stroke-linecap:square;stroke-width:0.8;"/>
     </g>
     <g id="line2d_55">
      <g>
       <use style="stroke:#000000;stroke-width:0.8;" x="837.86399" xlink:href="#mf52979b44d" y="660.946581"/>
      </g>
     </g>
     <g id="text_31">
      <!-- −30 -->
      <g transform="translate(809.759302 664.745799)scale(0.1 -0.1)">
       <use xlink:href="#DejaVuSans-8722"/>
       <use x="83.789062" xlink:href="#DejaVuSans-51"/>
       <use x="147.412109" xlink:href="#DejaVuSans-48"/>
      </g>
     </g>
    </g>
    <g id="ytick_14">
     <g id="line2d_56">
      <path clip-path="url(#p26a38c6dfd)" d="M 837.86399 532.380937 
L 1580.99976 532.380937 
" style="fill:none;stroke:#b0b0b0;stroke-linecap:square;stroke-width:0.8;"/>
     </g>
     <g id="line2d_57">
      <g>
       <use style="stroke:#000000;stroke-width:0.8;" x="837.86399" xlink:href="#mf52979b44d" y="532.380937"/>
      </g>
     </g>
     <g id="text_32">
      <!-- −20 -->
      <g transform="translate(809.759302 536.180156)scale(0.1 -0.1)">
       <use xlink:href="#DejaVuSans-8722"/>
       <use x="83.789062" xlink:href="#DejaVuSans-50"/>
       <use x="147.412109" xlink:href="#DejaVuSans-48"/>
      </g>
     </g>
    </g>
    <g id="ytick_15">
     <g id="line2d_58">
      <path clip-path="url(#p26a38c6dfd)" d="M 837.86399 403.815294 
L 1580.99976 403.815294 
" style="fill:none;stroke:#b0b0b0;stroke-linecap:square;stroke-width:0.8;"/>
     </g>
     <g id="line2d_59">
      <g>
       <use style="stroke:#000000;stroke-width:0.8;" x="837.86399" xlink:href="#mf52979b44d" y="403.815294"/>
      </g>
     </g>
     <g id="text_33">
      <!-- −10 -->
      <g transform="translate(809.759302 407.614513)scale(0.1 -0.1)">
       <use xlink:href="#DejaVuSans-8722"/>
       <use x="83.789062" xlink:href="#DejaVuSans-49"/>
       <use x="147.412109" xlink:href="#DejaVuSans-48"/>
      </g>
     </g>
    </g>
    <g id="ytick_16">
     <g id="line2d_60">
      <path clip-path="url(#p26a38c6dfd)" d="M 837.86399 275.249651 
L 1580.99976 275.249651 
" style="fill:none;stroke:#b0b0b0;stroke-linecap:square;stroke-width:0.8;"/>
     </g>
     <g id="line2d_61">
      <g>
       <use style="stroke:#000000;stroke-width:0.8;" x="837.86399" xlink:href="#mf52979b44d" y="275.249651"/>
      </g>
     </g>
     <g id="text_34">
      <!-- 0 -->
      <g transform="translate(824.50149 279.04887)scale(0.1 -0.1)">
       <use xlink:href="#DejaVuSans-48"/>
      </g>
     </g>
    </g>
    <g id="ytick_17">
     <g id="line2d_62">
      <path clip-path="url(#p26a38c6dfd)" d="M 837.86399 146.684008 
L 1580.99976 146.684008 
" style="fill:none;stroke:#b0b0b0;stroke-linecap:square;stroke-width:0.8;"/>
     </g>
     <g id="line2d_63">
      <g>
       <use style="stroke:#000000;stroke-width:0.8;" x="837.86399" xlink:href="#mf52979b44d" y="146.684008"/>
      </g>
     </g>
     <g id="text_35">
      <!-- 10 -->
      <g transform="translate(818.13899 150.483227)scale(0.1 -0.1)">
       <use xlink:href="#DejaVuSans-49"/>
       <use x="63.623047" xlink:href="#DejaVuSans-48"/>
      </g>
     </g>
    </g>
    <g id="ytick_18">
     <g id="line2d_64">
      <path clip-path="url(#p26a38c6dfd)" d="M 837.86399 18.118365 
L 1580.99976 18.118365 
" style="fill:none;stroke:#b0b0b0;stroke-linecap:square;stroke-width:0.8;"/>
     </g>
     <g id="line2d_65">
      <g>
       <use style="stroke:#000000;stroke-width:0.8;" x="837.86399" xlink:href="#mf52979b44d" y="18.118365"/>
      </g>
     </g>
     <g id="text_36">
      <!-- 20 -->
      <g transform="translate(818.13899 21.917584)scale(0.1 -0.1)">
       <use xlink:href="#DejaVuSans-50"/>
       <use x="63.623047" xlink:href="#DejaVuSans-48"/>
      </g>
     </g>
    </g>
   </g>
   <g id="line2d_66">
    <path clip-path="url(#p26a38c6dfd)" d="M 871.642889 843.696993 
L 874.281865 804.350192 
L 876.920842 802.200536 
L 879.559818 798.071695 
L 882.198794 791.651446 
L 884.837771 783.157848 
L 892.7547 753.531598 
L 895.393677 744.925252 
L 898.032653 737.58829 
L 900.67163 731.444447 
L 903.310606 726.180094 
L 908.588559 716.39868 
L 911.227535 710.988323 
L 913.866512 704.875816 
L 916.505488 697.998912 
L 919.144465 690.396485 
L 921.783441 682.186174 
L 927.061394 665.086637 
L 929.700371 657.205856 
L 932.339347 650.636346 
L 934.978324 646.021245 
L 937.6173 643.904057 
L 940.256276 644.702267 
L 942.895253 648.711748 
L 945.534229 656.118886 
L 948.173206 667.000466 
L 950.812182 681.290917 
L 953.451159 698.686825 
L 956.090135 718.444924 
L 958.729112 739.059496 
L 961.368088 758.03615 
L 964.007065 772.485935 
L 966.646041 780.94736 
L 969.285018 784.559908 
L 971.923994 785.800984 
L 974.56297 786.6792 
L 977.201947 788.152296 
L 982.4799 792.490193 
L 985.118876 793.563083 
L 987.757853 791.97093 
L 990.396829 786.446609 
L 993.035806 776.848331 
L 995.674782 764.38446 
L 998.313759 750.913716 
L 1000.952735 738.124855 
L 1003.591711 727.202422 
L 1006.230688 718.867052 
L 1008.869664 713.519306 
L 1011.508641 711.359227 
L 1014.147617 712.458373 
L 1016.786594 716.792863 
L 1019.42557 724.247479 
L 1022.064547 734.595971 
L 1024.703523 747.459434 
L 1027.3425 762.247316 
L 1032.620452 793.887594 
L 1035.259429 808.334566 
L 1037.898405 820.320077 
L 1040.537382 829.199518 
L 1043.176358 834.902796 
L 1045.815335 837.730429 
L 1048.454311 838.045109 
L 1051.093288 836.061253 
L 1053.732264 831.784084 
L 1056.371241 825.092523 
L 1059.010217 815.956929 
L 1061.649193 804.695028 
L 1069.566123 766.978723 
L 1072.205099 756.490512 
L 1074.844076 748.33194 
L 1077.483052 742.938836 
L 1080.122029 740.575269 
L 1082.761005 741.379051 
L 1085.399982 745.391008 
L 1088.038958 752.565528 
L 1090.677934 762.761521 
L 1093.316911 775.711792 
L 1095.955887 790.969582 
L 1103.872817 842.245011 
L 1106.511793 857.365423 
L 1109.15077 869.896486 
L 1111.789746 879.607571 
L 1114.428723 886.612071 
L 1117.067699 890.939752 
L 1119.706675 892.298795 
L 1122.345652 890.185444 
L 1124.984628 884.205593 
L 1127.623605 874.34765 
L 1130.262581 861.058551 
L 1132.901558 845.171277 
L 1140.818487 792.954813 
L 1143.457464 777.473128 
L 1146.09644 764.191759 
L 1148.735417 753.527299 
L 1151.374393 745.721066 
L 1154.013369 740.870201 
L 1156.652346 738.942461 
L 1159.291322 739.77299 
L 1161.930299 743.04747 
L 1164.569275 748.285043 
L 1167.208252 754.848732 
L 1172.486205 769.166785 
L 1175.125181 775.913894 
L 1185.681087 801.461177 
L 1193.598016 822.499421 
L 1196.236993 828.878547 
L 1198.875969 834.563175 
L 1201.514946 839.521338 
L 1204.153922 843.80337 
L 1206.792899 847.45574 
L 1209.431875 850.468029 
L 1212.070851 852.777908 
L 1214.709828 854.318353 
L 1217.348804 855.069042 
L 1219.987781 855.078193 
L 1222.626757 854.447084 
L 1225.265734 853.297064 
L 1227.90471 851.7468 
L 1230.543687 849.913531 
L 1235.82164 845.963603 
L 1238.460616 844.202397 
L 1241.099592 842.836074 
L 1243.738569 842.01023 
L 1246.377545 841.786352 
L 1249.016522 842.112099 
L 1256.933451 844.09957 
L 1259.572428 843.990897 
L 1262.211404 843.022593 
L 1264.850381 841.128464 
L 1267.489357 838.440114 
L 1275.406286 828.942652 
L 1278.045263 826.625042 
L 1280.684239 825.332424 
L 1283.323216 825.334222 
L 1285.962192 826.819119 
L 1288.601169 829.880177 
L 1291.240145 834.493462 
L 1293.879122 840.488078 
L 1296.518098 847.510497 
L 1301.796051 862.20017 
L 1304.435027 868.288477 
L 1307.074004 872.580518 
L 1309.71298 874.76782 
L 1312.351957 874.98926 
L 1314.990933 873.687612 
L 1317.62991 871.375137 
L 1320.268886 868.466887 
L 1325.546839 861.826999 
L 1333.463768 851.552984 
L 1336.102745 848.459728 
L 1338.741721 845.741142 
L 1341.380698 843.525638 
L 1344.019674 841.931724 
L 1346.658651 841.06348 
L 1349.297627 841.006755 
L 1351.936604 841.823801 
L 1354.57558 843.545837 
L 1357.214557 846.164857 
L 1359.853533 849.62677 
L 1362.492509 853.827683 
L 1365.131486 858.614098 
L 1375.687392 879.159316 
L 1378.326368 883.382254 
L 1380.965345 886.809563 
L 1383.604321 889.342501 
L 1386.243298 890.97152 
L 1388.882274 891.761672 
L 1391.52125 891.825262 
L 1394.160227 891.293617 
L 1396.799203 890.294876 
L 1399.43818 888.938265 
L 1402.077156 887.304108 
L 1404.716133 885.441888 
L 1407.355109 883.380597 
L 1412.633062 878.818178 
L 1415.272039 876.490379 
L 1417.911015 874.322923 
L 1420.549991 872.483526 
L 1423.188968 871.109122 
L 1425.827944 870.264742 
L 1428.466921 869.9202 
L 1431.105897 869.953659 
L 1439.022827 870.538529 
L 1441.661803 870.470182 
L 1446.939756 869.898442 
L 1452.217709 869.010527 
L 1454.856685 868.412414 
L 1457.495662 867.631306 
L 1460.134638 866.627508 
L 1465.412591 864.108102 
L 1468.051568 862.838905 
L 1470.690544 861.788218 
L 1473.329521 861.109379 
L 1475.968497 860.899705 
L 1478.607474 861.180521 
L 1481.24645 861.895159 
L 1483.885426 862.924308 
L 1491.802356 866.434903 
L 1497.080309 868.302878 
L 1499.719285 869.191484 
L 1502.358262 870.22089 
L 1504.997238 871.536679 
L 1507.636215 873.260603 
L 1510.275191 875.464663 
L 1512.914167 878.155195 
L 1515.553144 881.271377 
L 1518.19212 884.701619 
L 1523.470073 892.014456 
L 1528.748026 899.531787 
L 1534.025979 907.404102 
L 1536.664956 911.418942 
L 1539.303932 915.224957 
L 1541.942908 918.444971 
L 1544.581885 920.631313 
L 1547.220861 960.111412 
L 1547.220861 960.111412 
" style="fill:none;stroke:#1f77b4;stroke-linecap:square;stroke-width:1.5;"/>
   </g>
   <g id="patch_8">
    <path d="M 837.86399 1046.64351 
L 837.86399 18.118365 
" style="fill:none;stroke:#000000;stroke-linecap:square;stroke-linejoin:miter;stroke-width:0.8;"/>
   </g>
   <g id="patch_9">
    <path d="M 1580.99976 1046.64351 
L 1580.99976 18.118365 
" style="fill:none;stroke:#000000;stroke-linecap:square;stroke-linejoin:miter;stroke-width:0.8;"/>
   </g>
   <g id="patch_10">
    <path d="M 837.86399 1046.64351 
L 1580.99976 1046.64351 
" style="fill:none;stroke:#000000;stroke-linecap:square;stroke-linejoin:miter;stroke-width:0.8;"/>
   </g>
   <g id="patch_11">
    <path d="M 837.86399 18.118365 
L 1580.99976 18.118365 
" style="fill:none;stroke:#000000;stroke-linecap:square;stroke-linejoin:miter;stroke-width:0.8;"/>
   </g>
   <g id="text_37">
    <!-- Welch -->
    <defs>
     <path d="M 3.328125 72.90625 
L 13.28125 72.90625 
L 28.609375 11.28125 
L 43.890625 72.90625 
L 54.984375 72.90625 
L 70.3125 11.28125 
L 85.59375 72.90625 
L 95.609375 72.90625 
L 77.296875 0 
L 64.890625 0 
L 49.515625 63.28125 
L 33.984375 0 
L 21.578125 0 
z
" id="DejaVuSans-87"/>
     <path d="M 54.890625 33.015625 
L 54.890625 0 
L 45.90625 0 
L 45.90625 32.71875 
Q 45.90625 40.484375 42.875 44.328125 
Q 39.84375 48.1875 33.796875 48.1875 
Q 26.515625 48.1875 22.3125 43.546875 
Q 18.109375 38.921875 18.109375 30.90625 
L 18.109375 0 
L 9.078125 0 
L 9.078125 75.984375 
L 18.109375 75.984375 
L 18.109375 46.1875 
Q 21.34375 51.125 25.703125 53.5625 
Q 30.078125 56 35.796875 56 
Q 45.21875 56 50.046875 50.171875 
Q 54.890625 44.34375 54.890625 33.015625 
z
" id="DejaVuSans-104"/>
    </defs>
    <g transform="translate(1191.04375 12.118365)scale(0.12 -0.12)">
     <use xlink:href="#DejaVuSans-87"/>
     <use x="98.798828" xlink:href="#DejaVuSans-101"/>
     <use x="160.322266" xlink:href="#DejaVuSans-108"/>
     <use x="188.105469" xlink:href="#DejaVuSans-99"/>
     <use x="243.085938" xlink:href="#DejaVuSans-104"/>
    </g>
   </g>
  </g>
 </g>
 <defs>
  <clipPath id="pce249598c6">
   <rect height="1028.525145" width="743.13577" x="44.783053" y="18.118365"/>
  </clipPath>
  <clipPath id="p26a38c6dfd">
   <rect height="1028.525145" width="743.13577" x="837.86399" y="18.118365"/>
  </clipPath>
 </defs>
</svg>
