<?xml version="1.0" encoding="utf-8" standalone="no"?>
<!DOCTYPE svg PUBLIC "-//W3C//DTD SVG 1.1//EN"
  "http://www.w3.org/Graphics/SVG/1.1/DTD/svg11.dtd">
<!-- Created with matplotlib (https://matplotlib.org/) -->
<svg height="1080pt" version="1.1" viewBox="0 0 1584 1080" width="1584pt" xmlns="http://www.w3.org/2000/svg" xmlns:xlink="http://www.w3.org/1999/xlink">
 <metadata>
  <rdf:RDF xmlns:cc="http://creativecommons.org/ns#" xmlns:dc="http://purl.org/dc/elements/1.1/" xmlns:rdf="http://www.w3.org/1999/02/22-rdf-syntax-ns#">
   <cc:Work>
    <dc:type rdf:resource="http://purl.org/dc/dcmitype/StillImage"/>
    <dc:date>2021-02-18T12:03:04.002152</dc:date>
    <dc:format>image/svg+xml</dc:format>
    <dc:creator>
     <cc:Agent>
      <dc:title>Matplotlib v3.3.4, https://matplotlib.org/</dc:title>
     </cc:Agent>
    </dc:creator>
   </cc:Work>
  </rdf:RDF>
 </metadata>
 <defs>
  <style type="text/css">*{stroke-linecap:butt;stroke-linejoin:round;}</style>
 </defs>
 <g id="figure_1">
  <g id="patch_1">
   <path d="M 0 1080 
L 1584 1080 
L 1584 0 
L 0 0 
z
" style="fill:none;"/>
  </g>
  <g id="axes_1">
   <g id="patch_2">
    <path d="M 198 945 
L 1425.6 945 
L 1425.6 129.6 
L 198 129.6 
z
" style="fill:#ffffff;"/>
   </g>
   <g id="matplotlib.axis_1">
    <g id="xtick_1">
     <g id="line2d_1">
      <path clip-path="url(#p820c501422)" d="M 253.381866 945 
L 253.381866 129.6 
" style="fill:none;stroke:#b0b0b0;stroke-linecap:square;stroke-width:0.8;"/>
     </g>
     <g id="line2d_2">
      <defs>
       <path d="M 0 0 
L 0 3.5 
" id="m3e98215a89" style="stroke:#000000;stroke-width:0.8;"/>
      </defs>
      <g>
       <use style="stroke:#000000;stroke-width:0.8;" x="253.381866" xlink:href="#m3e98215a89" y="945"/>
      </g>
     </g>
     <g id="text_1">
      <!-- 0 -->
      <g transform="translate(250.200616 959.598438)scale(0.1 -0.1)">
       <defs>
        <path d="M 31.78125 66.40625 
Q 24.171875 66.40625 20.328125 58.90625 
Q 16.5 51.421875 16.5 36.375 
Q 16.5 21.390625 20.328125 13.890625 
Q 24.171875 6.390625 31.78125 6.390625 
Q 39.453125 6.390625 43.28125 13.890625 
Q 47.125 21.390625 47.125 36.375 
Q 47.125 51.421875 43.28125 58.90625 
Q 39.453125 66.40625 31.78125 66.40625 
z
M 31.78125 74.21875 
Q 44.046875 74.21875 50.515625 64.515625 
Q 56.984375 54.828125 56.984375 36.375 
Q 56.984375 17.96875 50.515625 8.265625 
Q 44.046875 -1.421875 31.78125 -1.421875 
Q 19.53125 -1.421875 13.0625 8.265625 
Q 6.59375 17.96875 6.59375 36.375 
Q 6.59375 54.828125 13.0625 64.515625 
Q 19.53125 74.21875 31.78125 74.21875 
z
" id="DejaVuSans-48"/>
       </defs>
       <use xlink:href="#DejaVuSans-48"/>
      </g>
     </g>
    </g>
    <g id="xtick_2">
     <g id="line2d_3">
      <path clip-path="url(#p820c501422)" d="M 420.648587 945 
L 420.648587 129.6 
" style="fill:none;stroke:#b0b0b0;stroke-linecap:square;stroke-width:0.8;"/>
     </g>
     <g id="line2d_4">
      <g>
       <use style="stroke:#000000;stroke-width:0.8;" x="420.648587" xlink:href="#m3e98215a89" y="945"/>
      </g>
     </g>
     <g id="text_2">
      <!-- 200 -->
      <g transform="translate(411.104837 959.598438)scale(0.1 -0.1)">
       <defs>
        <path d="M 19.1875 8.296875 
L 53.609375 8.296875 
L 53.609375 0 
L 7.328125 0 
L 7.328125 8.296875 
Q 12.9375 14.109375 22.625 23.890625 
Q 32.328125 33.6875 34.8125 36.53125 
Q 39.546875 41.84375 41.421875 45.53125 
Q 43.3125 49.21875 43.3125 52.78125 
Q 43.3125 58.59375 39.234375 62.25 
Q 35.15625 65.921875 28.609375 65.921875 
Q 23.96875 65.921875 18.8125 64.3125 
Q 13.671875 62.703125 7.8125 59.421875 
L 7.8125 69.390625 
Q 13.765625 71.78125 18.9375 73 
Q 24.125 74.21875 28.421875 74.21875 
Q 39.75 74.21875 46.484375 68.546875 
Q 53.21875 62.890625 53.21875 53.421875 
Q 53.21875 48.921875 51.53125 44.890625 
Q 49.859375 40.875 45.40625 35.40625 
Q 44.1875 33.984375 37.640625 27.21875 
Q 31.109375 20.453125 19.1875 8.296875 
z
" id="DejaVuSans-50"/>
       </defs>
       <use xlink:href="#DejaVuSans-50"/>
       <use x="63.623047" xlink:href="#DejaVuSans-48"/>
       <use x="127.246094" xlink:href="#DejaVuSans-48"/>
      </g>
     </g>
    </g>
    <g id="xtick_3">
     <g id="line2d_5">
      <path clip-path="url(#p820c501422)" d="M 587.915307 945 
L 587.915307 129.6 
" style="fill:none;stroke:#b0b0b0;stroke-linecap:square;stroke-width:0.8;"/>
     </g>
     <g id="line2d_6">
      <g>
       <use style="stroke:#000000;stroke-width:0.8;" x="587.915307" xlink:href="#m3e98215a89" y="945"/>
      </g>
     </g>
     <g id="text_3">
      <!-- 400 -->
      <g transform="translate(578.371557 959.598438)scale(0.1 -0.1)">
       <defs>
        <path d="M 37.796875 64.3125 
L 12.890625 25.390625 
L 37.796875 25.390625 
z
M 35.203125 72.90625 
L 47.609375 72.90625 
L 47.609375 25.390625 
L 58.015625 25.390625 
L 58.015625 17.1875 
L 47.609375 17.1875 
L 47.609375 0 
L 37.796875 0 
L 37.796875 17.1875 
L 4.890625 17.1875 
L 4.890625 26.703125 
z
" id="DejaVuSans-52"/>
       </defs>
       <use xlink:href="#DejaVuSans-52"/>
       <use x="63.623047" xlink:href="#DejaVuSans-48"/>
       <use x="127.246094" xlink:href="#DejaVuSans-48"/>
      </g>
     </g>
    </g>
    <g id="xtick_4">
     <g id="line2d_7">
      <path clip-path="url(#p820c501422)" d="M 755.182028 945 
L 755.182028 129.6 
" style="fill:none;stroke:#b0b0b0;stroke-linecap:square;stroke-width:0.8;"/>
     </g>
     <g id="line2d_8">
      <g>
       <use style="stroke:#000000;stroke-width:0.8;" x="755.182028" xlink:href="#m3e98215a89" y="945"/>
      </g>
     </g>
     <g id="text_4">
      <!-- 600 -->
      <g transform="translate(745.638278 959.598438)scale(0.1 -0.1)">
       <defs>
        <path d="M 33.015625 40.375 
Q 26.375 40.375 22.484375 35.828125 
Q 18.609375 31.296875 18.609375 23.390625 
Q 18.609375 15.53125 22.484375 10.953125 
Q 26.375 6.390625 33.015625 6.390625 
Q 39.65625 6.390625 43.53125 10.953125 
Q 47.40625 15.53125 47.40625 23.390625 
Q 47.40625 31.296875 43.53125 35.828125 
Q 39.65625 40.375 33.015625 40.375 
z
M 52.59375 71.296875 
L 52.59375 62.3125 
Q 48.875 64.0625 45.09375 64.984375 
Q 41.3125 65.921875 37.59375 65.921875 
Q 27.828125 65.921875 22.671875 59.328125 
Q 17.53125 52.734375 16.796875 39.40625 
Q 19.671875 43.65625 24.015625 45.921875 
Q 28.375 48.1875 33.59375 48.1875 
Q 44.578125 48.1875 50.953125 41.515625 
Q 57.328125 34.859375 57.328125 23.390625 
Q 57.328125 12.15625 50.6875 5.359375 
Q 44.046875 -1.421875 33.015625 -1.421875 
Q 20.359375 -1.421875 13.671875 8.265625 
Q 6.984375 17.96875 6.984375 36.375 
Q 6.984375 53.65625 15.1875 63.9375 
Q 23.390625 74.21875 37.203125 74.21875 
Q 40.921875 74.21875 44.703125 73.484375 
Q 48.484375 72.75 52.59375 71.296875 
z
" id="DejaVuSans-54"/>
       </defs>
       <use xlink:href="#DejaVuSans-54"/>
       <use x="63.623047" xlink:href="#DejaVuSans-48"/>
       <use x="127.246094" xlink:href="#DejaVuSans-48"/>
      </g>
     </g>
    </g>
    <g id="xtick_5">
     <g id="line2d_9">
      <path clip-path="url(#p820c501422)" d="M 922.448749 945 
L 922.448749 129.6 
" style="fill:none;stroke:#b0b0b0;stroke-linecap:square;stroke-width:0.8;"/>
     </g>
     <g id="line2d_10">
      <g>
       <use style="stroke:#000000;stroke-width:0.8;" x="922.448749" xlink:href="#m3e98215a89" y="945"/>
      </g>
     </g>
     <g id="text_5">
      <!-- 800 -->
      <g transform="translate(912.904999 959.598438)scale(0.1 -0.1)">
       <defs>
        <path d="M 31.78125 34.625 
Q 24.75 34.625 20.71875 30.859375 
Q 16.703125 27.09375 16.703125 20.515625 
Q 16.703125 13.921875 20.71875 10.15625 
Q 24.75 6.390625 31.78125 6.390625 
Q 38.8125 6.390625 42.859375 10.171875 
Q 46.921875 13.96875 46.921875 20.515625 
Q 46.921875 27.09375 42.890625 30.859375 
Q 38.875 34.625 31.78125 34.625 
z
M 21.921875 38.8125 
Q 15.578125 40.375 12.03125 44.71875 
Q 8.5 49.078125 8.5 55.328125 
Q 8.5 64.0625 14.71875 69.140625 
Q 20.953125 74.21875 31.78125 74.21875 
Q 42.671875 74.21875 48.875 69.140625 
Q 55.078125 64.0625 55.078125 55.328125 
Q 55.078125 49.078125 51.53125 44.71875 
Q 48 40.375 41.703125 38.8125 
Q 48.828125 37.15625 52.796875 32.3125 
Q 56.78125 27.484375 56.78125 20.515625 
Q 56.78125 9.90625 50.3125 4.234375 
Q 43.84375 -1.421875 31.78125 -1.421875 
Q 19.734375 -1.421875 13.25 4.234375 
Q 6.78125 9.90625 6.78125 20.515625 
Q 6.78125 27.484375 10.78125 32.3125 
Q 14.796875 37.15625 21.921875 38.8125 
z
M 18.3125 54.390625 
Q 18.3125 48.734375 21.84375 45.5625 
Q 25.390625 42.390625 31.78125 42.390625 
Q 38.140625 42.390625 41.71875 45.5625 
Q 45.3125 48.734375 45.3125 54.390625 
Q 45.3125 60.0625 41.71875 63.234375 
Q 38.140625 66.40625 31.78125 66.40625 
Q 25.390625 66.40625 21.84375 63.234375 
Q 18.3125 60.0625 18.3125 54.390625 
z
" id="DejaVuSans-56"/>
       </defs>
       <use xlink:href="#DejaVuSans-56"/>
       <use x="63.623047" xlink:href="#DejaVuSans-48"/>
       <use x="127.246094" xlink:href="#DejaVuSans-48"/>
      </g>
     </g>
    </g>
    <g id="xtick_6">
     <g id="line2d_11">
      <path clip-path="url(#p820c501422)" d="M 1089.71547 945 
L 1089.71547 129.6 
" style="fill:none;stroke:#b0b0b0;stroke-linecap:square;stroke-width:0.8;"/>
     </g>
     <g id="line2d_12">
      <g>
       <use style="stroke:#000000;stroke-width:0.8;" x="1089.71547" xlink:href="#m3e98215a89" y="945"/>
      </g>
     </g>
     <g id="text_6">
      <!-- 1000 -->
      <g transform="translate(1076.99047 959.598438)scale(0.1 -0.1)">
       <defs>
        <path d="M 12.40625 8.296875 
L 28.515625 8.296875 
L 28.515625 63.921875 
L 10.984375 60.40625 
L 10.984375 69.390625 
L 28.421875 72.90625 
L 38.28125 72.90625 
L 38.28125 8.296875 
L 54.390625 8.296875 
L 54.390625 0 
L 12.40625 0 
z
" id="DejaVuSans-49"/>
       </defs>
       <use xlink:href="#DejaVuSans-49"/>
       <use x="63.623047" xlink:href="#DejaVuSans-48"/>
       <use x="127.246094" xlink:href="#DejaVuSans-48"/>
       <use x="190.869141" xlink:href="#DejaVuSans-48"/>
      </g>
     </g>
    </g>
    <g id="xtick_7">
     <g id="line2d_13">
      <path clip-path="url(#p820c501422)" d="M 1256.98219 945 
L 1256.98219 129.6 
" style="fill:none;stroke:#b0b0b0;stroke-linecap:square;stroke-width:0.8;"/>
     </g>
     <g id="line2d_14">
      <g>
       <use style="stroke:#000000;stroke-width:0.8;" x="1256.98219" xlink:href="#m3e98215a89" y="945"/>
      </g>
     </g>
     <g id="text_7">
      <!-- 1200 -->
      <g transform="translate(1244.25719 959.598438)scale(0.1 -0.1)">
       <use xlink:href="#DejaVuSans-49"/>
       <use x="63.623047" xlink:href="#DejaVuSans-50"/>
       <use x="127.246094" xlink:href="#DejaVuSans-48"/>
       <use x="190.869141" xlink:href="#DejaVuSans-48"/>
      </g>
     </g>
    </g>
    <g id="xtick_8">
     <g id="line2d_15">
      <path clip-path="url(#p820c501422)" d="M 1424.248911 945 
L 1424.248911 129.6 
" style="fill:none;stroke:#b0b0b0;stroke-linecap:square;stroke-width:0.8;"/>
     </g>
     <g id="line2d_16">
      <g>
       <use style="stroke:#000000;stroke-width:0.8;" x="1424.248911" xlink:href="#m3e98215a89" y="945"/>
      </g>
     </g>
     <g id="text_8">
      <!-- 1400 -->
      <g transform="translate(1411.523911 959.598438)scale(0.1 -0.1)">
       <use xlink:href="#DejaVuSans-49"/>
       <use x="63.623047" xlink:href="#DejaVuSans-52"/>
       <use x="127.246094" xlink:href="#DejaVuSans-48"/>
       <use x="190.869141" xlink:href="#DejaVuSans-48"/>
      </g>
     </g>
    </g>
    <g id="text_9">
     <!-- Time (seconds) -->
     <g transform="translate(773.638281 973.276562)scale(0.1 -0.1)">
      <defs>
       <path d="M -0.296875 72.90625 
L 61.375 72.90625 
L 61.375 64.59375 
L 35.5 64.59375 
L 35.5 0 
L 25.59375 0 
L 25.59375 64.59375 
L -0.296875 64.59375 
z
" id="DejaVuSans-84"/>
       <path d="M 9.421875 54.6875 
L 18.40625 54.6875 
L 18.40625 0 
L 9.421875 0 
z
M 9.421875 75.984375 
L 18.40625 75.984375 
L 18.40625 64.59375 
L 9.421875 64.59375 
z
" id="DejaVuSans-105"/>
       <path d="M 52 44.1875 
Q 55.375 50.25 60.0625 53.125 
Q 64.75 56 71.09375 56 
Q 79.640625 56 84.28125 50.015625 
Q 88.921875 44.046875 88.921875 33.015625 
L 88.921875 0 
L 79.890625 0 
L 79.890625 32.71875 
Q 79.890625 40.578125 77.09375 44.375 
Q 74.3125 48.1875 68.609375 48.1875 
Q 61.625 48.1875 57.5625 43.546875 
Q 53.515625 38.921875 53.515625 30.90625 
L 53.515625 0 
L 44.484375 0 
L 44.484375 32.71875 
Q 44.484375 40.625 41.703125 44.40625 
Q 38.921875 48.1875 33.109375 48.1875 
Q 26.21875 48.1875 22.15625 43.53125 
Q 18.109375 38.875 18.109375 30.90625 
L 18.109375 0 
L 9.078125 0 
L 9.078125 54.6875 
L 18.109375 54.6875 
L 18.109375 46.1875 
Q 21.1875 51.21875 25.484375 53.609375 
Q 29.78125 56 35.6875 56 
Q 41.65625 56 45.828125 52.96875 
Q 50 49.953125 52 44.1875 
z
" id="DejaVuSans-109"/>
       <path d="M 56.203125 29.59375 
L 56.203125 25.203125 
L 14.890625 25.203125 
Q 15.484375 15.921875 20.484375 11.0625 
Q 25.484375 6.203125 34.421875 6.203125 
Q 39.59375 6.203125 44.453125 7.46875 
Q 49.3125 8.734375 54.109375 11.28125 
L 54.109375 2.78125 
Q 49.265625 0.734375 44.1875 -0.34375 
Q 39.109375 -1.421875 33.890625 -1.421875 
Q 20.796875 -1.421875 13.15625 6.1875 
Q 5.515625 13.8125 5.515625 26.8125 
Q 5.515625 40.234375 12.765625 48.109375 
Q 20.015625 56 32.328125 56 
Q 43.359375 56 49.78125 48.890625 
Q 56.203125 41.796875 56.203125 29.59375 
z
M 47.21875 32.234375 
Q 47.125 39.59375 43.09375 43.984375 
Q 39.0625 48.390625 32.421875 48.390625 
Q 24.90625 48.390625 20.390625 44.140625 
Q 15.875 39.890625 15.1875 32.171875 
z
" id="DejaVuSans-101"/>
       <path id="DejaVuSans-32"/>
       <path d="M 31 75.875 
Q 24.46875 64.65625 21.28125 53.65625 
Q 18.109375 42.671875 18.109375 31.390625 
Q 18.109375 20.125 21.3125 9.0625 
Q 24.515625 -2 31 -13.1875 
L 23.1875 -13.1875 
Q 15.875 -1.703125 12.234375 9.375 
Q 8.59375 20.453125 8.59375 31.390625 
Q 8.59375 42.28125 12.203125 53.3125 
Q 15.828125 64.359375 23.1875 75.875 
z
" id="DejaVuSans-40"/>
       <path d="M 44.28125 53.078125 
L 44.28125 44.578125 
Q 40.484375 46.53125 36.375 47.5 
Q 32.28125 48.484375 27.875 48.484375 
Q 21.1875 48.484375 17.84375 46.4375 
Q 14.5 44.390625 14.5 40.28125 
Q 14.5 37.15625 16.890625 35.375 
Q 19.28125 33.59375 26.515625 31.984375 
L 29.59375 31.296875 
Q 39.15625 29.25 43.1875 25.515625 
Q 47.21875 21.78125 47.21875 15.09375 
Q 47.21875 7.46875 41.1875 3.015625 
Q 35.15625 -1.421875 24.609375 -1.421875 
Q 20.21875 -1.421875 15.453125 -0.5625 
Q 10.6875 0.296875 5.421875 2 
L 5.421875 11.28125 
Q 10.40625 8.6875 15.234375 7.390625 
Q 20.0625 6.109375 24.8125 6.109375 
Q 31.15625 6.109375 34.5625 8.28125 
Q 37.984375 10.453125 37.984375 14.40625 
Q 37.984375 18.0625 35.515625 20.015625 
Q 33.0625 21.96875 24.703125 23.78125 
L 21.578125 24.515625 
Q 13.234375 26.265625 9.515625 29.90625 
Q 5.8125 33.546875 5.8125 39.890625 
Q 5.8125 47.609375 11.28125 51.796875 
Q 16.75 56 26.8125 56 
Q 31.78125 56 36.171875 55.265625 
Q 40.578125 54.546875 44.28125 53.078125 
z
" id="DejaVuSans-115"/>
       <path d="M 48.78125 52.59375 
L 48.78125 44.1875 
Q 44.96875 46.296875 41.140625 47.34375 
Q 37.3125 48.390625 33.40625 48.390625 
Q 24.65625 48.390625 19.8125 42.84375 
Q 14.984375 37.3125 14.984375 27.296875 
Q 14.984375 17.28125 19.8125 11.734375 
Q 24.65625 6.203125 33.40625 6.203125 
Q 37.3125 6.203125 41.140625 7.25 
Q 44.96875 8.296875 48.78125 10.40625 
L 48.78125 2.09375 
Q 45.015625 0.34375 40.984375 -0.53125 
Q 36.96875 -1.421875 32.421875 -1.421875 
Q 20.0625 -1.421875 12.78125 6.34375 
Q 5.515625 14.109375 5.515625 27.296875 
Q 5.515625 40.671875 12.859375 48.328125 
Q 20.21875 56 33.015625 56 
Q 37.15625 56 41.109375 55.140625 
Q 45.0625 54.296875 48.78125 52.59375 
z
" id="DejaVuSans-99"/>
       <path d="M 30.609375 48.390625 
Q 23.390625 48.390625 19.1875 42.75 
Q 14.984375 37.109375 14.984375 27.296875 
Q 14.984375 17.484375 19.15625 11.84375 
Q 23.34375 6.203125 30.609375 6.203125 
Q 37.796875 6.203125 41.984375 11.859375 
Q 46.1875 17.53125 46.1875 27.296875 
Q 46.1875 37.015625 41.984375 42.703125 
Q 37.796875 48.390625 30.609375 48.390625 
z
M 30.609375 56 
Q 42.328125 56 49.015625 48.375 
Q 55.71875 40.765625 55.71875 27.296875 
Q 55.71875 13.875 49.015625 6.21875 
Q 42.328125 -1.421875 30.609375 -1.421875 
Q 18.84375 -1.421875 12.171875 6.21875 
Q 5.515625 13.875 5.515625 27.296875 
Q 5.515625 40.765625 12.171875 48.375 
Q 18.84375 56 30.609375 56 
z
" id="DejaVuSans-111"/>
       <path d="M 54.890625 33.015625 
L 54.890625 0 
L 45.90625 0 
L 45.90625 32.71875 
Q 45.90625 40.484375 42.875 44.328125 
Q 39.84375 48.1875 33.796875 48.1875 
Q 26.515625 48.1875 22.3125 43.546875 
Q 18.109375 38.921875 18.109375 30.90625 
L 18.109375 0 
L 9.078125 0 
L 9.078125 54.6875 
L 18.109375 54.6875 
L 18.109375 46.1875 
Q 21.34375 51.125 25.703125 53.5625 
Q 30.078125 56 35.796875 56 
Q 45.21875 56 50.046875 50.171875 
Q 54.890625 44.34375 54.890625 33.015625 
z
" id="DejaVuSans-110"/>
       <path d="M 45.40625 46.390625 
L 45.40625 75.984375 
L 54.390625 75.984375 
L 54.390625 0 
L 45.40625 0 
L 45.40625 8.203125 
Q 42.578125 3.328125 38.25 0.953125 
Q 33.9375 -1.421875 27.875 -1.421875 
Q 17.96875 -1.421875 11.734375 6.484375 
Q 5.515625 14.40625 5.515625 27.296875 
Q 5.515625 40.1875 11.734375 48.09375 
Q 17.96875 56 27.875 56 
Q 33.9375 56 38.25 53.625 
Q 42.578125 51.265625 45.40625 46.390625 
z
M 14.796875 27.296875 
Q 14.796875 17.390625 18.875 11.75 
Q 22.953125 6.109375 30.078125 6.109375 
Q 37.203125 6.109375 41.296875 11.75 
Q 45.40625 17.390625 45.40625 27.296875 
Q 45.40625 37.203125 41.296875 42.84375 
Q 37.203125 48.484375 30.078125 48.484375 
Q 22.953125 48.484375 18.875 42.84375 
Q 14.796875 37.203125 14.796875 27.296875 
z
" id="DejaVuSans-100"/>
       <path d="M 8.015625 75.875 
L 15.828125 75.875 
Q 23.140625 64.359375 26.78125 53.3125 
Q 30.421875 42.28125 30.421875 31.390625 
Q 30.421875 20.453125 26.78125 9.375 
Q 23.140625 -1.703125 15.828125 -13.1875 
L 8.015625 -13.1875 
Q 14.5 -2 17.703125 9.0625 
Q 20.90625 20.125 20.90625 31.390625 
Q 20.90625 42.671875 17.703125 53.65625 
Q 14.5 64.65625 8.015625 75.875 
z
" id="DejaVuSans-41"/>
      </defs>
      <use xlink:href="#DejaVuSans-84"/>
      <use x="57.958984" xlink:href="#DejaVuSans-105"/>
      <use x="85.742188" xlink:href="#DejaVuSans-109"/>
      <use x="183.154297" xlink:href="#DejaVuSans-101"/>
      <use x="244.677734" xlink:href="#DejaVuSans-32"/>
      <use x="276.464844" xlink:href="#DejaVuSans-40"/>
      <use x="315.478516" xlink:href="#DejaVuSans-115"/>
      <use x="367.578125" xlink:href="#DejaVuSans-101"/>
      <use x="429.101562" xlink:href="#DejaVuSans-99"/>
      <use x="484.082031" xlink:href="#DejaVuSans-111"/>
      <use x="545.263672" xlink:href="#DejaVuSans-110"/>
      <use x="608.642578" xlink:href="#DejaVuSans-100"/>
      <use x="672.119141" xlink:href="#DejaVuSans-115"/>
      <use x="724.21875" xlink:href="#DejaVuSans-41"/>
     </g>
    </g>
   </g>
   <g id="matplotlib.axis_2">
    <g id="ytick_1">
     <g id="line2d_17">
      <path clip-path="url(#p820c501422)" d="M 198 931.322625 
L 1425.6 931.322625 
" style="fill:none;stroke:#b0b0b0;stroke-linecap:square;stroke-width:0.8;"/>
     </g>
     <g id="line2d_18">
      <defs>
       <path d="M 0 0 
L -3.5 0 
" id="m6c3aee6813" style="stroke:#000000;stroke-width:0.8;"/>
      </defs>
      <g>
       <use style="stroke:#000000;stroke-width:0.8;" x="198" xlink:href="#m6c3aee6813" y="931.322625"/>
      </g>
     </g>
     <g id="text_10">
      <!-- 0.0 -->
      <g transform="translate(175.096875 935.121844)scale(0.1 -0.1)">
       <defs>
        <path d="M 10.6875 12.40625 
L 21 12.40625 
L 21 0 
L 10.6875 0 
z
" id="DejaVuSans-46"/>
       </defs>
       <use xlink:href="#DejaVuSans-48"/>
       <use x="63.623047" xlink:href="#DejaVuSans-46"/>
       <use x="95.410156" xlink:href="#DejaVuSans-48"/>
      </g>
     </g>
    </g>
    <g id="ytick_2">
     <g id="line2d_19">
      <path clip-path="url(#p820c501422)" d="M 198 803.446459 
L 1425.6 803.446459 
" style="fill:none;stroke:#b0b0b0;stroke-linecap:square;stroke-width:0.8;"/>
     </g>
     <g id="line2d_20">
      <g>
       <use style="stroke:#000000;stroke-width:0.8;" x="198" xlink:href="#m6c3aee6813" y="803.446459"/>
      </g>
     </g>
     <g id="text_11">
      <!-- 0.5 -->
      <g transform="translate(175.096875 807.245678)scale(0.1 -0.1)">
       <defs>
        <path d="M 10.796875 72.90625 
L 49.515625 72.90625 
L 49.515625 64.59375 
L 19.828125 64.59375 
L 19.828125 46.734375 
Q 21.96875 47.46875 24.109375 47.828125 
Q 26.265625 48.1875 28.421875 48.1875 
Q 40.625 48.1875 47.75 41.5 
Q 54.890625 34.8125 54.890625 23.390625 
Q 54.890625 11.625 47.5625 5.09375 
Q 40.234375 -1.421875 26.90625 -1.421875 
Q 22.3125 -1.421875 17.546875 -0.640625 
Q 12.796875 0.140625 7.71875 1.703125 
L 7.71875 11.625 
Q 12.109375 9.234375 16.796875 8.0625 
Q 21.484375 6.890625 26.703125 6.890625 
Q 35.15625 6.890625 40.078125 11.328125 
Q 45.015625 15.765625 45.015625 23.390625 
Q 45.015625 31 40.078125 35.4375 
Q 35.15625 39.890625 26.703125 39.890625 
Q 22.75 39.890625 18.8125 39.015625 
Q 14.890625 38.140625 10.796875 36.28125 
z
" id="DejaVuSans-53"/>
       </defs>
       <use xlink:href="#DejaVuSans-48"/>
       <use x="63.623047" xlink:href="#DejaVuSans-46"/>
       <use x="95.410156" xlink:href="#DejaVuSans-53"/>
      </g>
     </g>
    </g>
    <g id="ytick_3">
     <g id="line2d_21">
      <path clip-path="url(#p820c501422)" d="M 198 675.570294 
L 1425.6 675.570294 
" style="fill:none;stroke:#b0b0b0;stroke-linecap:square;stroke-width:0.8;"/>
     </g>
     <g id="line2d_22">
      <g>
       <use style="stroke:#000000;stroke-width:0.8;" x="198" xlink:href="#m6c3aee6813" y="675.570294"/>
      </g>
     </g>
     <g id="text_12">
      <!-- 1.0 -->
      <g transform="translate(175.096875 679.369513)scale(0.1 -0.1)">
       <use xlink:href="#DejaVuSans-49"/>
       <use x="63.623047" xlink:href="#DejaVuSans-46"/>
       <use x="95.410156" xlink:href="#DejaVuSans-48"/>
      </g>
     </g>
    </g>
    <g id="ytick_4">
     <g id="line2d_23">
      <path clip-path="url(#p820c501422)" d="M 198 547.694129 
L 1425.6 547.694129 
" style="fill:none;stroke:#b0b0b0;stroke-linecap:square;stroke-width:0.8;"/>
     </g>
     <g id="line2d_24">
      <g>
       <use style="stroke:#000000;stroke-width:0.8;" x="198" xlink:href="#m6c3aee6813" y="547.694129"/>
      </g>
     </g>
     <g id="text_13">
      <!-- 1.5 -->
      <g transform="translate(175.096875 551.493347)scale(0.1 -0.1)">
       <use xlink:href="#DejaVuSans-49"/>
       <use x="63.623047" xlink:href="#DejaVuSans-46"/>
       <use x="95.410156" xlink:href="#DejaVuSans-53"/>
      </g>
     </g>
    </g>
    <g id="ytick_5">
     <g id="line2d_25">
      <path clip-path="url(#p820c501422)" d="M 198 419.817963 
L 1425.6 419.817963 
" style="fill:none;stroke:#b0b0b0;stroke-linecap:square;stroke-width:0.8;"/>
     </g>
     <g id="line2d_26">
      <g>
       <use style="stroke:#000000;stroke-width:0.8;" x="198" xlink:href="#m6c3aee6813" y="419.817963"/>
      </g>
     </g>
     <g id="text_14">
      <!-- 2.0 -->
      <g transform="translate(175.096875 423.617182)scale(0.1 -0.1)">
       <use xlink:href="#DejaVuSans-50"/>
       <use x="63.623047" xlink:href="#DejaVuSans-46"/>
       <use x="95.410156" xlink:href="#DejaVuSans-48"/>
      </g>
     </g>
    </g>
    <g id="ytick_6">
     <g id="line2d_27">
      <path clip-path="url(#p820c501422)" d="M 198 291.941798 
L 1425.6 291.941798 
" style="fill:none;stroke:#b0b0b0;stroke-linecap:square;stroke-width:0.8;"/>
     </g>
     <g id="line2d_28">
      <g>
       <use style="stroke:#000000;stroke-width:0.8;" x="198" xlink:href="#m6c3aee6813" y="291.941798"/>
      </g>
     </g>
     <g id="text_15">
      <!-- 2.5 -->
      <g transform="translate(175.096875 295.741016)scale(0.1 -0.1)">
       <use xlink:href="#DejaVuSans-50"/>
       <use x="63.623047" xlink:href="#DejaVuSans-46"/>
       <use x="95.410156" xlink:href="#DejaVuSans-53"/>
      </g>
     </g>
    </g>
    <g id="ytick_7">
     <g id="line2d_29">
      <path clip-path="url(#p820c501422)" d="M 198 164.065632 
L 1425.6 164.065632 
" style="fill:none;stroke:#b0b0b0;stroke-linecap:square;stroke-width:0.8;"/>
     </g>
     <g id="line2d_30">
      <g>
       <use style="stroke:#000000;stroke-width:0.8;" x="198" xlink:href="#m6c3aee6813" y="164.065632"/>
      </g>
     </g>
     <g id="text_16">
      <!-- 3.0 -->
      <g transform="translate(175.096875 167.864851)scale(0.1 -0.1)">
       <defs>
        <path d="M 40.578125 39.3125 
Q 47.65625 37.796875 51.625 33 
Q 55.609375 28.21875 55.609375 21.1875 
Q 55.609375 10.40625 48.1875 4.484375 
Q 40.765625 -1.421875 27.09375 -1.421875 
Q 22.515625 -1.421875 17.65625 -0.515625 
Q 12.796875 0.390625 7.625 2.203125 
L 7.625 11.71875 
Q 11.71875 9.328125 16.59375 8.109375 
Q 21.484375 6.890625 26.8125 6.890625 
Q 36.078125 6.890625 40.9375 10.546875 
Q 45.796875 14.203125 45.796875 21.1875 
Q 45.796875 27.640625 41.28125 31.265625 
Q 36.765625 34.90625 28.71875 34.90625 
L 20.21875 34.90625 
L 20.21875 43.015625 
L 29.109375 43.015625 
Q 36.375 43.015625 40.234375 45.921875 
Q 44.09375 48.828125 44.09375 54.296875 
Q 44.09375 59.90625 40.109375 62.90625 
Q 36.140625 65.921875 28.71875 65.921875 
Q 24.65625 65.921875 20.015625 65.03125 
Q 15.375 64.15625 9.8125 62.3125 
L 9.8125 71.09375 
Q 15.4375 72.65625 20.34375 73.4375 
Q 25.25 74.21875 29.59375 74.21875 
Q 40.828125 74.21875 47.359375 69.109375 
Q 53.90625 64.015625 53.90625 55.328125 
Q 53.90625 49.265625 50.4375 45.09375 
Q 46.96875 40.921875 40.578125 39.3125 
z
" id="DejaVuSans-51"/>
       </defs>
       <use xlink:href="#DejaVuSans-51"/>
       <use x="63.623047" xlink:href="#DejaVuSans-46"/>
       <use x="95.410156" xlink:href="#DejaVuSans-48"/>
      </g>
     </g>
    </g>
    <g id="text_17">
     <!-- RMS Accel (g) -->
     <g transform="translate(169.017188 571.813281)rotate(-90)scale(0.1 -0.1)">
      <defs>
       <path d="M 44.390625 34.1875 
Q 47.5625 33.109375 50.5625 29.59375 
Q 53.5625 26.078125 56.59375 19.921875 
L 66.609375 0 
L 56 0 
L 46.6875 18.703125 
Q 43.0625 26.03125 39.671875 28.421875 
Q 36.28125 30.8125 30.421875 30.8125 
L 19.671875 30.8125 
L 19.671875 0 
L 9.8125 0 
L 9.8125 72.90625 
L 32.078125 72.90625 
Q 44.578125 72.90625 50.734375 67.671875 
Q 56.890625 62.453125 56.890625 51.90625 
Q 56.890625 45.015625 53.6875 40.46875 
Q 50.484375 35.9375 44.390625 34.1875 
z
M 19.671875 64.796875 
L 19.671875 38.921875 
L 32.078125 38.921875 
Q 39.203125 38.921875 42.84375 42.21875 
Q 46.484375 45.515625 46.484375 51.90625 
Q 46.484375 58.296875 42.84375 61.546875 
Q 39.203125 64.796875 32.078125 64.796875 
z
" id="DejaVuSans-82"/>
       <path d="M 9.8125 72.90625 
L 24.515625 72.90625 
L 43.109375 23.296875 
L 61.8125 72.90625 
L 76.515625 72.90625 
L 76.515625 0 
L 66.890625 0 
L 66.890625 64.015625 
L 48.09375 14.015625 
L 38.1875 14.015625 
L 19.390625 64.015625 
L 19.390625 0 
L 9.8125 0 
z
" id="DejaVuSans-77"/>
       <path d="M 53.515625 70.515625 
L 53.515625 60.890625 
Q 47.90625 63.578125 42.921875 64.890625 
Q 37.9375 66.21875 33.296875 66.21875 
Q 25.25 66.21875 20.875 63.09375 
Q 16.5 59.96875 16.5 54.203125 
Q 16.5 49.359375 19.40625 46.890625 
Q 22.3125 44.4375 30.421875 42.921875 
L 36.375 41.703125 
Q 47.40625 39.59375 52.65625 34.296875 
Q 57.90625 29 57.90625 20.125 
Q 57.90625 9.515625 50.796875 4.046875 
Q 43.703125 -1.421875 29.984375 -1.421875 
Q 24.8125 -1.421875 18.96875 -0.25 
Q 13.140625 0.921875 6.890625 3.21875 
L 6.890625 13.375 
Q 12.890625 10.015625 18.65625 8.296875 
Q 24.421875 6.59375 29.984375 6.59375 
Q 38.421875 6.59375 43.015625 9.90625 
Q 47.609375 13.234375 47.609375 19.390625 
Q 47.609375 24.75 44.3125 27.78125 
Q 41.015625 30.8125 33.5 32.328125 
L 27.484375 33.5 
Q 16.453125 35.6875 11.515625 40.375 
Q 6.59375 45.0625 6.59375 53.421875 
Q 6.59375 63.09375 13.40625 68.65625 
Q 20.21875 74.21875 32.171875 74.21875 
Q 37.3125 74.21875 42.625 73.28125 
Q 47.953125 72.359375 53.515625 70.515625 
z
" id="DejaVuSans-83"/>
       <path d="M 34.1875 63.1875 
L 20.796875 26.90625 
L 47.609375 26.90625 
z
M 28.609375 72.90625 
L 39.796875 72.90625 
L 67.578125 0 
L 57.328125 0 
L 50.6875 18.703125 
L 17.828125 18.703125 
L 11.1875 0 
L 0.78125 0 
z
" id="DejaVuSans-65"/>
       <path d="M 9.421875 75.984375 
L 18.40625 75.984375 
L 18.40625 0 
L 9.421875 0 
z
" id="DejaVuSans-108"/>
       <path d="M 45.40625 27.984375 
Q 45.40625 37.75 41.375 43.109375 
Q 37.359375 48.484375 30.078125 48.484375 
Q 22.859375 48.484375 18.828125 43.109375 
Q 14.796875 37.75 14.796875 27.984375 
Q 14.796875 18.265625 18.828125 12.890625 
Q 22.859375 7.515625 30.078125 7.515625 
Q 37.359375 7.515625 41.375 12.890625 
Q 45.40625 18.265625 45.40625 27.984375 
z
M 54.390625 6.78125 
Q 54.390625 -7.171875 48.1875 -13.984375 
Q 42 -20.796875 29.203125 -20.796875 
Q 24.46875 -20.796875 20.265625 -20.09375 
Q 16.0625 -19.390625 12.109375 -17.921875 
L 12.109375 -9.1875 
Q 16.0625 -11.328125 19.921875 -12.34375 
Q 23.78125 -13.375 27.78125 -13.375 
Q 36.625 -13.375 41.015625 -8.765625 
Q 45.40625 -4.15625 45.40625 5.171875 
L 45.40625 9.625 
Q 42.625 4.78125 38.28125 2.390625 
Q 33.9375 0 27.875 0 
Q 17.828125 0 11.671875 7.65625 
Q 5.515625 15.328125 5.515625 27.984375 
Q 5.515625 40.671875 11.671875 48.328125 
Q 17.828125 56 27.875 56 
Q 33.9375 56 38.28125 53.609375 
Q 42.625 51.21875 45.40625 46.390625 
L 45.40625 54.6875 
L 54.390625 54.6875 
z
" id="DejaVuSans-103"/>
      </defs>
      <use xlink:href="#DejaVuSans-82"/>
      <use x="69.482422" xlink:href="#DejaVuSans-77"/>
      <use x="155.761719" xlink:href="#DejaVuSans-83"/>
      <use x="219.238281" xlink:href="#DejaVuSans-32"/>
      <use x="251.025391" xlink:href="#DejaVuSans-65"/>
      <use x="317.683594" xlink:href="#DejaVuSans-99"/>
      <use x="372.664062" xlink:href="#DejaVuSans-99"/>
      <use x="427.644531" xlink:href="#DejaVuSans-101"/>
      <use x="489.167969" xlink:href="#DejaVuSans-108"/>
      <use x="516.951172" xlink:href="#DejaVuSans-32"/>
      <use x="548.738281" xlink:href="#DejaVuSans-40"/>
      <use x="587.751953" xlink:href="#DejaVuSans-103"/>
      <use x="651.228516" xlink:href="#DejaVuSans-41"/>
     </g>
    </g>
   </g>
   <g id="line2d_31">
    <path clip-path="url(#p820c501422)" d="M 253.8 762.992017 
L 254.218134 756.579433 
L 254.636268 884.91485 
L 255.054402 725.557638 
L 255.472537 699.104249 
L 255.890671 746.898206 
L 256.308805 714.87637 
L 257.145073 762.635928 
L 257.563207 863.399303 
L 257.981341 903.095456 
L 258.399475 770.505336 
L 258.81761 775.80689 
L 259.235744 729.490277 
L 259.653878 778.98444 
L 260.072012 812.35312 
L 260.490146 753.605488 
L 260.90828 744.618831 
L 261.326414 871.747508 
L 261.744549 772.515569 
L 262.162683 769.784272 
L 262.580817 452.075418 
L 262.998951 526.732072 
L 263.417085 734.32052 
L 263.835219 739.618692 
L 264.253353 734.195708 
L 264.671487 741.977615 
L 265.089622 708.534262 
L 265.507756 695.065764 
L 265.92589 732.471238 
L 266.344024 790.344129 
L 266.762158 709.130522 
L 267.180292 749.246352 
L 267.598426 820.063533 
L 268.434695 227.211368 
L 268.852829 599.788341 
L 269.270963 166.663636 
L 269.689097 885.48019 
L 270.107231 871.432107 
L 270.525365 583.906672 
L 270.943499 804.99103 
L 271.361634 823.139983 
L 271.779768 814.116033 
L 272.616036 716.410765 
L 273.452304 482.477451 
L 273.870438 451.561578 
L 274.288572 873.568377 
L 274.706707 736.557457 
L 275.124841 728.102977 
L 275.542975 740.833767 
L 275.961109 819.861526 
L 276.379243 748.255269 
L 276.797377 810.445179 
L 277.215511 764.149599 
L 277.633646 869.659488 
L 278.05178 869.066842 
L 278.469914 900.376654 
L 278.888048 824.280494 
L 279.306182 771.082691 
L 279.724316 866.819155 
L 280.14245 874.513445 
L 280.560584 745.650526 
L 280.978719 764.575935 
L 281.396853 713.292847 
L 281.814987 481.015508 
L 282.233121 780.832433 
L 282.651255 756.328787 
L 283.069389 898.356783 
L 284.323792 771.216356 
L 284.741926 766.247155 
L 285.16006 712.266041 
L 285.578194 307.076645 
L 285.996328 249.762946 
L 286.414462 811.193558 
L 286.832596 747.727789 
L 287.250731 515.092626 
L 287.668865 792.100107 
L 288.086999 748.805182 
L 288.505133 741.575134 
L 288.923267 840.95936 
L 289.341401 820.567661 
L 289.759535 761.22399 
L 290.17767 869.155645 
L 290.595804 899.652644 
L 291.432072 815.141909 
L 291.850206 851.890314 
L 292.26834 904.167574 
L 293.104608 826.712694 
L 293.522743 862.62898 
L 293.940877 836.487815 
L 294.359011 840.769535 
L 294.777145 848.68169 
L 295.195279 899.665773 
L 295.613413 860.050827 
L 296.031547 771.92026 
L 296.449682 768.430767 
L 296.867816 749.268145 
L 297.28595 807.265871 
L 297.704084 808.499082 
L 298.122218 811.100097 
L 298.540352 862.802581 
L 298.958486 840.532687 
L 299.37662 778.691276 
L 299.794755 770.450312 
L 300.212889 855.677425 
L 300.631023 812.638723 
L 301.049157 816.366445 
L 301.467291 901.383342 
L 301.885425 902.013716 
L 302.303559 901.009574 
L 302.721694 905.5785 
L 303.139828 752.411809 
L 303.557962 743.728037 
L 303.976096 744.661633 
L 304.39423 264.235378 
L 304.812364 469.517502 
L 305.230498 741.265701 
L 305.648632 822.92778 
L 306.066767 872.924986 
L 306.484901 892.672736 
L 306.903035 822.735833 
L 307.321169 814.987255 
L 307.739303 812.399096 
L 308.157437 870.033886 
L 308.575571 746.555209 
L 308.993706 785.926576 
L 309.41184 767.456244 
L 309.829974 674.726904 
L 310.248108 764.338274 
L 310.666242 890.810782 
L 311.084376 836.835555 
L 311.50251 902.966336 
L 312.338779 745.75471 
L 312.756913 740.08375 
L 313.175047 749.993209 
L 313.593181 574.1552 
L 314.429449 897.585616 
L 314.847583 851.674615 
L 315.265717 899.131971 
L 315.683852 737.955655 
L 316.101986 815.239325 
L 316.52012 740.26489 
L 316.938254 748.199854 
L 317.356388 707.833311 
L 317.774522 819.057581 
L 318.192656 850.54883 
L 318.610791 899.119061 
L 319.028925 870.671379 
L 319.865193 745.775497 
L 320.283327 860.434738 
L 320.701461 819.416343 
L 321.119595 894.278544 
L 321.955864 898.238476 
L 322.373998 879.371332 
L 323.210266 766.056132 
L 323.6284 800.667182 
L 324.046534 812.28524 
L 324.464668 768.095104 
L 324.882803 767.779245 
L 325.719071 722.625268 
L 326.555339 812.628782 
L 326.973473 818.125574 
L 327.391607 493.225043 
L 327.809741 480.954986 
L 328.227876 784.864908 
L 328.64601 762.323381 
L 329.064144 771.773827 
L 329.482278 755.60242 
L 329.900412 815.68738 
L 330.318546 736.988235 
L 330.73668 738.082986 
L 331.154815 475.076712 
L 331.991083 808.893204 
L 332.409217 819.307375 
L 332.827351 734.854505 
L 333.245485 814.123185 
L 333.663619 745.117009 
L 334.499888 739.9182 
L 334.918022 876.637249 
L 335.336156 853.859704 
L 335.75429 738.399939 
L 336.172424 890.560439 
L 336.590558 753.813123 
L 337.008692 533.92876 
L 337.426827 728.101885 
L 337.844961 762.099978 
L 338.263095 724.819231 
L 338.681229 803.460557 
L 339.099363 764.982549 
L 339.935631 736.327979 
L 340.353765 843.873716 
L 340.7719 899.525315 
L 341.190034 900.492088 
L 341.608168 897.513644 
L 342.444436 764.942727 
L 342.86257 717.996221 
L 343.280704 738.440188 
L 343.698839 749.551891 
L 344.116973 727.565075 
L 344.953241 899.664276 
L 345.371375 821.440203 
L 346.207643 903.986359 
L 346.625777 893.44509 
L 347.043912 898.874037 
L 347.462046 893.389909 
L 347.88018 896.793091 
L 348.716448 766.186581 
L 349.552716 875.880679 
L 349.970851 827.677454 
L 350.388985 760.420925 
L 350.807119 816.453734 
L 351.225253 895.556237 
L 351.643387 893.274576 
L 352.061521 828.557302 
L 352.479655 729.262316 
L 352.897789 765.339889 
L 353.315924 870.731962 
L 353.734058 856.638153 
L 354.152192 902.353534 
L 354.570326 822.505286 
L 354.98846 858.979616 
L 355.406594 825.683959 
L 355.824728 819.541843 
L 356.242862 835.56227 
L 356.660997 865.625298 
L 357.079131 882.231627 
L 357.497265 836.453154 
L 357.915399 892.739699 
L 358.333533 813.44653 
L 358.751667 837.977951 
L 359.169801 806.032051 
L 359.587936 855.965103 
L 360.00607 743.97899 
L 360.424204 742.039249 
L 360.842338 764.440323 
L 361.260472 821.4796 
L 361.678606 900.377903 
L 362.09674 857.537682 
L 362.514874 728.503486 
L 362.933009 742.164448 
L 363.351143 291.687138 
L 363.769277 750.962074 
L 364.187411 704.249139 
L 364.605545 885.520562 
L 365.023679 902.428319 
L 365.441813 835.709186 
L 365.859948 896.712309 
L 366.278082 899.099697 
L 366.696216 814.449555 
L 367.532484 736.817935 
L 368.368752 898.272629 
L 368.786886 898.745598 
L 369.623155 894.372875 
L 370.041289 872.414348 
L 370.459423 783.755258 
L 370.877557 734.283334 
L 371.295691 478.501201 
L 371.713825 822.77451 
L 372.13196 769.562914 
L 372.550094 752.485276 
L 372.968228 400.020294 
L 373.386362 742.476759 
L 373.804496 695.150022 
L 374.22263 859.170127 
L 374.640764 863.780612 
L 375.058898 894.402371 
L 375.477033 758.804181 
L 375.895167 897.920951 
L 376.313301 752.121542 
L 376.731435 744.575837 
L 377.149569 895.959716 
L 377.567703 759.931452 
L 377.985837 802.038528 
L 378.403972 887.567472 
L 378.822106 819.183073 
L 379.24024 891.532593 
L 379.658374 871.992468 
L 380.076508 903.749197 
L 380.494642 867.739596 
L 380.912776 822.076901 
L 381.33091 749.833198 
L 381.749045 816.759468 
L 382.167179 819.528299 
L 382.585313 864.31891 
L 383.003447 819.426387 
L 383.421581 840.609417 
L 383.839715 897.327124 
L 384.257849 898.479943 
L 384.675984 897.915764 
L 385.094118 824.744445 
L 385.512252 819.987492 
L 385.930386 894.136393 
L 386.34852 827.440186 
L 386.766654 846.189586 
L 387.184788 849.476315 
L 387.602922 744.157222 
L 388.021057 735.960544 
L 388.439191 872.669531 
L 388.857325 896.863113 
L 389.275459 828.69943 
L 389.693593 815.93399 
L 390.111727 720.851097 
L 390.529861 733.057897 
L 391.36613 837.660827 
L 391.784264 820.156599 
L 392.202398 827.468801 
L 392.620532 883.749146 
L 393.038666 844.120209 
L 393.4568 877.357329 
L 393.874934 867.025588 
L 394.293069 891.367176 
L 394.711203 770.838365 
L 395.129337 725.605993 
L 395.547471 736.398408 
L 395.965605 796.162083 
L 396.383739 818.236274 
L 396.801873 773.68197 
L 397.220007 892.705793 
L 397.638142 845.693067 
L 398.056276 893.889597 
L 398.47441 756.418926 
L 398.892544 755.700159 
L 399.310678 781.074003 
L 399.728812 726.544662 
L 400.146946 740.711137 
L 400.565081 716.464065 
L 400.983215 826.018469 
L 401.401349 735.220684 
L 401.819483 819.383049 
L 402.237617 723.810776 
L 402.655751 845.364437 
L 403.073885 765.12538 
L 403.492019 890.848934 
L 403.910154 893.346849 
L 404.328288 771.405484 
L 404.746422 774.518099 
L 405.164556 757.769433 
L 405.58269 480.873471 
L 406.000824 856.682682 
L 406.418958 894.158189 
L 406.837093 887.43984 
L 407.255227 727.923932 
L 407.673361 781.061709 
L 408.091495 751.785888 
L 408.509629 814.948625 
L 408.927763 830.060824 
L 409.345897 820.918525 
L 409.764031 845.188917 
L 410.182166 829.336528 
L 410.6003 841.176462 
L 411.018434 894.966259 
L 411.436568 889.73242 
L 411.854702 860.340068 
L 412.272836 881.647173 
L 412.69097 887.012605 
L 413.109105 898.18011 
L 413.527239 898.502561 
L 413.945373 896.636154 
L 414.363507 855.047977 
L 414.781641 750.169083 
L 415.199775 859.487818 
L 415.617909 818.020041 
L 416.036043 824.946111 
L 416.454178 819.339035 
L 416.872312 802.722522 
L 417.290446 822.994016 
L 417.70858 834.72974 
L 418.126714 737.39683 
L 418.544848 895.308654 
L 418.962982 835.487481 
L 419.381117 820.736484 
L 420.217385 902.228683 
L 420.635519 818.68999 
L 421.053653 825.609424 
L 421.471787 812.484592 
L 421.889921 863.28994 
L 422.308055 825.18303 
L 422.72619 882.500255 
L 423.562458 901.338118 
L 423.980592 797.752865 
L 424.398726 881.223545 
L 424.81686 867.048075 
L 425.234994 899.369933 
L 425.653129 885.195241 
L 426.071263 875.494396 
L 426.489397 870.787081 
L 426.907531 878.983954 
L 427.325665 817.671865 
L 428.161933 896.65316 
L 428.580067 830.558117 
L 428.998202 903.590356 
L 429.416336 894.836053 
L 429.83447 864.77043 
L 430.252604 861.577125 
L 430.670738 829.486752 
L 431.088872 849.908668 
L 431.507006 839.784471 
L 431.925141 896.417393 
L 432.343275 850.452624 
L 432.761409 760.439465 
L 433.597677 871.519178 
L 434.015811 821.181745 
L 434.433945 869.380266 
L 434.852079 871.55641 
L 435.270214 823.521264 
L 435.688348 869.454581 
L 436.106482 901.624976 
L 436.524616 888.716462 
L 436.94275 844.247581 
L 437.360884 599.916226 
L 437.779018 734.89465 
L 438.197152 830.454579 
L 438.615287 857.533125 
L 439.033421 831.474246 
L 439.451555 752.00849 
L 439.869689 739.627394 
L 440.287823 811.350447 
L 440.705957 751.568205 
L 441.124091 474.11427 
L 441.542226 731.848091 
L 441.96036 702.517967 
L 442.378494 843.78513 
L 442.796628 889.854592 
L 443.214762 902.403757 
L 443.632896 831.683634 
L 444.05103 741.452754 
L 444.469164 742.842925 
L 444.887299 854.54868 
L 445.305433 819.682687 
L 445.723567 842.201286 
L 446.141701 821.408214 
L 446.559835 863.767725 
L 446.977969 814.690327 
L 447.396103 837.392862 
L 447.814238 836.400719 
L 448.232372 462.496943 
L 448.650506 632.642122 
L 449.06864 457.678486 
L 449.486774 569.061254 
L 450.323042 852.602638 
L 450.741176 902.914726 
L 451.159311 870.493712 
L 451.577445 828.402437 
L 451.995579 851.947146 
L 452.413713 752.452381 
L 452.831847 727.689938 
L 453.249981 835.878894 
L 453.668115 901.034284 
L 454.08625 824.692918 
L 454.504384 824.380768 
L 454.922518 848.058467 
L 455.340652 761.280216 
L 455.758786 729.984063 
L 456.17692 765.162688 
L 456.595054 730.744799 
L 457.013188 796.119348 
L 457.431323 901.134505 
L 457.849457 866.168603 
L 458.267591 856.290086 
L 458.685725 744.151589 
L 459.103859 497.913186 
L 459.521993 752.806669 
L 459.940127 813.313941 
L 460.358262 836.315221 
L 460.776396 731.881566 
L 461.612664 813.632441 
L 462.030798 472.806786 
L 462.448932 888.288469 
L 462.867066 895.607946 
L 463.2852 775.716607 
L 463.703335 898.276316 
L 464.121469 732.541545 
L 464.539603 899.035004 
L 464.957737 782.192574 
L 465.375871 900.646952 
L 465.794005 829.042111 
L 466.212139 811.873872 
L 466.630274 899.797711 
L 467.048408 741.432646 
L 467.466542 824.634374 
L 467.884676 786.526493 
L 468.30281 819.541025 
L 468.720944 826.340256 
L 469.139078 875.108545 
L 469.557212 893.853536 
L 469.975347 856.775398 
L 470.393481 843.669921 
L 470.811615 820.015744 
L 471.229749 876.94674 
L 471.647883 790.690043 
L 472.066017 812.161931 
L 472.484151 824.627642 
L 472.902286 900.581689 
L 473.32042 903.542828 
L 473.738554 817.169143 
L 474.156688 824.413871 
L 474.574822 824.891526 
L 474.992956 741.558537 
L 475.41109 819.495679 
L 475.829224 811.775467 
L 476.247359 815.399414 
L 477.083627 888.831929 
L 477.501761 773.670864 
L 477.919895 755.79114 
L 478.338029 771.422885 
L 479.174297 878.5696 
L 479.592432 906.18852 
L 480.010566 854.3185 
L 480.4287 825.210864 
L 480.846834 854.243989 
L 481.264968 825.348626 
L 481.683102 719.676119 
L 482.101236 836.247241 
L 482.519371 795.841588 
L 482.937505 785.675381 
L 483.355639 785.820382 
L 483.773773 531.33199 
L 484.191907 862.45896 
L 484.610041 838.065235 
L 485.028175 902.377884 
L 485.864444 748.934445 
L 486.282578 670.061045 
L 486.700712 815.921572 
L 487.118846 741.411027 
L 487.53698 733.37982 
L 487.955114 744.225584 
L 488.373248 791.483537 
L 488.791383 821.285511 
L 489.209517 870.775844 
L 489.627651 828.03488 
L 490.463919 901.97784 
L 490.882053 902.4269 
L 491.300187 901.895495 
L 491.718321 903.979819 
L 492.136456 879.034564 
L 492.55459 866.1679 
L 492.972724 816.872596 
L 493.390858 817.068571 
L 493.808992 825.040644 
L 494.227126 766.974856 
L 494.64526 745.005853 
L 495.063395 745.661637 
L 495.481529 795.669172 
L 495.899663 761.70984 
L 496.317797 801.208124 
L 496.735931 785.930455 
L 497.572199 898.031936 
L 497.990333 906.88973 
L 498.408468 899.574076 
L 498.826602 761.195575 
L 499.244736 785.250824 
L 499.66287 904.570708 
L 500.499138 746.706628 
L 500.917272 784.842311 
L 501.753541 897.189697 
L 502.171675 878.822435 
L 502.589809 790.018591 
L 503.007943 749.940839 
L 503.426077 768.99631 
L 503.844211 899.441504 
L 504.262345 899.567643 
L 504.68048 903.040574 
L 505.098614 823.410926 
L 505.934882 874.462492 
L 506.353016 800.993355 
L 506.77115 894.998207 
L 507.189284 412.986868 
L 508.025553 756.760753 
L 508.443687 816.154873 
L 508.861821 829.257882 
L 509.279955 744.579807 
L 509.698089 790.245729 
L 510.116223 822.563833 
L 510.534357 815.122155 
L 510.952492 747.558511 
L 511.370626 796.297154 
L 511.78876 743.371736 
L 512.206894 803.70514 
L 512.625028 766.324564 
L 513.043162 815.3618 
L 513.461296 830.350525 
L 513.87943 875.101051 
L 514.297565 853.776926 
L 514.715699 471.221303 
L 515.133833 802.532889 
L 515.551967 906.36769 
L 515.970101 841.619056 
L 516.388235 903.699082 
L 517.224504 731.293619 
L 517.642638 814.293793 
L 518.060772 734.505964 
L 518.478906 739.992538 
L 518.89704 735.421266 
L 519.315174 750.260361 
L 520.151442 899.088372 
L 520.987711 841.83463 
L 521.405845 864.290824 
L 521.823979 822.264415 
L 522.242113 845.403837 
L 522.660247 847.701681 
L 523.078381 888.125453 
L 523.496516 840.938371 
L 523.91465 817.547555 
L 524.332784 815.229944 
L 524.750918 816.568231 
L 525.169052 709.066573 
L 525.587186 427.940081 
L 526.00532 883.713612 
L 526.423454 494.807736 
L 526.841589 875.609594 
L 527.677857 617.915223 
L 528.095991 591.031259 
L 528.514125 748.865165 
L 528.932259 734.307069 
L 529.350393 769.471502 
L 529.768528 731.408399 
L 530.186662 874.507182 
L 531.441064 490.664752 
L 531.859198 741.086094 
L 532.277332 825.065737 
L 532.695466 886.430599 
L 533.113601 780.669554 
L 533.531735 607.857694 
L 533.949869 783.759148 
L 534.368003 840.309149 
L 534.786137 717.791605 
L 535.204271 865.164919 
L 535.622405 765.329138 
L 536.04054 812.899968 
L 536.458674 753.560574 
L 536.876808 812.710102 
L 537.294942 752.98751 
L 537.713076 727.459114 
L 538.13121 812.988027 
L 538.549344 474.71207 
L 538.967478 745.244296 
L 539.385613 789.470625 
L 539.803747 850.951261 
L 540.221881 895.604569 
L 540.640015 847.992877 
L 541.058149 903.265469 
L 541.476283 874.554118 
L 541.894417 825.684338 
L 542.730686 790.498116 
L 543.14882 797.403354 
L 543.566954 842.71148 
L 543.985088 767.020879 
L 544.403222 741.177451 
L 544.821356 843.315366 
L 545.23949 815.471742 
L 545.657625 826.503457 
L 546.075759 905.352314 
L 546.493893 907.342976 
L 546.912027 894.675245 
L 547.330161 904.902039 
L 547.748295 817.221666 
L 548.166429 897.875649 
L 548.584564 857.170536 
L 549.002698 888.065517 
L 549.420832 863.337454 
L 549.838966 854.238382 
L 550.2571 864.139598 
L 551.093368 753.006386 
L 551.511502 754.584393 
L 551.929637 725.578514 
L 552.347771 732.442231 
L 552.765905 487.11054 
L 553.184039 735.016713 
L 553.602173 821.011331 
L 554.020307 838.610742 
L 554.438441 878.520741 
L 554.856575 831.651857 
L 555.27471 818.556416 
L 555.692844 813.168003 
L 556.110978 839.250063 
L 556.529112 902.318181 
L 556.947246 895.046336 
L 557.36538 904.671323 
L 557.783514 834.672914 
L 558.201649 904.382608 
L 558.619783 844.945212 
L 559.037917 736.746834 
L 559.456051 727.037513 
L 559.874185 907.936364 
L 560.292319 876.893965 
L 560.710453 797.47086 
L 561.128587 750.337133 
L 561.546722 749.588471 
L 561.964856 732.281827 
L 562.38299 738.225901 
L 562.801124 819.695032 
L 563.219258 751.599077 
L 563.637392 739.765608 
L 564.055526 476.678635 
L 564.473661 825.275248 
L 564.891795 825.111739 
L 565.309929 804.617217 
L 565.728063 794.904358 
L 566.564331 907.418988 
L 566.982465 904.047024 
L 567.400599 902.054579 
L 567.818734 812.498834 
L 568.655002 903.775242 
L 569.073136 903.601374 
L 569.49127 901.561763 
L 569.909404 898.167473 
L 570.327538 848.692934 
L 570.745673 899.19923 
L 571.163807 900.287538 
L 571.581941 905.368683 
L 572.000075 818.584886 
L 572.418209 905.213419 
L 572.836343 903.669834 
L 573.254477 894.644771 
L 573.672611 736.273902 
L 574.090746 829.645259 
L 574.50888 826.904457 
L 574.927014 847.760316 
L 575.345148 743.086067 
L 575.763282 756.318261 
L 576.181416 849.707377 
L 576.59955 904.874977 
L 577.017685 901.850134 
L 577.435819 736.627374 
L 577.853953 631.108672 
L 578.272087 892.883246 
L 578.690221 732.952767 
L 579.108355 492.688097 
L 579.526489 416.114959 
L 579.944623 728.535596 
L 580.362758 751.983299 
L 580.780892 903.974339 
L 581.199026 904.653865 
L 581.61716 862.535416 
L 582.035294 901.568368 
L 582.453428 905.089565 
L 582.871562 905.846068 
L 583.289697 892.85905 
L 583.707831 903.965415 
L 584.125965 858.701669 
L 584.544099 834.530093 
L 584.962233 904.495501 
L 585.380367 743.591743 
L 585.798501 785.973642 
L 586.216635 891.967875 
L 586.63477 827.424392 
L 587.052904 731.658657 
L 587.471038 759.89999 
L 587.889172 856.829853 
L 588.307306 726.732556 
L 588.72544 902.808504 
L 589.143574 662.486015 
L 589.561709 740.362348 
L 589.979843 306.145695 
L 590.397977 744.041852 
L 590.816111 873.640936 
L 591.234245 861.025537 
L 591.652379 829.319639 
L 592.070513 878.984488 
L 592.488647 901.386125 
L 592.906782 750.661551 
L 593.324916 740.667303 
L 593.74305 807.950592 
L 594.161184 837.531798 
L 594.579318 817.434196 
L 594.997452 901.148699 
L 595.415586 894.902971 
L 595.83372 897.635472 
L 596.251855 789.659994 
L 596.669989 738.017123 
L 597.088123 782.336816 
L 597.506257 723.241834 
L 597.924391 824.407959 
L 598.342525 703.222454 
L 598.760659 816.203053 
L 599.178794 850.609899 
L 600.015062 612.939971 
L 600.433196 750.442322 
L 600.85133 738.049571 
L 601.269464 732.434393 
L 601.687598 731.449224 
L 602.105732 813.230236 
L 602.523867 741.672351 
L 602.942001 777.013069 
L 603.360135 899.559024 
L 603.778269 819.943985 
L 604.196403 825.731188 
L 604.614537 901.383515 
L 605.032671 808.513334 
L 605.450806 832.5871 
L 605.86894 774.880891 
L 606.287074 846.772094 
L 607.123342 734.190524 
L 607.541476 902.77755 
L 607.95961 825.118636 
L 608.377744 720.81608 
L 608.795879 763.789337 
L 609.214013 902.435344 
L 609.632147 748.565514 
L 610.050281 838.958987 
L 610.468415 834.039372 
L 610.886549 854.012823 
L 611.304683 787.615393 
L 611.722818 817.150705 
L 612.140952 813.118862 
L 612.559086 833.647676 
L 612.97722 837.925295 
L 613.395354 835.903683 
L 613.813488 901.403933 
L 614.231622 886.811287 
L 614.649756 727.047798 
L 615.067891 733.529683 
L 615.486025 884.857469 
L 615.904159 739.13292 
L 616.322293 734.75248 
L 616.740427 817.794913 
L 617.158561 850.430177 
L 617.576695 808.273014 
L 617.99483 808.758273 
L 618.412964 824.646298 
L 618.831098 779.438406 
L 619.249232 823.753425 
L 619.667366 817.430166 
L 620.0855 818.981164 
L 620.503634 854.519579 
L 620.921768 737.339741 
L 621.339903 901.37274 
L 621.758037 741.715349 
L 622.176171 825.506412 
L 622.594305 737.39957 
L 623.012439 826.109749 
L 623.430573 875.918771 
L 623.848707 776.894813 
L 624.266842 578.55335 
L 624.684976 746.60768 
L 625.521244 899.768032 
L 625.939378 839.256387 
L 626.357512 738.784798 
L 626.775646 724.858967 
L 627.19378 732.068155 
L 627.611915 757.141656 
L 628.448183 729.000583 
L 628.866317 510.60215 
L 629.284451 738.115371 
L 629.702585 512.180977 
L 630.120719 761.755949 
L 630.538854 786.36463 
L 630.956988 785.363233 
L 631.375122 863.001415 
L 631.793256 809.543579 
L 632.21139 513.69665 
L 632.629524 816.784416 
L 633.047658 897.871728 
L 633.465792 873.067616 
L 633.883927 901.684309 
L 634.302061 801.989017 
L 635.138329 826.269291 
L 635.556463 427.553031 
L 635.974597 524.447633 
L 636.392731 834.249156 
L 636.810865 476.098669 
L 637.229 801.782816 
L 637.647134 868.760659 
L 638.065268 900.76983 
L 638.483402 745.768426 
L 638.901536 789.542495 
L 639.737804 905.563843 
L 640.155939 819.514752 
L 640.574073 877.559375 
L 640.992207 902.062979 
L 641.410341 807.586078 
L 641.828475 895.695825 
L 642.246609 733.36211 
L 642.664743 886.811421 
L 643.501012 857.098155 
L 643.919146 760.216664 
L 644.33728 749.266864 
L 644.755414 572.577274 
L 645.173548 739.168543 
L 645.591682 736.174966 
L 646.009816 741.96572 
L 646.427951 513.325105 
L 646.846085 798.800021 
L 647.264219 785.689921 
L 647.682353 787.343457 
L 648.100487 827.522377 
L 648.518621 720.977714 
L 648.936755 810.129576 
L 649.354889 834.789586 
L 649.773024 818.550644 
L 650.191158 824.531453 
L 650.609292 834.509403 
L 651.44556 896.58104 
L 652.281828 753.748405 
L 652.699963 723.117603 
L 653.118097 796.265904 
L 653.536231 795.239123 
L 653.954365 764.040029 
L 654.372499 825.839396 
L 654.790633 742.208273 
L 655.208767 829.3471 
L 655.626901 760.674982 
L 656.045036 717.854027 
L 656.881304 863.934178 
L 657.299438 729.359046 
L 657.717572 475.210586 
L 658.135706 827.088169 
L 658.55384 757.617427 
L 658.971975 738.648786 
L 659.390109 829.675668 
L 659.808243 753.606565 
L 660.226377 890.360231 
L 660.644511 902.610284 
L 661.062645 901.22385 
L 661.480779 779.439388 
L 662.317048 870.077506 
L 662.735182 862.071095 
L 663.153316 836.324915 
L 663.57145 828.627086 
L 663.989584 876.045317 
L 664.407718 792.2656 
L 664.825852 904.55127 
L 665.662121 782.351357 
L 666.080255 866.036646 
L 666.498389 834.013666 
L 666.916523 875.263922 
L 667.334657 829.334719 
L 667.752791 750.982346 
L 668.170925 729.474225 
L 668.58906 877.23146 
L 669.007194 903.213016 
L 669.425328 622.047817 
L 669.843462 815.092977 
L 670.261596 736.820363 
L 670.67973 765.185029 
L 671.097864 745.253673 
L 671.515999 492.932979 
L 671.934133 489.726757 
L 672.770401 830.101161 
L 673.188535 814.659282 
L 673.606669 716.694417 
L 674.024803 499.060867 
L 674.861072 773.639799 
L 675.279206 777.488243 
L 675.69734 505.979889 
L 676.115474 759.015154 
L 676.533608 731.23792 
L 676.951742 766.969547 
L 677.369876 874.525176 
L 677.78801 755.15983 
L 678.206145 869.312135 
L 678.624279 900.780768 
L 679.042413 834.954309 
L 679.460547 745.277826 
L 679.878681 832.966572 
L 680.296815 843.040733 
L 680.714949 779.146645 
L 681.133084 487.770397 
L 681.551218 781.888208 
L 681.969352 739.755883 
L 682.387486 819.007878 
L 682.80562 648.850691 
L 683.223754 573.916074 
L 683.641888 904.501325 
L 684.060022 901.899801 
L 684.478157 798.920259 
L 684.896291 899.030771 
L 685.314425 763.590452 
L 685.732559 863.662146 
L 686.150693 832.6432 
L 686.986961 732.05208 
L 687.405096 891.499675 
L 687.82323 874.721631 
L 688.241364 706.659539 
L 688.659498 745.288485 
L 689.077632 841.933587 
L 689.495766 850.767553 
L 689.9139 902.907318 
L 690.332034 831.294215 
L 690.750169 869.180222 
L 691.168303 789.987404 
L 691.586437 831.2738 
L 692.004571 787.970335 
L 692.422705 727.957521 
L 692.840839 796.514141 
L 693.677108 738.207372 
L 694.095242 769.839538 
L 694.513376 828.058688 
L 694.93151 771.970539 
L 695.349644 820.635747 
L 695.767778 844.797636 
L 696.185912 835.615182 
L 696.604046 865.012824 
L 697.022181 764.994767 
L 697.440315 834.299172 
L 697.858449 866.25595 
L 698.276583 727.136453 
L 698.694717 509.045271 
L 699.112851 728.942613 
L 699.530985 705.701139 
L 700.367254 852.203683 
L 700.785388 852.149536 
L 701.203522 734.157043 
L 701.621656 878.857453 
L 702.03979 725.905904 
L 702.457924 878.606539 
L 702.876058 825.449662 
L 703.294193 390.734032 
L 703.712327 745.187413 
L 704.130461 882.738642 
L 704.548595 801.359634 
L 704.966729 826.26208 
L 705.384863 861.5368 
L 705.802997 875.702527 
L 706.221132 830.792494 
L 706.639266 823.523785 
L 707.0574 769.63639 
L 707.475534 765.628685 
L 707.893668 896.307728 
L 708.311802 837.218175 
L 708.729936 743.853695 
L 709.14807 719.888094 
L 709.566205 571.195813 
L 709.984339 743.022829 
L 710.402473 825.814024 
L 710.820607 757.271918 
L 711.238741 780.802369 
L 712.075009 858.469779 
L 712.493143 768.430568 
L 712.911278 775.163146 
L 713.329412 824.869283 
L 713.747546 898.183675 
L 714.16568 822.824262 
L 714.583814 822.971666 
L 715.420082 869.03237 
L 715.838217 857.494112 
L 716.256351 889.291718 
L 716.674485 779.538074 
L 717.092619 779.084565 
L 717.510753 899.627336 
L 717.928887 821.495683 
L 718.347021 832.303423 
L 718.765155 870.421045 
L 719.18329 736.318687 
L 719.601424 904.461697 
L 720.019558 826.129835 
L 720.437692 816.210101 
L 720.855826 773.021723 
L 721.27396 844.064803 
L 721.692094 822.541479 
L 722.110229 713.719655 
L 722.528363 833.962794 
L 722.946497 900.914499 
L 723.364631 858.876838 
L 723.782765 723.454871 
L 724.200899 730.087419 
L 724.619033 828.273577 
L 725.037167 770.258655 
L 725.455302 774.26958 
L 725.873436 483.552938 
L 726.29157 780.150497 
L 726.709704 719.210623 
L 727.127838 817.891609 
L 727.545972 858.008191 
L 727.964106 824.363564 
L 728.382241 743.983017 
L 728.800375 823.729585 
L 729.218509 766.703929 
L 729.636643 837.372787 
L 730.054777 829.924731 
L 730.472911 875.797115 
L 730.891045 880.876462 
L 731.309179 852.551338 
L 731.727314 862.412357 
L 732.145448 885.119028 
L 732.563582 738.631003 
L 732.981716 876.566757 
L 733.817984 779.695946 
L 734.236118 828.567599 
L 734.654253 821.904923 
L 735.072387 847.615324 
L 735.490521 718.686737 
L 735.908655 822.175199 
L 736.326789 871.041226 
L 736.744923 818.220662 
L 737.163057 734.84598 
L 737.581191 549.879596 
L 737.999326 830.81589 
L 738.41746 766.253334 
L 738.835594 735.058072 
L 739.253728 763.228215 
L 740.089996 901.838642 
L 740.50813 903.304712 
L 740.926265 867.31425 
L 741.344399 736.283432 
L 741.762533 823.74073 
L 742.180667 828.995662 
L 742.598801 792.698524 
L 743.016935 740.140613 
L 743.435069 513.153751 
L 743.853203 776.395638 
L 744.271338 828.604556 
L 744.689472 768.341741 
L 745.107606 736.011701 
L 745.52574 790.738091 
L 745.943874 754.19577 
L 746.362008 760.171676 
L 746.780142 830.08752 
L 747.198277 731.767633 
L 747.616411 521.795149 
L 748.034545 759.639711 
L 748.452679 865.644652 
L 748.870813 724.92471 
L 750.125215 870.135231 
L 750.54335 903.030777 
L 750.961484 868.366077 
L 751.379618 875.766645 
L 751.797752 719.542647 
L 752.215886 857.792186 
L 752.63402 903.461334 
L 753.052154 757.180072 
L 753.470288 738.456892 
L 753.888423 567.321301 
L 754.306557 901.101097 
L 754.724691 899.671776 
L 755.142825 712.782264 
L 755.560959 595.016581 
L 755.979093 844.475963 
L 756.397227 896.343823 
L 756.815362 781.210206 
L 757.233496 899.298827 
L 757.65163 827.938518 
L 758.069764 833.032868 
L 758.487898 728.624474 
L 758.906032 890.977449 
L 759.324166 849.906742 
L 759.7423 866.100348 
L 760.160435 891.546103 
L 760.578569 766.552636 
L 760.996703 719.058021 
L 761.414837 852.508674 
L 761.832971 757.595763 
L 762.251105 848.563191 
L 762.669239 714.678555 
L 763.087374 850.474019 
L 763.505508 874.781968 
L 763.923642 868.849607 
L 764.341776 902.809368 
L 764.75991 899.522679 
L 765.178044 881.337383 
L 765.596178 897.309685 
L 766.014312 825.098949 
L 766.432447 886.499227 
L 766.850581 877.450564 
L 767.268715 865.188249 
L 767.686849 821.392628 
L 768.104983 826.653573 
L 768.523117 870.944047 
L 769.359386 721.931389 
L 769.77752 823.787735 
L 770.195654 870.538772 
L 770.613788 583.894983 
L 771.031922 721.091566 
L 771.450056 733.110259 
L 771.86819 839.737375 
L 772.286324 905.09967 
L 773.122593 777.187531 
L 773.540727 730.683345 
L 773.958861 764.570079 
L 774.376995 824.148419 
L 774.795129 867.04545 
L 775.213263 825.145498 
L 775.631398 853.826483 
L 776.049532 802.78753 
L 776.467666 883.304582 
L 776.8858 825.975811 
L 777.303934 842.110209 
L 777.722068 734.516924 
L 778.140202 826.121239 
L 778.558336 851.92045 
L 778.976471 524.452881 
L 779.394605 772.526717 
L 779.812739 780.42963 
L 780.230873 783.842364 
L 780.649007 905.299852 
L 781.067141 829.02416 
L 781.485275 832.71367 
L 781.90341 866.901499 
L 782.321544 789.872893 
L 782.739678 742.784728 
L 783.157812 771.093483 
L 783.575946 902.815821 
L 783.99408 828.927222 
L 784.412214 839.398877 
L 784.830348 873.693445 
L 785.248483 873.775997 
L 786.084751 827.136003 
L 786.502885 874.3026 
L 786.921019 825.045815 
L 787.339153 883.84115 
L 787.757287 823.403521 
L 788.175422 901.201917 
L 788.593556 832.365422 
L 789.01169 851.2435 
L 789.429824 835.895444 
L 789.847958 831.117086 
L 790.266092 823.745071 
L 790.684226 837.540129 
L 791.10236 834.579019 
L 791.520495 902.640209 
L 791.938629 789.117206 
L 792.356763 783.827806 
L 792.774897 886.774252 
L 793.193031 727.611694 
L 793.611165 712.66312 
L 794.029299 642.937185 
L 794.447433 723.885635 
L 794.865568 727.725422 
L 795.283702 728.537755 
L 795.701836 733.5249 
L 796.11997 783.35222 
L 796.538104 806.049513 
L 796.956238 558.255993 
L 797.374372 607.006745 
L 797.792507 774.492872 
L 798.210641 820.096804 
L 798.628775 819.830565 
L 799.046909 738.618431 
L 799.465043 718.212131 
L 799.883177 731.651482 
L 800.301311 521.586787 
L 800.719445 827.949417 
L 801.13758 900.021918 
L 801.555714 900.764776 
L 801.973848 860.439537 
L 802.391982 885.003486 
L 802.810116 901.897864 
L 803.646384 762.314641 
L 804.064519 727.33073 
L 804.482653 903.492067 
L 804.900787 851.430498 
L 805.318921 864.270841 
L 805.737055 726.681429 
L 806.155189 847.399382 
L 806.573323 724.245943 
L 806.991457 826.889628 
L 807.409592 752.053516 
L 807.827726 790.831162 
L 808.24586 799.459569 
L 808.663994 874.373949 
L 809.082128 868.865293 
L 809.500262 732.853986 
L 809.918396 818.669325 
L 810.336531 700.746687 
L 810.754665 470.678026 
L 811.172799 747.686175 
L 811.590933 485.169955 
L 812.009067 308.630627 
L 812.427201 876.082014 
L 812.845335 869.509538 
L 813.263469 903.133113 
L 813.681604 739.769807 
L 814.099738 729.208955 
L 814.936006 889.460005 
L 815.35414 904.027849 
L 815.772274 824.520173 
L 816.190408 901.673985 
L 816.608543 726.453254 
L 817.026677 829.148755 
L 817.444811 733.350588 
L 817.862945 846.648833 
L 818.281079 753.958377 
L 818.699213 877.739515 
L 819.117347 475.104591 
L 819.535481 748.775055 
L 819.953616 651.418166 
L 820.37175 902.214152 
L 820.789884 858.983256 
L 821.208018 712.810195 
L 821.626152 902.425622 
L 822.044286 743.477649 
L 822.46242 877.666003 
L 822.880555 813.342832 
L 823.298689 897.873149 
L 823.716823 891.337301 
L 824.134957 848.326334 
L 824.553091 822.415811 
L 824.971225 818.574364 
L 825.389359 730.998733 
L 825.807493 504.575415 
L 826.225628 784.721654 
L 826.643762 715.112289 
L 827.061896 898.436614 
L 827.898164 819.290987 
L 828.316298 904.095299 
L 828.734432 853.225463 
L 829.152567 739.272168 
L 829.988835 903.533444 
L 830.406969 849.075968 
L 830.825103 902.170984 
L 831.243237 901.545025 
L 831.661371 816.063777 
L 832.079505 829.723634 
L 832.49764 891.717004 
L 832.915774 905.721901 
L 833.333908 905.418353 
L 833.752042 729.68527 
L 834.170176 822.503229 
L 834.58831 743.553208 
L 835.006444 832.625016 
L 835.424578 735.210158 
L 835.842713 704.830574 
L 836.260847 762.220549 
L 836.678981 714.762465 
L 837.097115 729.546223 
L 837.515249 736.201695 
L 837.933383 736.542334 
L 838.351517 826.169513 
L 838.769652 492.377591 
L 839.187786 476.092247 
L 839.60592 377.254402 
L 840.024054 816.778359 
L 840.442188 829.336235 
L 840.860322 820.357146 
L 841.278456 731.740338 
L 841.69659 724.70541 
L 842.114725 869.461545 
L 842.532859 807.08256 
L 842.950993 863.033674 
L 843.369127 748.762756 
L 843.787261 738.432773 
L 844.205395 831.522492 
L 844.623529 450.715187 
L 845.041664 737.571588 
L 845.459798 488.367141 
L 845.877932 542.317639 
L 846.296066 758.159375 
L 846.7142 683.446344 
L 847.132334 466.273783 
L 847.550468 777.413948 
L 847.968602 518.625898 
L 848.386737 593.943717 
L 848.804871 821.123185 
L 849.223005 834.541393 
L 849.641139 827.067696 
L 850.059273 748.821273 
L 850.477407 726.829786 
L 850.895541 586.898861 
L 851.313676 509.627639 
L 851.73181 732.31662 
L 852.149944 530.953226 
L 852.568078 720.776214 
L 852.986212 736.087794 
L 853.404346 787.004156 
L 853.82248 739.681495 
L 854.240614 816.519404 
L 854.658749 741.874813 
L 855.076883 812.843163 
L 855.495017 756.765209 
L 855.913151 819.10865 
L 856.331285 833.971576 
L 856.749419 830.656379 
L 857.167553 739.067365 
L 857.585688 853.731983 
L 858.003822 760.568474 
L 858.421956 829.71276 
L 858.84009 500.640286 
L 859.676358 895.111046 
L 860.094492 761.625453 
L 860.512626 727.792799 
L 860.930761 900.305858 
L 861.348895 741.160725 
L 861.767029 746.118182 
L 862.185163 769.699349 
L 862.603297 740.925218 
L 863.439565 750.689166 
L 864.275834 872.059632 
L 864.693968 786.530244 
L 865.112102 756.913952 
L 865.530236 738.174378 
L 865.94837 759.66968 
L 866.366504 796.584121 
L 866.784638 813.142498 
L 867.202773 904.394868 
L 867.620907 854.717048 
L 868.039041 834.149987 
L 868.457175 463.725572 
L 868.875309 457.229905 
L 869.293443 397.448273 
L 869.711577 804.493337 
L 870.129712 796.18942 
L 870.547846 804.336898 
L 870.96598 830.080447 
L 871.384114 821.408031 
L 871.802248 676.672644 
L 872.638516 797.048244 
L 873.05665 769.228088 
L 873.474785 729.606228 
L 873.892919 811.573205 
L 874.311053 800.184472 
L 874.729187 900.642804 
L 875.147321 873.264354 
L 875.983589 769.562185 
L 876.401723 711.331118 
L 876.819858 813.43458 
L 877.237992 770.050217 
L 877.656126 764.538075 
L 878.07426 825.399157 
L 878.492394 839.537743 
L 878.910528 902.688344 
L 879.328662 861.564921 
L 879.746797 746.816167 
L 880.164931 825.668526 
L 880.583065 831.051576 
L 881.001199 906.593456 
L 881.419333 844.251757 
L 881.837467 734.007625 
L 882.255601 505.407546 
L 882.673735 500.180611 
L 883.09187 728.964022 
L 883.510004 534.984343 
L 883.928138 739.934629 
L 884.346272 805.056727 
L 884.764406 752.792037 
L 885.18254 826.95629 
L 886.018809 905.520064 
L 886.436943 801.239496 
L 886.855077 904.388635 
L 887.273211 876.168404 
L 887.691345 901.745172 
L 888.527613 738.989514 
L 888.945747 821.700579 
L 889.363882 831.598317 
L 889.782016 901.726892 
L 890.20015 849.377307 
L 890.618284 812.349462 
L 891.036418 748.374954 
L 891.454552 901.038066 
L 891.872686 904.613756 
L 892.290821 815.333626 
L 892.708955 764.786607 
L 893.127089 744.04598 
L 893.545223 833.064342 
L 893.963357 744.622136 
L 894.381491 740.339742 
L 894.799625 745.130008 
L 895.217759 759.813039 
L 895.635894 742.128278 
L 896.054028 744.178109 
L 896.472162 875.433667 
L 896.890296 741.974996 
L 897.30843 745.830406 
L 897.726564 752.933864 
L 898.144698 896.38351 
L 898.562833 819.732054 
L 898.980967 842.399469 
L 899.399101 823.966151 
L 899.817235 822.055547 
L 900.235369 837.791477 
L 900.653503 812.357963 
L 901.071637 816.865768 
L 901.489771 796.813233 
L 901.907906 726.44364 
L 902.32604 739.853386 
L 902.744174 834.615865 
L 903.162308 774.742666 
L 903.580442 822.28251 
L 903.998576 808.464693 
L 904.41671 874.843049 
L 904.834845 904.514631 
L 905.252979 903.706317 
L 905.671113 875.500254 
L 906.089247 832.815057 
L 906.507381 824.856012 
L 906.925515 760.964803 
L 907.343649 893.19146 
L 907.761783 735.766812 
L 908.179918 743.702032 
L 908.598052 612.090177 
L 909.43432 866.893367 
L 909.852454 860.567055 
L 910.270588 797.155387 
L 910.688722 817.573305 
L 911.106857 667.165661 
L 911.524991 729.788123 
L 911.943125 756.145342 
L 912.361259 740.914144 
L 912.779393 551.128734 
L 913.197527 735.67201 
L 914.033795 901.476206 
L 914.45193 901.829725 
L 914.870064 905.678966 
L 915.288198 902.50472 
L 915.706332 905.412801 
L 916.124466 896.006372 
L 916.5426 836.640756 
L 916.960734 632.847959 
L 917.797003 856.680947 
L 918.215137 728.528631 
L 918.633271 820.904878 
L 919.051405 557.998185 
L 919.469539 823.416892 
L 919.887673 537.023319 
L 920.305807 804.564308 
L 920.723942 772.377365 
L 921.56021 878.949408 
L 921.978344 827.347543 
L 922.814612 907.010139 
L 923.232746 827.132844 
L 923.65088 800.477221 
L 924.069015 844.172822 
L 924.487149 823.417085 
L 925.323417 904.49627 
L 926.159685 828.270477 
L 926.577819 825.893352 
L 926.995954 820.233809 
L 927.414088 826.70709 
L 928.250356 745.430122 
L 928.66849 836.535638 
L 929.086624 693.286736 
L 929.504758 875.142136 
L 929.922892 822.915362 
L 930.341027 735.145282 
L 930.759161 327.275683 
L 931.177295 508.137027 
L 931.595429 509.987156 
L 932.013563 501.85277 
L 932.431697 742.216765 
L 932.849831 732.424398 
L 933.267966 365.923359 
L 933.6861 736.161421 
L 934.104234 470.040755 
L 934.522368 520.091875 
L 934.940502 753.099068 
L 935.358636 304.350894 
L 935.77677 814.330517 
L 936.194904 831.707489 
L 936.613039 778.009841 
L 937.031173 889.297851 
L 937.449307 827.227652 
L 937.867441 899.821246 
L 938.285575 894.394619 
L 938.703709 892.08367 
L 939.121843 755.711834 
L 939.539978 442.909763 
L 939.958112 902.56779 
L 940.376246 791.248661 
L 940.79438 736.768938 
L 941.212514 788.933709 
L 941.630648 731.839954 
L 942.048782 830.971832 
L 942.466916 832.378532 
L 942.885051 721.191487 
L 943.303185 897.404765 
L 943.721319 743.11845 
L 944.139453 821.353092 
L 944.975721 901.057937 
L 945.393855 831.440882 
L 945.81199 832.248183 
L 946.230124 729.185401 
L 946.648258 811.655565 
L 947.066392 799.261652 
L 947.484526 777.823915 
L 947.90266 819.308065 
L 948.320794 820.737067 
L 948.738928 823.885816 
L 949.157063 738.014952 
L 949.575197 764.11309 
L 949.993331 501.78327 
L 950.411465 749.119299 
L 950.829599 826.782958 
L 951.247733 752.918986 
L 951.665867 859.81553 
L 952.084001 727.663059 
L 953.338404 900.22056 
L 953.756538 893.22059 
L 954.592806 729.871048 
L 955.429075 824.211191 
L 955.847209 692.571768 
L 956.265343 501.536535 
L 956.683477 819.255357 
L 957.101611 722.730248 
L 957.519745 755.360356 
L 958.356013 861.387726 
L 958.774148 844.443296 
L 959.192282 878.292507 
L 959.610416 828.356788 
L 960.02855 723.99832 
L 960.446684 708.449944 
L 960.864818 781.642703 
L 961.282952 728.058118 
L 961.701087 738.777601 
L 962.119221 871.549478 
L 962.537355 823.268418 
L 962.955489 826.694493 
L 963.373623 739.49124 
L 963.791757 486.161656 
L 964.209891 728.113533 
L 964.628025 898.616923 
L 965.04616 792.205144 
L 965.464294 827.683548 
L 965.882428 754.897364 
L 966.300562 492.930835 
L 966.718696 815.37794 
L 967.13683 898.575433 
L 967.554964 788.173977 
L 967.973099 824.642806 
L 968.391233 833.880121 
L 968.809367 893.672544 
L 969.227501 857.251926 
L 969.645635 899.531983 
L 970.481903 793.525154 
L 970.900037 825.441504 
L 971.318172 736.586301 
L 971.736306 589.308081 
L 972.15444 835.579628 
L 972.572574 901.717044 
L 972.990708 897.215953 
L 973.408842 824.949009 
L 973.826976 818.614975 
L 974.245111 825.77544 
L 974.663245 788.020475 
L 975.081379 856.808521 
L 975.499513 826.020637 
L 975.917647 819.854221 
L 976.335781 873.494551 
L 976.753915 892.705306 
L 977.172049 893.026231 
L 977.590184 838.816601 
L 978.008318 824.174027 
L 978.426452 865.633356 
L 978.844586 741.746973 
L 979.26272 827.353298 
L 979.680854 731.68589 
L 980.098988 820.676532 
L 980.517123 823.403449 
L 980.935257 886.900885 
L 981.353391 892.985476 
L 981.771525 895.449754 
L 982.189659 893.254206 
L 982.607793 892.907005 
L 983.444061 745.872099 
L 983.862196 742.059235 
L 984.28033 829.084253 
L 984.698464 827.566398 
L 985.116598 734.40098 
L 985.534732 705.498006 
L 985.952866 827.23405 
L 986.371 750.490895 
L 986.789135 741.022236 
L 987.207269 831.537468 
L 987.625403 760.382664 
L 988.043537 858.118942 
L 988.879805 828.455214 
L 989.297939 845.043857 
L 989.716073 893.147807 
L 990.134208 737.79344 
L 990.552342 871.999283 
L 990.970476 869.747719 
L 991.38861 718.344694 
L 991.806744 864.268024 
L 992.224878 890.812019 
L 992.643012 742.948313 
L 993.061146 817.332707 
L 993.479281 507.649968 
L 993.897415 731.70487 
L 994.315549 803.38646 
L 994.733683 736.407194 
L 995.151817 860.843389 
L 995.569951 820.352482 
L 996.824354 838.183288 
L 997.242488 787.240334 
L 997.660622 887.718209 
L 998.078756 748.64499 
L 998.49689 830.953106 
L 998.915024 727.97709 
L 999.333158 818.753358 
L 999.751293 786.811704 
L 1000.169427 818.143375 
L 1000.587561 771.748197 
L 1001.005695 885.722449 
L 1001.841963 797.618254 
L 1002.260097 833.149378 
L 1002.678232 769.274065 
L 1003.5145 900.248515 
L 1003.932634 822.438461 
L 1004.768902 903.153607 
L 1005.187036 893.382517 
L 1005.60517 761.197407 
L 1006.023305 824.332745 
L 1006.441439 405.253619 
L 1006.859573 819.301851 
L 1007.277707 724.535158 
L 1007.695841 791.249918 
L 1008.113975 820.589969 
L 1008.950244 686.383673 
L 1009.368378 781.426025 
L 1009.786512 394.283447 
L 1010.204646 741.323338 
L 1010.62278 779.09688 
L 1011.040914 738.162329 
L 1011.459048 718.451959 
L 1011.877182 868.009211 
L 1012.295317 902.151289 
L 1012.713451 737.702419 
L 1013.131585 855.919107 
L 1013.549719 780.42867 
L 1013.967853 895.853028 
L 1014.385987 814.492624 
L 1014.804121 895.117427 
L 1015.222256 832.368874 
L 1015.64039 789.800948 
L 1016.058524 833.17821 
L 1016.476658 778.738466 
L 1016.894792 844.931385 
L 1017.312926 858.373872 
L 1017.73106 897.442982 
L 1018.149194 817.723705 
L 1018.567329 877.225356 
L 1018.985463 819.508104 
L 1019.403597 895.994314 
L 1019.821731 831.511942 
L 1020.239865 800.197838 
L 1020.657999 839.36653 
L 1021.076133 899.127641 
L 1021.494268 876.248959 
L 1021.912402 884.959814 
L 1022.330536 900.372446 
L 1023.166804 748.393273 
L 1023.584938 894.630389 
L 1024.003072 827.024402 
L 1024.421206 882.687034 
L 1024.839341 732.303801 
L 1025.257475 861.730256 
L 1025.675609 741.084761 
L 1026.093743 835.582559 
L 1026.511877 733.249772 
L 1026.930011 866.459664 
L 1027.348145 835.473879 
L 1027.76628 897.004115 
L 1028.184414 898.133513 
L 1028.602548 841.641335 
L 1029.020682 718.963801 
L 1029.438816 833.308904 
L 1029.85695 834.596562 
L 1030.275084 849.005994 
L 1030.693218 772.734055 
L 1031.111353 831.428126 
L 1031.529487 831.72057 
L 1031.947621 866.269865 
L 1032.365755 819.330301 
L 1032.783889 816.077624 
L 1033.202023 827.27477 
L 1033.620157 901.78221 
L 1034.038291 898.44937 
L 1034.456426 885.831024 
L 1034.87456 899.576913 
L 1035.292694 830.952532 
L 1035.710828 876.524167 
L 1036.128962 775.464603 
L 1036.547096 892.55678 
L 1036.96523 894.705992 
L 1037.383365 898.460848 
L 1037.801499 818.357544 
L 1038.219633 831.832996 
L 1038.637767 898.42179 
L 1039.055901 832.818448 
L 1039.474035 841.113392 
L 1039.892169 867.076697 
L 1040.310303 869.193559 
L 1040.728438 864.015147 
L 1041.146572 899.567938 
L 1041.564706 864.136403 
L 1041.98284 880.616072 
L 1042.400974 843.354863 
L 1043.237242 813.321957 
L 1043.655377 827.343491 
L 1044.073511 863.950758 
L 1044.491645 730.948262 
L 1044.909779 733.499982 
L 1045.327913 873.037985 
L 1045.746047 736.802808 
L 1046.164181 772.953133 
L 1046.582315 744.689958 
L 1047.00045 826.580199 
L 1047.418584 829.240625 
L 1047.836718 892.725982 
L 1048.254852 822.429789 
L 1048.672986 846.417643 
L 1049.09112 735.87506 
L 1049.509254 726.541932 
L 1049.927389 772.133674 
L 1050.345523 770.945605 
L 1050.763657 681.972396 
L 1051.181791 766.305105 
L 1051.599925 826.540453 
L 1052.018059 827.004632 
L 1052.436193 738.559513 
L 1052.854327 760.409407 
L 1053.272462 898.394924 
L 1053.690596 902.298683 
L 1054.10873 886.671035 
L 1054.526864 832.030939 
L 1054.944998 823.523951 
L 1055.363132 849.818657 
L 1055.781266 771.609988 
L 1056.199401 851.779909 
L 1056.617535 832.56341 
L 1057.035669 770.057779 
L 1057.453803 743.199373 
L 1057.871937 861.573014 
L 1058.290071 849.950049 
L 1058.708205 832.094028 
L 1059.126339 842.239678 
L 1059.544474 777.805578 
L 1059.962608 786.786333 
L 1060.380742 831.107453 
L 1060.798876 832.055611 
L 1061.21701 897.937949 
L 1061.635144 775.787558 
L 1062.053278 732.835495 
L 1062.471413 832.819331 
L 1062.889547 900.210867 
L 1063.307681 844.129512 
L 1063.725815 887.489832 
L 1064.143949 837.105936 
L 1064.562083 836.939645 
L 1064.980217 856.514058 
L 1065.398351 896.394471 
L 1065.816486 832.31496 
L 1066.23462 886.730118 
L 1066.652754 817.255908 
L 1067.070888 867.039214 
L 1067.489022 870.184402 
L 1067.907156 867.460794 
L 1068.32529 842.346033 
L 1068.743425 763.015087 
L 1069.161559 738.459946 
L 1069.579693 486.692958 
L 1069.997827 727.604949 
L 1070.415961 688.308163 
L 1071.252229 882.340306 
L 1072.088498 896.406104 
L 1072.506632 869.681363 
L 1072.924766 787.226425 
L 1073.3429 827.378884 
L 1073.761034 824.501545 
L 1074.179168 858.254615 
L 1074.597302 834.07239 
L 1075.015436 730.569191 
L 1075.433571 734.507817 
L 1075.851705 728.389766 
L 1076.269839 714.72122 
L 1076.687973 791.314137 
L 1077.106107 829.049529 
L 1077.524241 896.352021 
L 1077.942375 831.038621 
L 1078.36051 831.52514 
L 1078.778644 842.766564 
L 1079.196778 902.277686 
L 1079.614912 791.450534 
L 1080.033046 903.486927 
L 1080.45118 803.723525 
L 1080.869314 835.245804 
L 1081.705583 726.570852 
L 1082.123717 864.239726 
L 1082.541851 786.053153 
L 1082.959985 897.054069 
L 1083.796253 755.917952 
L 1084.214387 819.579042 
L 1085.050656 899.694779 
L 1085.46879 859.211226 
L 1085.886924 899.101328 
L 1086.305058 867.640287 
L 1086.723192 895.979833 
L 1087.141326 821.338214 
L 1087.55946 901.072981 
L 1087.977595 838.463203 
L 1088.395729 896.700064 
L 1088.813863 899.110812 
L 1089.650131 779.62382 
L 1090.068265 772.877654 
L 1090.486399 800.269196 
L 1091.322668 870.270829 
L 1091.740802 826.870045 
L 1092.158936 838.210254 
L 1092.57707 824.129129 
L 1092.995204 823.727852 
L 1093.413338 764.706103 
L 1093.831472 732.449376 
L 1094.249607 551.006112 
L 1094.667741 561.397726 
L 1095.085875 441.871915 
L 1095.504009 734.264038 
L 1095.922143 821.302915 
L 1096.340277 735.67098 
L 1096.758411 491.073064 
L 1097.176546 759.041068 
L 1097.59468 731.197124 
L 1098.012814 742.210901 
L 1098.430948 727.501319 
L 1098.849082 815.947505 
L 1099.267216 830.514679 
L 1099.68535 734.011618 
L 1100.103484 826.747801 
L 1100.521619 845.9927 
L 1100.939753 810.55912 
L 1101.357887 812.580788 
L 1101.776021 864.039224 
L 1102.194155 872.298789 
L 1102.612289 818.346985 
L 1103.030423 832.984982 
L 1103.448558 793.249849 
L 1103.866692 494.434434 
L 1104.284826 452.244126 
L 1104.70296 682.901365 
L 1105.121094 341.794225 
L 1105.539228 771.086217 
L 1105.957362 808.333567 
L 1106.375496 878.986493 
L 1106.793631 894.157019 
L 1107.211765 886.070661 
L 1107.629899 889.260816 
L 1108.048033 875.974124 
L 1108.466167 832.646229 
L 1108.884301 893.701895 
L 1109.302435 887.548297 
L 1109.72057 835.172456 
L 1110.138704 898.127659 
L 1110.556838 897.905161 
L 1110.974972 883.639743 
L 1111.393106 838.106982 
L 1111.81124 867.430313 
L 1112.229374 874.832865 
L 1112.647508 718.410247 
L 1113.065643 760.614768 
L 1113.483777 822.163071 
L 1113.901911 827.242326 
L 1114.320045 754.50204 
L 1114.738179 817.979693 
L 1115.156313 748.671257 
L 1115.574447 556.753091 
L 1115.992581 680.37669 
L 1116.410716 571.769148 
L 1116.82885 762.972615 
L 1117.246984 734.580635 
L 1117.665118 857.452636 
L 1118.083252 791.720364 
L 1118.91952 358.189057 
L 1119.337655 347.003639 
L 1119.755789 779.996856 
L 1120.173923 819.722569 
L 1120.592057 827.878331 
L 1121.846459 582.955652 
L 1122.682728 875.681132 
L 1123.100862 873.553376 
L 1123.518996 401.407643 
L 1123.93713 734.269019 
L 1124.355264 857.511762 
L 1125.191532 794.39652 
L 1125.609667 796.760766 
L 1126.027801 726.093431 
L 1126.864069 894.308608 
L 1127.282203 812.171027 
L 1127.700337 854.078526 
L 1128.118471 822.156673 
L 1128.536605 898.756658 
L 1128.95474 905.16099 
L 1129.372874 903.449884 
L 1129.791008 899.133416 
L 1130.209142 901.248335 
L 1130.627276 828.972322 
L 1131.04541 815.408929 
L 1131.463544 826.738989 
L 1131.881679 815.118552 
L 1132.299813 828.881675 
L 1132.717947 900.983983 
L 1133.136081 823.195426 
L 1133.554215 900.816604 
L 1133.972349 823.915382 
L 1134.390483 900.851535 
L 1134.808617 901.656984 
L 1135.226752 877.08469 
L 1135.644886 833.724935 
L 1136.06302 825.094202 
L 1136.481154 827.021773 
L 1136.899288 785.834788 
L 1137.317422 800.490825 
L 1137.735556 800.443083 
L 1138.153691 842.198524 
L 1138.571825 900.026173 
L 1139.408093 775.601588 
L 1139.826227 862.208051 
L 1140.244361 817.970509 
L 1140.662495 855.160255 
L 1141.080629 819.222162 
L 1141.498764 899.462995 
L 1141.916898 788.91097 
L 1142.335032 776.939538 
L 1142.753166 751.189017 
L 1143.1713 714.52773 
L 1143.589434 866.684661 
L 1144.007568 740.703859 
L 1144.425703 741.89871 
L 1144.843837 899.790936 
L 1145.261971 815.079287 
L 1145.680105 824.827787 
L 1146.098239 900.079244 
L 1146.516373 902.199748 
L 1146.934507 900.269722 
L 1147.352641 840.070105 
L 1147.770776 840.863667 
L 1148.18891 824.143094 
L 1148.607044 802.758083 
L 1149.025178 824.809954 
L 1149.443312 818.405646 
L 1149.861446 733.317633 
L 1150.27958 510.478866 
L 1150.697714 732.887229 
L 1151.115849 725.805982 
L 1151.533983 725.797782 
L 1151.952117 745.994624 
L 1152.370251 822.359072 
L 1152.788385 748.284152 
L 1153.206519 444.570399 
L 1153.624653 782.997967 
L 1154.042788 749.621866 
L 1154.460922 789.290827 
L 1154.879056 892.836639 
L 1155.29719 735.036337 
L 1155.715324 339.638005 
L 1156.133458 729.105361 
L 1156.551592 795.592592 
L 1156.969726 736.300774 
L 1157.387861 734.772149 
L 1157.805995 820.608943 
L 1158.224129 815.090022 
L 1158.642263 900.995848 
L 1159.060397 882.892929 
L 1159.478531 848.316294 
L 1159.896665 627.188588 
L 1160.3148 788.989222 
L 1160.732934 835.98859 
L 1161.151068 828.273556 
L 1161.569202 815.58763 
L 1161.987336 798.77781 
L 1162.40547 902.304027 
L 1162.823604 899.07483 
L 1163.241738 823.665776 
L 1163.659873 827.179715 
L 1164.078007 902.390219 
L 1164.496141 831.097548 
L 1164.914275 735.753285 
L 1165.750543 836.48114 
L 1166.168677 865.448972 
L 1166.586812 818.530991 
L 1167.004946 737.377616 
L 1167.42308 733.778723 
L 1167.841214 812.865541 
L 1168.259348 806.82388 
L 1168.677482 757.505691 
L 1169.095616 736.824606 
L 1169.51375 492.679824 
L 1169.931885 812.127827 
L 1170.350019 869.936485 
L 1171.186287 807.404564 
L 1171.604421 847.43189 
L 1172.022555 744.032795 
L 1172.440689 829.006964 
L 1172.858824 595.936215 
L 1173.276958 758.226818 
L 1173.695092 602.320075 
L 1174.113226 520.96764 
L 1174.53136 789.463143 
L 1174.949494 728.954053 
L 1175.367628 751.774256 
L 1175.785762 781.958046 
L 1176.203897 733.096868 
L 1176.622031 539.361878 
L 1177.458299 889.226859 
L 1177.876433 619.728017 
L 1178.294567 830.96368 
L 1178.712701 794.270452 
L 1179.130836 735.277929 
L 1179.967104 858.505954 
L 1180.385238 812.350824 
L 1180.803372 788.434586 
L 1181.221506 825.515481 
L 1182.475909 548.573317 
L 1182.894043 721.396323 
L 1183.312177 732.069174 
L 1183.730311 730.776006 
L 1184.148445 535.833052 
L 1184.566579 394.901371 
L 1184.984713 816.122812 
L 1185.402848 897.309963 
L 1186.239116 893.194511 
L 1186.65725 565.862098 
L 1187.075384 787.958899 
L 1187.493518 900.162639 
L 1187.911652 891.056602 
L 1188.747921 785.946747 
L 1189.166055 803.869666 
L 1189.584189 898.950053 
L 1190.002323 901.881177 
L 1190.420457 883.684367 
L 1190.838591 894.735601 
L 1191.256725 901.479657 
L 1191.674859 842.505932 
L 1192.092994 857.590065 
L 1192.511128 900.791054 
L 1192.929262 841.833587 
L 1193.347396 894.732475 
L 1194.183664 794.885519 
L 1194.601798 513.855338 
L 1195.019933 822.667531 
L 1195.438067 734.458003 
L 1195.856201 730.627663 
L 1196.274335 738.39626 
L 1196.692469 830.614458 
L 1197.110603 835.936388 
L 1197.528737 733.004819 
L 1197.946871 729.524952 
L 1198.365006 730.749629 
L 1198.78314 722.977819 
L 1199.201274 719.887491 
L 1199.619408 723.326791 
L 1200.037542 417.79777 
L 1200.455676 738.775222 
L 1200.87381 823.581109 
L 1201.291945 733.6104 
L 1201.710079 834.95609 
L 1202.128213 816.583943 
L 1202.546347 867.186044 
L 1202.964481 890.901473 
L 1203.382615 815.885021 
L 1203.800749 613.897553 
L 1204.218883 727.97891 
L 1204.637018 743.277449 
L 1205.055152 605.330725 
L 1205.473286 541.019264 
L 1205.89142 809.720754 
L 1206.309554 796.064191 
L 1206.727688 566.575342 
L 1207.145822 220.196907 
L 1207.563957 500.814529 
L 1208.400225 515.867416 
L 1208.818359 412.050993 
L 1209.654627 611.205749 
L 1210.072761 856.979391 
L 1210.490895 895.985189 
L 1210.90903 861.107477 
L 1211.327164 843.399458 
L 1211.745298 717.708957 
L 1212.163432 809.930307 
L 1212.581566 814.084088 
L 1213.417834 694.045047 
L 1213.835969 522.384405 
L 1214.254103 817.59049 
L 1214.672237 749.170418 
L 1215.090371 715.760583 
L 1215.508505 747.85768 
L 1215.926639 730.858692 
L 1216.344773 795.085203 
L 1216.762907 816.377795 
L 1217.181042 805.839837 
L 1217.599176 811.226674 
L 1218.01731 806.560232 
L 1218.435444 736.579577 
L 1218.853578 505.962117 
L 1219.271712 737.228897 
L 1219.689846 723.026079 
L 1220.107981 894.927273 
L 1220.526115 845.23439 
L 1220.944249 829.199712 
L 1221.362383 581.931109 
L 1221.780517 720.415436 
L 1222.198651 820.669813 
L 1223.034919 738.615333 
L 1223.453054 473.286967 
L 1223.871188 511.297945 
L 1224.289322 737.405774 
L 1224.707456 728.103853 
L 1225.12559 886.899779 
L 1225.543724 897.300331 
L 1225.961858 879.368479 
L 1226.379993 899.131452 
L 1226.798127 866.444115 
L 1227.216261 480.041657 
L 1227.634395 502.544615 
L 1228.052529 757.360126 
L 1228.470663 783.191107 
L 1228.888797 737.513447 
L 1229.306931 747.102939 
L 1229.725066 835.761858 
L 1230.1432 875.765857 
L 1230.561334 757.221718 
L 1230.979468 756.770501 
L 1231.397602 730.71778 
L 1231.815736 745.177106 
L 1232.23387 871.937764 
L 1232.652004 841.028966 
L 1233.070139 892.020582 
L 1233.488273 740.695715 
L 1233.906407 525.070587 
L 1234.324541 733.34229 
L 1234.742675 822.046248 
L 1235.160809 756.40323 
L 1235.578943 861.091047 
L 1235.997078 834.362138 
L 1236.415212 733.627897 
L 1236.833346 777.218569 
L 1237.25148 905.380592 
L 1237.669614 797.684283 
L 1238.087748 745.287265 
L 1238.505882 901.286535 
L 1239.342151 745.992137 
L 1239.760285 756.854664 
L 1240.178419 362.551535 
L 1240.596553 755.533008 
L 1241.014687 889.774938 
L 1241.850955 739.393284 
L 1242.26909 527.01263 
L 1242.687224 680.148763 
L 1243.105358 902.715575 
L 1243.523492 827.45583 
L 1243.941626 893.885633 
L 1244.35976 827.262952 
L 1244.777894 801.636513 
L 1245.196028 824.039383 
L 1245.614163 828.647859 
L 1246.032297 830.164451 
L 1246.450431 764.939692 
L 1246.868565 811.821308 
L 1247.286699 797.960306 
L 1247.704833 831.593783 
L 1248.122967 899.466028 
L 1248.541102 725.661747 
L 1248.959236 744.663861 
L 1249.37737 575.069071 
L 1249.795504 734.342532 
L 1250.213638 323.052597 
L 1250.631772 868.602583 
L 1251.049906 384.203422 
L 1251.46804 514.166844 
L 1251.886175 803.047288 
L 1252.304309 495.5908 
L 1252.722443 723.21259 
L 1253.140577 822.869953 
L 1253.558711 827.498325 
L 1253.976845 825.675418 
L 1254.394979 800.847015 
L 1254.813114 593.85798 
L 1255.231248 514.319199 
L 1255.649382 898.73711 
L 1256.067516 903.477483 
L 1256.48565 843.249784 
L 1256.903784 825.373724 
L 1257.321918 904.231773 
L 1257.740052 829.529287 
L 1258.158187 791.410773 
L 1258.576321 837.603046 
L 1258.994455 904.679423 
L 1259.412589 730.463688 
L 1259.830723 726.521955 
L 1260.248857 898.981605 
L 1260.666991 896.133234 
L 1261.085126 862.344657 
L 1261.50326 868.18483 
L 1261.921394 834.250916 
L 1262.339528 877.408432 
L 1262.757662 877.234061 
L 1263.59393 655.971769 
L 1264.012064 729.168646 
L 1264.430199 857.034833 
L 1264.848333 780.199105 
L 1265.266467 824.950712 
L 1265.684601 716.765854 
L 1266.102735 862.39578 
L 1266.520869 903.102979 
L 1266.939003 723.036843 
L 1267.357138 776.169975 
L 1267.775272 797.368027 
L 1268.193406 808.277098 
L 1268.61154 718.698741 
L 1269.029674 860.670839 
L 1269.447808 874.241239 
L 1269.865942 824.610877 
L 1270.284076 725.551041 
L 1270.702211 503.233667 
L 1271.120345 707.43899 
L 1271.538479 510.843924 
L 1271.956613 726.623825 
L 1272.374747 877.195652 
L 1272.792881 905.371214 
L 1273.211015 879.707775 
L 1273.629149 903.749999 
L 1274.047284 817.924891 
L 1274.465418 870.732068 
L 1274.883552 822.114999 
L 1275.301686 834.165534 
L 1275.71982 827.129073 
L 1276.137954 899.837634 
L 1276.556088 822.265573 
L 1276.974223 800.643303 
L 1277.392357 900.712937 
L 1277.810491 724.741979 
L 1278.228625 828.637543 
L 1278.646759 727.217488 
L 1279.064893 748.792363 
L 1280.319296 876.636034 
L 1280.73743 842.797809 
L 1281.155564 869.16012 
L 1281.573698 823.118758 
L 1281.991832 873.526483 
L 1282.409966 730.930501 
L 1282.8281 821.834604 
L 1283.246235 759.50891 
L 1283.664369 826.663698 
L 1284.082503 860.695306 
L 1284.918771 587.144639 
L 1285.336905 524.722544 
L 1285.755039 725.701839 
L 1286.173173 271.027974 
L 1286.591308 731.519129 
L 1287.009442 795.513767 
L 1287.427576 904.848813 
L 1287.84571 759.607264 
L 1288.263844 725.555257 
L 1288.681978 789.863231 
L 1289.100112 721.074626 
L 1289.518247 836.205098 
L 1289.936381 757.302566 
L 1290.354515 792.172835 
L 1290.772649 685.478623 
L 1291.190783 758.865175 
L 1291.608917 735.479556 
L 1292.027051 678.506986 
L 1292.445185 478.389424 
L 1292.86332 731.029401 
L 1293.281454 506.362414 
L 1293.699588 747.438935 
L 1294.117722 594.481375 
L 1294.535856 799.636526 
L 1294.95399 203.258109 
L 1295.372124 786.017257 
L 1295.790259 647.636128 
L 1296.208393 839.873834 
L 1296.626527 902.687272 
L 1297.044661 875.859935 
L 1297.462795 748.696074 
L 1297.880929 733.334479 
L 1298.299063 491.570042 
L 1298.717197 794.434199 
L 1299.135332 904.845859 
L 1299.553466 850.733958 
L 1299.9716 870.738389 
L 1300.389734 898.343397 
L 1300.807868 830.583009 
L 1301.226002 823.960744 
L 1301.644136 834.597977 
L 1302.062271 824.762462 
L 1302.480405 872.402283 
L 1302.898539 864.374318 
L 1303.316673 862.154094 
L 1303.734807 833.283565 
L 1304.571075 825.089325 
L 1304.989209 904.546986 
L 1305.407344 899.806337 
L 1305.825478 899.648471 
L 1306.243612 791.061658 
L 1306.661746 904.634239 
L 1307.07988 827.96529 
L 1307.498014 853.805149 
L 1307.916148 857.853996 
L 1308.334283 880.03548 
L 1308.752417 754.616415 
L 1309.170551 736.433603 
L 1309.588685 780.876245 
L 1310.006819 903.771505 
L 1310.424953 787.987386 
L 1310.843087 727.078845 
L 1311.261221 861.703361 
L 1311.679356 881.053284 
L 1312.09749 832.426841 
L 1312.515624 896.976897 
L 1312.933758 789.874214 
L 1313.351892 736.334343 
L 1313.770026 754.313829 
L 1314.18816 778.771454 
L 1314.606294 740.757542 
L 1315.442563 899.873343 
L 1315.860697 842.219201 
L 1316.278831 847.962482 
L 1316.696965 878.711012 
L 1317.115099 889.965996 
L 1317.533233 905.590433 
L 1317.951368 879.318575 
L 1318.369502 873.909294 
L 1318.787636 903.170005 
L 1319.20577 893.776135 
L 1319.623904 796.025324 
L 1320.042038 825.71769 
L 1320.460172 823.81157 
L 1320.878306 725.026494 
L 1321.296441 832.147565 
L 1321.714575 833.645991 
L 1322.132709 738.009599 
L 1322.550843 764.287085 
L 1322.968977 837.115744 
L 1323.387111 876.86092 
L 1323.805245 846.355653 
L 1324.22338 904.032055 
L 1324.641514 834.131004 
L 1325.059648 899.893462 
L 1325.477782 899.330938 
L 1325.895916 869.487375 
L 1326.31405 900.485758 
L 1326.732184 822.593613 
L 1327.150318 901.07832 
L 1327.568453 799.738259 
L 1327.986587 788.594028 
L 1328.404721 725.043334 
L 1328.822855 830.310427 
L 1329.240989 834.646383 
L 1329.659123 872.773589 
L 1330.077257 852.190192 
L 1330.495392 789.997056 
L 1330.913526 828.544 
L 1331.33166 831.418973 
L 1331.749794 745.715041 
L 1332.167928 823.675783 
L 1332.586062 877.064049 
L 1333.004196 846.167843 
L 1333.42233 869.103375 
L 1333.840465 844.961534 
L 1334.258599 838.00303 
L 1334.676733 862.648705 
L 1335.094867 906.991058 
L 1335.513001 731.280965 
L 1335.931135 825.778452 
L 1336.349269 730.025263 
L 1336.767404 901.003565 
L 1337.185538 878.45294 
L 1337.603672 828.152028 
L 1338.021806 832.421559 
L 1338.43994 734.518314 
L 1338.858074 867.769254 
L 1339.276208 881.342924 
L 1339.694342 840.994468 
L 1340.112477 832.501651 
L 1340.948745 728.37768 
L 1341.366879 730.094419 
L 1341.785013 740.112922 
L 1342.203147 841.281089 
L 1342.621281 812.42243 
L 1343.039416 815.671485 
L 1343.45755 716.097608 
L 1343.875684 866.464506 
L 1344.293818 828.972297 
L 1344.711952 881.095701 
L 1345.130086 838.126168 
L 1345.54822 833.985878 
L 1345.966354 831.275631 
L 1346.384489 842.772571 
L 1346.802623 797.087497 
L 1347.220757 834.272452 
L 1347.638891 795.004389 
L 1348.057025 870.706637 
L 1348.475159 822.953847 
L 1348.893293 869.331873 
L 1349.311428 843.551141 
L 1349.729562 902.77134 
L 1350.147696 900.733501 
L 1350.56583 904.114184 
L 1350.983964 892.975484 
L 1351.402098 846.950766 
L 1351.820232 899.551466 
L 1352.238366 845.507665 
L 1352.656501 731.12035 
L 1353.074635 825.976283 
L 1353.492769 841.089409 
L 1353.910903 347.046438 
L 1354.329037 735.77215 
L 1354.747171 831.979685 
L 1355.165305 444.859378 
L 1355.583439 834.678307 
L 1356.001574 844.932333 
L 1356.419708 785.039837 
L 1356.837842 764.591625 
L 1357.255976 875.321613 
L 1357.67411 895.875874 
L 1358.092244 782.532778 
L 1358.510378 901.957944 
L 1358.928513 826.00035 
L 1359.346647 901.252655 
L 1359.764781 831.524312 
L 1360.182915 901.773909 
L 1360.601049 898.507779 
L 1361.019183 878.629394 
L 1361.855451 795.308501 
L 1362.273586 827.268999 
L 1362.69172 748.469213 
L 1363.109854 725.275014 
L 1363.527988 819.662124 
L 1363.946122 783.590363 
L 1364.364256 757.525265 
L 1365.200525 900.1422 
L 1365.618659 902.109564 
L 1366.036793 878.584852 
L 1366.454927 825.653278 
L 1366.873061 818.590423 
L 1367.291195 826.072976 
L 1367.709329 826.836308 
L 1368.127463 768.886151 
L 1369.381866 822.1831 
L 1369.8 732.3321 
L 1369.8 732.3321 
" style="fill:none;stroke:#1f77b4;stroke-linecap:square;stroke-width:1.5;"/>
   </g>
   <g id="patch_3">
    <path d="M 198 945 
L 198 129.6 
" style="fill:none;stroke:#000000;stroke-linecap:square;stroke-linejoin:miter;stroke-width:0.8;"/>
   </g>
   <g id="patch_4">
    <path d="M 1425.6 945 
L 1425.6 129.6 
" style="fill:none;stroke:#000000;stroke-linecap:square;stroke-linejoin:miter;stroke-width:0.8;"/>
   </g>
   <g id="patch_5">
    <path d="M 198 945 
L 1425.6 945 
" style="fill:none;stroke:#000000;stroke-linecap:square;stroke-linejoin:miter;stroke-width:0.8;"/>
   </g>
   <g id="patch_6">
    <path d="M 198 129.6 
L 1425.6 129.6 
" style="fill:none;stroke:#000000;stroke-linecap:square;stroke-linejoin:miter;stroke-width:0.8;"/>
   </g>
   <g id="text_18">
    <!-- RMS - TURBINA 2 -->
    <g transform="translate(760.2375 123.6)scale(0.12 -0.12)">
     <defs>
      <path d="M 4.890625 31.390625 
L 31.203125 31.390625 
L 31.203125 23.390625 
L 4.890625 23.390625 
z
" id="DejaVuSans-45"/>
      <path d="M 8.6875 72.90625 
L 18.609375 72.90625 
L 18.609375 28.609375 
Q 18.609375 16.890625 22.84375 11.734375 
Q 27.09375 6.59375 36.625 6.59375 
Q 46.09375 6.59375 50.34375 11.734375 
Q 54.59375 16.890625 54.59375 28.609375 
L 54.59375 72.90625 
L 64.5 72.90625 
L 64.5 27.390625 
Q 64.5 13.140625 57.4375 5.859375 
Q 50.390625 -1.421875 36.625 -1.421875 
Q 22.796875 -1.421875 15.734375 5.859375 
Q 8.6875 13.140625 8.6875 27.390625 
z
" id="DejaVuSans-85"/>
      <path d="M 19.671875 34.8125 
L 19.671875 8.109375 
L 35.5 8.109375 
Q 43.453125 8.109375 47.28125 11.40625 
Q 51.125 14.703125 51.125 21.484375 
Q 51.125 28.328125 47.28125 31.5625 
Q 43.453125 34.8125 35.5 34.8125 
z
M 19.671875 64.796875 
L 19.671875 42.828125 
L 34.28125 42.828125 
Q 41.5 42.828125 45.03125 45.53125 
Q 48.578125 48.25 48.578125 53.8125 
Q 48.578125 59.328125 45.03125 62.0625 
Q 41.5 64.796875 34.28125 64.796875 
z
M 9.8125 72.90625 
L 35.015625 72.90625 
Q 46.296875 72.90625 52.390625 68.21875 
Q 58.5 63.53125 58.5 54.890625 
Q 58.5 48.1875 55.375 44.234375 
Q 52.25 40.28125 46.1875 39.3125 
Q 53.46875 37.75 57.5 32.78125 
Q 61.53125 27.828125 61.53125 20.40625 
Q 61.53125 10.640625 54.890625 5.3125 
Q 48.25 0 35.984375 0 
L 9.8125 0 
z
" id="DejaVuSans-66"/>
      <path d="M 9.8125 72.90625 
L 19.671875 72.90625 
L 19.671875 0 
L 9.8125 0 
z
" id="DejaVuSans-73"/>
      <path d="M 9.8125 72.90625 
L 23.09375 72.90625 
L 55.421875 11.921875 
L 55.421875 72.90625 
L 64.984375 72.90625 
L 64.984375 0 
L 51.703125 0 
L 19.390625 60.984375 
L 19.390625 0 
L 9.8125 0 
z
" id="DejaVuSans-78"/>
     </defs>
     <use xlink:href="#DejaVuSans-82"/>
     <use x="69.482422" xlink:href="#DejaVuSans-77"/>
     <use x="155.761719" xlink:href="#DejaVuSans-83"/>
     <use x="219.238281" xlink:href="#DejaVuSans-32"/>
     <use x="251.025391" xlink:href="#DejaVuSans-45"/>
     <use x="287.109375" xlink:href="#DejaVuSans-32"/>
     <use x="318.896484" xlink:href="#DejaVuSans-84"/>
     <use x="379.980469" xlink:href="#DejaVuSans-85"/>
     <use x="453.173828" xlink:href="#DejaVuSans-82"/>
     <use x="522.65625" xlink:href="#DejaVuSans-66"/>
     <use x="591.259766" xlink:href="#DejaVuSans-73"/>
     <use x="620.751953" xlink:href="#DejaVuSans-78"/>
     <use x="695.556641" xlink:href="#DejaVuSans-65"/>
     <use x="763.964844" xlink:href="#DejaVuSans-32"/>
     <use x="795.751953" xlink:href="#DejaVuSans-50"/>
    </g>
   </g>
  </g>
 </g>
 <defs>
  <clipPath id="p820c501422">
   <rect height="815.4" width="1227.6" x="198" y="129.6"/>
  </clipPath>
 </defs>
</svg>
